<?xml version="1.0" encoding="UTF-8"?>
<svg id="uuid-76c1c644-100e-4cb2-9bb6-bd20710d9d18" data-name="Layer 2" xmlns="http://www.w3.org/2000/svg" width="12.5" height="12.1" viewBox="0 0 12.5 12.1">
  <defs>
    <style>
      .uuid-42c7f1eb-0784-4a79-9f0c-f8793ccd8d33 {
        fill: #fff;
      }
    </style>
  </defs>
  <g id="uuid-a5c8ceb6-1e63-4bfc-8fd9-3e4f7060b0ba" data-name="Capa 1">
    <g>
      <path class="uuid-42c7f1eb-0784-4a79-9f0c-f8793ccd8d33" d="M4.4,10.1H2.3v-2.4c0-.5,.2-.8,.6-.9h1.4c1,0,1.6,.6,1.6,1.6s-.6,1.7-1.6,1.7h0ZM2.3,3.5v-.6c0-.6,.2-.8,.8-.9h1c.9,0,1.4,.5,1.4,1.4s-.4,1.5-1.4,1.5h-1.8v-1.4Zm4.6,2.4l-.4-.2,.3-.3c.4-.3,1-1,1-2.3C7.9,1.2,6.5,0,4.2,0H1.2C.6,0,0,.6,0,1.3V12.1H4.2c2.6,0,4.2-1.4,4.2-3.5s-.5-2.2-1.4-2.7"/>
      <path class="uuid-42c7f1eb-0784-4a79-9f0c-f8793ccd8d33" d="M9.5,10.6c0-.8,.7-1.5,1.5-1.5s1.5,.7,1.5,1.5-.7,1.5-1.5,1.5-1.5-.7-1.5-1.5"/>
    </g>
  </g>
</svg>