<?xml version="1.0" encoding="UTF-8"?>
<svg id="uuid-261e559d-277d-406e-84ed-d2c316af5f55" data-name="Layer 2" xmlns="http://www.w3.org/2000/svg" width="225.3" height="113" viewBox="0 0 225.3 113">
  <defs>
    <style>
      .uuid-9f60cefe-a4a0-4293-b833-46bb62fdf2ae {
        fill: #fff;
      }
    </style>
  </defs>
  <g id="uuid-6971cd51-cdda-4887-9a14-9916724d5755" data-name="Capa 1">
    <g>
      <g>
        <path class="uuid-9f60cefe-a4a0-4293-b833-46bb62fdf2ae" d="M67.5,86.9c0,0-.2,0-.3,0l-.5,.4-.8,.5-.6,.3-.2,.2h-.6v-.4l.2-.5c.3-1.2,1.1-2.2,1.7-3.4,0-.2-.1-.3-.3-.3h-.2c-.8,.3-1.7,.9-2.4,1.4l-.5,.3-1.3,.8-.2,.2-.8,.6s0,0-.1,.1h0c0,0,0,0,0,.1l-1.5,.8c-.8,.5-1,.6-1.6,.6s-.8-.3-.8-.8v-.5l.2-.5c.2-.7,.9-1.7,1.7-1.7s.3,.2,.3,.4,0,.2,0,.3l-.2,.4v.2c.7,0,.8-.7,1.1-1.2,0-.6-.3-.7-.7-.8-.5,0-1.2,.5-1.8,1-.9,.8-2,1.6-2,2.9h0c0,.4,0,.7,.3,1,0,.6,0,1.2-.2,1.6-.7,2.4-1.8,3.9-3.6,5.3-.6,.5-1.3,.7-2.1,.9-.2,0-.5,.2-.7,.2-1.6,.5-3.7,.4-5.1-.2-1-.4-1.9-.9-2.7-1.8-2.4-3-1.7-10.1-.4-14,1.4-.3,3.3,.2,5,0,.3,0,.5,0,.8,0,.7-.2,1.4-.2,2.1-.3h1c.5-.2,.9,0,1.4-.2,2.4-.8,4.3-1.3,6.1-2.5,.3-.2,.5-.3,.8-.5,1.3-1.3,2.7-2.5,3.6-4.1,.4-.6,.7-1.3,.9-2,.5-1.7,0-2.9-.9-3.7-1.2-1.1-3.2-1.5-5-1.5-.3,.2-.8,0-1.2,0-1.3,.3-2.9,.5-3.9,1-.6,.2-1.2,.5-1.7,.7-3.7,1.8-6.2,4.1-8.5,8-.4,.7-1,1.5-1.2,2.4-1.3-.1-2.5-.2-3.8-.3h0c1.1-3,1.4-6,1.9-9.2-1.9,1-3.9,1.7-5.7,2.5,.2,.2,.1,.4,.2,.6,.6,0,1.8-.8,2.3-.4,.8,.6-.5,5.4-.9,6.3-.3,0-1.5-.1-1.8-.2,0,0-.2,0-.3,.1-.3,0-.6-.2-.8-.2-.1,0-.2,0-.3,.1-1.3-.2-2.5-.3-3.7-.6-.5,.2-3.2-.4-3.4-.6-.2,.3-.7,1.9-.8,2.4,.4,0,.9,.3,1.3,.4,2.4,.7,3.2,3.1,2.8,6,0,.6,0,1.1-.2,1.6,0,0,0,0,0,0-.6-.8-1.2-1.6-1.8-2.4-1.6-1.7-3.2-3.5-5.2-4.7l-1.2-.9c-.3-.2-.7-.3-1-.5-.9-.4-1.7-1-2.6-1.3-.8-.3-1.5-.2-2.1-.5-.1,.2-1.6-.3-2-.2-1.3,.2-3,.1-4,.7-1,.5-2.2,1.1-3,1.7-.3,.3-.7,.8-1,1.1-1.5,1.6-2.5,4.2-2.6,6.9v1.3c0,1.1,.2,2.2,.6,3.2,1,2.9,3.3,5,5.4,6.3,.3,.2,.5,.5,.8,.6,.7,.2,1.2,.3,1.7,.7,0,0,.8,0,.9,.1,.3,.2,3,.7,3.7,.5,.8,0,1.6-.1,2.4-.2,.5-.2,1.2-.3,1.7-.5,.2,0,.4-.1,.7-.2,.2,0,.3-.2,.6-.3,1.5-.6,3.2-1.1,4.3-2.1,0,.2,.9-.5,1.1-.6,1.1-.7,2-1.8,3-2.5,1.1-.8,2.1-2.2,3-3.4,.7-1,1.7-1.8,2.3-2.9,.7-1.1,1.2-2.4,1.9-3.7,.4-.8,1.1-2,1.2-2.9,1.2,.3,2.5,.2,3.7,.3-1.7,5-3.5,12.8,1,16.9,.6,.5,1.8,1.4,2.5,1.5,2.9,.5,5.2,.4,7.1-.4,1.8-.7,3.3-2,4.5-4,1.1-1.8,2.7-3.3,2.1-5.4h.2c1.2-.1,1.3-.2,2.3-.8l.8-.5,1-.7h.2l.8-.6h0l.6-.4,.7-.3,.5-.2h.5v.4c-.6,1.2-1.1,1.9-1.3,3.2v.2h.5c.9,0,1.5-.5,2.3-1l1-.7,.5-.3c.3-.2,1-.7,1-.9s0,0-.2,0Zm-19.9-16.4c.6-.3,1.3-.7,2-1.1,.2-.1,.5-.3,.6-.4h.3c.5-.2,1-.4,1.5-.6,.6,0,1.2-.2,1.7-.2,.5-.2,1.3,.1,1.8-.1l2.2,.3c1,.3,1.8,1.1,2.5,1.7,0,0,.1,.2,.1,.2,.5,.8,.6,2.1,.3,3.1-.4,1.4-1.5,2.8-2.7,3.4-.7,.4-2,1.2-3,1.4-.5,.1-1,.3-1.3,.3-.3,0-.7,.1-1,.2-.3,0-.7,.2-1,.2-.7,0-1.2,.2-1.9,.2,0,0-.1,0-.2,0-.4,0-.8,0-1.2,.1-.6,0-1.2,0-1.8,0-.5,0-.9,0-1.4,0-1-.2-2.9-.3-3.6-.2,1-2.8,3.7-7.1,6-8.6Zm-14.4,10.1c-2,5.7-4.6,11.2-9.2,14.5,0,0,0,0,0,0-.4,.3-.9,.5-1.3,.8-.7,.4-2.1,1.2-3,1.3-.5,.1-1.1,.2-1.7,.3-.3,0-.5,.2-.8,.2-1.5,.3-3.7,.2-5.1,0-1.8-.3-3.3-.9-4.7-1.4-.3-.2-.6-.5-1-.7-1.4-.9-3-2.3-3.8-3.9-.2-.4-.2-.8-.4-1.2-.4-.8-.8-1.9-.8-2.9,0-.4,0-.8-.1-1.2,0-.7,0-1.5,.2-2.1v-.7c.2-.3,.3-.8,.5-1.2,.2-.5,.6-1,.9-1.4,.7-1.2,2.7-2.2,4.2-2.7,.7-.3,1.6,0,2.3-.3,2.8,.3,5.5,1.5,7.9,3.2,2.6,1.8,4.8,4.1,6.3,6.1l.5,.3c.6,.9,1.2,1.7,1.8,2.5,.3,.3,.5,.6,.8,.9,.1-.8,.4-1.8,.6-2.9,0-.2,.1-.3,.2-.5,0-.7,.3-1.7,.3-2.5,.2-2.4-.4-4.2-1.5-5.5,.3-.1,.8,.1,1.1,.2,.3,.1,.8,0,1.2,0,1.2,.2,3.4,.7,4.7,.5h0Z"/>
        <path class="uuid-9f60cefe-a4a0-4293-b833-46bb62fdf2ae" d="M225.1,86.9c0,0-.2,0-.4,.2-.4,.3-.5,.4-.6,.5,0,0-.2,0-.7,.3h-.1c0-.2,0-.4,0-.5,0-.6-.3-1-.7-1.5l.2-.2c.6-.6,.8-.6,1.5-.8v-.2c0-.2,0-.2-.3-.2h-.3c-1,.4-1.7,.5-2.3,1.3-.3,.1-.5,.2-.6,.2-.5,.2-.3,.2-1.3,.7-.2,.1-.4,.3-.6,.4-.1,0-.2,0-.3,.2l-1,.2-.3-.2c.2-.5,.3-.8,.3-1.2,0-.5-.2-.8-.6-1.1-.1,0-.3-.1-.5-.1-.5,0-1,.2-1.3,.7h-.8c-1.5,.2-2.6,.9-3.7,1.8-.2,0-.3,.2-.5,.3-1.3,.8-1.6,1-1.8,1.1-.1,0-.2,0-.5,0,0,0-.1-.2-.1-.3,0-.4,.4-.9,.7-1.2,.2-.4,.5-1.1,.5-1.6s0-.5-.2-.7c-1.1,0-2.3,.8-3.1,1.5l-1.4,1.2h0l.2-.6c0-.3,.5-1.1,.5-1.7s-.1-.5-.6-.5c-1.3,.4-2.4,1-3.5,1.8l-.7,.5h0s0,0-.1,0l-.5,.4-.8,.5-.6,.3-.2,.2h-.6v-.4l.2-.5c.3-1.2,1.1-2.2,1.7-3.4,0-.2,0-.3-.2-.3h-.2c-.5,.2-1,.5-1.5,.8-.3,.2-.6,.4-.9,.6l-.6,.3-1.3,.8-.9,.7c-.2,0-.5,.2-.5,.3l-.7,.5c-1.5,.8-.8,.5-1.9,.9h-.1c-.3,0-.3,0-.3-.5,.2-1.7,.9-3,1.9-4.4,1.8-1.8,3.7-3.5,5.4-5.4,0-.2,.2-.3,.3-.4,.9-1.1,1.8-2.2,2.6-3.3,.3-.3,.6-.7,.9-1.1,.6-1.2,1.7-2.2,1.7-3.6,.5-.6,.7-.7,.7-.8,0-1-.4-1-1.1-1.1-1.3,.2-1.5,.3-2.2,.8-.2,.1-.3,.3-.5,.4-.8,.6-1.6,1.5-2.4,2.4-2.5,2.9-4.8,7.1-6.4,10.1l-1.4,2.5v.2l-1.8,1.3-.7,.5c-.3,.2-.5,.3-.7,.5-.1,0-.2,0-.3,.2l-1,.2-.3-.2c.2-.5,.3-.8,.3-1.2,0-.5-.2-.8-.5-1.1-.2,0-.3-.1-.5-.1-.5,0-1,.2-1.3,.7h-.8c-1.6,.2-2.8,1.1-4,2.1,0,0,0,.1,0,.2h0c.2,.1,.7-.3,1-.5,.5-.2,.6-.3,.7-.3s.2,0,.3,.1v.3c-.6,.7-.4,.3-.6,1.1-.2,.3-.2,.6-.2,.8,0,.6,.4,.7,1.1,1,.5,0,.7,0,.8,0s.1,0,.4-.3c.5,0,.3,0,.6-.3h0c.8-.4,.4-.1,1.3-1l.6-.5c.4,0,.6,.2,.8,.2s.4-.1,.9-.3c0,0,.2-.1,.2-.2,.3-.1,.8-.6,1-.7l.8-.4c.2,0,.4-.2,.6-.2s.4,.1,.4,.4l-.4,1.3c0,.4-.2,.8-.2,1.2h0c0,.2,0,.5,0,.5,.2,.2,.4,.3,.7,.3,1,0,2.9-1,4.2-2.1,.1-.1,.3-.2,.4-.3h0l.8-.5,.6-.4,.7-.3,.5-.2h.5v.4c-.6,1.2-1.1,1.9-1.3,3.2v.2h.5c.6,0,1-.2,1.5-.5,.2-.2,.5-.3,.7-.5l1-.7,.4-.3c.2,0,.4-.3,.6-.5,0,0,0,0,.1,0,.1,0,.2-.1,.3-.2l1.2-.8c.5-.3,.9-.5,1.2-.5s.3,.1,.3,.3,0,.3-.2,.7l-1.3,2.6v.3h0c.8,0,2-1.3,2.6-1.8l2.1-1.8c.2-.1,.5-.4,.7-.4s.2,.1,.2,.3l-1,2.1c0,.3-.2,.6-.2,.8s0,.4,.3,.6c1.4,0,2.5-.9,3.9-1.9,.2-.2,.4-.3,.6-.5,.2-.1,.4-.2,.5-.3,.5-.2,.6-.3,.7-.3,.1,0,.2,0,.3,.1v.3c-.6,.7-.4,.3-.6,1.1-.2,.3-.2,.6-.2,.8,0,.6,.4,.7,1.1,1,.5,0,.7,0,.8,0s.2,0,.4-.3c.5,0,.3,0,.6-.3h0c.8-.4,.4-.1,1.3-1l.6-.5c.4,0,.5,.2,.8,.2s.4-.1,.9-.3c.2-.1,.4-.2,.5-.4,.7-.4,1.3-.6,2-.9,0,0,.2,0,.3,0,.1,.6,0,.4,.4,1.2,0,.4,.1,.5,.1,.7s0,.3-.1,.5l-.7,.4-1.2,.7c-.3,.3-.9,.7-.9,1.2s.2,.4,.5,.5c1,0,1.3-.1,1.7-.3,.2-.2,.5-.4,1-.8l.5-.6,.3-.3,.2-.4,.4-.7c1.2-.9,.6-.5,1.9-1.3,.1-.2,.2-.2,.2-.2,0,0-.1-.2-.2-.2Zm-32.2-5.9l1.4-2.6,1-1.7,1.9-3h0c.5-.9,1.8-2.5,2.9-3.5,.6-.5,1.2-.9,1.7-1,.3,0,.3,0,.4,.5,0,1,0,.2-.6,2.2-.5,.6-1,1.3-1.5,2-.6,.8-1.2,1.6-1.8,2.4-.4,.5-.8,1-1.1,1.4-1.6,1.9-2.8,3-3.5,3.7l-1.5,1.4c0,0,0-.2,0-.3,0-.3,.2-.8,.6-1.5Zm-9.6,6.7c-.7,.7-.9,1-1.3,1.1-.1,0-.2,0-.3,0-.2,0-.5,0-.9-.2v-.4c.1-1.2,.5-1.5,1.2-2.2h0c.2-.2,.2-.3,.3-.3s.2,0,.3,.1c.3,.9-.1,.6,.8,1.4v.5Zm32.6,0c-.7,.7-.9,1-1.3,1.1,0,0-.2,0-.3,0-.2,0-.5,0-.9-.2v-.4c.1-1.2,.5-1.5,1.2-2.2,.2-.2,.2-.3,.3-.3s.2,0,.3,.1c.3,.9-.1,.6,.8,1.4v.5Zm5.4,2.7c0,.2-.3,.3-.6,.5-.2,.1-.4,.2-.5,.2s-.3,0-.3-.4,.2-.4,.4-.5c.2-.3,.2-.3,.5-.4h0c.1,0,.3-.2,.6-.2s.2,.1,.2,.3,0,.2-.3,.6Z"/>
        <path class="uuid-9f60cefe-a4a0-4293-b833-46bb62fdf2ae" d="M50.2,89c0,.2,0,.4,.3,.7l.4,.2c.4-.2,.5-.2,.6-.2,.1,0,.2-.1,.6-.3,1-.7,.4-.3,1.6-1.2l.5-.3,.7-.5c.1-.2,.2-.3,.2-.4s0,0,0,0c-.2,0-.7,.3-.9,.5-.9,.5-.4,.4-1.2,.8-.4,.2-.5,.3-.7,.3s-.2-.3-.2-.3c0-.5,.5-1.3,.7-1.6,.1-.2,.2-.5,.2-.7,0-.3-.1-.3-.3-.5-.4,0-.7,0-.7,0-.1-.3-.3-.8-.9-.8s-.9,.2-.9,.6c0,1,1.2,.7,1.2,1.2s-1.1,1.4-1.3,1.6h-.1c-.5,.6-1,.7-1.4,.7-.4-.3-.3-.2-.3-.8,.3-1.3,1.4-1.8,1.7-2.2,0,0,0-.1,0-.2,0-.1,0-.2,0-.3,0-.2-.3-.2-.4-.2-1.2,0-2.4,.7-3.5,1.5-.5,.3-1.4,.8-1.4,1s.1,.1,.3,.1l.9-.5,.8-.4,.5-.2c.1,0,.3,0,.3,.2,0,.8-.7,1.6-.7,2.4s.3,.8,.9,.9l.8-.4c.9-.5,1.3-.8,1.7-1.2,.3-.2,.5-.3,.8-.6h.2c-.3,.9-.4,.8-.4,1.2Z"/>
        <path class="uuid-9f60cefe-a4a0-4293-b833-46bb62fdf2ae" d="M176.4,97.2c-.8-.5,.3-4.1,.2-5.2,0-.2,.1-.3,.2-.5v-1c.3-1,.6-2.3,.7-3.4,.5-3,1.2-6,2.2-8.6,.3-.6,.8-1.2,1.2-1.8,.2-.4,.5-1.1,1-1.5,0,0,.2-.1,.2-.2,1.2-1.1,3.2-2.8,5.1-1.7,.8,.5,.5,1.3,.3,2.1,.2,.1,.5,0,.8,.1,.4-1.3,.7-2.3,1-3.6,.2-.8,.6-1.5,.6-2-.8-.3-2.8,.5-3.3,.8-.3-.2-2.1,1.1-2.4,1.3-.8,.6-1.4,1.2-2,1.8-.8,.8-1.5,1.7-2.3,2.7-.3,.5-.9,.9-1.1,1.5,0,0,0,0-.2,0-.2,.2-.3,.5-.4,.8-.5,.7-.9,1.1-1.4,1.8-1.3,1.8-2.7,3.4-4,5-.4,.5-1.6,2.5-2.1,2.6,0,.6-.6,.9-.9,1.4-.5,.6-1,1.2-1.5,1.8-.4,.5-.8,1.1-1.2,1.7-.6,.5-1.1,1.2-1.5,1.9h0c-.3-.4,0-.9-.2-1.4-.3-1.3-.4-2.4-.6-3.6-.2-1.1-.4-2-.7-2.9-.2-.8-.4-1.5-.6-2.4-.2-.6-.3-1.3-.5-1.9,.2-.6,.8-1.3,1-1.6h0c0-.2,.2-.5,.2-.7,.2-.4,.5-.8,.8-1.2,.4-.8,.6-1.5,1-2.3,0-.2,.2-.3,.3-.5,0,0,.4-1.6,.5-1.7,0-.1,0,0,.2,0,.3-1.6,.8-4.6-.6-5.5-.3-.2-.7,0-1-.1-.5,.2-.9,.5-1.3,.9-2.8,2.8-4.1,10.3-3,14.5-.8,1-1.5,2.1-2.3,3.2-.4,.6-1,1-1.5,1.6-2.2,2.9-6,6-9.5,7.2-.7,.2-1.2,.5-1.9,.7-.6,.2-1.1,0-1.7,.2-.4,.1-.7,.3-1.1,.2-.3,0-1.7,.2-1.8,.2-.8-.4-2.4-.2-3.4-.6-.3-.1-2-.8-2.1-.8-.6,0-3.6-2.3-4-3-.5-.8-1-1.8-1.5-2.6,0-.1,0-.2,0-.4-.2-.7-.4-1.1-.5-1.8,0-.3,0-.7,0-1v-.7c0-.7,0-1.3,0-2,.4-1.5,.6-2.5,1.4-3.7,.3-.5,.7-.8,1.1-1.1,2.3-1.9,4.5-2.7,8.1-2,.6,.1,1.4,.2,1.9,.4,.6,.3,1.3,.5,1.9,.8,.2,.1,.3,.4,.5,.4,.1,0,.4,0,.6,.2,.4,.3,.8,.6,1.2,.9,1,.5,1.6,1,2.4,1.7l.6,.3c.5,.6,1.2,1.1,1.8,1.6,0,0,0,.1,.1,.2,.5,.4,.9,1,1.4,1.3,.7-.6,1.8-.7,2.3-1.4,.4-.1,1.3-.6,1.8-.8,.3-.2,.5-.5,1-.6,0,0,0-.1,.2-.2-.2-.2-.3-.3-.4-.6-.5,.5-2.7,1.5-3.4,1.1-2-1.2-3.7-2.7-5.3-4.1-.4-.3-.8-.4-1.1-.6-.3-.3-.7-.5-1-.8-.8-.5-1.5-.7-2.4-1.1-1.3-.6-3-.4-4.4-.6-.5,0-1,.2-1.3,0v.2c-.3-.1-1.3,0-1.7,.3-.4,0-.8,.2-1.3,.3-.8,.4-1.7,.6-2.4,1.1-.2,.2-.4,.4-.6,.6-3.1,2.3-5.2,6.5-4,11.6,.3,1.5,.6,2.2,1.2,3.3,0,.2,.1,.3,.2,.5,.3,.4,.8,.9,1.1,1.3,.5,.6,1,1.4,1.7,1.8,2,1.2,3.5,1.9,5.9,2.5,.8,0,1.7,.2,2.6,.2,.2,0,.6-.2,.8-.2,3.6,0,7.3-2.2,9.5-4,.3-.2,.5-.3,.8-.5,.7-.4,1.2-1.1,1.8-1.6,.2-.2,.4-.3,.7-.5,.4-.5,.8-.8,1.2-1.2,.8-1,1.7-2,2.6-3.1,.3-.4,.7-.7,1-1.1,.5-.7,1-1.5,1.5-2.2,0,0,0,0,0,0,0,0,.7,2.5,.7,2.9,.2,.7,.3,1.4,.5,2.1,.4,2,1.3,7,0,8.6,0,0,0,0,0,.1,.2,.1,.3,.2,.5,.3,0,0,0,0,0,0,.4-.5,.8-1,1.2-1.5,1.3-1.7,2.7-3.5,4.2-5.4,.3-.4,.7-1,1-1.5,.2-.4,.8-1,1.2-1.4,0,0,.2-.3,.2-.4,.8-.8,1.3-1.8,2.1-2.7,.3-.4,.5-.8,.8-1.2,.2-.3,.5-.5,.7-.8,.5-.8,1-1.5,1.7-2.2t0,0c-.2,.5-.2,.8-.3,1.3h-.2c-.1,.5,0,.9-.2,1.6-.8,3-1.3,6.8-1.9,10,0,.2,0,.3,0,.5-.1,1-.3,2.1-.4,2.9,0,.4,0,.8,0,1.2,.6-.3,1.1-.5,1.7-.8,.7-.2,4.1-1.4,4.4-1.9l-.2-.5c-.6-.1-1.8,1-2.7,.3Zm-12.5-25.5h.3l.4-.3c1.5,0,1,1.7,1.1,3,0,.5-.3,1.1-.4,1.6,0,.2,0,.3,0,.5-.2,.3-.3,.6-.4,.9,0,.2,0,.3,0,.5-.1,.2-.2,.4-.3,.6,0,0,0,.1,0,.2l-.3,.7-1.2,2.3c-.7-2.6-.3-8.3,.9-9.8Z"/>
        <path class="uuid-9f60cefe-a4a0-4293-b833-46bb62fdf2ae" d="M200.3,80.9c.2,0,.3,0,.5,0s.4,0,.6-.2v-.4l-1.1-1.8h-.6c-.6,.5-.5,.2-.5,.6h0c0,.7,.5,1.4,1.1,1.7Z"/>
        <path class="uuid-9f60cefe-a4a0-4293-b833-46bb62fdf2ae" d="M103.3,86.9c-.2,0-.7,.3-1,.5-.8,.5-.4,.4-1.2,.8-.4,.2-.5,.3-.7,.3s-.2-.3-.2-.3c0-.5,.5-1.3,.7-1.6,.1-.2,.2-.5,.2-.7,0-.3-.1-.3-.3-.5-.5,0-.7,0-.7,0-.1-.3-.3-.8-.9-.8s-1,.2-1,.6c0,1,1.2,.7,1.2,1.2s-1.1,1.4-1.3,1.6c-.5,.5-1,.7-1.4,.7h-.1c-.4-.3-.3-.2-.4-.8,.1-.4,.3-.7,.5-1,.6-.8,1.3-1.1,1.3-1.4s-.3-.5-.5-.5-.5,0-.8,.1c-.9,.2-1.8,.8-2.7,1.3-.5,.3-1.4,.8-1.4,1s0,.1,.2,.1l.9-.5,.8-.4,.5-.2c.1,0,.3,0,.3,.2,0,.8-.7,1.6-.7,2.4s.2,.8,.8,.9l.8-.4c.2-.1,.3-.2,.5-.3,1-.6,1.3-.8,2.1-1.5h.2c-.3,.9-.4,.8-.4,1.2s0,.4,.2,.7l.4,.2c.4-.2,.5-.2,.6-.2,.1,0,.2-.1,.5-.3,1-.7,.5-.3,1.7-1.2l.4-.3,.7-.5c.2-.2,.2-.3,.2-.4s0,0,0,0Z"/>
        <path class="uuid-9f60cefe-a4a0-4293-b833-46bb62fdf2ae" d="M66.3,79.2c0,.8,.8,1.7,1.7,1.7s.4,0,.6-.2v-.4l-1-1.8h-.6c-.6,.5-.6,.2-.6,.6h0Z"/>
        <path class="uuid-9f60cefe-a4a0-4293-b833-46bb62fdf2ae" d="M95.3,80.7v-.7l.2-.6,.4-2.2c.1-1.6,.3-2,.9-3.2,0-.1,.2-.3,.2-.5,1.5-1.7,2.4-2.2,3.6-2.4l.3-.3h0l-.2-.2c-.8,0-1.8,.5-3,1.5-.3,.3-.6,.5-.9,.7-1.1,.9-1.5,1.3-2.4,2.8-.8,2-.4,1-.9,3.2l-.2,.7-.5,2.5c-.8,3.9-1.8,5.2-3.8,6.5h-1l.4-1.6,.4-.6c.5-.3,1.1-.7,1.1-1s-.2-.4-.9-.6c-1.1,.2-1.5,.5-2.4,1.1l-.9,.5c-.1,0-.6,.3-.9,.6,0,0-.1,0-.2,.1,0,0,.1,0,.2,0,.2-.1,.3-.2,.3-.2h.1c0,.1,0,.2-.2,.4,.9-.5,1.1-.6,1.8-.8,.2,.2,.3,.4,.3,.6,0,.4-.3,.8-.5,1.4-.2,.3-.2,.5-.2,.7,0,.4,.2,.6,.3,.6,1.6,0,3-1,4.3-2,1.8-2.1,2.9-4.1,3.9-6.5l.2-.6Z"/>
        <path class="uuid-9f60cefe-a4a0-4293-b833-46bb62fdf2ae" d="M122.5,87.4c-1.3,.8-1.8,1.2-2.4,1.3-.3,0-.6,.1-1,.2l-.3-.2c-.2-.3,.2-.6,.4-.7l.7-.6c0,0,.2-.1,.2-.2,1.1-.9,1.5-1.6,1.5-2.9-.5-.6-1.1,0-1.5,.3-1.5,.9-2.8,2.2-3.3,4,0,.8,0,1.1,.8,1.3,1,0,1.8-.2,2.5-.6,.6-.3,1.2-.7,1.9-1.2l.5-.4c.5-.3,.9-.7,.9-.8h0c0,0-.3,0-.8,.4Zm-4,.6h0v-.7c.1-.5,.4-1,.8-1.3,.3-.3,.6-.4,.8-.5,0,0,.1,0,.2,0,.3,0,.4,.2,.2,.5-.2,.2-.3,.4-.4,.5-.5,.5-.9,1-1.5,1.4h0Z"/>
        <path class="uuid-9f60cefe-a4a0-4293-b833-46bb62fdf2ae" d="M121.1,72.2c-.4,.3-.7,.5-1,.7-1.1,.8-1.4,1.3-2.3,2.7-.8,2-.3,1-.9,3.2l-.2,.7-.5,2.5c-.8,3.9-1.8,5.2-3.9,6.5h-1l.4-1.6,.3-.6c.6-.3,1.2-.7,1.2-1s-.3-.4-.9-.6c-1.1,.2-1.5,.5-2.4,1.1l-.9,.5c-.2,.1-1.3,.8-1.3,1s0,0,.2,0c1.3-.7,1.4-.8,2.2-1,.2,.2,.3,.4,.3,.6,0,.4-.3,.8-.5,1.4-.1,.3-.1,.5-.1,.7,0,.4,.2,.6,.3,.6,1.6,0,3-1,4.3-2,1.8-2.1,2.9-4.1,3.9-6.5l.3-.6v-.7l.2-.6,.4-2.2c.1-1.5,.3-2,.9-3,0-.2,.2-.4,.3-.6,1.5-1.7,2.4-2.2,3.5-2.4l.3-.3h0l-.2-.2c-.8,0-1.7,.5-3,1.5Z"/>
        <path class="uuid-9f60cefe-a4a0-4293-b833-46bb62fdf2ae" d="M73.6,87.5s0,0,0-.2h.2c0,0-.2,0-.3,0-1.7,1.1-2,1.3-3,1.4-.1,0-.2,0-.4,0l-.4-.2c-.2-.3,.2-.6,.4-.7l.3-.3,.4-.3c1.3-.9,1.8-1.7,1.8-3-.5-.6-1.1,0-1.6,.3-.2,.1-.4,.3-.6,.4-1.2,.9-2.3,2-2.7,3.6,0,.8,0,1.1,.8,1.3,.7,0,1.3-.2,1.9-.3,.9-.3,1.7-.8,2.5-1.5l.5-.4,.5-.3c-.2,0-.3,0-.3,0s0,0,0,0Zm-4,.5h0v-.7c.1-.5,.4-1,.8-1.3,0,0,.2-.1,.2-.2,.3-.2,.6-.3,.8-.3,.3,0,.4,.2,.2,.5-.3,.5-.7,.8-1,1.2s-.5,.5-.9,.8h0Z"/>
        <path class="uuid-9f60cefe-a4a0-4293-b833-46bb62fdf2ae" d="M84.6,87.6c-.2,0-.2,0-.2,0,0,0,.1-.2,.3-.3,0,0-.2,.1-.3,.2-1.3,.8-1.6,1-1.8,1.1-.2,0-.3,0-.5,0,0,0-.1-.2-.1-.3,0-.4,.4-.9,.7-1.2,.2-.4,.5-1.1,.5-1.6s0-.5-.2-.7c-1.1,0-2.2,.8-3.1,1.5l-1.4,1.2h0l.2-.6c0-.3,.5-1.1,.5-1.7s-.2-.5-.6-.5c-1.3,.4-2.4,1-3.5,1.8l-.8,.7h-.2c0,0,.1,0,.2,0,.2-.1,.3-.2,.4-.2h0c0,.1-.2,.3-.4,.5,.1,0,.3-.1,.5-.2l1.2-.8c.4-.3,.9-.5,1.2-.5s.3,.1,.3,.3,0,.3-.2,.7l-1.3,2.6v.3h0c.8,0,2-1.3,2.6-1.8l2.1-1.8c.2-.1,.4-.4,.7-.4s.2,.1,.2,.3l-1,2.1c-.1,.3-.2,.6-.2,.8s0,.4,.4,.6c1.4,0,2.5-.9,3.8-1.9,.2-.1,.3-.2,.4-.3,0,0,.2-.2,.2-.2,0,0-.2,0-.2,.1h-.2Z"/>
      </g>
      <path class="uuid-9f60cefe-a4a0-4293-b833-46bb62fdf2ae" d="M161.1,21.4c-.4-1.3-1.2-2.3-2.3-3-1-.7-2.4-1.2-3.8-1.5-3.9-.7-8.9,0-12.1,1.1-4.3,1.4-8.4,3.4-11.8,5.4-2.9,1.7-5.3,3.2-6.9,4.3-.6-.1-1.1-.5-1.5-.8-.5-.5-.7-1.1-.6-1.6,0-.5,.3-1,.8-1.5,.7-.7,1.6-1.4,2.5-2,.6-.4,1.3-.6,1.7-1.3,.2-.4,.2-.8-.7-.7-2.2,.2-3.7,0-4.8-.3-.7-.2-1.2-.5-1.5-.9-.3-.4-.5-.8-.5-1.2,0-.5,0-.9,.2-1.3,.3-1-1.2-.6-1.7-.5-.6,.2-1.3,.4-2,.7-2.2,1-4,2.7-6.4,3.5-.2,0-.5,.2-.8,.2-.8,.2-1.6,.2-2.4-.2,1-.7,1.9-1.4,2.7-2.1l10-7.7c2.4,.8,4.8,1.5,7.1,2,1.6,.3,3.1,.4,4.8,.3,1.2,0,2.4-.2,3.6-.4,5.7-1.1,8.5-3,9.4-4.9,.3-.8,.3-1.7,0-2.5-.3-.8-1-1.6-1.8-2.2-2.2-1.6-6.2-2.2-11.1-.7-.7,.2-1.4,.5-2.1,.8-4,1.7-7.1,3.9-7.6,4.2,0,0,0,0-.1,0l-.8,.7c-1.8-.7-3.5-1.5-5.3-2.4-3.2-1.5-6.4-3-9.7-3.9-.7-.2-1.4-.3-2.2-.5-.7-.2-1.5-.2-2.2-.3-1.1,0-2.1,0-3.2,0-4.2,.3-7.8,2.1-9.4,6.5-.1,.3,2.4,.3,2.7-.6,1.2-3.2,3.7-4.2,6.7-4.1,4.6,.2,10.2,3.2,13.1,4.5,2.2,1,4.4,2,6.6,2.8l-12.2,9.4s0,0-.1,0c-.1,0-.2,.2-.3,.3-2.4-1-4.7-1.9-7.1-2.7-3-1-6.2-1.7-9.7-2.1-1-.1-2.1-.2-3.2-.3-.9,0-1.8,0-2.7,0-2.1,0-4.2,.3-6.4,.9-4.3,1.2-8,3.5-10.1,6.1-1,1.3-1.7,2.7-2,4.2-.3,1.4,0,2.8,.7,4.1,.7,1.2,2.1,2.4,4.1,3.2,4.3,1.8,9.1,1.3,13.9-.1,.8-.3,1.6-.5,2.4-.8,4.4-1.6,8.3-3.8,11.7-5.7,.4-.2,.7-.4,1.1-.7,.2-.1,.5-.2,.7-.4,.6-.3,1.2-.7,1.8-1.1,1-.6,2-1.3,3.1-1.9h.2c.6,0,1.2,0,1.9-.1,.8-.1,1.6-.3,2.5-.6,2.7-.8,5.2-2.1,7.4-3.3-.1,.4-.2,.8-.1,1.2,0,.5,.2,.9,.5,1.3,.3,.4,.8,.7,1.6,1,1,.3,2.5,.5,4.5,.3,1.3,0,1.4,.2,.3,.8-1.3,.8-2.7,1.7-3.5,2.7-.5,.6-.8,1.2-.9,1.8,0,.6,.1,1.2,.7,1.7,.5,.5,1.3,1,2.5,1.4l-12.6,9.4c-2-.8-4.1-1.6-6.3-2.1-1.5-.3-3-.5-4.4-.4-4.3,.2-7.9,2.1-10.2,4.4-.8,.9-1.4,1.8-1.5,2.7-.2,.9,0,1.7,.6,2.4,1,1,3.2,1.6,6.7,1.1,.5-.1,1.2-.2,1.8-.4,.7-.2,1.5-.4,2.4-.7h.2c2.7-1,5.6-2.3,8.8-4.2,.8,.4,1.7,.8,2.5,1.2,2.5,1.2,5,2.4,7.7,3.3,5.7,2,9.4,2.2,11.3,2.1,0,0,.2,.1,.5,0,.9-.2,1.7-.3,2.4-.5,7.7-2.2,5.1-7,5.1-7-.2-.3-2.5,.4-2.3,.9,1.9,3.6,0,4.7-2.8,4.7-3.9,0-9.6-1.8-10.1-2-2.6-.9-5.1-2.1-7.6-3.3-1.2-.5-2.3-1.1-3.4-1.6,.5-.3,.9-.7,1.4-1h0l11.3-8.5c.9,.3,1.8,.7,2.7,1,1.8,.6,3.5,1.2,5.3,1.7,.1,0,.3,0,.4,0,1,.3,2.2,.5,3.5,.8,4,.7,9.1,1.3,13.7,.5,6.3-1,11.5-3.5,12.8-8.6,0-.2,0-.4,.1-.7,.3-1.5,.2-2.8-.1-3.8ZM131.1,2.3c.5-.1,1-.2,1.5-.2,1.7,0,3.5,.4,5.4,1.7,.8,.5,1.5,1.3,1.9,2.2,1.9,4.9-5.6,4.5-8.8,4.1-.3,0-.5,0-.7-.1-2.5-.4-5-1.2-7.7-2.2-.2,0-.4-.2-.7-.2,2.8-2.1,5.8-4.6,9.1-5.3Zm-33.2,21.6c-.3,.2-.6,.3-.8,.5l-1.7,1c-.6,.3-1.1,.7-1.6,1,0,0,0,0-.1,0-2.7,1.6-5.6,3.2-8.5,4.2-3.9,1.4-8,1.8-12.2,0-2-.8-3.3-1.9-4-3.2-.8-1.2-1-2.6-.7-4,1.1-5.5,5.6-7.7,10.4-7.9,1.9,0,3.8,0,5.6,.3,.3,0,.5,0,.8,0,3.1,.4,6,1.1,8.7,2,1.4,.5,2.7,.9,4.1,1.5,1.4,.5,2.7,1.1,4.1,1.7-1.3,.9-2.7,1.8-4.1,2.7Zm1,21.2c-.3,.1-.6,.2-.9,.3h0c-.3,.1-.7,.2-1.1,.2-3,.5-4.9,0-5.9-1-.6-.6-.8-1.4-.6-2.2,.7-3.7,4-4,7.6-3.4,3,.6,6,1.9,7.6,2.6-2.9,1.9-5,3-6.7,3.5Zm51.1-12.7c-3.9,.7-8.5,.3-11.3-.2-1.5-.3-2.8-.6-3.9-.9-1.2-.3-2.5-.7-3.7-1.1-.5-.2-1.1-.3-1.6-.5-1.3-.5-2.6-.9-3.9-1.5,0,0,.1,0,.2-.2,.4-.3,2.4-1.8,5.3-3.6,3-1.9,7-4.1,10.7-5.3,2.2-.7,5.9-1.2,9.2-.5,8.5,1.6,8.4,12.1-1,13.8Z"/>
      <g>
        <path class="uuid-9f60cefe-a4a0-4293-b833-46bb62fdf2ae" d="M100.3,105.5c-2.6,0-3.7,2.2-3.7,3.7s1.1,3.7,3.7,3.7h0c2.2,0,3.7-1.8,3.7-3.9s-1.6-3.5-3.7-3.5Zm.2,7.1h-.2c-1.6-.1-2.9-1.5-2.9-3.6s1.2-3.1,2.8-3.1h0c1.5,0,2.8,1.3,2.8,3.5s-1.8,3.2-2.6,3.2Z"/>
        <path class="uuid-9f60cefe-a4a0-4293-b833-46bb62fdf2ae" d="M87.8,112.7c0,0-.3,0-.4,0-.3,0-.3-.2-.3-.5,0-.4,0-1.1,0-2v-1.7c0-1.5,0-1.8,0-2.1,0-.3,0-.5,.3-.5h.2s0,0,0,0,0,0-.2,0c-.3,0-.9,0-.9,0s-.7,0-1.1,0-.2,0-.2,0,0,0,0,0h.3c.3,0,.4,.2,.4,.5,0,.3,0,.6,0,2.1v.2s0,0,0,0h-4s0,0,0,0v-.2c0-1.5,0-1.8,0-2.1,0-.3,0-.5,.3-.5h.2s0,0,0,0,0,0-.2,0c-.3,0-.9,0-.9,0s-.7,0-1.1,0-.2,0-.2,0,0,0,0,0h.3c.3,0,.4,.2,.4,.5,0,.3,0,.6,0,2.1v1.7c0,.9,0,1.7,0,2,0,.3,0,.5-.3,.5,0,0-.2,0-.3,0s0,0,0,0c0,0,0,0,.2,0h2.1c.1,0,.2,0,.2,0,0,0,0,0,0,0s-.3,0-.4,0c-.3,0-.3-.2-.3-.5,0-.4,0-1.1,0-2v-1s0,0,0,0h4s0,0,0,0v1c0,.9,0,1.7,0,2,0,.3,0,.5-.3,.5,0,0-.2,0-.3,0s0,0,0,0c0,0,0,0,.2,0h2.1c.1,0,.2,0,.2,0,0,0,0,0,0,0Z"/>
        <path class="uuid-9f60cefe-a4a0-4293-b833-46bb62fdf2ae" d="M118.2,105.6s-.2,0-.3,0c-.2,0-.4,0-.7,0h-3.5c-.1,0-.5,0-.8,0-.2,0-.3-.1-.4-.1s0,.1-.1,.2c0,0-.2,.9-.2,1s0,0,0,0,0,0,0,0c0,0,0-.2,.2-.3,.2-.2,.3-.3,1-.3h1.4v4c0,.9,0,1.7,0,2,0,.3,0,.5-.3,.5,0,0-.2,0-.3,0s0,0,0,0c0,0,0,0,.2,0h2.1c.1,0,.2,0,.2,0,0,0,0,0,0,0,0,0-.3,0-.4,0-.3,0-.3-.2-.4-.5,0-.4,0-1.1,0-2v-4h1.2c.9,0,1.1,.3,1.2,.5h0c0,.2,0,.3,0,.3s0,0,0-.1c0-.1,0-.8,0-1.1s0,0,0,0Z"/>
        <path class="uuid-9f60cefe-a4a0-4293-b833-46bb62fdf2ae" d="M144.8,111.5c0,0,0,0,0,.1,0,.2-.2,.4-.3,.6-.2,.3-.7,.3-1.2,.3-.7,0-1,0-1.1-.2-.2-.2-.2-.8-.2-2.2v-1.7c0-1.5,0-1.8,0-2.1,0-.3,0-.5,.3-.5h.3s0,0,0,0,0,0-.2,0c-.3,0-1,0-1,0s-.7,0-1.1,0-.2,0-.2,0,0,0,0,0h.3c.3,0,.4,.2,.4,.5,0,.3,0,.6,0,2.1v1.7c0,.9,0,1.7,0,2,0,.3,0,.5-.3,.5,0,0-.2,0-.3,0s0,0,0,0c0,0,0,0,.2,0h1.9c.4,0,.9,0,1.6,0s.5,0,.6-.3c0-.3,.1-.8,.1-.9s0-.2,0-.2Z"/>
        <path class="uuid-9f60cefe-a4a0-4293-b833-46bb62fdf2ae" d="M131,111.7c0,.4-.2,.6-.4,.7-.2,0-.7,0-.9,0-.9,0-1.1-.1-1.1-.8v-2.5s0,0,0,0c.2,0,1.1,0,1.3,0,.4,0,.5,.2,.5,.3,0,.2,0,.2,0,.3s0,0,0,0,0-.1,0-.2,0-.4,0-.6c0-.3,0-.5,0-.5q0,0,0,0s0,0-.2,.1c0,0-.2,.1-.4,.1-.2,0-1.4,0-1.5,0s0,0,0-.1v-2.6s0,0,0,0c0,0,1.1,0,1.3,0,.5,0,.6,.2,.7,.3,0,.1,0,.3,0,.3s0,.1,0,.1,0,0,0-.1c0-.1,0-.5,0-.6,0-.3,0-.4,0-.4,0,0,0-.1,0-.1s0,0-.1,0c0,0-.2,0-.4,0h-2.5c-.2,0-.5,0-.7,0s-.2,0-.2,0,0,0,0,0h.3c.3,0,.4,.2,.4,.5,0,.3,0,.6,0,2.1v1.7c0,.9,0,1.7,0,2,0,.3,0,.5-.3,.5,0,0-.2,0-.3,0s0,0,0,0c0,0,0,0,.2,0h1.7c.4,0,.9,0,1.6,0s.4,0,.5-.2c0-.2,.1-.8,.1-.9s0-.2,0-.2c0,0,0,0-.1,.2Z"/>
      </g>
    </g>
  </g>
</svg>