<?xml version="1.0" encoding="UTF-8"?>
<svg id="uuid-75b61832-b344-4958-9d43-bac4610f2845" data-name="Layer 2" xmlns="http://www.w3.org/2000/svg" width="18.8" height="12.1" viewBox="0 0 18.8 12.1">
  <defs>
    <style>
      .uuid-fc7f33ac-7cef-48b4-9595-908aa7a48112 {
        fill: #fff;
      }
    </style>
  </defs>
  <g id="uuid-c2c016af-f37f-4863-88a4-1a6f266cb04e" data-name="Capa 1">
    <path id="uuid-e8b9df92-b10f-4355-8000-e31ff6efba3b" data-name="path6" class="uuid-fc7f33ac-7cef-48b4-9595-908aa7a48112" d="M17.3,3.5l1.5-1.7h-3.4c-1.7-1.2-3.8-1.8-6-1.8S5.1,.7,3.4,1.8H0l1.5,1.7C.6,4.4,0,5.6,0,7,0,9.6,2.1,11.7,4.7,11.7s2.4-.5,3.2-1.3l1.5,1.6,1.5-1.6c.8,.8,2,1.3,3.2,1.3,2.6,0,4.7-2.1,4.7-4.7,0-1.4-.6-2.6-1.5-3.5ZM4.7,10.2c-1.8,0-3.2-1.4-3.2-3.2s1.4-3.2,3.2-3.2,3.2,1.4,3.2,3.2-1.4,3.2-3.2,3.2Zm4.7-3.3c0-2.1-1.5-3.9-3.5-4.7,1.1-.5,2.3-.7,3.5-.7s2.4,.3,3.5,.7c-2,.8-3.5,2.6-3.5,4.7Zm4.7,3.3c-1.8,0-3.2-1.4-3.2-3.2s1.4-3.2,3.2-3.2,3.2,1.4,3.2,3.2-1.4,3.2-3.2,3.2Zm0-4.9c-.9,0-1.7,.7-1.7,1.7s.7,1.7,1.7,1.7,1.7-.7,1.7-1.7c0-.9-.7-1.7-1.7-1.7Zm-7.7,1.7c0,.9-.7,1.7-1.7,1.7s-1.7-.7-1.7-1.7,.7-1.7,1.7-1.7c.9,0,1.7,.7,1.7,1.7Z"/>
  </g>
</svg>