<?xml version="1.0" encoding="UTF-8"?>
<svg id="uuid-61a78fbe-2f53-40a9-ac10-e0a7e6233ab7" data-name="Layer 2" xmlns="http://www.w3.org/2000/svg" width="537.8" height="627.4" viewBox="0 0 537.8 627.4">
  <defs>
    <style>
      .uuid-3ca32d43-9be0-4112-977e-92b41e8f24af, .uuid-f0267163-0049-4027-b9a7-b5b3c7384226 {
        fill: #fff;
      }

      .uuid-2da814d6-499e-4af4-9821-7c33eec65651 {
        opacity: .5;
      }

      .uuid-4402e9d1-5900-4727-bca6-ac80e0beae28 {
        fill: none;
        stroke: #fff;
        stroke-linecap: round;
        stroke-linejoin: round;
      }

      .uuid-1dda4a6c-9ed7-48f3-8002-ca84314e65b9 {
        opacity: .8;
      }

      .uuid-f0267163-0049-4027-b9a7-b5b3c7384226 {
        opacity: .2;
      }

      .uuid-217e666a-79b5-404c-83c9-a3095ca56656 {
        fill: #555d49;
      }
    </style>
  </defs>
  <g id="uuid-880cc7c0-8e16-4664-a138-054e920561a3" data-name="Capa 1">
    <g>
      <g class="uuid-1dda4a6c-9ed7-48f3-8002-ca84314e65b9">
        <g class="uuid-2da814d6-499e-4af4-9821-7c33eec65651">
          <path class="uuid-3ca32d43-9be0-4112-977e-92b41e8f24af" d="M336.6,342.7c-.2,3.7,5.4,4.4,8,3.9,2.4-.4,4.5-1.7,6.6-2.7,2.2-1.1,4.5-1.8,6.9-2.1,4.7-.5,9.2,.5,13.1,3.1s3.6,1.7,5.7,1.9c1.8,0,3.7,0,5.5,.1s1.5,.2,2.1,.6c1,.7,.7,1.8,.5,2.9-.3,2,.7,3.2,2.5,3.9,1.9,.8,3.9,.9,5.8,1.6s3.6,1.9,5,3.3c2.5,2.6,4,6.1,5,9.6s1.9,9.4,2.8,14.1c1,5.6,1.9,11.3,3.1,16.9,.5,2.2,1.3,4.3,2.8,6,1.4,1.6,3.1,2.8,4.7,4.2s3,3,3.2,5.2-.5,4.5-.2,6.8,.4,2.1,1,3.1c.6,.9,1.6,1.9,1.6,3,0,1.5-1.6,2.6-2.6,3.4-2.5,2-5.5,4.3-3.9,7.9,.7,1.8,2.1,3.2,3.2,4.7,.6,.8,1.1,1.6,1.4,2.6,.4,1.5,.2,3.1-.1,4.6-1,5.1-.7,10.1,1.2,14.9,.9,2.2,2.1,3.7,4.2,4.7s4.1,1.6,5.3,3.5c1.9,3.1,.5,7.3,.3,10.6,0,1.7,0,3.5,.7,5.1,.9,2.1,3.2,3.5,3.8,5.7,.7,2.3-.6,4.7-.2,7.1,.2,1.6,1.1,3.2,2.6,4,2.2,1.3,4.7,.3,7.1,.6s4.2,1.6,5.1,3.6c1.1,2.5,.2,5.3-.6,7.7-.1,.3,.1,.8,.5,.8,4,.9,6.7,3.8,9.1,6.8,1.5,1.9,3.1,3.9,4.6,5.8,1.2,1.6,2.4,3.5,4.3,4.3,3.6,1.7,7.7-1.7,11,1,1.2,1,2.1,2.2,3.4,3,1.6,1,3.4,.8,5.1,.4,1.9-.4,4-.4,5.1,1.5,.8,1.4,.9,3.2,.7,4.8s1.3,.9,1.4,0c.3-2.7-.2-6.2-3-7.4-1.8-.8-3.7-.2-5.5,0-2.2,.3-3.5-.7-4.9-2.1-1.1-1.1-2.3-2.2-3.9-2.6s-4.1,.3-6.2,.5c-1.2,0-2.3,0-3.3-.7s-1.5-1.6-2.2-2.4l-4.9-6.2c-2.8-3.6-5.8-7-10.4-8.1l.5,.8c.8-2.5,1.6-5.1,.9-7.7-.5-1.8-1.7-3.3-3.3-4.2-2.1-1.4-4.4-1.2-6.8-1.1-2.3,.1-4.3-.6-5-3-.6-2.2,.5-4.5,.3-6.8s-2.3-3.9-3.6-5.9c-2.1-3.3-.8-7.4-.5-10.9,.1-1.6,0-3.3-.6-4.9-.7-1.7-2.1-3-3.7-3.8-2.2-1.1-4.5-1.7-5.7-4.1s-1.9-5-2.2-7.6c-.3-2.8,.1-5.5,.6-8.2,.4-2.2,.4-4.3-.8-6.3-1.6-2.8-6.1-6.2-3.1-9.6,1.8-2,5.9-3.8,5.9-6.9s-2.2-3.6-2.6-5.6c-.5-2.4,.4-4.8,.1-7.2-.4-4.2-4.1-6.5-7-9.1-1.8-1.7-3-3.6-3.6-6-.6-2.6-1-5.4-1.5-8l-3.1-17.1c-.7-3.8-1.4-7.6-3-11.2-1.5-3.3-3.7-6.3-6.9-8.1-1.7-1-3.6-1.6-5.5-2-1-.2-2-.4-2.9-.9-1.4-.6-1.4-1.5-1.2-2.9,.2-1.6-.2-3.1-1.7-3.8-1.5-.7-3.3-.7-4.9-.7s-3.9,.1-5.7-.4-2.1-1.1-3.1-1.7-1.9-1.1-2.9-1.5c-4.1-1.7-8.9-1.9-13.3-.8-2.3,.6-4.3,1.6-6.4,2.7s-4.4,2-6.8,1.7c-1.4-.2-4-.8-3.9-2.7s-1.3-.9-1.4,0h0Z"/>
        </g>
        <g>
          <path class="uuid-3ca32d43-9be0-4112-977e-92b41e8f24af" d="M320.7,463.6h-1.5c0,0,0,0,0-.1,.3-.2,.6-.9,1.2-2.1l3-6.8h1l2.6,6.7c.4,.9,.8,1.8,1.1,2.1,0,0,0,.2,0,.2h-2.1c-.1,0-.2,0-.2-.2,0-.4-.2-1.2-.6-2.1l-.3-.8h-3.1l-.4,.9c-.5,1.1-.6,1.9-.5,2.1,0,0,0,.1-.1,.1Zm2.6-7.1l-1.4,3.4h2.7l-1.3-3.4Z"/>
          <path class="uuid-3ca32d43-9be0-4112-977e-92b41e8f24af" d="M329.8,455.5c0,0-.2-.2-.4-.4s-.3-.3-.3-.4c0,0,0-.1,0-.1h1.9c.2,0,.2,0,.4,.2l5,6.2v-4.4c0-1-.2-1.6-.3-1.8,0,0,0-.1,0-.1h1.3s0,0,0,.1c-.2,.2-.3,.8-.3,1.8v7c-.1,0-.7,0-.8,0l-5.8-7.2v5.2c0,1,.2,1.6,.3,1.8,0,0,0,.1,0,.1h-1.3s0,0,0-.1c.1-.2,.3-.8,.3-1.8v-6.1Z"/>
          <path class="uuid-3ca32d43-9be0-4112-977e-92b41e8f24af" d="M344.2,454.5c1.4,0,2.4,.2,2.9,.5,.2,.1,.3,.2,.2,.5l-.2,.8c0,0-.2,0-.3,0-.4-.5-1.2-1.2-2.6-1.2s-1.8,.4-2.3,1.1c-.5,.7-.7,1.7-.8,2.9,0,2.4,1,4,3,4s1.2,0,1.7-.3v-1.4c0-1.1-.1-1.6-.3-1.8,0,0,0-.1,0-.1h1.9c.1,0,.1,0,0,.1-.2,.2-.2,.9-.2,1.8v2.1c0,0,0,0-.1,0l-1-.2c-.5,.2-1.4,.4-2.3,.4-2.8,0-4.7-1.5-4.7-4.6s2.1-4.7,4.9-4.7Z"/>
          <path class="uuid-3ca32d43-9be0-4112-977e-92b41e8f24af" d="M349.2,459.1c0-2.8,1.9-4.7,4.7-4.7s4.8,1.8,4.8,4.7-1.9,4.7-4.8,4.7-4.7-1.8-4.7-4.7Zm7.5,0c0-2.3-.8-4.1-2.8-4.1s-2.8,1.8-2.8,4.1,.8,4.1,2.8,4.1,2.8-1.8,2.8-4.1Z"/>
          <path class="uuid-3ca32d43-9be0-4112-977e-92b41e8f24af" d="M365.1,461.5c0-.6-.2-.9-.7-1.2-.4-.2-.9-.4-1.5-.6-.8-.3-1.4-.6-1.8-1s-.7-1-.7-1.7c0-1.6,1.3-2.5,3.3-2.5s2,.2,2.5,.4c.2,0,.3,.2,.3,.5v.8c-.2,0-.3,0-.3,0-.5-.6-1.3-1-2.4-1s-1.7,.6-1.7,1.4,.7,1.4,1.9,1.8c.9,.3,1.6,.6,2.1,1,.5,.4,.8,1,.8,1.7,0,1.9-1.6,2.8-3.6,2.8s-2.1-.2-2.6-.4c-.2-.1-.3-.2-.2-.5v-.9c0,0,.2,0,.3,0,.5,.6,1.4,1.2,2.5,1.2s2-.7,2-1.7Z"/>
          <path class="uuid-3ca32d43-9be0-4112-977e-92b41e8f24af" d="M375.8,454.7c.2,0,.3,0,.3,.2v1.2s0,0-.2,0c-.4-.4-1.2-.8-1.8-.8h-1.4v6.4c0,1.1,.1,1.6,.3,1.8,0,0,0,.1,0,.1h-2.2c-.1,0-.1,0,0-.1,.2-.2,.3-.7,.3-1.8v-6.4h-1.4c-.7,0-1.4,.5-1.8,.8,0,0-.1,0-.2,0v-1.2c0-.2,.2-.2,.3-.2h7.9Z"/>
          <path class="uuid-3ca32d43-9be0-4112-977e-92b41e8f24af" d="M384.3,456.6c0-1-.2-1.6-.3-1.8,0,0,0-.1,0-.1h1.3s0,0,0,.1c-.2,.2-.3,.8-.3,1.8v4c0,1.8-1,3.2-3.5,3.2s-3.7-1.7-3.7-3.1v-4.1c0-.9,0-1.6-.3-1.8,0,0,0-.1,0-.1h2.1c.1,0,.1,0,0,.1-.2,.2-.2,.9-.2,1.8v4.1c0,1.3,.6,2.2,2.3,2.2s2.5-.8,2.5-2.4v-3.9Z"/>
          <path class="uuid-3ca32d43-9be0-4112-977e-92b41e8f24af" d="M395.3,463.7c-.5,0-1,0-1.5-.4-.7-.4-1.4-1.1-1.8-1.8-.5-.6-.8-1.2-1.1-1.8-.3,0-.9,0-1.2,0v1.9c0,.9,0,1.6,.3,1.8,0,0,0,.1,0,.1h-2.1c-.1,0-.1,0,0-.1,.2-.2,.3-.9,.3-1.8v-5.1c0-.9,0-1.6-.3-1.8,0,0,0-.1,0-.1h3.4c1.4,0,3.3,.3,3.3,2.4s-1.2,2.1-1.8,2.4c.3,.5,.7,1.1,1.3,1.9,1,1.3,1.6,1.9,2.1,2.2,0,0,0,.1,0,.2-.1,0-.4,0-.6,0Zm-5.7-8.5v4c.3,0,.7,0,1.2,0,.5,0,.9-.2,1.2-.5,.3-.3,.5-.9,.5-1.7,0-1.6-1-1.9-1.7-1.9h-1.2Z"/>
          <path class="uuid-3ca32d43-9be0-4112-977e-92b41e8f24af" d="M398,463.6h-1.5c0,0,0,0,0-.1,.3-.2,.6-.9,1.2-2.1l3-6.8h1l2.6,6.7c.4,.9,.8,1.8,1.1,2.1,0,0,0,.2,0,.2h-2.1c-.1,0-.2,0-.2-.2,0-.4-.2-1.2-.6-2.1l-.3-.8h-3.1l-.4,.9c-.5,1.1-.6,1.9-.5,2.1,0,0,0,.1-.1,.1Zm2.6-7.1l-1.4,3.4h2.7l-1.3-3.4Z"/>
        </g>
        <g>
          <path class="uuid-3ca32d43-9be0-4112-977e-92b41e8f24af" d="M456.8,478.2c0-.6-.2-.9-.7-1.2-.4-.2-.9-.4-1.5-.6-.8-.3-1.4-.6-1.8-1s-.7-1-.7-1.7c0-1.6,1.3-2.5,3.3-2.5s2,.2,2.5,.4c.2,0,.3,.2,.3,.5v.8c-.2,0-.3,0-.3,0-.5-.6-1.3-1-2.4-1s-1.7,.6-1.7,1.4,.7,1.4,1.9,1.8c.9,.3,1.6,.6,2.1,1,.5,.4,.8,1,.8,1.7,0,1.9-1.6,2.8-3.6,2.8s-2.1-.2-2.6-.4c-.2-.1-.3-.2-.2-.5v-.9c0,0,.2,0,.3,0,.5,.6,1.4,1.2,2.5,1.2s2-.7,2-1.7Z"/>
          <path class="uuid-3ca32d43-9be0-4112-977e-92b41e8f24af" d="M460.9,480.3h-1.5c0,0,0,0,0-.1,.3-.2,.6-.9,1.2-2.1l3-6.8h1l2.6,6.7c.4,.9,.8,1.8,1.1,2.1,0,0,0,.2,0,.2h-2.1c-.1,0-.2,0-.2-.2,0-.4-.2-1.2-.6-2.1l-.3-.8h-3.1l-.4,.9c-.5,1.1-.6,1.9-.5,2.1,0,0,0,.1-.1,.1Zm2.6-7.1l-1.4,3.4h2.7l-1.3-3.4Z"/>
          <path class="uuid-3ca32d43-9be0-4112-977e-92b41e8f24af" d="M470.1,472.2c0,0-.2-.2-.4-.4s-.3-.3-.3-.4c0,0,0-.1,0-.1h1.9c.2,0,.2,0,.4,.2l5,6.2v-4.4c0-1-.2-1.6-.3-1.8,0,0,0-.1,0-.1h1.3s0,0,0,.1c-.2,.2-.3,.8-.3,1.8v7c-.1,0-.7,0-.8,0l-5.8-7.2v5.2c0,1,.2,1.6,.3,1.8,0,0,0,.1,0,.1h-1.3s0,0,0-.1c.1-.2,.3-.8,.3-1.8v-6.1Z"/>
          <path class="uuid-3ca32d43-9be0-4112-977e-92b41e8f24af" d="M483.7,478.3l.2-6c0,0-.1-.2-.2-.4,0-.2-.2-.3-.3-.4,0,0,0-.1,0-.1h1.9c.2,0,.2,0,.3,.2l3.1,6.7,2.7-6.3c.3-.6,.3-.6,.7-.6h1.5c0,0,0,0,0,.1-.2,.3-.3,1.1-.3,2.1l.2,4.8c0,1.1,.1,1.6,.3,1.8,0,0,0,.1,0,.1h-2.1c-.1,0,0,0,0-.1,.2-.2,.3-.7,.3-1.8v-5.3l-3.3,7.2c-.2,0-.6,0-.7,0l-3.2-7.1v5.1c-.1,1,0,1.6,0,1.8,0,0,0,.1,0,.1h-1.1c0,0,0,0,0-.1,.1-.2,.3-.9,.3-1.8Z"/>
          <path class="uuid-3ca32d43-9be0-4112-977e-92b41e8f24af" d="M496.7,480.3h-1.5c0,0,0,0,0-.1,.3-.2,.6-.9,1.2-2.1l3-6.8h1l2.6,6.7c.4,.9,.8,1.8,1.1,2.1,0,0,0,.2,0,.2h-2.1c-.1,0-.2,0-.2-.2,0-.4-.2-1.2-.6-2.1l-.3-.8h-3.1l-.4,.9c-.5,1.1-.6,1.9-.5,2.1,0,0,0,.1-.1,.1Zm2.6-7.1l-1.4,3.4h2.7l-1.3-3.4Z"/>
          <path class="uuid-3ca32d43-9be0-4112-977e-92b41e8f24af" d="M513.2,480.4c-.5,0-1,0-1.5-.4-.7-.4-1.4-1.1-1.8-1.8-.5-.6-.8-1.2-1.1-1.8-.3,0-.9,0-1.2,0v1.9c0,.9,0,1.6,.3,1.8,0,0,0,.1,0,.1h-2.1c-.1,0-.1,0,0-.1,.2-.2,.3-.9,.3-1.8v-5.1c0-.9,0-1.6-.3-1.8,0,0,0-.1,0-.1h3.4c1.4,0,3.3,.3,3.3,2.4s-1.2,2.1-1.8,2.4c.3,.5,.7,1.1,1.3,1.9,1,1.3,1.6,1.9,2.1,2.2,0,0,0,.1,0,.2-.1,0-.4,0-.6,0Zm-5.7-8.5v4c.3,0,.7,0,1.2,0,.5,0,.9-.2,1.2-.5,.3-.3,.5-.9,.5-1.7,0-1.6-1-1.9-1.7-1.9h-1.2Z"/>
          <path class="uuid-3ca32d43-9be0-4112-977e-92b41e8f24af" d="M521.9,471.3c.2,0,.3,0,.3,.2v1.2s0,0-.2,0c-.4-.4-1.2-.8-1.8-.8h-1.4v6.4c0,1.1,.1,1.6,.3,1.8,0,0,0,.1,0,.1h-2.2c-.1,0-.1,0,0-.1,.2-.2,.3-.7,.3-1.8v-6.4h-1.4c-.7,0-1.4,.5-1.8,.8,0,0-.1,0-.2,0v-1.2c0-.2,.2-.2,.3-.2h7.9Z"/>
          <path class="uuid-3ca32d43-9be0-4112-977e-92b41e8f24af" d="M525.8,478.3c0,.9,0,1.6,.3,1.8,0,0,0,.1,0,.1h-2.1c-.1,0-.1,0,0-.1,.2-.2,.3-.9,.3-1.8v-5.1c0-.9,0-1.6-.3-1.8,0,0,0-.1,0-.1h2.1c.1,0,.1,0,0,.1-.2,.2-.3,.9-.3,1.8v5.1Zm-1.7-7.8s-.1,0-.2-.1c0,0-.1-.2,0-.2l1.8-2.6,1.2,1.3-2.6,1.6Z"/>
          <path class="uuid-3ca32d43-9be0-4112-977e-92b41e8f24af" d="M528.9,472.2c0,0-.2-.2-.4-.4s-.3-.3-.3-.4c0,0,0-.1,0-.1h1.9c.2,0,.2,0,.4,.2l5,6.2v-4.4c0-1-.2-1.6-.3-1.8,0,0,0-.1,0-.1h1.3s0,0,0,.1c-.2,.2-.3,.8-.3,1.8v7c-.1,0-.7,0-.8,0l-5.8-7.2v5.2c0,1,.2,1.6,.3,1.8,0,0,0,.1,0,.1h-1.3s0,0,0-.1c.1-.2,.3-.8,.3-1.8v-6.1Z"/>
        </g>
        <g>
          <path class="uuid-3ca32d43-9be0-4112-977e-92b41e8f24af" d="M372.2,534.6c.2,0,.3,0,.3,.2v1.1s-.1,0-.2,0c-.3-.3-1.1-.7-1.8-.7h-1.7v3.5h1.7c.6,0,1.2-.3,1.3-.3,0,0,0,0,0,0v1.1s0,0,0,0c-.2,0-.6-.3-1.3-.3h-1.7v3.2c0,.4,0,.5,.4,.5h1.3c1.1,0,1.9-.7,2.3-1,0,0,.3,0,.3,0l-.3,1.4c0,.2-.2,.2-.3,.2h-5.6c-.1,0-.1,0,0-.1,.2-.2,.3-.9,.3-1.8v-5.1c0-.9,0-1.6-.3-1.8,0,0,0-.1,0-.1h5.4Z"/>
          <path class="uuid-3ca32d43-9be0-4112-977e-92b41e8f24af" d="M374.7,543.5c-.1,0-.1,0,0-.1,.2-.2,.3-.9,.3-1.8v-5.1c0-.9,0-1.6-.3-1.8,0,0,0-.1,0-.1h2.1c.1,0,.1,0,0,.1-.2,.2-.3,.9-.3,1.8v6c0,.4,0,.5,.4,.5h1.1c1.1,0,1.9-.7,2.3-1,0,0,.3,0,.3,0l-.3,1.4c0,.2-.2,.2-.3,.2h-5.4Z"/>
          <path class="uuid-3ca32d43-9be0-4112-977e-92b41e8f24af" d="M392.6,542.8c-.6,.5-1.5,.9-3.1,.9-2.5,0-4.5-1.5-4.5-4.6s2-4.7,4.7-4.7,2.3,.2,2.8,.5c.2,.1,.3,.2,.2,.5l-.2,.8c0,0-.2,0-.3,0-.4-.5-1.1-1.2-2.5-1.2s-2.8,1.6-2.8,4.1,1.1,3.8,3,3.8,2-.4,2.6-.8c0,0,0,.6,0,.7Z"/>
          <path class="uuid-3ca32d43-9be0-4112-977e-92b41e8f24af" d="M394.7,543.5h-1.5c0,0,0,0,0-.1,.3-.2,.6-.9,1.2-2.1l3-6.8h1l2.6,6.7c.4,.9,.8,1.8,1.1,2.1,0,0,0,.2,0,.2h-2.1c-.1,0-.2,0-.2-.2,0-.4-.2-1.2-.6-2.1l-.3-.8h-3.1l-.4,.9c-.5,1.1-.6,1.9-.5,2.1,0,0,0,.1-.1,.1Zm2.6-7.1l-1.4,3.4h2.7l-1.3-3.4Z"/>
          <path class="uuid-3ca32d43-9be0-4112-977e-92b41e8f24af" d="M411.2,543.6c-.5,0-1,0-1.5-.4-.7-.4-1.4-1.1-1.8-1.8-.5-.6-.8-1.2-1.1-1.8-.3,0-.9,0-1.2,0v1.9c0,.9,0,1.6,.3,1.8,0,0,0,.1,0,.1h-2.1c-.1,0-.1,0,0-.1,.2-.2,.3-.9,.3-1.8v-5.1c0-.9,0-1.6-.3-1.8,0,0,0-.1,0-.1h3.4c1.4,0,3.3,.3,3.3,2.4s-1.2,2.1-1.8,2.4c.3,.5,.7,1.1,1.3,1.9,1,1.3,1.6,1.9,2.1,2.2,0,0,0,.1,0,.2-.1,0-.4,0-.6,0Zm-5.7-8.5v4c.3,0,.7,0,1.2,0,.5,0,.9-.2,1.2-.5,.3-.3,.5-.9,.5-1.7,0-1.6-1-1.9-1.7-1.9h-1.2Z"/>
          <path class="uuid-3ca32d43-9be0-4112-977e-92b41e8f24af" d="M413.3,541.6l.2-6c0,0-.1-.2-.2-.4,0-.2-.2-.3-.3-.4,0,0,0-.1,0-.1h1.9c.2,0,.2,0,.3,.2l3.1,6.7,2.7-6.3c.3-.6,.3-.6,.7-.6h1.5c0,0,0,0,0,.1-.2,.3-.3,1.1-.3,2.1l.2,4.8c0,1.1,.1,1.6,.3,1.8,0,0,0,.1,0,.1h-2.1c-.1,0,0,0,0-.1,.2-.2,.3-.7,.3-1.8v-5.3l-3.3,7.2c-.2,0-.6,0-.7,0l-3.2-7.1v5.1c-.1,1,0,1.6,0,1.8,0,0,0,.1,0,.1h-1.1c0,0,0,0,0-.1,.1-.2,.3-.9,.3-1.8Z"/>
          <path class="uuid-3ca32d43-9be0-4112-977e-92b41e8f24af" d="M431.4,534.6c.2,0,.3,0,.3,.2v1.1s-.1,0-.2,0c-.3-.3-1.1-.7-1.8-.7h-1.7v3.5h1.7c.6,0,1.2-.3,1.3-.3,0,0,0,0,0,0v1.1s0,0,0,0c-.2,0-.6-.3-1.3-.3h-1.7v3.2c0,.4,0,.5,.4,.5h1.3c1.1,0,1.9-.7,2.3-1,0,0,.3,0,.3,0l-.3,1.4c0,.2-.2,.2-.3,.2h-5.6c-.1,0-.1,0,0-.1,.2-.2,.3-.9,.3-1.8v-5.1c0-.9,0-1.6-.3-1.8,0,0,0-.1,0-.1h5.4Z"/>
          <path class="uuid-3ca32d43-9be0-4112-977e-92b41e8f24af" d="M434.1,535.4c0,0-.2-.2-.4-.4s-.3-.3-.3-.4c0,0,0-.1,0-.1h1.9c.2,0,.2,0,.4,.2l5,6.2v-4.4c0-1-.2-1.6-.3-1.8,0,0,0-.1,0-.1h1.3s0,0,0,.1c-.2,.2-.3,.8-.3,1.8v7c-.1,0-.7,0-.8,0l-5.8-7.2v5.2c0,1,.2,1.6,.3,1.8,0,0,0,.1,0,.1h-1.3s0,0,0-.1c.1-.2,.3-.8,.3-1.8v-6.1Z"/>
        </g>
        <g class="uuid-2da814d6-499e-4af4-9821-7c33eec65651">
          <path class="uuid-3ca32d43-9be0-4112-977e-92b41e8f24af" d="M338,342.2c0-6.5-9.9-7.1-14.5-6.4-4.5,.7-8.6,3-13,4.3-2.4,.7-4.8,1.2-7.3,1-2.6-.2-5.1-1.2-7.5-2-7.2-2.5-15.4-1.7-22,2.3-2.8,1.7-5.4,4-7,7-1.5,2.9-1.3,6-2.1,9.1-.5,1.8-1.4,3.5-3.3,4.2-2.6,.9-5.2-.2-7.5-1.4-3.6-1.8-7-3.3-11-3.9-7.3-1.1-15.2,0-21.8,3.5-3,1.6-5.6,3.7-7.7,6.4s-3,3.8-5.4,3.4c-2-.4-3.1-2.4-4.5-3.7-6.1-5.9-16.5-3.4-23.4-.8-4.5,1.7-8.9,3.6-13.7,4.6-3.9,.8-7.9,1.3-11.7,2.3s-6.5,1.9-8.8,4.2-2.8,6.3-2.6,9.9,.1,4.9-1.5,6.9c-1.5,1.9-3.8,2.9-6,3.9-5.1,2.4-10.2,4.8-15.3,7.1l-7.5,3.5c-2.5,1.2-5,2.5-7.6,3.5-4.2,1.5-7.6,0-11-2.6-2.4-1.7-4.8-4-7.8-4.5-1.1-.2-2.8-.2-3.7,.5s-1.2,2.5-.7,3.6c1.4,3.8,6.1,4.9,9.5,6.1,1.9,.7,4.2,1.5,5.2,3.4,1.2,2.2-.3,4.7-2,6.2-3.7,3.3-9,3.6-13.3,5.6s-3.3,1.8-3.8,3.5c-.5,1.6,.5,2.9,1.7,3.9,3.4,2.8,5.5,6,5.8,10.5,.2,4-.8,8-2.1,11.7-1.4,3.9-3,8.2-5.5,11.6-3,4-7.5,5.7-12.1,7.1-4.1,1.3-8.3,2.4-12,4.7-3.2,2-6,4.6-8.3,7.6-4.6,6-7.2,13.1-10.1,20.1-.8,2.1-1.7,4.1-2.9,6-1.6,2.3-3.8,3.6-6,5.2s-4.5,5.5-4.1,9.3c.4,3.9,2.3,7.5,4.2,10.9,.4,.8,1.6,0,1.2-.7-2-3.5-4.2-7.5-4.1-11.6,0-2.2,.9-4.2,2.4-5.7,1.7-1.7,4-2.6,5.7-4.3,2.8-2.8,4.1-6.7,5.6-10.3,1.4-3.6,2.9-7.1,4.6-10.6,3.6-7,8.6-13.1,15.9-16.4,4.2-1.9,8.8-2.7,13.1-4.5,3.8-1.6,6.8-3.9,8.9-7.4,2.1-3.4,3.6-7.2,4.9-10.9,1.2-3.5,2.2-7.3,2.1-11,0-3.4-1.2-6.8-3.4-9.4s-1.3-1.4-2.1-2.1-2.5-1.6-2.2-3c.5-2.2,4.2-3.3,6-3.9,4-1.3,8.8-2.4,11.7-5.7s2.9-6.1,.2-8.5-7.3-2.8-10.6-4.8-4.7-3.9-2.2-5.1c1.3-.6,3-.1,4.2,.4,2.9,1.4,5.2,3.8,7.9,5.4,3.2,1.9,6.6,2.2,10.1,.9,4.8-1.9,9.4-4.3,14.1-6.5,5-2.4,10.1-4.7,15.1-7.1,3.6-1.7,7.8-3.5,8.9-7.7,1.1-4-1-8.6,1.4-12.3,1.8-2.9,5.4-4.2,8.6-5.1,3.8-1,7.7-1.6,11.5-2.3,4.6-.9,8.8-2.5,13.2-4.2s8.7-3.2,13.5-3.3,8.3,.9,11.1,4.2c1,1.2,2.1,2.5,3.7,2.9,1.6,.5,3.2,0,4.5-.9s2.4-2.6,3.5-3.9c1.1-1.3,2.4-2.4,3.8-3.4,3.1-2.2,6.7-3.6,10.3-4.5,7.9-1.9,15.9-.9,23.1,2.8,3.3,1.7,7.5,3.5,10.9,1,2.4-1.8,2.9-4.9,3.3-7.7,.5-3.5,1.5-6.4,4.1-9,2.7-2.6,6.1-4.4,9.7-5.4s8-1.4,12-.5c4.4,1,8.3,3.3,13,2.9,4.6-.3,8.8-2.2,13.1-3.8,3.8-1.4,7.6-2.2,11.7-1.5s6.5,1.7,6.5,5,1.4,.9,1.4,0h0Z"/>
        </g>
        <g class="uuid-2da814d6-499e-4af4-9821-7c33eec65651">
          <path class="uuid-3ca32d43-9be0-4112-977e-92b41e8f24af" d="M336,339.6c-2.4-1.2-5.4-.4-7.9,.5s-6.9,3.3-10.8,4-8.4,.6-12.4,1.7c-2.8,.7-6,2-7.7,4.1-.7,.9-1.1,1.9-1,2.9,.2,1.5,1.2,2.8,0,4.2-1.9,2.1-6,2.9-8.8,3.2-3.8,.3-7.6,0-11.3,1.3s-3.2,1.5-4.5,2.6c-1.6,1.5-3.2,2.5-5.5,3.2-4.2,1.2-8.5,2.1-12.7,3.4s-8.2,2.8-12.2,4.4c-2,.8-4,1.7-6,2.7-1.7,.8-3.6,1.6-5,2.8-1.2,1-1.8,2.1-2,3.5-.2,1.5,0,2.8-.7,4.3-1.5,3-4.9,5.4-7.8,7.5s-6.4,4.4-10,5.9c-1.8,.7-3.8,1.3-5.8,1.5s-1.8,0-2.6,0c-.5,0-1,.2-1.2,.6s.3,.8,.6,1.1c.6,.5,1.2,1.1,1.6,1.7,.8,1,1.4,2.3,1,3.5-.6,1.5-2.4,2.2-3.8,3.1-1.1,.7-1.9,1.8-1.9,2.9-.1,2.6,2.5,4.5,3.9,6.4,4.1,5.5-.8,12.8-4.8,18-5.1,6.6-10.9,12.9-16.4,19.3-2.3,2.7-5.7,5.7-6.2,9.1-.2,1.5,.1,3.1,.5,4.5s1,3.6,1.6,5.4c1.1,3.7,2.2,7.4,3.3,11.1,.4,1.5,.9,2.9,1.9,4.2s2.3,2,3.7,2.8c1.6,.9,3.3,1.8,4.2,3.2s1.2,3.2,1.5,4.9c.6,3.7,1.2,7.5,1.8,11.2,.4,2.7,.6,5.8-1.5,8.3-1.7,2-4.6,3.3-7.1,4.5-2.5,1.1-5,2.1-7.3,3.4s-3.5,2.4-3.8,4.2,.4,2.6,.9,3.8c.7,1.6,.3,2.9-.7,4.4-1.5,2.1-3.7,4.1-3.4,6.6,.3,2.7,3.1,4.4,3.7,6.9s-3.2,4.8-3.8,7.5c-.6,2.8,2.8,5.3,1,8.1s-2.7,1.8-4.3,1.7c-1.8-.1-3.2-1-4.8-1.5-6.2-1.7-13.4-.2-19.6,1.8-3.3,1-6.5,2.2-9.7,3.5s-.2,1.3,.6,1c4.4-1.7,8.8-3.4,13.4-4.6,4.3-1.1,8.8-1.7,13.1-1,.9,.2,1.8,.4,2.7,.7s2.1,.9,3.3,1.1c1.8,.3,3.9,0,5.4-1s1.9-2.1,1.9-3.4c.1-1.8-1.2-3.3-1.5-5-.5-2.2,1.6-3.7,2.9-5.5s1.3-2.9,.8-4.4c-.6-1.5-1.8-2.8-2.6-4.2-1.1-1.7-1-3.3,.2-5.1,1-1.4,2.3-2.7,3.1-4.3s.3-3.2-.4-4.8-.6-3,.8-4.3c1.1-1,2.5-1.8,3.9-2.4,3.2-1.5,6.6-2.7,9.6-4.6,3.3-2,5.2-4.7,5.3-8,0-1.8-.2-3.6-.5-5.3l-1.2-7.4c-.3-2.1-.5-4.3-1.3-6.3s-2.2-3.1-4.1-4.2c-2.1-1.2-4.3-2.2-5.3-4.3s-1.5-4.5-2.2-6.7l-2.1-7c-.6-2.2-1.4-4.4-1.9-6.7-.5-2.4,0-4.4,1.7-6.6,1.6-2.1,3.5-4.1,5.2-6.1l10.8-12.6c3.2-3.7,6.4-7.5,8.7-11.6,1.9-3.5,3.2-7.4,1.9-11-.6-1.6-1.8-2.9-3-4.2-1-1.2-2.7-3-1.7-4.7,1-1.7,3.6-2.2,4.8-3.8s.9-2.6,.4-3.9-.7-1.4-1.2-2-.5-.6-.8-.9-.9-.6-1-.9l-.2,.6c.1-.1,1.5,0,1.8,0,.6,0,1.1,0,1.7-.1,1.3-.2,2.6-.5,3.8-.9,2.6-.9,5.1-2.1,7.4-3.5,2.2-1.4,4.3-2.8,6.3-4.4s4-3.1,5.4-5.1c1.3-1.8,1.7-3.5,1.8-5.4s.2-2.2,1.1-3.1c1-1,2.5-1.7,3.9-2.4,5.7-2.8,11.6-5.2,17.7-7.1,3-1,6.1-1.9,9.2-2.6s5.7-1.1,8.2-2.5,3.8-3.5,6.5-4.5c2.8-1,5.9-1,8.9-1.2,3.9-.2,9.1-.7,12-3.6,1.6-1.6,1.1-3.1,.6-4.9-.5-2,1.4-3.6,3.4-4.6,5.8-3.1,12.6-2,18.8-3.8,2.7-.8,5.2-2.1,7.8-3.2s5.3-2.1,7.6-.9c.7,.4,1.5-.6,.8-1h0Z"/>
        </g>
        <g>
          <path class="uuid-3ca32d43-9be0-4112-977e-92b41e8f24af" d="M199.6,475.7c-.6,.5-1.5,.9-3.1,.9-2.5,0-4.5-1.5-4.5-4.6s2-4.7,4.7-4.7,2.3,.2,2.8,.5c.2,.1,.3,.2,.2,.5l-.2,.8c0,0-.2,0-.3,0-.4-.5-1.1-1.2-2.5-1.2s-2.8,1.6-2.8,4.1,1.1,3.8,3,3.8,2-.4,2.6-.8c0,0,0,.6,0,.7Z"/>
          <path class="uuid-3ca32d43-9be0-4112-977e-92b41e8f24af" d="M200.5,471.9c0-2.8,1.9-4.7,4.7-4.7s4.8,1.8,4.8,4.7-1.9,4.7-4.8,4.7-4.7-1.8-4.7-4.7Zm7.5,0c0-2.3-.8-4.1-2.8-4.1s-2.8,1.8-2.8,4.1,.8,4.1,2.8,4.1,2.8-1.8,2.8-4.1Z"/>
          <path class="uuid-3ca32d43-9be0-4112-977e-92b41e8f24af" d="M212,476.4c-.1,0-.1,0,0-.1,.2-.2,.3-.9,.3-1.8v-5.1c0-.9,0-1.6-.3-1.8,0,0,0-.1,0-.1h2.1c.1,0,.1,0,0,.1-.2,.2-.3,.9-.3,1.8v6c0,.4,0,.5,.4,.5h1.1c1.1,0,1.9-.7,2.3-1,0,0,.3,0,.3,0l-.3,1.4c0,.2-.2,.2-.3,.2h-5.4Z"/>
          <path class="uuid-3ca32d43-9be0-4112-977e-92b41e8f24af" d="M218.8,471.9c0-2.8,1.9-4.7,4.7-4.7s4.8,1.8,4.8,4.7-1.9,4.7-4.8,4.7-4.7-1.8-4.7-4.7Zm7.5,0c0-2.3-.8-4.1-2.8-4.1s-2.8,1.8-2.8,4.1,.8,4.1,2.8,4.1,2.8-1.8,2.8-4.1Z"/>
          <path class="uuid-3ca32d43-9be0-4112-977e-92b41e8f24af" d="M230.5,474.4l.2-6c0,0-.1-.2-.2-.4,0-.2-.2-.3-.3-.4,0,0,0-.1,0-.1h1.9c.2,0,.2,0,.3,.2l3.1,6.7,2.7-6.3c.3-.6,.3-.6,.7-.6h1.5c0,0,0,0,0,.1-.2,.3-.3,1.1-.3,2.1l.2,4.8c0,1.1,.1,1.6,.3,1.8,0,0,0,.1,0,.1h-2.1c-.1,0,0,0,0-.1,.2-.2,.3-.7,.3-1.8v-5.3l-3.3,7.2c-.2,0-.6,0-.7,0l-3.2-7.1v5.1c-.1,1,0,1.6,0,1.8,0,0,0,.1,0,.1h-1.1c0,0,0,0,0-.1,.1-.2,.3-.9,.3-1.8Z"/>
          <path class="uuid-3ca32d43-9be0-4112-977e-92b41e8f24af" d="M248.6,467.4c.2,0,.3,0,.3,.2v1.1s-.1,0-.2,0c-.3-.3-1.1-.7-1.8-.7h-1.7v3.5h1.7c.6,0,1.2-.3,1.3-.3,0,0,0,0,0,0v1.1s0,0,0,0c-.2,0-.6-.3-1.3-.3h-1.7v3.2c0,.4,0,.5,.4,.5h1.3c1.1,0,1.9-.7,2.3-1,0,0,.3,0,.3,0l-.3,1.4c0,.2-.2,.2-.3,.2h-5.6c-.1,0-.1,0,0-.1,.2-.2,.3-.9,.3-1.8v-5.1c0-.9,0-1.6-.3-1.8,0,0,0-.1,0-.1h5.4Zm-3.1-.8s-.1,0-.2-.1c0,0-.1-.2,0-.2l1.8-2.6,1.2,1.3-2.6,1.6Z"/>
        </g>
        <g class="uuid-2da814d6-499e-4af4-9821-7c33eec65651">
          <path class="uuid-3ca32d43-9be0-4112-977e-92b41e8f24af" d="M419.9,79.6c2.6,.7,1.2,4.5,.3,6-1.5,2.4-2.7,4.3-2.9,7.2s.4,5.8-.3,8.6c-.5,2.1-1.6,4-2.8,5.8-2.2,3.4-5.1,6.7-5.7,11s-.1,1.9,0,2.8c.2,1.6,.8,3.2,.5,4.8-.4,2.6-3.4,3-5.2,4.3-3.2,2.4-4.3,6.7-4.3,10.7,0,2.2,.2,4.5,.7,6.6,.6,2.8,1.5,5.7-.6,8-2.7,3.1-7,3.9-9,8-2.1,4.6-1.2,10-1.5,14.9-.4,5.8-1.8,11.5-4.5,16.5-1.3,2.3-3.2,4.4-4,7-.9,2.7-.3,5.6-.6,8.3-.5,5.4-5.5,8.2-7.7,12.6-2.4,4.6-2.5,10.2-5,14.8s-6.3,6.3-8.1,10.5c-.9,2.2-.7,4.4-.7,6.7s0,2.6-.6,3.7-1.7,1.5-2.8,2c-1.8,.7-3.5,1.4-4.1,3.5s.2,4.3,.4,6.5c.4,5.5-5.4,4.6-8.5,6.9-4,3-3.2,8.9-2.6,13.4,.4,3.1,.4,6-.9,8.8-1,2.2-2.4,4.2-3.7,6.1-2.9,4.1-5.3,8.2-6,13.4-.6,5.4,.4,11,2.1,16.1,.9,2.6,1.9,5.1,3.1,7.5,.4,.9,1.6,0,1.2-.8-2.5-5.2-4.6-10.9-5.1-16.8-.5-5.6,.7-10.8,3.7-15.5,2.6-4,6-7.6,6.9-12.5s-2.2-11.7,.5-16.7c2.1-3.9,7.4-2.4,9.7-6,1.2-1.8,.9-4,.5-6.1s-.4-2.3-.2-3.4,1.2-2.1,2.4-2.6c1.8-.7,3.7-1.2,4.6-3.2s.6-4.5,.6-6.7c0-5.4,4.2-8.1,7.1-11.8,3.1-4,3.7-9.1,5.2-13.9,.9-2.7,2.1-4.9,3.9-7,1.5-1.8,3.2-3.5,4.2-5.7,1.2-2.4,1.1-5,1.1-7.6s0-2.9,.5-4.3c.5-1.4,1.3-2.7,2.2-3.9,3-4.6,5-9.8,5.9-15.4,.4-2.7,.6-5.5,.6-8.3s-.1-5.2,.4-7.8c.5-2.5,1.7-4.5,3.6-6,1.6-1.2,3.5-2.1,5-3.4s2.5-3,2.7-5.1c.2-2.6-.9-5.2-1.2-7.8-.6-4.2-.4-9.7,2.8-12.7,1.6-1.5,3.9-1.8,5.3-3.5,1.7-2,1.1-4.6,.7-7-.7-4.7,1.9-8.4,4.4-12,1.2-1.8,2.5-3.6,3.3-5.7s1.1-4.5,1.1-7c0-3.2-.2-6.1,1.5-8.8,1.2-1.9,2.7-3.7,2.6-6.1s-.9-3.4-2.5-3.8c-.9-.2-1.3,1.2-.4,1.5h0Z"/>
        </g>
        <g>
          <path class="uuid-3ca32d43-9be0-4112-977e-92b41e8f24af" d="M284.5,249.4c-.6,.5-1.5,.9-3.1,.9-2.5,0-4.5-1.5-4.5-4.6s2-4.7,4.7-4.7,2.3,.2,2.8,.5c.2,.1,.3,.2,.2,.5l-.2,.8c0,0-.2,0-.3,0-.4-.5-1.1-1.2-2.5-1.2s-2.8,1.6-2.8,4.1,1.1,3.8,3,3.8,2-.4,2.6-.8c0,0,0,.6,0,.7Z"/>
          <path class="uuid-3ca32d43-9be0-4112-977e-92b41e8f24af" d="M287.9,245.3h4.3v-2.1c0-.9,0-1.6-.2-1.8,0,0,0-.1,0-.1h2.1c.1,0,.1,0,0,.1-.2,.2-.3,.9-.3,1.8v5.1c0,.9,0,1.6,.3,1.8,0,0,0,.1,0,.1h-2.1c-.1,0-.1,0,0-.1,.2-.2,.2-.9,.2-1.8v-2.3h-4.3v2.3c0,.9,0,1.6,.3,1.8,0,0,0,.1,0,.1h-2.1c-.1,0-.1,0,0-.1,.2-.2,.3-.9,.3-1.8v-5.1c0-.9,0-1.6-.3-1.8,0,0,0-.1,0-.1h2.1c.1,0,.1,0,0,.1-.2,.2-.3,.9-.3,1.8v2.1Z"/>
          <path class="uuid-3ca32d43-9be0-4112-977e-92b41e8f24af" d="M303.4,243.1c0-1-.2-1.6-.3-1.8,0,0,0-.1,0-.1h1.3s0,0,0,.1c-.2,.2-.3,.8-.3,1.8v4c0,1.8-1,3.2-3.5,3.2s-3.7-1.7-3.7-3.1v-4.1c0-.9,0-1.6-.3-1.8,0,0,0-.1,0-.1h2.1c.1,0,.1,0,0,.1-.2,.2-.2,.9-.2,1.8v4.1c0,1.3,.6,2.2,2.3,2.2s2.5-.8,2.5-2.4v-3.9Z"/>
          <path class="uuid-3ca32d43-9be0-4112-977e-92b41e8f24af" d="M314.4,250.2c-.5,0-1,0-1.5-.4-.7-.4-1.4-1.1-1.8-1.8-.5-.6-.8-1.2-1.1-1.8-.3,0-.9,0-1.2,0v1.9c0,.9,0,1.6,.3,1.8,0,0,0,.1,0,.1h-2.1c-.1,0-.1,0,0-.1,.2-.2,.3-.9,.3-1.8v-5.1c0-.9,0-1.6-.3-1.8,0,0,0-.1,0-.1h3.4c1.4,0,3.3,.3,3.3,2.4s-1.2,2.1-1.8,2.4c.3,.5,.7,1.1,1.3,1.9,1,1.3,1.6,1.9,2.1,2.2,0,0,0,.1,0,.2-.1,0-.4,0-.6,0Zm-5.7-8.5v4c.3,0,.7,0,1.2,0,.5,0,.9-.2,1.2-.5,.3-.3,.5-.9,.5-1.7,0-1.6-1-1.9-1.7-1.9h-1.2Z"/>
          <path class="uuid-3ca32d43-9be0-4112-977e-92b41e8f24af" d="M323,249.4c-.6,.5-1.5,.9-3.1,.9-2.5,0-4.5-1.5-4.5-4.6s2-4.7,4.7-4.7,2.3,.2,2.8,.5c.2,.1,.3,.2,.2,.5l-.2,.8c0,0-.2,0-.3,0-.4-.5-1.1-1.2-2.5-1.2s-2.8,1.6-2.8,4.1,1.1,3.8,3,3.8,2-.4,2.6-.8c0,0,0,.6,0,.7Z"/>
          <path class="uuid-3ca32d43-9be0-4112-977e-92b41e8f24af" d="M325.1,250.1h-1.5c0,0,0,0,0-.1,.3-.2,.6-.9,1.2-2.1l3-6.8h1l2.6,6.7c.4,.9,.8,1.8,1.1,2.1,0,0,0,.2,0,.2h-2.1c-.1,0-.2,0-.2-.2,0-.4-.2-1.2-.6-2.1l-.3-.8h-3.1l-.4,.9c-.5,1.1-.6,1.9-.5,2.1,0,0,0,.1-.1,.1Zm2.6-7.1l-1.4,3.4h2.7l-1.3-3.4Z"/>
          <path class="uuid-3ca32d43-9be0-4112-977e-92b41e8f24af" d="M334,250.1c-.1,0-.1,0,0-.1,.2-.2,.3-.9,.3-1.8v-5.1c0-.9,0-1.6-.3-1.8,0,0,0-.1,0-.1h2.1c.1,0,.1,0,0,.1-.2,.2-.3,.9-.3,1.8v6c0,.4,0,.5,.4,.5h1.1c1.1,0,1.9-.7,2.3-1,0,0,.3,0,.3,0l-.3,1.4c0,.2-.2,.2-.3,.2h-5.4Z"/>
        </g>
        <g>
          <path class="uuid-3ca32d43-9be0-4112-977e-92b41e8f24af" d="M405.8,197.4c0-.6-.2-.9-.7-1.2-.4-.2-.9-.4-1.5-.6-.8-.3-1.4-.6-1.8-1s-.7-1-.7-1.7c0-1.6,1.3-2.5,3.3-2.5s2,.2,2.5,.4c.2,0,.3,.2,.3,.5v.8c-.2,0-.3,0-.3,0-.5-.6-1.3-1-2.4-1s-1.7,.6-1.7,1.4,.7,1.4,1.9,1.8c.9,.3,1.6,.6,2.1,1,.5,.4,.8,1,.8,1.7,0,1.9-1.6,2.8-3.6,2.8s-2.1-.2-2.6-.4c-.2-.1-.3-.2-.2-.5v-.9c0,0,.2,0,.3,0,.5,.6,1.4,1.2,2.5,1.2s2-.7,2-1.7Z"/>
          <path class="uuid-3ca32d43-9be0-4112-977e-92b41e8f24af" d="M414.9,190.5c.2,0,.3,0,.3,.2v1.1s-.1,0-.2,0c-.3-.3-1.1-.7-1.8-.7h-1.7v3.5h1.7c.6,0,1.2-.3,1.3-.3,0,0,0,0,0,0v1.1s0,0,0,0c-.2,0-.6-.3-1.3-.3h-1.7v3.2c0,.4,0,.5,.4,.5h1.3c1.1,0,1.9-.7,2.3-1,0,0,.3,0,.3,0l-.3,1.4c0,.2-.2,.2-.3,.2h-5.6c-.1,0-.1,0,0-.1,.2-.2,.3-.9,.3-1.8v-5.1c0-.9,0-1.6-.3-1.8,0,0,0-.1,0-.1h5.4Z"/>
          <path class="uuid-3ca32d43-9be0-4112-977e-92b41e8f24af" d="M424.4,198.8c-.6,.5-1.5,.9-3.1,.9-2.5,0-4.5-1.5-4.5-4.6s2-4.7,4.7-4.7,2.3,.2,2.8,.5c.2,.1,.3,.2,.2,.5l-.2,.8c0,0-.2,0-.3,0-.4-.5-1.1-1.2-2.5-1.2s-2.8,1.6-2.8,4.1,1.1,3.8,3,3.8,2-.4,2.6-.8c0,0,0,.6,0,.7Z"/>
          <path class="uuid-3ca32d43-9be0-4112-977e-92b41e8f24af" d="M425.9,199.5c-.1,0-.1,0,0-.1,.2-.2,.3-.9,.3-1.8v-5.1c0-.9,0-1.6-.3-1.8,0,0,0-.1,0-.1h2.1c.1,0,.1,0,0,.1-.2,.2-.3,.9-.3,1.8v6c0,.4,0,.5,.4,.5h1.1c1.1,0,1.9-.7,2.3-1,0,0,.3,0,.3,0l-.3,1.4c0,.2-.2,.2-.3,.2h-5.4Z"/>
          <path class="uuid-3ca32d43-9be0-4112-977e-92b41e8f24af" d="M434.1,199.5h-1.5c0,0,0,0,0-.1,.3-.2,.6-.9,1.2-2.1l3-6.8h1l2.6,6.7c.4,.9,.8,1.8,1.1,2.1,0,0,0,.2,0,.2h-2.1c-.1,0-.2,0-.2-.2,0-.4-.2-1.2-.6-2.1l-.3-.8h-3.1l-.4,.9c-.5,1.1-.6,1.9-.5,2.1,0,0,0,.1-.1,.1Zm2.6-7.1l-1.4,3.4h2.7l-1.3-3.4Z"/>
          <path class="uuid-3ca32d43-9be0-4112-977e-92b41e8f24af" d="M443.2,191.4c0,0-.2-.2-.4-.4s-.3-.3-.3-.4c0,0,0-.1,0-.1h1.9c.2,0,.2,0,.4,.2l5,6.2v-4.4c0-1-.2-1.6-.3-1.8,0,0,0-.1,0-.1h1.3s0,0,0,.1c-.2,.2-.3,.8-.3,1.8v7c-.1,0-.7,0-.8,0l-5.8-7.2v5.2c0,1,.2,1.6,.3,1.8,0,0,0,.1,0,.1h-1.3s0,0,0-.1c.1-.2,.3-.8,.3-1.8v-6.1Z"/>
          <path class="uuid-3ca32d43-9be0-4112-977e-92b41e8f24af" d="M460.7,190.5c.2,0,.3,0,.3,.2v1.2s0,0-.2,0c-.4-.4-1.2-.8-1.8-.8h-1.4v6.4c0,1.1,.1,1.6,.3,1.8,0,0,0,.1,0,.1h-2.2c-.1,0-.1,0,0-.1,.2-.2,.3-.7,.3-1.8v-6.4h-1.4c-.7,0-1.4,.5-1.8,.8,0,0-.1,0-.2,0v-1.2c0-.2,.2-.2,.3-.2h7.9Z"/>
          <path class="uuid-3ca32d43-9be0-4112-977e-92b41e8f24af" d="M462.5,199.5h-1.5c0,0,0,0,0-.1,.3-.2,.6-.9,1.2-2.1l3-6.8h1l2.6,6.7c.4,.9,.8,1.8,1.1,2.1,0,0,0,.2,0,.2h-2.1c-.1,0-.2,0-.2-.2,0-.4-.2-1.2-.6-2.1l-.3-.8h-3.1l-.4,.9c-.5,1.1-.5,1.9-.5,2.1,0,0,0,.1-.1,.1Zm2.6-7.1l-1.4,3.4h2.7l-1.3-3.4Zm0-2.5s-.1,0-.2-.1c0,0-.1-.2,0-.2l1.8-2.6,1.2,1.3-2.6,1.6Z"/>
          <path class="uuid-3ca32d43-9be0-4112-977e-92b41e8f24af" d="M475.8,197.4c0-.6-.2-.9-.7-1.2-.4-.2-.9-.4-1.5-.6-.8-.3-1.4-.6-1.8-1s-.7-1-.7-1.7c0-1.6,1.3-2.5,3.3-2.5s2,.2,2.5,.4c.2,0,.3,.2,.3,.5v.8c-.2,0-.3,0-.3,0-.5-.6-1.3-1-2.4-1s-1.7,.6-1.7,1.4,.7,1.4,1.9,1.8c.9,.3,1.6,.6,2.1,1,.5,.4,.8,1,.8,1.7,0,1.9-1.6,2.8-3.6,2.8s-2.1-.2-2.6-.4c-.2-.1-.3-.2-.2-.5v-.9c0,0,.2,0,.3,0,.5,.6,1.4,1.2,2.5,1.2s2-.7,2-1.7Z"/>
        </g>
        <g>
          <path class="uuid-3ca32d43-9be0-4112-977e-92b41e8f24af" d="M323.3,141.1c0-.6-.2-.9-.7-1.2-.4-.2-.9-.4-1.5-.6-.8-.3-1.4-.6-1.8-1s-.7-1-.7-1.7c0-1.6,1.3-2.5,3.3-2.5s2,.2,2.5,.4c.2,0,.3,.2,.3,.5v.8c-.2,0-.3,0-.3,0-.5-.6-1.3-1-2.4-1s-1.7,.6-1.7,1.4,.7,1.4,1.9,1.8c.9,.3,1.6,.6,2.1,1,.5,.4,.8,1,.8,1.7,0,1.9-1.6,2.8-3.6,2.8s-2.1-.2-2.6-.4c-.2-.1-.3-.2-.2-.5v-.9c0,0,.2,0,.3,0,.5,.6,1.4,1.2,2.5,1.2s2-.7,2-1.7Z"/>
          <path class="uuid-3ca32d43-9be0-4112-977e-92b41e8f24af" d="M327.4,143.2h-1.5c0,0,0,0,0-.1,.3-.2,.6-.9,1.2-2.1l3-6.8h1l2.6,6.7c.4,.9,.8,1.8,1.1,2.1,0,0,0,.2,0,.2h-2.1c-.1,0-.2,0-.2-.2,0-.4-.2-1.2-.6-2.1l-.3-.8h-3.1l-.4,.9c-.5,1.1-.6,1.9-.5,2.1,0,0,0,.1-.1,.1Zm2.6-7.1l-1.4,3.4h2.7l-1.3-3.4Z"/>
          <path class="uuid-3ca32d43-9be0-4112-977e-92b41e8f24af" d="M336.6,135.1c0,0-.2-.2-.4-.4s-.3-.3-.3-.4c0,0,0-.1,0-.1h1.9c.2,0,.2,0,.4,.2l5,6.2v-4.4c0-1-.2-1.6-.3-1.8,0,0,0-.1,0-.1h1.3s0,0,0,.1c-.2,.2-.3,.8-.3,1.8v7c-.1,0-.7,0-.8,0l-5.8-7.2v5.2c0,1,.2,1.6,.3,1.8,0,0,0,.1,0,.1h-1.3s0,0,0-.1c.1-.2,.3-.8,.3-1.8v-6.1Z"/>
          <path class="uuid-3ca32d43-9be0-4112-977e-92b41e8f24af" d="M352,142.4c0,1.5-.8,2.1-1.9,2.1s-.8,0-.9-.1c0,0-.1,0,0-.1,0,0,0,0,.3-.1,.2,0,.4-.2,.6-.4s.3-.6,.3-1.2v-6.3c0-.9-.1-1.6-.3-1.8,0,0,0-.1,0-.1h2.1c.1,0,.1,0,0,.1-.2,.2-.3,.9-.3,1.8v6.2Z"/>
          <path class="uuid-3ca32d43-9be0-4112-977e-92b41e8f24af" d="M354.2,138.7c0-2.8,1.9-4.7,4.7-4.7s4.8,1.8,4.8,4.7-1.9,4.7-4.8,4.7-4.7-1.8-4.7-4.7Zm7.5,0c0-2.3-.8-4.1-2.8-4.1s-2.8,1.8-2.8,4.1,.8,4.1,2.8,4.1,2.8-1.8,2.8-4.1Z"/>
          <path class="uuid-3ca32d43-9be0-4112-977e-92b41e8f24af" d="M370.1,141.1c0-.6-.2-.9-.7-1.2-.4-.2-.9-.4-1.5-.6-.8-.3-1.4-.6-1.8-1s-.7-1-.7-1.7c0-1.6,1.3-2.5,3.3-2.5s2,.2,2.5,.4c.2,0,.3,.2,.3,.5v.8c-.2,0-.3,0-.3,0-.5-.6-1.3-1-2.4-1s-1.7,.6-1.7,1.4,.7,1.4,1.9,1.8c.9,.3,1.6,.6,2.1,1,.5,.4,.8,1,.8,1.7,0,1.9-1.6,2.8-3.6,2.8s-2.1-.2-2.6-.4c-.2-.1-.3-.2-.2-.5v-.9c0,0,.2,0,.3,0,.5,.6,1.4,1.2,2.5,1.2s2-.7,2-1.7Z"/>
          <path class="uuid-3ca32d43-9be0-4112-977e-92b41e8f24af" d="M379.1,134.3c.2,0,.3,0,.3,.2v1.1s-.1,0-.2,0c-.3-.3-1.1-.7-1.8-.7h-1.7v3.5h1.7c.6,0,1.2-.3,1.3-.3,0,0,0,0,0,0v1.1s0,0,0,0c-.2,0-.6-.3-1.3-.3h-1.7v3.2c0,.4,0,.5,.4,.5h1.3c1.1,0,1.9-.7,2.3-1,0,0,.3,0,.3,0l-.3,1.4c0,.2-.2,.2-.3,.2h-5.6c-.1,0-.1,0,0-.1,.2-.2,.3-.9,.3-1.8v-5.1c0-.9,0-1.6-.3-1.8,0,0,0-.1,0-.1h5.4Zm-3.1-.8s-.1,0-.2-.1c0,0-.1-.2,0-.2l1.8-2.6,1.2,1.3-2.6,1.6Z"/>
          <path class="uuid-3ca32d43-9be0-4112-977e-92b41e8f24af" d="M294.5,160.1c-.1,0-.1,0,0-.1,.2-.2,.3-.9,.3-1.8v-5.1c0-.9,0-1.6-.3-1.8,0,0,0-.1,0-.1h3.9c3.2,0,4.6,1.9,4.6,4.2s-1.5,4.7-4.6,4.7h-3.8Zm1.9-1c0,.3,0,.4,.3,.4h1.3c2.1,0,2.9-1.8,2.9-4.1s-.8-3.7-2.9-3.7h-1.7v7.4Z"/>
          <path class="uuid-3ca32d43-9be0-4112-977e-92b41e8f24af" d="M310.4,151.2c.2,0,.3,0,.3,.2v1.1s-.1,0-.2,0c-.3-.3-1.1-.7-1.8-.7h-1.7v3.5h1.7c.6,0,1.2-.3,1.3-.3,0,0,0,0,0,0v1.1s0,0,0,0c-.2,0-.6-.3-1.3-.3h-1.7v3.2c0,.4,0,.5,.4,.5h1.3c1.1,0,1.9-.7,2.3-1,0,0,.3,0,.3,0l-.3,1.4c0,.2-.2,.2-.3,.2h-5.6c-.1,0-.1,0,0-.1,.2-.2,.3-.9,.3-1.8v-5.1c0-.9,0-1.6-.3-1.8,0,0,0-.1,0-.1h5.4Z"/>
          <path class="uuid-3ca32d43-9be0-4112-977e-92b41e8f24af" d="M321.6,151.2c.2,0,.3,0,.3,.2v1.1s-.1,0-.2,0c-.3-.3-1.1-.7-1.8-.7h-1.7v3.5h1.7c.6,0,1.2-.3,1.3-.3,0,0,0,0,0,0v1.1s0,0,0,0c-.2,0-.6-.3-1.3-.3h-1.7v3.2c0,.4,0,.5,.4,.5h1.3c1.1,0,1.9-.7,2.3-1,0,0,.3,0,.3,0l-.3,1.4c0,.2-.2,.2-.3,.2h-5.6c-.1,0-.1,0,0-.1,.2-.2,.3-.9,.3-1.8v-5.1c0-.9,0-1.6-.3-1.8,0,0,0-.1,0-.1h5.4Z"/>
          <path class="uuid-3ca32d43-9be0-4112-977e-92b41e8f24af" d="M328.5,158c0-.6-.2-.9-.7-1.2-.4-.2-.9-.4-1.5-.6-.8-.3-1.4-.6-1.8-1s-.7-1-.7-1.7c0-1.6,1.3-2.5,3.3-2.5s2,.2,2.5,.4c.2,0,.3,.2,.3,.5v.8c-.2,0-.3,0-.3,0-.5-.6-1.3-1-2.4-1s-1.7,.6-1.7,1.4,.7,1.4,1.9,1.8c.9,.3,1.6,.6,2.1,1,.5,.4,.8,1,.8,1.7,0,1.9-1.6,2.8-3.6,2.8s-2.1-.2-2.6-.4c-.2-.1-.3-.2-.2-.5v-.9c0,0,.2,0,.3,0,.5,.6,1.4,1.2,2.5,1.2s2-.7,2-1.7Z"/>
          <path class="uuid-3ca32d43-9be0-4112-977e-92b41e8f24af" d="M339.3,159.4c-.6,.5-1.5,.9-3.1,.9-2.5,0-4.5-1.5-4.5-4.6s2-4.7,4.7-4.7,2.3,.2,2.8,.5c.2,.1,.3,.2,.2,.5l-.2,.8c0,0-.2,0-.3,0-.4-.5-1.1-1.2-2.5-1.2s-2.8,1.6-2.8,4.1,1.1,3.8,3,3.8,2-.4,2.6-.8c0,0,0,.6,0,.7Z"/>
          <path class="uuid-3ca32d43-9be0-4112-977e-92b41e8f24af" d="M341.4,160.1h-1.5c0,0,0,0,0-.1,.3-.2,.6-.9,1.2-2.1l3-6.8h1l2.6,6.7c.4,.9,.8,1.8,1.1,2.1,0,0,0,.2,0,.2h-2.1c-.1,0-.2,0-.2-.2,0-.4-.2-1.2-.6-2.1l-.3-.8h-3.1l-.4,.9c-.5,1.1-.6,1.9-.5,2.1,0,0,0,.1-.1,.1Zm2.6-7.1l-1.4,3.4h2.7l-1.3-3.4Z"/>
          <path class="uuid-3ca32d43-9be0-4112-977e-92b41e8f24af" d="M350.3,160.1c-.1,0-.1,0,0-.1,.2-.2,.3-.9,.3-1.8v-5.1c0-.9,0-1.6-.3-1.8,0,0,0-.1,0-.1h2.1c.1,0,.1,0,0,.1-.2,.2-.3,.9-.3,1.8v6c0,.4,0,.5,.4,.5h1.1c1.1,0,1.9-.7,2.3-1,0,0,.3,0,.3,0l-.3,1.4c0,.2-.2,.2-.3,.2h-5.4Z"/>
          <path class="uuid-3ca32d43-9be0-4112-977e-92b41e8f24af" d="M364.6,159.4c-.6,.5-1.5,.9-3.1,.9-2.5,0-4.5-1.5-4.5-4.6s2-4.7,4.7-4.7,2.3,.2,2.8,.5c.2,.1,.3,.2,.2,.5l-.2,.8c0,0-.2,0-.3,0-.4-.5-1.1-1.2-2.5-1.2s-2.8,1.6-2.8,4.1,1.1,3.8,3,3.8,2-.4,2.6-.8c0,0,0,.6,0,.7Z"/>
          <path class="uuid-3ca32d43-9be0-4112-977e-92b41e8f24af" d="M368,155.3h4.3v-2.1c0-.9,0-1.6-.2-1.8,0,0,0-.1,0-.1h2.1c.1,0,.1,0,0,.1-.2,.2-.3,.9-.3,1.8v5.1c0,.9,0,1.6,.3,1.8,0,0,0,.1,0,.1h-2.1c-.1,0-.1,0,0-.1,.2-.2,.2-.9,.2-1.8v-2.3h-4.3v2.3c0,.9,0,1.6,.3,1.8,0,0,0,.1,0,.1h-2.1c-.1,0-.1,0,0-.1,.2-.2,.3-.9,.3-1.8v-5.1c0-.9,0-1.6-.3-1.8,0,0,0-.1,0-.1h2.1c.1,0,.1,0,0,.1-.2,.2-.3,.9-.3,1.8v2.1Z"/>
          <path class="uuid-3ca32d43-9be0-4112-977e-92b41e8f24af" d="M378.8,158.2c0,.9,0,1.6,.3,1.8,0,0,0,.1,0,.1h-2.1c-.1,0-.1,0,0-.1,.2-.2,.3-.9,.3-1.8v-5.1c0-.9,0-1.6-.3-1.8,0,0,0-.1,0-.1h2.1c.1,0,.1,0,0,.1-.2,.2-.3,.9-.3,1.8v5.1Z"/>
        </g>
        <g>
          <path class="uuid-3ca32d43-9be0-4112-977e-92b41e8f24af" d="M432,102.1c.2,0,.3,0,.3,.2v1.1s-.1,0-.2,0c-.3-.3-1.1-.7-1.8-.7h-1.7v3.5h1.7c.6,0,1.2-.3,1.3-.3,0,0,0,0,0,0v1.1s0,0,0,0c-.2,0-.6-.3-1.3-.3h-1.7v3.2c0,.4,0,.5,.4,.5h1.3c1.1,0,1.9-.7,2.3-1,0,0,.3,0,.3,0l-.3,1.4c0,.2-.2,.2-.3,.2h-5.6c-.1,0-.1,0,0-.1,.2-.2,.3-.9,.3-1.8v-5.1c0-.9,0-1.6-.3-1.8,0,0,0-.1,0-.1h5.4Z"/>
          <path class="uuid-3ca32d43-9be0-4112-977e-92b41e8f24af" d="M438.9,109c0-.6-.2-.9-.7-1.2-.4-.2-.9-.4-1.5-.6-.8-.3-1.4-.6-1.8-1s-.7-1-.7-1.7c0-1.6,1.3-2.5,3.3-2.5s2,.2,2.5,.4c.2,0,.3,.2,.3,.5v.8c-.2,0-.3,0-.3,0-.5-.6-1.3-1-2.4-1s-1.7,.6-1.7,1.4,.7,1.4,1.9,1.8c.9,.3,1.6,.6,2.1,1,.5,.4,.8,1,.8,1.7,0,1.9-1.6,2.8-3.6,2.8s-2.1-.2-2.6-.4c-.2-.1-.3-.2-.2-.5v-.9c0,0,.2,0,.3,0,.5,.6,1.4,1.2,2.5,1.2s2-.7,2-1.7Z"/>
          <path class="uuid-3ca32d43-9be0-4112-977e-92b41e8f24af" d="M449.8,110.3c-.6,.5-1.5,.9-3.1,.9-2.5,0-4.5-1.5-4.5-4.6s2-4.7,4.7-4.7,2.3,.2,2.8,.5c.2,.1,.3,.2,.2,.5l-.2,.8c0,0-.2,0-.3,0-.4-.5-1.1-1.2-2.5-1.2s-2.8,1.6-2.8,4.1,1.1,3.8,3,3.8,2-.4,2.6-.8c0,0,0,.6,0,.7Z"/>
          <path class="uuid-3ca32d43-9be0-4112-977e-92b41e8f24af" d="M451.8,111.1h-1.5c0,0,0,0,0-.1,.3-.2,.6-.9,1.2-2.1l3-6.8h1l2.6,6.7c.4,.9,.8,1.8,1.1,2.1,0,0,0,.2,0,.2h-2.1c-.1,0-.2,0-.2-.2,0-.4-.2-1.2-.6-2.1l-.3-.8h-3.1l-.4,.9c-.5,1.1-.6,1.9-.5,2.1,0,0,0,.1-.1,.1Zm2.6-7.1l-1.4,3.4h2.7l-1.3-3.4Z"/>
          <path class="uuid-3ca32d43-9be0-4112-977e-92b41e8f24af" d="M460.7,111.1c-.1,0-.1,0,0-.1,.2-.2,.3-.9,.3-1.8v-5.1c0-.9,0-1.6-.3-1.8,0,0,0-.1,0-.1h2.1c.1,0,.1,0,0,.1-.2,.2-.3,.9-.3,1.8v6c0,.4,0,.5,.4,.5h1.1c1.1,0,1.9-.7,2.3-1,0,0,.3,0,.3,0l-.3,1.4c0,.2-.2,.2-.3,.2h-5.4Z"/>
          <path class="uuid-3ca32d43-9be0-4112-977e-92b41e8f24af" d="M475.1,110.3c-.6,.5-1.5,.9-3.1,.9-2.5,0-4.5-1.5-4.5-4.6s2-4.7,4.7-4.7,2.3,.2,2.8,.5c.2,.1,.3,.2,.2,.5l-.2,.8c0,0-.2,0-.3,0-.4-.5-1.1-1.2-2.5-1.2s-2.8,1.6-2.8,4.1,1.1,3.8,3,3.8,2-.4,2.6-.8c0,0,0,.6,0,.7Z"/>
          <path class="uuid-3ca32d43-9be0-4112-977e-92b41e8f24af" d="M478.5,106.2h4.3v-2.1c0-.9,0-1.6-.2-1.8,0,0,0-.1,0-.1h2.1c.1,0,.1,0,0,.1-.2,.2-.3,.9-.3,1.8v5.1c0,.9,0,1.6,.3,1.8,0,0,0,.1,0,.1h-2.1c-.1,0-.1,0,0-.1,.2-.2,.2-.9,.2-1.8v-2.3h-4.3v2.3c0,.9,0,1.6,.3,1.8,0,0,0,.1,0,.1h-2.1c-.1,0-.1,0,0-.1,.2-.2,.3-.9,.3-1.8v-5.1c0-.9,0-1.6-.3-1.8,0,0,0-.1,0-.1h2.1c.1,0,.1,0,0,.1-.2,.2-.3,.9-.3,1.8v2.1Z"/>
          <path class="uuid-3ca32d43-9be0-4112-977e-92b41e8f24af" d="M489.3,109.1c0,.9,0,1.6,.3,1.8,0,0,0,.1,0,.1h-2.1c-.1,0-.1,0,0-.1,.2-.2,.3-.9,.3-1.8v-5.1c0-.9,0-1.6-.3-1.8,0,0,0-.1,0-.1h2.1c.1,0,.1,0,0,.1-.2,.2-.3,.9-.3,1.8v5.1Z"/>
        </g>
        <g>
          <path class="uuid-3ca32d43-9be0-4112-977e-92b41e8f24af" d="M494.5,547.5c-4,0-7.3,3.3-7.3,7.3s.5,3.1,1.4,4.3l5.5,8.2c0,.1,.2,.2,.4,.2s.3,0,.4-.2l5.5-8.2c.9-1.3,1.4-2.8,1.4-4.3,0-4-3.3-7.3-7.3-7.3Zm5.2,11.1h0l-5.2,7.7-5.2-7.7h0c-.8-1.1-1.3-2.5-1.3-3.9,0-3.6,2.9-6.5,6.5-6.5s6.5,2.9,6.5,6.5-.4,2.7-1.3,3.8Z"/>
          <path class="uuid-3ca32d43-9be0-4112-977e-92b41e8f24af" d="M497.5,554.3c-.2,0-.4,.2-.4,.4,0,1.4-1.1,2.6-2.6,2.6s-2.6-1.1-2.6-2.6,1.1-2.6,2.6-2.6,1,.2,1.4,.4c.2,.1,.5,0,.6-.1,.1-.2,0-.5-.1-.6-.6-.4-1.2-.6-1.9-.6-1.9,0-3.4,1.5-3.4,3.4s1.5,3.4,3.4,3.4,3.4-1.5,3.4-3.4-.2-.4-.4-.4Z"/>
          <path class="uuid-3ca32d43-9be0-4112-977e-92b41e8f24af" d="M497.1,552.9h0c-.2,0-.4,.2-.4,.4s.2,.4,.4,.4h0c.2,0,.4-.2,.4-.4,0-.2-.2-.4-.4-.4Z"/>
        </g>
        <g>
          <path class="uuid-3ca32d43-9be0-4112-977e-92b41e8f24af" d="M420.6,59.2c-4,0-7.3,3.3-7.3,7.3s.5,3.1,1.4,4.3l5.5,8.2c0,.1,.2,.2,.4,.2s.3,0,.4-.2l5.5-8.2c.9-1.3,1.4-2.8,1.4-4.3,0-4-3.3-7.3-7.3-7.3Zm5.2,11.1h0l-5.2,7.7-5.2-7.7h0c-.8-1.1-1.3-2.5-1.3-3.9,0-3.6,2.9-6.5,6.5-6.5s6.5,2.9,6.5,6.5-.4,2.7-1.3,3.8Z"/>
          <path class="uuid-3ca32d43-9be0-4112-977e-92b41e8f24af" d="M423.6,66.1c-.2,0-.4,.2-.4,.4,0,1.4-1.1,2.6-2.6,2.6s-2.6-1.1-2.6-2.6,1.1-2.6,2.6-2.6,1,.2,1.4,.4c.2,.1,.5,0,.6-.1,.1-.2,0-.5-.1-.6-.6-.4-1.2-.6-1.9-.6-1.9,0-3.4,1.5-3.4,3.4s1.5,3.4,3.4,3.4,3.4-1.5,3.4-3.4-.2-.4-.4-.4Z"/>
          <path class="uuid-3ca32d43-9be0-4112-977e-92b41e8f24af" d="M423.2,64.7h0c-.2,0-.4,.2-.4,.4s.2,.4,.4,.4h0c.2,0,.4-.2,.4-.4,0-.2-.2-.4-.4-.4Z"/>
        </g>
        <g>
          <path class="uuid-3ca32d43-9be0-4112-977e-92b41e8f24af" d="M131.9,561.6c-4,0-7.3,3.3-7.3,7.3s.5,3.1,1.4,4.3l5.5,8.2c0,.1,.2,.2,.4,.2s.3,0,.4-.2l5.5-8.2c.9-1.3,1.4-2.8,1.4-4.3,0-4-3.3-7.3-7.3-7.3Zm5.2,11.1h0l-5.2,7.7-5.2-7.7h0c-.8-1.1-1.3-2.5-1.3-3.9,0-3.6,2.9-6.5,6.5-6.5s6.5,2.9,6.5,6.5-.4,2.7-1.3,3.8Z"/>
          <path class="uuid-3ca32d43-9be0-4112-977e-92b41e8f24af" d="M134.9,568.5c-.2,0-.4,.2-.4,.4,0,1.4-1.1,2.6-2.6,2.6s-2.6-1.1-2.6-2.6,1.1-2.6,2.6-2.6,1,.2,1.4,.4c.2,.1,.5,0,.6-.1,.1-.2,0-.5-.1-.6-.6-.4-1.2-.6-1.9-.6-1.9,0-3.4,1.5-3.4,3.4s1.5,3.4,3.4,3.4,3.4-1.5,3.4-3.4-.2-.4-.4-.4Z"/>
          <path class="uuid-3ca32d43-9be0-4112-977e-92b41e8f24af" d="M134.6,567.1h0c-.2,0-.4,.2-.4,.4s.2,.4,.4,.4h0c.2,0,.4-.2,.4-.4,0-.2-.2-.4-.4-.4Z"/>
        </g>
        <g>
          <path class="uuid-3ca32d43-9be0-4112-977e-92b41e8f24af" d="M28.9,541.3c-4,0-7.3,3.3-7.3,7.3s.5,3.1,1.4,4.3l5.5,8.2c0,.1,.2,.2,.4,.2s.3,0,.4-.2l5.5-8.2c.9-1.3,1.4-2.8,1.4-4.3,0-4-3.3-7.3-7.3-7.3Zm5.2,11.1h0l-5.2,7.7-5.2-7.7h0c-.8-1.1-1.3-2.5-1.3-3.9,0-3.6,2.9-6.5,6.5-6.5s6.5,2.9,6.5,6.5-.4,2.7-1.3,3.8Z"/>
          <path class="uuid-3ca32d43-9be0-4112-977e-92b41e8f24af" d="M31.9,548.1c-.2,0-.4,.2-.4,.4,0,1.4-1.1,2.6-2.6,2.6s-2.6-1.1-2.6-2.6,1.1-2.6,2.6-2.6,1,.2,1.4,.4c.2,.1,.5,0,.6-.1,.1-.2,0-.5-.1-.6-.6-.4-1.2-.6-1.9-.6-1.9,0-3.4,1.5-3.4,3.4s1.5,3.4,3.4,3.4,3.4-1.5,3.4-3.4-.2-.4-.4-.4Z"/>
          <path class="uuid-3ca32d43-9be0-4112-977e-92b41e8f24af" d="M31.6,546.7h0c-.2,0-.4,.2-.4,.4s.2,.4,.4,.4h0c.2,0,.4-.2,.4-.4,0-.2-.2-.4-.4-.4Z"/>
        </g>
        <g>
          <g>
            <path class="uuid-3ca32d43-9be0-4112-977e-92b41e8f24af" d="M1,580c-.1,0-.1,0,0-.1,.2-.2,.3-.9,.3-1.6v-4.5c0-.7,0-1.4-.3-1.6,0,0,0-.1,0-.1H5.4c1.3,0,3.2,.1,3.2,1.9s-1,1.8-1.7,1.9h0c.9,.1,2,.6,2,1.9s-1.3,2.2-3.3,2.2H1Zm2.7-7.2v2.9h1.1c.3,0,.6-.1,.8-.3,.2-.2,.4-.6,.4-1.2,0-1.2-.8-1.4-1.3-1.4h-1Zm1.1,6.5c.9,0,1.4-.4,1.4-1.6s-.7-1.4-1.3-1.4h-1.2v2.7c0,.3,0,.3,.3,.3h.9Z"/>
            <path class="uuid-3ca32d43-9be0-4112-977e-92b41e8f24af" d="M10.1,576c0-2.7,2.1-4.2,4.9-4.2s4.9,1.5,4.9,4.2-2.1,4.2-4.9,4.2-4.9-1.5-4.9-4.2Zm7,0c0-2.1-.6-3.4-2.1-3.4s-2.1,1.3-2.1,3.4,.6,3.4,2.1,3.4,2.1-1.3,2.1-3.4Z"/>
            <path class="uuid-3ca32d43-9be0-4112-977e-92b41e8f24af" d="M21.4,580c-.1,0-.1,0,0-.1,.2-.2,.3-.9,.3-1.6v-4.5c0-.7,0-1.4-.3-1.6,0,0,0-.1,0-.1h4.6c3,0,4.4,1.7,4.4,3.8s-1.4,4.2-4.5,4.2h-4.5Zm2.7-1c0,.2,0,.3,.3,.3h1c.8,0,1.3-.3,1.7-.9,.3-.6,.5-1.4,.5-2.5,0-1.8-.6-3.1-2.2-3.1h-1.3v6.2Z"/>
            <path class="uuid-3ca32d43-9be0-4112-977e-92b41e8f24af" d="M38.1,572c.2,0,.2,0,.2,.2v1.3c0,0-.2,0-.2,0-.2-.2-.4-.3-.8-.5-.4-.2-.7-.3-1.1-.3h-1.5v2.8h1.5c.3,0,.5,0,.7-.1,.2,0,.4-.1,.5-.1,0,0,0,0,0,0v1.2s0,0,0,0c-.1,0-.6-.3-1.2-.3h-1.5v2.6c0,.3,0,.3,.3,.3h1.2c.9,0,1.9-.7,2.2-1,0,0,.3,0,.3,0l-.3,1.5c0,.2-.2,.2-.2,.2h-6.2c-.1,0-.1,0,0-.1,.2-.2,.3-.9,.3-1.6v-4.5c0-.7,0-1.4-.3-1.6,0,0,0-.1,0-.1h6.1Z"/>
            <path class="uuid-3ca32d43-9be0-4112-977e-92b41e8f24af" d="M44.8,571.8c1.5,0,2.5,.2,3,.4,.2,0,.3,.2,.2,.4l-.2,1c0,0-.2,0-.3,0-.5-.5-1.3-1-2.4-1-1.7,0-2.5,1.2-2.5,3.3,0,2,.7,3.3,2.3,3.3s.9,0,1.2-.2v-1.1c0-1,0-1.5-.3-1.7,0,0,0-.1,0-.1h2.4c.1,0,.1,0,0,.1-.1,.2-.2,.8-.2,1.7v1.9c0,0,0,0-.1,0l-1.3-.2c-.5,.2-1.4,.4-2.3,.4-2.9,0-4.7-1.4-4.7-4.2s2.1-4.2,5-4.2Z"/>
            <path class="uuid-3ca32d43-9be0-4112-977e-92b41e8f24af" d="M50.8,580h-1.5c0,0,0,0,0-.1,.2-.2,.6-.8,1-1.8l2.7-6h1.9l2.4,5.9c.3,.8,.7,1.5,1,1.9,0,0,0,.1,0,.1h-2.9c-.1,0-.1,0-.1-.1,0-.3-.2-1.1-.6-1.9l-.2-.5h-2.9l-.2,.5c-.4,1-.5,1.7-.4,1.9,0,0,0,.1,0,.1Zm2.2-6.1l-1.2,2.8h2.3l-1.1-2.8Z"/>
            <path class="uuid-3ca32d43-9be0-4112-977e-92b41e8f24af" d="M8.4,594.3c-.6,.4-1.6,.9-3.3,.9-2.8,0-4.6-1.4-4.6-4.2s2-4.2,4.9-4.2,2.5,.2,2.9,.4c.2,0,.2,.2,.2,.4v1c-.2,0-.4,0-.4,0-.5-.5-1.2-1-2.3-1s-2.4,1.2-2.4,3.3,.9,3.2,2.6,3.2,1.8-.3,2.3-.7c0,0,.2,.7,.1,.9Z"/>
            <path class="uuid-3ca32d43-9be0-4112-977e-92b41e8f24af" d="M9.1,590.9c0-2.7,2.1-4.2,4.9-4.2s4.9,1.5,4.9,4.2-2.1,4.2-4.9,4.2-4.9-1.5-4.9-4.2Zm7,0c0-2.1-.6-3.4-2.1-3.4s-2.1,1.3-2.1,3.4,.6,3.4,2.1,3.4,2.1-1.3,2.1-3.4Z"/>
            <path class="uuid-3ca32d43-9be0-4112-977e-92b41e8f24af" d="M20.5,594.9c-.1,0-.1,0,0-.1,.2-.2,.3-.9,.3-1.6v-4.5c0-.7,0-1.4-.3-1.6,0,0,0-.1,0-.1h2.9c.1,0,.1,0,0,.1-.2,.2-.3,.9-.3,1.6v5.1c0,.3,0,.3,.3,.3h.9c.9,0,1.9-.7,2.3-1.1,0,0,.3,0,.3,0l-.3,1.6c0,.2-.2,.2-.3,.2h-6Z"/>
            <path class="uuid-3ca32d43-9be0-4112-977e-92b41e8f24af" d="M27.6,590.9c0-2.7,2.1-4.2,4.9-4.2s4.9,1.5,4.9,4.2-2.1,4.2-4.9,4.2-4.9-1.5-4.9-4.2Zm7,0c0-2.1-.6-3.4-2.1-3.4s-2.1,1.3-2.1,3.4,.6,3.4,2.1,3.4,2.1-1.3,2.1-3.4Z"/>
            <path class="uuid-3ca32d43-9be0-4112-977e-92b41e8f24af" d="M39.2,593.2l.2-5.3c0,0-.1-.2-.2-.4,0-.2-.2-.3-.2-.4,0,0,0-.1,0-.1h2.6c.2,0,.2,0,.3,.2l2.5,5.5,2.2-5.1c.2-.5,.3-.5,.5-.5h2.3c0,0,0,0,0,.1-.2,.3-.2,1-.2,1.8v4.2c.2,1,.3,1.4,.4,1.6,0,0,0,.1,0,.1h-2.8c0,0,0,0,0-.1,.1-.2,.2-.6,.2-1.6v-4.3l-2.7,6c-.2,0-1.2,0-1.3,0l-2.7-5.9v4.2c-.1,.9,0,1.4,.1,1.6,0,0,0,.1,0,.1h-1.4s0,0,0-.1c.1-.2,.3-.8,.3-1.6Z"/>
            <path class="uuid-3ca32d43-9be0-4112-977e-92b41e8f24af" d="M57.6,587c.2,0,.2,0,.2,.2v1.3c0,0-.2,0-.2,0-.2-.2-.4-.3-.8-.5-.4-.2-.7-.3-1.1-.3h-1.5v2.8h1.5c.3,0,.5,0,.7-.1,.2,0,.4-.1,.5-.1,0,0,0,0,0,0v1.2s0,0,0,0c-.1,0-.6-.3-1.2-.3h-1.5v2.6c0,.3,0,.3,.3,.3h1.2c.9,0,1.9-.7,2.2-1,0,0,.3,0,.3,0l-.3,1.5c0,.2-.2,.2-.2,.2h-6.2c-.1,0-.1,0,0-.1,.2-.2,.3-.9,.3-1.6v-4.5c0-.7,0-1.4-.3-1.6,0,0,0-.1,0-.1h6.1Zm-3.5-.7s-.1,0-.2-.1c-.1-.1-.2-.2-.1-.2l1.8-2.5,1.2,1.4-2.7,1.6Z"/>
          </g>
          <g id="uuid-49f8c841-78ca-4f07-b2f4-a5b9e61cbb42" data-name="g3940">
            <g id="uuid-4cbbfecd-e857-403f-811e-4beb29f481d3" data-name="g3946" transform="translate(170.0489,308.8997)">
              <g id="uuid-ae38a82f-3940-4254-aa06-e2674d8921e1" data-name="path3948">
                <path class="uuid-3ca32d43-9be0-4112-977e-92b41e8f24af" d="M27.8,604.7c-.5-.4-.9-1-1-1.7,0-.7,0-1.4,.5-1.9s1-.9,1.7-1c.7,0,1.4,0,1.9,.5s.9,1,1,1.7c.2,1.4-.8,2.7-2.2,2.9h0c-.7,0-1.4,0-1.9-.5Zm2.8-3.6c-.4-.3-.9-.5-1.4-.4-.5,0-1,.3-1.3,.7s-.5,.9-.4,1.4c0,.5,.3,1,.7,1.3,.4,.3,.9,.5,1.4,.4h0c1.1-.1,1.8-1.1,1.7-2.2,0-.5-.3-1-.7-1.3Z"/>
              </g>
            </g>
            <g id="uuid-ce354f18-f38c-4c1d-a960-d4d857d6630a" data-name="g3950" transform="translate(239.4288,239.5197)">
              <g id="uuid-57d8d3ff-07f9-4cd5-b9a5-05b97d12448c" data-name="path3952">
                <path class="uuid-3ca32d43-9be0-4112-977e-92b41e8f24af" d="M28.4,609.2c-.5-.4-.9-1-1-1.7,0-.7,0-1.4,.5-1.9s1-.9,1.7-1c1.4-.2,2.7,.8,2.9,2.2,0,.7,0,1.4-.5,1.9s-1,.9-1.7,1h0c-.7,0-1.4,0-1.9-.5Zm2.8-3.6c-.4-.3-.9-.5-1.4-.4-.5,0-1,.3-1.3,.7s-.5,.9-.4,1.4,.3,1,.7,1.3,.9,.5,1.4,.4h0c.5,0,1-.3,1.3-.7s.5-.9,.4-1.4c0-.5-.3-1-.7-1.3Z"/>
              </g>
            </g>
            <g id="uuid-dca4a8cf-789c-4db2-a0f3-70d2a4eed84d" data-name="g3954" transform="translate(171.4375,383.2657)">
              <g id="uuid-29752773-19cb-46c4-b77c-3519e936e588" data-name="path3956">
                <path class="uuid-3ca32d43-9be0-4112-977e-92b41e8f24af" d="M32.2,607c0,0-.1-.1-.1-.2,0-.2,.1-.3,.3-.4,.5,0,1-.3,1.3-.7s.5-.9,.4-1.4c-.1-1.1-1.1-1.8-2.2-1.7s-.3-.1-.4-.3,.1-.3,.3-.4c1.4-.2,2.7,.8,2.9,2.2s0,1.4-.5,1.9-1,.9-1.7,1c0,0-.2,0-.2,0Z"/>
              </g>
            </g>
            <g id="uuid-5d96d9d6-c7e2-4667-aeb2-cace3d20b7db" data-name="g3958" transform="translate(144.6096,214.0804)">
              <g id="uuid-a4a9ddc0-229c-4594-8184-ccd65246e974" data-name="path3960">
                <path class="uuid-3ca32d43-9be0-4112-977e-92b41e8f24af" d="M24.2,607.4c-.5-.4-.9-1-1-1.7,0-.7,0-1.4,.5-1.9,.4-.5,1-.9,1.7-1,1.4-.2,2.7,.8,2.9,2.2s0,1.4-.5,1.9-1,.9-1.7,1h0c-.7,0-1.4,0-1.9-.5Zm2.8-3.6c-.4-.3-.9-.5-1.4-.4-.5,0-1,.3-1.3,.7s-.5,.9-.4,1.4c0,.5,.3,1,.7,1.3s.9,.5,1.4,.4h0c.5,0,1-.3,1.3-.7s.5-.9,.4-1.4c0-.5-.3-1-.7-1.3Z"/>
              </g>
            </g>
            <g id="uuid-6c50fc3f-662b-4e14-8493-e6285d53be5d" data-name="g3962" transform="translate(213.9895,144.7005)">
              <g id="uuid-24153c79-11aa-4464-b1ce-fd3eb40696ab" data-name="path3964">
                <path class="uuid-3ca32d43-9be0-4112-977e-92b41e8f24af" d="M24.8,611.9c-.5-.4-.9-1-1-1.7,0-.7,0-1.4,.5-1.9,.4-.5,1-.9,1.7-1,1.4-.2,2.7,.8,2.9,2.2,.2,1.4-.8,2.7-2.2,2.9h0c-.7,0-1.4-.1-1.9-.5Zm2.8-3.6c-.4-.3-.9-.5-1.4-.4-.5,0-1,.3-1.3,.7s-.5,.9-.4,1.4c.1,1.1,1.1,1.8,2.2,1.7,1.1-.1,1.8-1.1,1.7-2.2,0-.5-.3-1-.7-1.3Zm-.9,3.8h0Z"/>
              </g>
            </g>
            <g id="uuid-5f66c444-5f3c-4c65-bd0c-e788d8882220" data-name="g3966" transform="translate(119.2515,119.1468)">
              <g id="uuid-33285340-2ea4-4603-a642-71849036b216" data-name="path3968">
                <path class="uuid-3ca32d43-9be0-4112-977e-92b41e8f24af" d="M20.6,610.2c-.5-.4-.9-1-1-1.7,0-.7,0-1.4,.5-1.9s1-.9,1.7-1c.7,0,1.4,0,1.9,.5s.9,1,1,1.7c0,.7,0,1.4-.5,1.9s-1,.9-1.7,1c-.7,0-1.4,0-1.9-.5Zm2.8-3.6c-.4-.3-.9-.5-1.4-.4-.5,0-1,.3-1.3,.7s-.5,.9-.4,1.4c0,.5,.3,1,.7,1.3s.9,.5,1.4,.4h0c.5,0,1-.3,1.3-.7s.5-.9,.4-1.4c0-.5-.3-1-.7-1.3Z"/>
              </g>
            </g>
            <g id="uuid-5d4d0db1-e06b-4322-a74b-d2f742c4b7af" data-name="g3970" transform="translate(93.8482,24.3634)">
              <g id="uuid-4b142b6d-c956-4075-93e9-c6103d95f931" data-name="path3972">
                <path class="uuid-3ca32d43-9be0-4112-977e-92b41e8f24af" d="M17,612.9c-.5-.4-.9-1-1-1.7-.2-1.4,.8-2.7,2.2-2.9,1.4-.2,2.7,.8,2.9,2.2,0,.7,0,1.4-.5,1.9s-1,.9-1.7,1h0c-.7,0-1.4,0-1.9-.5Zm2.8-3.6c-.4-.3-.9-.5-1.4-.4-1.1,.1-1.8,1.1-1.7,2.2s.3,1,.7,1.3,.9,.5,1.4,.4h0c.5,0,1-.3,1.3-.7s.5-.9,.4-1.4c0-.5-.3-1-.7-1.3Z"/>
              </g>
            </g>
            <g id="uuid-ea053a19-3dc7-4117-b8d0-51f96af30bef" data-name="g3974" transform="translate(188.6315,49.7668)">
              <g id="uuid-93e6aefe-d44f-4607-b2c9-c183ec6630b3" data-name="path3976">
                <path class="uuid-3ca32d43-9be0-4112-977e-92b41e8f24af" d="M21.2,614.6c-.5-.4-.9-1-1-1.7,0-.7,0-1.4,.5-1.9s1-.9,1.7-1c1.4-.2,2.7,.8,2.9,2.2s0,1.4-.5,1.9-1,.9-1.7,1c-.7,0-1.4,0-1.9-.5Zm2.8-3.6c-.4-.3-.9-.5-1.4-.4-.5,0-1,.3-1.3,.7s-.5,.9-.4,1.4c0,.5,.3,1,.7,1.3s.9,.5,1.4,.4h0c.5,0,1-.3,1.3-.7s.5-.9,.4-1.4c0-.5-.3-1-.7-1.3Z"/>
              </g>
            </g>
            <g id="uuid-f465a77d-42fb-474b-9df3-969d0a61abe2" data-name="g3978" transform="translate(283.3695,75.3206)">
              <g id="uuid-c510831d-f74f-4686-8ca5-43efcc9c5702" data-name="path3980">
                <path class="uuid-3ca32d43-9be0-4112-977e-92b41e8f24af" d="M25.4,616.4c-.5-.4-.9-1-1-1.7s0-1.4,.5-1.9,1-.9,1.7-1c1.4-.2,2.7,.8,2.9,2.2,0,.7,0,1.4-.5,1.9s-1,.9-1.7,1h0c-.7,0-1.4-.1-1.9-.5Zm2.8-3.6c-.4-.3-.9-.5-1.4-.4-.5,0-1,.3-1.3,.7s-.5,.9-.4,1.4c.1,1.1,1.1,1.8,2.2,1.7,.5,0,1-.3,1.3-.7s.5-.9,.4-1.4c0-.5-.3-1-.7-1.3Zm-.9,3.8h0Z"/>
              </g>
            </g>
            <g id="uuid-4301b0c5-d2cd-476f-ba37-aa258e4f82f8" data-name="g3982" transform="translate(455.443,276.7737)">
              <g id="uuid-9f627d9c-98f5-4899-8419-f25a512f8a23" data-name="path3984">
                <path class="uuid-3ca32d43-9be0-4112-977e-92b41e8f24af" d="M31,615.9s0,0,0-.1c-.9-2.1-.1-3.5,.4-4.1-.2,0-.5-.2-.9-.4-.1,0-.2-.2-.1-.4,.7-1.7,1.6-2.7,2.7-2.9,1.1-.2,2.2,.4,2.6,.7,.4-.5,1.2-1.3,2.4-1.3,1.1,0,2.3,.7,3.4,2.2,0,.1,0,.3,0,.4-.3,.3-.6,.5-.8,.7,.7,.5,1.8,1.6,1.5,3.9,0,.2-.2,.3-.3,.3-1,0-1.7-.2-2.2-.5,0,.2-.1,.3-.3,.3-.2,0-.3,0-.4-.3,0-.5-.3-.8-.4-.9-.1-.1,0-.3,0-.4,.1-.1,.3,0,.4,0,0,.1,.8,1,2.4,1.1,.3-2.6-1.6-3.2-1.7-3.2-.1,0-.2-.2-.2-.4,0-.2,.2-.3,.3-.3h0s.3,0,.8-.6c-.9-1.2-1.8-1.7-2.6-1.7-1.2,0-2.1,1.3-2.1,1.3,0,0-.1,.1-.2,.1,0,0-.2,0-.3,0,0,0-1.1-1.1-2.3-.8-.8,.2-1.6,1-2.1,2.3,.7,.4,1,.3,1,.3,.2,0,.3,0,.4,.2,0,.1,0,.3-.1,.4,0,0-1.7,1.2-.8,3.6,1.6-.5,2-1.5,2.1-1.6,0-.2,.3-.2,.4-.2,.2,0,.2,.3,.2,.4-.1,.3-.9,2.6,2.8,4.1,.2-.1,.3-.3,.5-.4,.1-.1,.3-.1,.5,0,.1,.1,.1,.3,0,.5-.2,.2-.4,.4-.7,.6,0,0-.2,0-.3,0-2.7-1.1-3.4-2.6-3.4-3.7-.4,.4-1.1,.8-2,1.1,0,0-.2,0-.3,0Z"/>
              </g>
            </g>
            <g id="uuid-6140012e-92e4-4da5-86ec-12db42b1902d" data-name="g3986" transform="translate(320.7694,461.6592)">
              <g id="uuid-a9364a2f-fb8c-4317-8a49-71f0376d5423" data-name="path3988">
                <path class="uuid-3ca32d43-9be0-4112-977e-92b41e8f24af" d="M36.6,604.2c-.8-.6-1-1.8-.3-2.6s1.5-.8,2.2-.3,.2,.3,0,.5-.3,.2-.5,0c-.4-.3-1-.2-1.3,.2s-.3,1.3,.2,1.7,1.7,.4,2.2-.3,.3-.2,.5,0,.2,.3,0,.5c-.8,1-2.2,1.2-3.2,.4Z"/>
              </g>
            </g>
            <g id="uuid-b10c3d57-7af8-48d7-9e1e-8de670bb8a61" data-name="g3990" transform="translate(308.8088,170.1398)">
              <g id="uuid-e196c359-0f37-4a53-9676-67cdbcf84061" data-name="path3992">
                <path class="uuid-3ca32d43-9be0-4112-977e-92b41e8f24af" d="M29,613.7c-.5-.4-.9-1-1-1.7-.2-1.4,.8-2.7,2.2-2.9,.4,0,.8,0,1.2,.1,.2,0,.3,.2,.2,.4,0,.2-.2,.3-.4,.2-.3-.1-.6-.1-.9-.1-1.1,.1-1.8,1.1-1.7,2.2s.3,1,.7,1.3,.9,.5,1.4,.4,.3,.1,.4,.3-.1,.3-.3,.4c-.7,0-1.4,0-1.9-.5Z"/>
              </g>
            </g>
            <g id="uuid-61a6b076-16be-47e0-a908-0850b342e859" data-name="g3994" transform="translate(357.7908,182.3911)">
              <g id="uuid-72e3fa6a-8ffe-489a-9a39-a178ea91a16e" data-name="path3996">
                <path class="uuid-3ca32d43-9be0-4112-977e-92b41e8f24af" d="M29.5,618.1c-.5-.4-.9-1-1-1.7,0-.7,0-1.4,.5-1.9s1-.9,1.7-1,.3,.1,.4,.3-.1,.3-.3,.4c-.5,0-1,.3-1.3,.7s-.5,.9-.4,1.4c.1,1.1,1.1,1.8,2.2,1.7,.5,0,1-.3,1.3-.7s.5-.9,.4-1.4c0-.3-.2-.6-.3-.9-.1-.1,0-.3,0-.4,.1-.1,.3,0,.4,0,.2,.3,.4,.7,.5,1.2,0,.7,0,1.4-.5,1.9s-1,.9-1.7,1c-.7,0-1.4-.1-1.9-.5Z"/>
              </g>
            </g>
            <g id="uuid-1de36f01-aeb5-41d4-8c85-dd53fea257ec" data-name="g3998" transform="translate(350.1751,376.1566)">
              <g id="uuid-ff283510-0463-452b-89aa-9f37f49e9195" data-name="path4000">
                <path class="uuid-3ca32d43-9be0-4112-977e-92b41e8f24af" d="M32.4,607.8c0,0-.1-.1-.1-.2,0-.2,.1-.3,.3-.4,3.3-.4,6.1-2.4,7.6-5.4,0,0,.1-.1,.2-.2s.2,0,.3,0l1.5,1.2c.1,0,.2,.3,0,.4-.9,1.8-2.3,3.3-3.9,4.5-.1,0-.3,0-.4,0,0-.1,0-.3,0-.4,1.5-1,2.7-2.4,3.6-4l-1-.8c-1.6,2.9-4.6,4.9-8,5.4,0,0-.2,0-.2,0Z"/>
              </g>
            </g>
            <g id="uuid-a9a2acbd-8ad6-4a97-a08b-e630f8d5deeb" data-name="g4002" transform="translate(477.3592,237.4648)">
              <g id="uuid-264d5f3d-5ebe-436d-96eb-fadb0afda893" data-name="path4004">
                <path class="uuid-3ca32d43-9be0-4112-977e-92b41e8f24af" d="M38.7,616.4s0,0,0,0c0,0,0,0,0-.1,0,0,0,0,0-.1,0,0,0,0,0-.1s0,0,0,0c0,0,0,0,.1,0,.2,0,.3,.1,.4,.3,0,0,0,0,0,.1,0,0,0,0,0,.1,0,0-.1,.1-.2,.1,0,0,0,0-.1,0,0,0,0,0-.1,0Z"/>
              </g>
            </g>
          </g>
        </g>
        <g>
          <g>
            <path class="uuid-3ca32d43-9be0-4112-977e-92b41e8f24af" d="M465.5,587.9c-.1,0-.1,0,0-.1,.2-.2,.3-.9,.3-1.6v-4.5c0-.7,0-1.4-.3-1.6,0,0,0-.1,0-.1h4.3c1.3,0,3.2,.1,3.2,1.9s-1,1.8-1.7,1.9h0c.9,.1,2,.6,2,1.9s-1.3,2.2-3.3,2.2h-4.5Zm2.7-7.2v2.9h1.1c.3,0,.6-.1,.8-.3,.2-.2,.4-.6,.4-1.2,0-1.2-.8-1.4-1.3-1.4h-1Zm1.1,6.5c.9,0,1.4-.4,1.4-1.6s-.7-1.4-1.3-1.4h-1.2v2.7c0,.3,0,.3,.3,.3h.9Z"/>
            <path class="uuid-3ca32d43-9be0-4112-977e-92b41e8f24af" d="M474.6,583.9c0-2.7,2.1-4.2,4.9-4.2s4.9,1.5,4.9,4.2-2.1,4.2-4.9,4.2-4.9-1.5-4.9-4.2Zm7,0c0-2.1-.6-3.4-2.1-3.4s-2.1,1.3-2.1,3.4,.6,3.4,2.1,3.4,2.1-1.3,2.1-3.4Z"/>
            <path class="uuid-3ca32d43-9be0-4112-977e-92b41e8f24af" d="M485.9,587.9c-.1,0-.1,0,0-.1,.2-.2,.3-.9,.3-1.6v-4.5c0-.7,0-1.4-.3-1.6,0,0,0-.1,0-.1h4.6c3,0,4.4,1.7,4.4,3.8s-1.4,4.2-4.5,4.2h-4.5Zm2.7-1c0,.2,0,.3,.3,.3h1c.8,0,1.3-.3,1.7-.9,.3-.6,.5-1.4,.5-2.5,0-1.8-.6-3.1-2.2-3.1h-1.3v6.2Z"/>
            <path class="uuid-3ca32d43-9be0-4112-977e-92b41e8f24af" d="M502.6,580c.2,0,.2,0,.2,.2v1.3c0,0-.2,0-.2,0-.2-.2-.4-.3-.8-.5-.4-.2-.7-.3-1.1-.3h-1.5v2.8h1.5c.3,0,.5,0,.7-.1,.2,0,.4-.1,.5-.1,0,0,0,0,0,0v1.2s0,0,0,0c-.1,0-.6-.3-1.2-.3h-1.5v2.6c0,.3,0,.3,.3,.3h1.2c.9,0,1.9-.7,2.2-1,0,0,.3,0,.3,0l-.3,1.5c0,.2-.2,.2-.2,.2h-6.2c-.1,0-.1,0,0-.1,.2-.2,.3-.9,.3-1.6v-4.5c0-.7,0-1.4-.3-1.6,0,0,0-.1,0-.1h6.1Z"/>
            <path class="uuid-3ca32d43-9be0-4112-977e-92b41e8f24af" d="M509.2,579.8c1.5,0,2.5,.2,3,.4,.2,0,.3,.2,.2,.4l-.2,1c0,0-.2,0-.3,0-.5-.5-1.3-1-2.4-1-1.7,0-2.5,1.2-2.5,3.3,0,2,.7,3.3,2.3,3.3s.9,0,1.2-.2v-1.1c0-1,0-1.5-.3-1.7,0,0,0-.1,0-.1h2.4c.1,0,.1,0,0,.1-.1,.2-.2,.8-.2,1.7v1.9c0,0,0,0-.1,0l-1.3-.2c-.5,.2-1.4,.4-2.3,.4-2.9,0-4.7-1.4-4.7-4.2s2.1-4.2,5-4.2Z"/>
            <path class="uuid-3ca32d43-9be0-4112-977e-92b41e8f24af" d="M515.3,587.9h-1.5c0,0,0,0,0-.1,.2-.2,.6-.8,1-1.8l2.7-6h1.9l2.4,5.9c.3,.8,.7,1.5,1,1.9,0,0,0,.1,0,.1h-2.9c-.1,0-.1,0-.1-.1,0-.3-.2-1.1-.6-1.9l-.2-.5h-2.9l-.2,.5c-.4,1-.5,1.7-.4,1.9,0,0,0,.1,0,.1Zm2.2-6.1l-1.2,2.8h2.3l-1.1-2.8Z"/>
            <path class="uuid-3ca32d43-9be0-4112-977e-92b41e8f24af" d="M474.6,594.9c.2,0,.2,0,.2,.2v1.3c0,0-.2,0-.2,0-.2-.2-.4-.3-.8-.5-.4-.2-.7-.3-1.1-.3h-1.5v2.8h1.5c.3,0,.5,0,.7-.1,.2,0,.4-.1,.5-.1,0,0,0,0,0,0v1.2s0,0,0,0c-.1,0-.6-.3-1.2-.3h-1.5v2.6c0,.3,0,.3,.3,.3h1.2c.9,0,1.9-.7,2.2-1,0,0,.3,0,.3,0l-.3,1.5c0,.2-.2,.2-.2,.2h-6.2c-.1,0-.1,0,0-.1,.2-.2,.3-.9,.3-1.6v-4.5c0-.7,0-1.4-.3-1.6,0,0,0-.1,0-.1h6.1Z"/>
            <path class="uuid-3ca32d43-9be0-4112-977e-92b41e8f24af" d="M476.7,602.9c-.1,0-.1,0,0-.1,.2-.2,.3-.9,.3-1.6v-4.5c0-.7,0-1.4-.3-1.6,0,0,0-.1,0-.1h2.9c.1,0,.1,0,0,.1-.2,.2-.3,.9-.3,1.6v5.1c0,.3,0,.3,.3,.3h.9c.9,0,1.9-.7,2.3-1.1,0,0,.3,0,.3,0l-.3,1.6c0,.2-.2,.2-.3,.2h-6Z"/>
            <path class="uuid-3ca32d43-9be0-4112-977e-92b41e8f24af" d="M495.1,602.2c-.6,.4-1.6,.9-3.3,.9-2.8,0-4.6-1.4-4.6-4.2s2-4.2,4.9-4.2,2.5,.2,2.9,.4c.2,0,.2,.2,.2,.4v1c-.2,0-.4,0-.4,0-.5-.5-1.2-1-2.3-1s-2.4,1.2-2.4,3.3,.9,3.2,2.6,3.2,1.8-.3,2.3-.7c0,0,.2,.7,.1,.9Z"/>
            <path class="uuid-3ca32d43-9be0-4112-977e-92b41e8f24af" d="M502.4,594.9c.2,0,.2,0,.2,.2v1.3c0,0-.2,0-.2,0-.2-.2-.4-.3-.8-.5-.4-.2-.7-.3-1.1-.3h-1.5v2.8h1.5c.3,0,.5,0,.7-.1,.2,0,.4-.1,.5-.1,0,0,0,0,0,0v1.2s0,0,0,0c-.1,0-.6-.3-1.2-.3h-1.5v2.6c0,.3,0,.3,.3,.3h1.2c.9,0,1.9-.7,2.2-1,0,0,.3,0,.3,0l-.3,1.5c0,.2-.2,.2-.2,.2h-6.2c-.1,0-.1,0,0-.1,.2-.2,.3-.9,.3-1.6v-4.5c0-.7,0-1.4-.3-1.6,0,0,0-.1,0-.1h6.1Z"/>
            <path class="uuid-3ca32d43-9be0-4112-977e-92b41e8f24af" d="M509,601c0-.4-.2-.7-.6-.9-.4-.2-.9-.3-1.5-.5-1.7-.5-2.6-1.2-2.6-2.6,0-1.5,1.3-2.4,3.6-2.4s2.3,.2,2.8,.3c.3,0,.3,.2,.3,.5v1c-.1,0-.3,0-.4,0-.6-.6-1.5-1-2.6-1s-1.4,.4-1.4,1.1,.6,1,1.8,1.3c1,.3,1.7,.6,2.2,1,.5,.4,.7,.9,.7,1.6,0,1.7-1.5,2.6-3.9,2.6s-2.3-.2-2.8-.4c-.2,0-.3-.2-.3-.5v-1.1c0,0,.3,0,.3,0,.5,.6,1.5,1.1,2.7,1.1s1.7-.5,1.7-1.2Z"/>
            <path class="uuid-3ca32d43-9be0-4112-977e-92b41e8f24af" d="M518.8,594.9c.2,0,.2,0,.2,.2v1.3c0,0-.2,0-.2,0-.2-.2-.4-.3-.8-.5-.4-.2-.7-.3-1.1-.3h-1.5v2.8h1.5c.3,0,.5,0,.7-.1,.2,0,.4-.1,.5-.1,0,0,0,0,0,0v1.2s0,0,0,0c-.1,0-.6-.3-1.2-.3h-1.5v2.6c0,.3,0,.3,.3,.3h1.2c.9,0,1.9-.7,2.2-1,0,0,.3,0,.3,0l-.3,1.5c0,.2-.2,.2-.2,.2h-6.2c-.1,0-.1,0,0-.1,.2-.2,.3-.9,.3-1.6v-4.5c0-.7,0-1.4-.3-1.6,0,0,0-.1,0-.1h6.1Z"/>
          </g>
          <g id="uuid-884d3c02-4a26-4e35-a1c9-8c75287499f3" data-name="g3940">
            <g id="uuid-8814ebc2-fffe-432f-ad4f-54485a465ee8" data-name="g3946" transform="translate(170.0489,308.8997)">
              <g id="uuid-490212bd-7a2a-45bb-be99-8a49228aee9d" data-name="path3948">
                <path class="uuid-3ca32d43-9be0-4112-977e-92b41e8f24af" d="M494.7,613.9h0c-1.4-.2-2.4-1.5-2.2-2.9,0-.7,.4-1.3,1-1.7s1.2-.6,1.9-.5c.7,0,1.3,.4,1.7,1s.6,1.2,.5,1.9c0,.7-.4,1.3-1,1.7s-1.2,.6-1.9,.5Zm-1.6-2.8c-.1,1.1,.6,2,1.7,2.2h0c.5,0,1,0,1.4-.4s.7-.8,.7-1.3c0-.5,0-1-.4-1.4s-.8-.7-1.3-.7c-.5,0-1,0-1.4,.4s-.7,.8-.7,1.3Z"/>
              </g>
            </g>
            <g id="uuid-fcbcd945-cd6e-463e-96e6-c0e8444be6c4" data-name="g3950" transform="translate(239.4288,239.5197)">
              <g id="uuid-a69df3b6-9f33-4ed8-8ea1-0f70ba26bc33" data-name="path3952">
                <path class="uuid-3ca32d43-9be0-4112-977e-92b41e8f24af" d="M494.2,618.4h0c-.7,0-1.3-.4-1.7-1s-.6-1.2-.5-1.9c.2-1.4,1.5-2.4,2.9-2.2,.7,0,1.3,.4,1.7,1,.4,.5,.6,1.2,.5,1.9,0,.7-.4,1.3-1,1.7-.5,.4-1.2,.6-1.9,.5Zm-1.6-2.8c0,.5,0,1,.4,1.4s.8,.7,1.3,.7h0c.5,0,1,0,1.4-.4s.7-.8,.7-1.3,0-1-.4-1.4-.8-.7-1.3-.7c-.5,0-1,0-1.4,.4s-.7,.8-.7,1.3Z"/>
              </g>
            </g>
            <g id="uuid-7316d1c9-22c1-4ee7-905e-859431c9c19b" data-name="g3954" transform="translate(171.4375,383.2657)">
              <g id="uuid-bcc21137-3e8c-44de-afab-17323ff30340" data-name="path3956">
                <path class="uuid-3ca32d43-9be0-4112-977e-92b41e8f24af" d="M492.3,615.7c0,0,.1-.1,.1-.2,0-.2-.1-.3-.3-.4-.5,0-1-.3-1.3-.7s-.5-.9-.4-1.4c.1-1.1,1.1-1.8,2.2-1.7s.3-.1,.4-.3-.1-.3-.3-.4c-1.4-.2-2.7,.8-2.9,2.2,0,.7,0,1.4,.5,1.9s1,.9,1.7,1c0,0,.2,0,.2,0Z"/>
              </g>
            </g>
            <g id="uuid-e5f62e19-71f9-406d-a93d-5a238c5025b2" data-name="g3958" transform="translate(144.6096,214.0804)">
              <g id="uuid-6a9bae58-17c3-45e5-82fd-3d4133213f32" data-name="path3960">
                <path class="uuid-3ca32d43-9be0-4112-977e-92b41e8f24af" d="M498.3,616.7h0c-.7,0-1.3-.4-1.7-1s-.6-1.2-.5-1.9c.2-1.4,1.5-2.4,2.9-2.2s1.3,.4,1.7,1,.6,1.2,.5,1.9c0,.7-.4,1.3-1,1.7-.5,.4-1.2,.6-1.9,.5Zm-1.6-2.8c0,.5,0,1,.4,1.4s.8,.7,1.3,.7h0c.5,0,1,0,1.4-.4s.7-.8,.7-1.3c0-.5,0-1-.4-1.4s-.8-.7-1.3-.7c-.5,0-1,0-1.4,.4s-.7,.8-.7,1.3Z"/>
              </g>
            </g>
            <g id="uuid-5e43c9b2-3d8b-4677-8a66-cb4c2e8224cf" data-name="g3962" transform="translate(213.9895,144.7005)">
              <g id="uuid-f53fecf4-0706-4a63-932a-2e1e309be382" data-name="path3964">
                <path class="uuid-3ca32d43-9be0-4112-977e-92b41e8f24af" d="M497.8,621.2h0c-1.4-.2-2.4-1.5-2.2-2.9,.2-1.4,1.5-2.4,2.9-2.2s1.3,.4,1.7,1,.6,1.2,.5,1.9c0,.7-.5,1.3-1,1.7s-1.2,.6-1.9,.5Zm-1.6-2.8c-.1,1.1,.6,2,1.7,2.2,1.1,.1,2-.6,2.2-1.7,0-.5,0-1-.4-1.4s-.8-.7-1.3-.7c-.5,0-1,0-1.4,.4s-.7,.8-.7,1.3Zm1.6,2.5h0Z"/>
              </g>
            </g>
            <g id="uuid-a1df10eb-5314-44bd-b6dd-d06865e74c93" data-name="g3966" transform="translate(119.2515,119.1468)">
              <g id="uuid-d4efa80d-2469-4ab2-a2b8-f33a1fc70920" data-name="path3968">
                <path class="uuid-3ca32d43-9be0-4112-977e-92b41e8f24af" d="M501.9,619.4c-.7,0-1.3-.4-1.7-1s-.6-1.2-.5-1.9c0-.7,.4-1.3,1-1.7s1.2-.6,1.9-.5c.7,0,1.3,.4,1.7,1s.6,1.2,.5,1.9c0,.7-.4,1.3-1,1.7s-1.2,.6-1.9,.5Zm-1.6-2.8c0,.5,0,1,.4,1.4s.8,.7,1.3,.7h0c.5,0,1,0,1.4-.4s.7-.8,.7-1.3c0-.5,0-1-.4-1.4s-.8-.7-1.3-.7c-.5,0-1,0-1.4,.4s-.7,.8-.7,1.3Z"/>
              </g>
            </g>
            <g id="uuid-c1591e64-2251-4fff-80e1-4fb2a398c76c" data-name="g3970" transform="translate(93.8482,24.3634)">
              <g id="uuid-978a95cd-bcfa-4fcd-a9c6-5f5d0ade99fa" data-name="path3972">
                <path class="uuid-3ca32d43-9be0-4112-977e-92b41e8f24af" d="M505.5,622.1h0c-.7,0-1.3-.4-1.7-1s-.6-1.2-.5-1.9c.2-1.4,1.5-2.4,2.9-2.2,1.4,.2,2.4,1.5,2.2,2.9,0,.7-.4,1.3-1,1.7s-1.2,.6-1.9,.5Zm-1.6-2.8c0,.5,0,1,.4,1.4s.8,.7,1.3,.7h0c.5,0,1,0,1.4-.4,.4-.3,.7-.8,.7-1.3,.1-1.1-.6-2-1.7-2.2-.5,0-1,0-1.4,.4s-.7,.8-.7,1.3Z"/>
              </g>
            </g>
            <g id="uuid-7625ba33-68b5-491f-be8f-ec9ed7ddc691" data-name="g3974" transform="translate(188.6315,49.7668)">
              <g id="uuid-5b95dcb4-376f-4f02-a22c-8fb5346cb7dd" data-name="path3976">
                <path class="uuid-3ca32d43-9be0-4112-977e-92b41e8f24af" d="M501.4,623.9c-.7,0-1.3-.4-1.7-1-.4-.5-.6-1.2-.5-1.9,.2-1.4,1.5-2.4,2.9-2.2,.7,0,1.3,.4,1.7,1s.6,1.2,.5,1.9c0,.7-.4,1.3-1,1.7s-1.2,.6-1.9,.5Zm-1.6-2.8c0,.5,0,1,.4,1.4s.8,.7,1.3,.7h0c.5,0,1,0,1.4-.4s.7-.8,.7-1.3c0-.5,0-1-.4-1.4s-.8-.7-1.3-.7c-.5,0-1,0-1.4,.4-.4,.3-.7,.8-.7,1.3Z"/>
              </g>
            </g>
            <g id="uuid-4bb79de3-87ef-4cfa-b0b0-4418e684362c" data-name="g3978" transform="translate(283.3695,75.3206)">
              <g id="uuid-43866141-0dec-494b-9f03-edb006d519da" data-name="path3980">
                <path class="uuid-3ca32d43-9be0-4112-977e-92b41e8f24af" d="M497.2,625.6h0c-.7,0-1.3-.4-1.7-1-.4-.5-.6-1.2-.5-1.9,.2-1.4,1.5-2.4,2.9-2.2,.7,0,1.3,.4,1.7,1s.6,1.2,.5,1.9c0,.7-.5,1.3-1,1.7s-1.2,.6-1.9,.5Zm-1.6-2.8c0,.5,0,1,.4,1.4s.8,.7,1.3,.7c1.1,.1,2-.6,2.2-1.7,0-.5,0-1-.4-1.4s-.8-.7-1.3-.7c-.5,0-1,0-1.4,.4s-.7,.8-.7,1.3Zm1.6,2.5h0Z"/>
              </g>
            </g>
            <g id="uuid-e433957b-9ac7-47fd-ac6c-a21b8721dcc8" data-name="g3982" transform="translate(455.443,276.7737)">
              <g id="uuid-b362986e-722b-43fe-8fd9-8cfe1d1e4cf7" data-name="path3984">
                <path class="uuid-3ca32d43-9be0-4112-977e-92b41e8f24af" d="M493.5,624.6s0,0,0-.1c.9-2.1,.1-3.5-.4-4.1,.2,0,.5-.2,.9-.4,.1,0,.2-.2,.1-.4-.7-1.7-1.6-2.7-2.7-2.9-1.1-.2-2.2,.4-2.6,.7-.4-.5-1.2-1.3-2.4-1.3-1.1,0-2.3,.7-3.4,2.2,0,.1,0,.3,0,.4,.3,.3,.6,.5,.8,.7-.7,.5-1.8,1.6-1.5,3.9,0,.2,.2,.3,.3,.3,1,0,1.7-.2,2.2-.5,0,.2,.1,.3,.3,.3,.2,0,.3,0,.4-.3,0-.5,.3-.8,.4-.9,.1-.1,0-.3,0-.4-.1-.1-.3,0-.4,0,0,.1-.8,1-2.4,1.1-.3-2.6,1.6-3.2,1.7-3.2,.1,0,.2-.2,.2-.4,0-.2-.2-.3-.3-.3h0s-.3,0-.8-.6c.9-1.2,1.8-1.7,2.6-1.7,1.2,0,2.1,1.3,2.1,1.3,0,0,.1,.1,.2,.1,0,0,.2,0,.3,0,0,0,1.1-1.1,2.3-.8,.8,.2,1.6,1,2.1,2.3-.7,.4-1,.3-1,.3-.2,0-.3,0-.4,.2,0,.1,0,.3,.1,.4,0,0,1.7,1.2,.8,3.6-1.6-.5-2-1.5-2.1-1.6,0-.2-.3-.2-.4-.2-.2,0-.2,.3-.2,.4,.1,.3,.9,2.6-2.8,4.1-.2-.1-.3-.3-.5-.4-.1-.1-.3-.1-.5,0-.1,.1-.1,.3,0,.5,.2,.2,.4,.4,.7,.6,0,0,.2,0,.3,0,2.7-1.1,3.4-2.6,3.4-3.7,.4,.4,1.1,.8,2,1.1,0,0,.2,0,.3,0Z"/>
              </g>
            </g>
            <g id="uuid-9acbe042-5917-4339-8d2f-2c4ad7928097" data-name="g3986" transform="translate(320.7694,461.6592)">
              <g id="uuid-10abe36e-7915-4a04-a9a5-e582d412d7dd" data-name="path3988">
                <path class="uuid-3ca32d43-9be0-4112-977e-92b41e8f24af" d="M487.9,612.9c.8-.6,1-1.8,.3-2.6s-1.5-.8-2.2-.3-.2,.3,0,.5,.3,.2,.5,0c.4-.3,1-.2,1.3,.2s.3,1.3-.2,1.7c-.7,.5-1.7,.4-2.2-.3s-.3-.2-.5,0-.2,.3,0,.5c.8,1,2.2,1.2,3.2,.4Z"/>
              </g>
            </g>
            <g id="uuid-000064f7-a07d-4535-922b-a637495d778d" data-name="g3990" transform="translate(308.8088,170.1398)">
              <g id="uuid-d7fd07b6-d6a7-42de-9f5c-714a8b5ee400" data-name="path3992">
                <path class="uuid-3ca32d43-9be0-4112-977e-92b41e8f24af" d="M495.5,622.4c.5-.4,.9-1,1-1.7,.2-1.4-.8-2.7-2.2-2.9-.4,0-.8,0-1.2,.1-.2,0-.3,.2-.2,.4,0,.2,.2,.3,.4,.2,.3-.1,.6-.1,.9-.1,1.1,.1,1.8,1.1,1.7,2.2,0,.5-.3,1-.7,1.3s-.9,.5-1.4,.4-.3,.1-.4,.3,.1,.3,.3,.4c.7,0,1.4,0,1.9-.5Z"/>
              </g>
            </g>
            <g id="uuid-30c20c14-2e5d-4ffa-9f05-b5384a0cdb43" data-name="g3994" transform="translate(357.7908,182.3911)">
              <g id="uuid-03971760-0fba-4a0f-b694-f56908d35e55" data-name="path3996">
                <path class="uuid-3ca32d43-9be0-4112-977e-92b41e8f24af" d="M495,626.9c.5-.4,.9-1,1-1.7,0-.7,0-1.4-.5-1.9s-1-.9-1.7-1c-.2,0-.3,.1-.4,.3s.1,.3,.3,.4c.5,0,1,.3,1.3,.7s.5,.9,.4,1.4c-.1,1.1-1.1,1.8-2.2,1.7-.5,0-1-.3-1.3-.7s-.5-.9-.4-1.4c0-.3,.2-.6,.3-.9,.1-.1,0-.3,0-.4-.1-.1-.3,0-.4,0-.2,.3-.4,.7-.5,1.2,0,.7,0,1.4,.5,1.9s1,.9,1.7,1c.7,0,1.4-.1,1.9-.5Z"/>
              </g>
            </g>
            <g id="uuid-8c7a844c-98d4-450b-8348-0bddbd9e386b" data-name="g3998" transform="translate(350.1751,376.1566)">
              <g id="uuid-84f00583-1d4e-4157-a34c-579be9fe39f9" data-name="path4000">
                <path class="uuid-3ca32d43-9be0-4112-977e-92b41e8f24af" d="M492.1,616.5c0,0,.1-.1,.1-.2,0-.2-.1-.3-.3-.4-3.3-.4-6.1-2.4-7.6-5.4,0,0-.1-.1-.2-.2s-.2,0-.3,0l-1.5,1.2c-.1,0-.2,.3,0,.4,.9,1.8,2.3,3.3,3.9,4.5,.1,0,.3,0,.4,0,0-.1,0-.3,0-.4-1.5-1-2.7-2.4-3.6-4l1-.8c1.6,2.9,4.6,4.9,8,5.4,0,0,.2,0,.2,0Z"/>
              </g>
            </g>
            <g id="uuid-5c915938-ccdb-4632-bd30-889585abff0c" data-name="g4002" transform="translate(477.3592,237.4648)">
              <g id="uuid-0ab3107f-9652-4a60-9acc-792e26ad5beb" data-name="path4004">
                <path class="uuid-3ca32d43-9be0-4112-977e-92b41e8f24af" d="M485.8,625.2s0,0,0,0c0,0,0,0,0-.1,0,0,0,0,0-.1,0,0,0,0,0-.1s0,0,0,0c0,0,0,0-.1,0-.2,0-.3,.1-.4,.3,0,0,0,0,0,.1,0,0,0,0,0,.1,0,0,.1,.1,.2,.1,0,0,0,0,.1,0,0,0,0,0,.1,0Z"/>
              </g>
            </g>
          </g>
        </g>
        <g>
          <g>
            <path class="uuid-3ca32d43-9be0-4112-977e-92b41e8f24af" d="M105.2,536.9c-.1,0-.1,0,0-.1,.2-.2,.3-.9,.3-1.6v-4.5c0-.7,0-1.4-.3-1.6,0,0,0-.1,0-.1h4.3c1.3,0,3.2,.1,3.2,1.9s-1,1.8-1.7,1.9h0c.9,.1,2,.6,2,1.9s-1.3,2.2-3.3,2.2h-4.5Zm2.7-7.2v2.9h1.1c.3,0,.6-.1,.8-.3,.2-.2,.4-.6,.4-1.2,0-1.2-.8-1.4-1.3-1.4h-1Zm1.1,6.5c.9,0,1.4-.4,1.4-1.6s-.7-1.4-1.3-1.4h-1.2v2.7c0,.3,0,.3,.3,.3h.9Z"/>
            <path class="uuid-3ca32d43-9be0-4112-977e-92b41e8f24af" d="M114.2,532.9c0-2.7,2.1-4.2,4.9-4.2s4.9,1.5,4.9,4.2-2.1,4.2-4.9,4.2-4.9-1.5-4.9-4.2Zm7,0c0-2.1-.6-3.4-2.1-3.4s-2.1,1.3-2.1,3.4,.6,3.4,2.1,3.4,2.1-1.3,2.1-3.4Z"/>
            <path class="uuid-3ca32d43-9be0-4112-977e-92b41e8f24af" d="M125.6,536.9c-.1,0-.1,0,0-.1,.2-.2,.3-.9,.3-1.6v-4.5c0-.7,0-1.4-.3-1.6,0,0,0-.1,0-.1h4.6c3,0,4.4,1.7,4.4,3.8s-1.4,4.2-4.5,4.2h-4.5Zm2.7-1c0,.2,0,.3,.3,.3h1c.8,0,1.3-.3,1.7-.9,.3-.6,.5-1.4,.5-2.5,0-1.8-.6-3.1-2.2-3.1h-1.3v6.2Z"/>
            <path class="uuid-3ca32d43-9be0-4112-977e-92b41e8f24af" d="M142.2,528.9c.2,0,.2,0,.2,.2v1.3c0,0-.2,0-.2,0-.2-.2-.4-.3-.8-.5-.4-.2-.7-.3-1.1-.3h-1.5v2.8h1.5c.3,0,.5,0,.7-.1,.2,0,.4-.1,.5-.1,0,0,0,0,0,0v1.2s0,0,0,0c-.1,0-.6-.3-1.2-.3h-1.5v2.6c0,.3,0,.3,.3,.3h1.2c.9,0,1.9-.7,2.2-1,0,0,.3,0,.3,0l-.3,1.5c0,.2-.2,.2-.2,.2h-6.2c-.1,0-.1,0,0-.1,.2-.2,.3-.9,.3-1.6v-4.5c0-.7,0-1.4-.3-1.6,0,0,0-.1,0-.1h6.1Z"/>
            <path class="uuid-3ca32d43-9be0-4112-977e-92b41e8f24af" d="M148.9,528.7c1.5,0,2.5,.2,3,.4,.2,0,.3,.2,.2,.4l-.2,1c0,0-.2,0-.3,0-.5-.5-1.3-1-2.4-1-1.7,0-2.5,1.2-2.5,3.3,0,2,.7,3.3,2.3,3.3s.9,0,1.2-.2v-1.1c0-1,0-1.5-.3-1.7,0,0,0-.1,0-.1h2.4c.1,0,.1,0,0,.1-.1,.2-.2,.8-.2,1.7v1.9c0,0,0,0-.1,0l-1.3-.2c-.5,.2-1.4,.4-2.3,.4-2.9,0-4.7-1.4-4.7-4.2s2.1-4.2,5-4.2Z"/>
            <path class="uuid-3ca32d43-9be0-4112-977e-92b41e8f24af" d="M155,536.9h-1.5c0,0,0,0,0-.1,.2-.2,.6-.8,1-1.8l2.7-6h1.9l2.4,5.9c.3,.8,.7,1.5,1,1.9,0,0,0,.1,0,.1h-2.9c-.1,0-.1,0-.1-.1,0-.3-.2-1.1-.6-1.9l-.2-.5h-2.9l-.2,.5c-.4,1-.5,1.7-.4,1.9,0,0,0,.1,0,.1Zm2.2-6.1l-1.2,2.8h2.3l-1.1-2.8Z"/>
            <path class="uuid-3ca32d43-9be0-4112-977e-92b41e8f24af" d="M117.6,543.9c.1,0,.3,0,.3,.2v1.4s-.1,0-.2,0c-.4-.3-1.2-.9-1.8-.9h-1v5.5c0,.8,.1,1.4,.3,1.6,0,0,0,.1,0,.1h-3c-.1,0-.1,0,0-.1,.2-.2,.3-.7,.3-1.6v-5.5h-1c-.6,0-1.4,.6-1.8,.9,0,0-.2,0-.2,0v-1.4c0-.2,.2-.2,.3-.2h8.1Z"/>
            <path class="uuid-3ca32d43-9be0-4112-977e-92b41e8f24af" d="M119.2,551.8h-1.5c0,0,0,0,0-.1,.2-.2,.6-.8,1-1.8l2.7-6h1.9l2.4,5.9c.3,.8,.7,1.5,1,1.9,0,0,0,.1,0,.1h-2.9c-.1,0-.1,0-.1-.1,0-.3-.2-1.1-.6-1.9l-.2-.5h-2.9l-.2,.5c-.4,1-.5,1.7-.4,1.9,0,0,0,.1,0,.1Zm2.2-6.1l-1.2,2.8h2.3l-1.1-2.8Z"/>
            <path class="uuid-3ca32d43-9be0-4112-977e-92b41e8f24af" d="M135.2,551.2c-.6,.4-1.6,.9-3.3,.9-2.8,0-4.6-1.4-4.6-4.2s2-4.2,4.9-4.2,2.5,.2,2.9,.4c.2,0,.2,.2,.2,.4v1c-.2,0-.4,0-.4,0-.5-.5-1.2-1-2.3-1s-2.4,1.2-2.4,3.3,.9,3.2,2.6,3.2,1.8-.3,2.3-.7c0,0,.2,.7,.1,.9Z"/>
            <path class="uuid-3ca32d43-9be0-4112-977e-92b41e8f24af" d="M143.2,545.6c0-.9-.2-1.4-.3-1.6,0,0,0-.1,0-.1h1.4s0,0,0,.1c-.1,.2-.3,.7-.3,1.6v3.4c0,.9-.3,1.6-.9,2.1-.6,.6-1.5,.8-2.8,.8-2.8,0-3.8-1.3-3.8-2.9v-3.6c0-.7,0-1.4-.3-1.6,0,0,0-.1,0-.1h2.8c.1,0,.1,0,0,.1-.2,.2-.2,.9-.2,1.6v3.5c0,1.1,.6,1.9,2,1.9s2.1-.7,2.1-2.1v-3.3Z"/>
            <path class="uuid-3ca32d43-9be0-4112-977e-92b41e8f24af" d="M148.9,550.1c0,.7,0,1.4,.3,1.6,0,0,0,.1,0,.1h-2.9c-.1,0-.1,0,0-.1,.2-.2,.3-.9,.3-1.6v-4.5c0-.7,0-1.4-.3-1.6,0,0,0-.1,0-.1h2.9c.1,0,.1,0,0,.1-.2,.2-.3,.9-.3,1.6v4.5Z"/>
            <path class="uuid-3ca32d43-9be0-4112-977e-92b41e8f24af" d="M151,551.8c-.1,0-.1,0,0-.1,.2-.2,.3-.9,.3-1.6v-4.5c0-.7,0-1.4-.3-1.6,0,0,0-.1,0-.1h2.9c.1,0,.1,0,0,.1-.2,.2-.3,.9-.3,1.6v5.1c0,.3,0,.3,.3,.3h.9c.9,0,1.9-.7,2.3-1.1,0,0,.3,0,.3,0l-.3,1.6c0,.2-.2,.2-.3,.2h-6Z"/>
          </g>
          <g id="uuid-2c069a55-e810-4ac7-8ec4-79ec6a0c6e48" data-name="g3940">
            <g id="uuid-c6574983-024e-4a2a-86d4-b7a4687ba05f" data-name="g3946" transform="translate(170.0489,308.8997)">
              <g id="uuid-e554f37d-b667-402b-9f95-f4287a7e62ca" data-name="path3948">
                <path class="uuid-3ca32d43-9be0-4112-977e-92b41e8f24af" d="M130.1,518.3c0,.7-.2,1.4-.6,1.9-.4,.5-1.1,.8-1.8,.9s-1.4-.2-1.9-.6c-.5-.4-.8-1.1-.9-1.8s.2-1.4,.6-1.9c.9-1.1,2.6-1.2,3.6-.3h0c.5,.4,.8,1.1,.9,1.8Zm-4.5,.4c0,.5,.3,1,.7,1.3,.4,.3,.9,.5,1.4,.5s1-.3,1.3-.7c.3-.4,.5-.9,.5-1.4s-.3-1-.7-1.3h0c-.8-.7-2-.6-2.7,.2-.3,.4-.5,.9-.5,1.4Z"/>
              </g>
            </g>
            <g id="uuid-3bf3d4cf-4714-406a-96b5-4a3e17b4887e" data-name="g3950" transform="translate(239.4288,239.5197)">
              <g id="uuid-3562a50c-fd77-46f6-ba94-3cb672dbfa47" data-name="path3952">
                <path class="uuid-3ca32d43-9be0-4112-977e-92b41e8f24af" d="M133,514.9c0,.7-.2,1.4-.6,1.9-.4,.5-1.1,.8-1.8,.9s-1.4-.2-1.9-.6c-1.1-.9-1.2-2.6-.3-3.6s1.1-.8,1.8-.9,1.4,.2,1.9,.6h0c.5,.4,.8,1.1,.9,1.8Zm-4.5,.4c0,.5,.3,1,.7,1.3,.4,.3,.9,.5,1.4,.5s1-.3,1.3-.7,.5-.9,.5-1.4-.3-1-.7-1.3h0c-.4-.3-.9-.5-1.4-.5s-1,.3-1.3,.7c-.3,.4-.5,.9-.5,1.4Z"/>
              </g>
            </g>
            <g id="uuid-f0a1a45a-0b8e-48ae-a4dd-83a2c3883c3c" data-name="g3954" transform="translate(171.4375,383.2657)">
              <g id="uuid-fc77e5a8-1161-4539-9d2f-aa96c0afbcea" data-name="path3956">
                <path class="uuid-3ca32d43-9be0-4112-977e-92b41e8f24af" d="M128.8,513.6c0,0,0,.2,0,.2-.1,.1-.3,.2-.5,0-.4-.3-.9-.5-1.4-.5s-1,.3-1.3,.7c-.7,.8-.6,2,.2,2.7,.1,.1,.2,.3,0,.5s-.3,.2-.5,0c-1.1-.9-1.2-2.6-.3-3.6s1.1-.8,1.8-.9c.7,0,1.4,.2,1.9,.6,0,0,.1,.1,.1,.2Z"/>
              </g>
            </g>
            <g id="uuid-d0157655-ca84-4469-a841-920ac84f02bd" data-name="g3958" transform="translate(144.6096,214.0804)">
              <g id="uuid-51bd104e-922b-416e-a7fb-f5442617a730" data-name="path3960">
                <path class="uuid-3ca32d43-9be0-4112-977e-92b41e8f24af" d="M134.5,519.1c0,.7-.2,1.4-.6,1.9-.4,.5-1.1,.8-1.8,.9s-1.4-.2-1.9-.6c-1.1-.9-1.2-2.6-.3-3.6,.4-.5,1.1-.8,1.8-.9s1.4,.2,1.9,.6h0c.5,.4,.8,1.1,.9,1.8Zm-4.5,.4c0,.5,.3,1,.7,1.3,.4,.3,.9,.5,1.4,.5s1-.3,1.3-.7c.3-.4,.5-.9,.5-1.4s-.3-1-.7-1.3h0c-.4-.3-.9-.5-1.4-.5s-1,.3-1.3,.7c-.3,.4-.5,.9-.5,1.4Z"/>
              </g>
            </g>
            <g id="uuid-24948b79-4d54-45f8-8859-9de1c82c42e3" data-name="g3962" transform="translate(213.9895,144.7005)">
              <g id="uuid-1732ce9a-0461-4041-b934-2241cc0769dc" data-name="path3964">
                <path class="uuid-3ca32d43-9be0-4112-977e-92b41e8f24af" d="M137.5,515.7c0,.7-.1,1.3-.6,1.9-.4,.5-1.1,.8-1.8,.9s-1.4-.2-1.9-.6c-1.1-.9-1.2-2.6-.3-3.6,.9-1.1,2.6-1.2,3.6-.3h0c.5,.5,.8,1.1,.9,1.8Zm-4.5,.4c0,.5,.3,1,.7,1.3,.4,.3,.9,.5,1.4,.5s1-.3,1.3-.7c.7-.8,.6-2-.2-2.7-.8-.7-2-.6-2.7,.2-.3,.4-.5,.9-.5,1.4Zm3.4-1.9h0Z"/>
              </g>
            </g>
            <g id="uuid-73d1fab5-d46c-401e-b723-9b7636f0055b" data-name="g3966" transform="translate(119.2515,119.1468)">
              <g id="uuid-28d1ffd7-cf2f-48db-9713-9f989e48f78c" data-name="path3968">
                <path class="uuid-3ca32d43-9be0-4112-977e-92b41e8f24af" d="M139,520c0,.7-.2,1.4-.6,1.9-.4,.5-1.1,.8-1.8,.9s-1.4-.2-1.9-.6c-.5-.4-.8-1.1-.9-1.8s.2-1.4,.6-1.9c.4-.5,1.1-.8,1.8-.9s1.4,.2,1.9,.6c.5,.4,.8,1.1,.9,1.8Zm-4.5,.4c0,.5,.3,1,.7,1.3,.4,.3,.9,.5,1.4,.5s1-.3,1.3-.7c.3-.4,.5-.9,.5-1.4s-.3-1-.7-1.3h0c-.4-.3-.9-.5-1.4-.5s-1,.3-1.3,.7c-.3,.4-.5,.9-.5,1.4Z"/>
              </g>
            </g>
            <g id="uuid-7f4e11bd-ea40-4fce-8165-58a2429f643d" data-name="g3970" transform="translate(93.8482,24.3634)">
              <g id="uuid-ab20f605-1d78-4784-a3dd-c874ed422b33" data-name="path3972">
                <path class="uuid-3ca32d43-9be0-4112-977e-92b41e8f24af" d="M143.4,520.8c0,.7-.2,1.4-.6,1.9-.9,1.1-2.6,1.2-3.6,.3-1.1-.9-1.2-2.6-.3-3.6s1.1-.8,1.8-.9c.7,0,1.4,.2,1.9,.6h0c.5,.4,.8,1.1,.9,1.8Zm-4.5,.4c0,.5,.3,1,.7,1.3,.8,.7,2,.6,2.7-.2s.5-.9,.5-1.4-.3-1-.7-1.3h0c-.4-.3-.9-.5-1.4-.5-.5,0-1,.3-1.3,.7-.3,.4-.5,.9-.5,1.4Z"/>
              </g>
            </g>
            <g id="uuid-d6a9ec45-2e45-4e4c-8f7e-47fa76fd4d80" data-name="g3974" transform="translate(188.6315,49.7668)">
              <g id="uuid-201570ff-97fd-40ca-9c35-93f6657bc877" data-name="path3976">
                <path class="uuid-3ca32d43-9be0-4112-977e-92b41e8f24af" d="M141.9,516.5c0,.7-.2,1.4-.6,1.9-.4,.5-1.1,.8-1.8,.9s-1.4-.2-1.9-.6c-1.1-.9-1.2-2.6-.3-3.6s1.1-.8,1.8-.9,1.4,.2,1.9,.6c.5,.4,.8,1.1,.9,1.8Zm-4.5,.4c0,.5,.3,1,.7,1.3,.4,.3,.9,.5,1.4,.5s1-.3,1.3-.7c.3-.4,.5-.9,.5-1.4s-.3-1-.7-1.3h0c-.4-.3-.9-.5-1.4-.5s-1,.3-1.3,.7c-.3,.4-.5,.9-.5,1.4Z"/>
              </g>
            </g>
            <g id="uuid-638bd91b-b3b3-4ecd-b66c-9ce827e1d9e1" data-name="g3978" transform="translate(283.3695,75.3206)">
              <g id="uuid-85ab959f-9a36-4511-97c2-a25927db1770" data-name="path3980">
                <path class="uuid-3ca32d43-9be0-4112-977e-92b41e8f24af" d="M140.4,512.3c0,.7-.1,1.3-.6,1.9s-1.1,.8-1.8,.9c-.7,0-1.4-.2-1.9-.6-1.1-.9-1.2-2.6-.3-3.6,.4-.5,1.1-.8,1.8-.9s1.4,.2,1.9,.6h0c.5,.5,.8,1.1,.9,1.8Zm-4.5,.4c0,.5,.3,1,.7,1.3,.4,.3,.9,.5,1.4,.5s1-.3,1.3-.7c.7-.8,.6-2-.2-2.7-.4-.3-.9-.5-1.4-.5s-1,.3-1.3,.7c-.3,.4-.5,.9-.5,1.4Zm3.4-1.9h0Z"/>
              </g>
            </g>
            <g id="uuid-d8769fbf-f770-4180-9240-b4593fc107b9" data-name="g3982" transform="translate(455.443,276.7737)">
              <g id="uuid-9d3ea263-4b6d-4d71-b0ce-4c65481eedd5" data-name="path3984">
                <path class="uuid-3ca32d43-9be0-4112-977e-92b41e8f24af" d="M136.2,508.4c0,0,0,.1,0,.2-1,2.1-2.5,2.5-3.4,2.5,0,.2,.2,.5,.3,1,0,.2,0,.3-.2,.4-1.7,.6-3.1,.6-4,0-1-.7-1.2-1.8-1.2-2.4-.6,0-1.8,0-2.6-.8-.8-.8-1-2.1-.7-3.9,0-.2,.2-.3,.3-.3,.4,0,.8,0,1,.1-.1-.9,0-2.4,1.9-3.7,.1,0,.3,0,.4,0,.7,.7,1,1.4,1.1,2,.1-.1,.3-.1,.4,0,.1,.1,.2,.3,0,.4-.3,.4-.4,.8-.4,.9,0,.2-.2,.3-.4,.2-.2,0-.3-.2-.3-.4,0-.1,.2-1.3-.8-2.5-2.1,1.5-1.3,3.4-1.3,3.4,0,.1,0,.3-.1,.4-.1,0-.3,0-.4,0h0s-.2-.2-1-.2c-.2,1.4,0,2.5,.5,3.1,.9,.9,2.4,.6,2.4,.6,0,0,.2,0,.3,0,0,0,.1,.2,.1,.3,0,0,0,1.5,1,2.3,.7,.5,1.8,.5,3.1,0-.2-.7-.4-.9-.4-.9-.1,0-.2-.3-.1-.4,0-.1,.2-.2,.4-.2,0,0,2,.5,3.2-1.8-1.4-.8-2.5-.5-2.6-.4-.2,0-.3,0-.4-.2,0-.2,0-.3,.2-.4,.3-.1,2.5-1.1,1.2-4.8-.2,0-.4,0-.6,0-.2,0-.3-.2-.3-.4,0-.2,.2-.3,.4-.3,.3,0,.6,0,.9,.1,.1,0,.2,0,.2,.2,1,2.7,.3,4.3-.4,5.1,.6,0,1.3,.3,2.1,.8,0,0,.1,.1,.1,.2Z"/>
              </g>
            </g>
            <g id="uuid-a0f24774-ec9c-4f1e-afdd-380f1faf07a1" data-name="g3986" transform="translate(320.7694,461.6592)">
              <g id="uuid-4ba7c098-f15c-4c67-8e34-e9f36d438053" data-name="path3988">
                <path class="uuid-3ca32d43-9be0-4112-977e-92b41e8f24af" d="M123.8,512.2c0,1-.7,1.9-1.7,2-.9,0-1.6-.6-1.7-1.4s.1-.3,.3-.3,.3,.1,.3,.3c0,.5,.5,.9,1,.8s1.2-.6,1.1-1.3-.8-1.5-1.7-1.5-.3-.1-.3-.3,.1-.3,.3-.3c1.2,0,2.3,.8,2.4,2.1Z"/>
              </g>
            </g>
            <g id="uuid-a3d71fc5-a5be-4adb-96ce-0de1b01e9e23" data-name="g3990" transform="translate(308.8088,170.1398)">
              <g id="uuid-d19d518e-ae6d-4987-8432-3ab7dab246c3" data-name="path3992">
                <path class="uuid-3ca32d43-9be0-4112-977e-92b41e8f24af" d="M136,511.4c0,.7-.2,1.4-.6,1.9-.9,1.1-2.6,1.2-3.6,.3-.3-.3-.6-.6-.7-1,0-.2,0-.4,.2-.4,.2,0,.4,0,.4,.2,.1,.3,.3,.5,.5,.8,.8,.7,2,.6,2.7-.2s.5-.9,.5-1.4-.3-1-.7-1.3-.2-.3,0-.5,.3-.2,.5,0c.5,.4,.8,1.1,.9,1.8Z"/>
              </g>
            </g>
            <g id="uuid-e118f35a-b10e-49f4-a9eb-971b8bc5330e" data-name="g3994" transform="translate(357.7908,182.3911)">
              <g id="uuid-c5452e44-4436-4342-833b-5f36898b157f" data-name="path3996">
                <path class="uuid-3ca32d43-9be0-4112-977e-92b41e8f24af" d="M138.9,508c0,.7-.1,1.3-.6,1.9-.4,.5-1.1,.8-1.8,.9s-1.4-.2-1.9-.6-.2-.3,0-.5,.3-.2,.5,0c.4,.3,.9,.5,1.4,.5,.5,0,1-.3,1.3-.7,.7-.8,.6-2-.2-2.7-.4-.3-.9-.5-1.4-.5s-1,.3-1.3,.7c-.2,.2-.4,.5-.4,.8,0,.2-.2,.3-.4,.2-.2,0-.3-.2-.2-.4,0-.4,.3-.8,.6-1.1,.4-.5,1.1-.8,1.8-.9s1.4,.2,1.9,.6c.5,.5,.8,1.1,.9,1.8Z"/>
              </g>
            </g>
            <g id="uuid-e256ee4b-4876-4b74-98a1-ea8d510630dd" data-name="g3998" transform="translate(350.1751,376.1566)">
              <g id="uuid-9a939a09-a8ff-4071-a164-714766648542" data-name="path4000">
                <path class="uuid-3ca32d43-9be0-4112-977e-92b41e8f24af" d="M129.3,512.8c0,0,0,.2,0,.2-.1,.1-.3,.2-.5,0-2.5-2.1-5.9-2.9-9.1-2,0,0-.2,0-.3,0s-.1-.1-.1-.2l-.2-1.9c0-.2,0-.3,.2-.3,1.9-.5,4-.6,6-.1,.2,0,.3,.2,.2,.4,0,.2-.2,.3-.4,.2-1.8-.4-3.6-.4-5.4,0v1.2c3.4-.8,6.8,0,9.4,2.3,0,0,.1,.1,.1,.2Z"/>
              </g>
            </g>
            <g id="uuid-1f7b9498-cd88-4a3e-a16d-a0f198c67010" data-name="g4002" transform="translate(477.3592,237.4648)">
              <g id="uuid-16366a1e-bd3f-4f93-bc30-9875d8c8f12a" data-name="path4004">
                <path class="uuid-3ca32d43-9be0-4112-977e-92b41e8f24af" d="M131.5,502.4s0,0,0,.1c0,0,0,0,0,.1,0,0,0,0,0,0,0,0,0,0-.1,0s0,0-.1,0c0,0,0,0-.1,0-.1-.1-.2-.3,0-.5,0,0,0,0,0,0,0,0,0,0,.1,0,0,0,.2,0,.2,0,0,0,0,0,0,0,0,0,0,0,0,.1Z"/>
              </g>
            </g>
          </g>
        </g>
        <g>
          <g>
            <path class="uuid-3ca32d43-9be0-4112-977e-92b41e8f24af" d="M391.7,37.9c-.1,0-.1,0,0-.1,.2-.2,.3-.9,.3-1.6v-4.5c0-.7,0-1.4-.3-1.6,0,0,0-.1,0-.1h4.3c1.3,0,3.2,.1,3.2,1.9s-1,1.8-1.7,1.9h0c.9,.1,2,.6,2,1.9s-1.3,2.2-3.3,2.2h-4.5Zm2.7-7.2v2.9h1.1c.3,0,.6-.1,.8-.3,.2-.2,.4-.6,.4-1.2,0-1.2-.8-1.4-1.3-1.4h-1Zm1.1,6.5c.9,0,1.4-.4,1.4-1.6s-.7-1.4-1.3-1.4h-1.2v2.7c0,.3,0,.3,.3,.3h.9Z"/>
            <path class="uuid-3ca32d43-9be0-4112-977e-92b41e8f24af" d="M400.8,33.9c0-2.7,2.1-4.2,4.9-4.2s4.9,1.5,4.9,4.2-2.1,4.2-4.9,4.2-4.9-1.5-4.9-4.2Zm7,0c0-2.1-.6-3.4-2.1-3.4s-2.1,1.3-2.1,3.4,.6,3.4,2.1,3.4,2.1-1.3,2.1-3.4Z"/>
            <path class="uuid-3ca32d43-9be0-4112-977e-92b41e8f24af" d="M412.1,37.9c-.1,0-.1,0,0-.1,.2-.2,.3-.9,.3-1.6v-4.5c0-.7,0-1.4-.3-1.6,0,0,0-.1,0-.1h4.6c3,0,4.4,1.7,4.4,3.8s-1.4,4.2-4.5,4.2h-4.5Zm2.7-1c0,.2,0,.3,.3,.3h1c.8,0,1.3-.3,1.7-.9,.3-.6,.5-1.4,.5-2.5,0-1.8-.6-3.1-2.2-3.1h-1.3v6.2Z"/>
            <path class="uuid-3ca32d43-9be0-4112-977e-92b41e8f24af" d="M428.8,29.9c.2,0,.2,0,.2,.2v1.3c0,0-.2,0-.2,0-.2-.2-.4-.3-.8-.5-.4-.2-.7-.3-1.1-.3h-1.5v2.8h1.5c.3,0,.5,0,.7-.1,.2,0,.4-.1,.5-.1,0,0,0,0,0,0v1.2s0,0,0,0c-.1,0-.6-.3-1.2-.3h-1.5v2.6c0,.3,0,.3,.3,.3h1.2c.9,0,1.9-.7,2.2-1,0,0,.3,0,.3,0l-.3,1.5c0,.2-.2,.2-.2,.2h-6.2c-.1,0-.1,0,0-.1,.2-.2,.3-.9,.3-1.6v-4.5c0-.7,0-1.4-.3-1.6,0,0,0-.1,0-.1h6.1Z"/>
            <path class="uuid-3ca32d43-9be0-4112-977e-92b41e8f24af" d="M435.4,29.7c1.5,0,2.5,.2,3,.4,.2,0,.3,.2,.2,.4l-.2,1c0,0-.2,0-.3,0-.5-.5-1.3-1-2.4-1-1.7,0-2.5,1.2-2.5,3.3,0,2,.7,3.3,2.3,3.3s.9,0,1.2-.2v-1.1c0-1,0-1.5-.3-1.7,0,0,0-.1,0-.1h2.4c.1,0,.1,0,0,.1-.1,.2-.2,.8-.2,1.7v1.9c0,0,0,0-.1,0l-1.3-.2c-.5,.2-1.4,.4-2.3,.4-2.9,0-4.7-1.4-4.7-4.2s2.1-4.2,5-4.2Z"/>
            <path class="uuid-3ca32d43-9be0-4112-977e-92b41e8f24af" d="M441.5,37.9h-1.5c0,0,0,0,0-.1,.2-.2,.6-.8,1-1.8l2.7-6h1.9l2.4,5.9c.3,.8,.7,1.5,1,1.9,0,0,0,.1,0,.1h-2.9c-.1,0-.1,0-.1-.1,0-.3-.2-1.1-.6-1.9l-.2-.5h-2.9l-.2,.5c-.4,1-.5,1.7-.4,1.9,0,0,0,.1,0,.1Zm2.2-6.1l-1.2,2.8h2.3l-1.1-2.8Z"/>
            <path class="uuid-3ca32d43-9be0-4112-977e-92b41e8f24af" d="M405,52.9h-2.9c-.1,0-.1,0,0-.1,.2-.2,.3-.9,.3-1.6v-4.5c0-.7,0-1.4-.3-1.6,0,0,0-.1,0-.1h4.5c1.7,0,3.2,.5,3.2,2.3s-1.4,2.6-3.6,2.6c-.5,0-1,0-1.3,0v1.4c0,.7,0,1.4,.2,1.6,0,0,0,.1,0,.1Zm-.2-7.2v3.5c.2,0,.4,0,.7,0,1.1,0,1.7-.6,1.7-1.9s-.2-1.1-.4-1.3c-.3-.2-.6-.4-.9-.4h-1Z"/>
            <path class="uuid-3ca32d43-9be0-4112-977e-92b41e8f24af" d="M417.8,46.7c0-.9-.2-1.4-.3-1.6,0,0,0-.1,0-.1h1.4s0,0,0,.1c-.1,.2-.3,.7-.3,1.6v3.4c0,.9-.3,1.6-.9,2.1-.6,.6-1.5,.8-2.8,.8-2.8,0-3.8-1.3-3.8-2.9v-3.6c0-.7,0-1.4-.3-1.6,0,0,0-.1,0-.1h2.8c.1,0,.1,0,0,.1-.2,.2-.2,.9-.2,1.6v3.5c0,1.1,.6,1.9,2,1.9s2.1-.7,2.1-2.1v-3.3Z"/>
            <path class="uuid-3ca32d43-9be0-4112-977e-92b41e8f24af" d="M421,45.7c0,0-.6-.7-.6-.7,0,0,0-.1,0-.1h2.5c.2,0,.2,0,.4,.1l4.3,4.9v-3.3c0-.9-.2-1.4-.3-1.6,0,0,0-.1,0-.1h1.4s0,0,0,.1c-.1,.2-.3,.7-.3,1.6v6.2c-.1,0-1.3,0-1.4,0l-5.1-5.9v4.1c0,.9,.2,1.4,.3,1.6,0,0,0,.1,0,.1h-1.4s0,0,0-.1c.2-.2,.3-.7,.3-1.6v-5.4Z"/>
            <path class="uuid-3ca32d43-9be0-4112-977e-92b41e8f24af" d="M431.1,52.9h-1.5c0,0,0,0,0-.1,.2-.2,.6-.8,1-1.8l2.7-6h1.9l2.4,5.9c.3,.8,.7,1.5,1,1.9,0,0,0,.1,0,.1h-2.9c-.1,0-.1,0-.1-.1,0-.3-.2-1.1-.6-1.9l-.2-.5h-2.9l-.2,.5c-.4,1-.5,1.7-.4,1.9,0,0,0,.1,0,.1Zm2.2-6.1l-1.2,2.8h2.3l-1.1-2.8Z"/>
          </g>
          <g id="uuid-c966d370-557e-4bf9-9247-b6043fda518b" data-name="g3940">
            <g id="uuid-4d583718-87ec-44db-9b7b-caa6a53a3a99" data-name="g3946" transform="translate(170.0489,308.8997)">
              <g id="uuid-58654840-5a40-4a1f-9267-c3d4885b1298" data-name="path3948">
                <path class="uuid-3ca32d43-9be0-4112-977e-92b41e8f24af" d="M417.1,10.9c-.7,0-1.4-.2-1.9-.6-.5-.5-.8-1.1-.9-1.8s.2-1.4,.6-1.9c.5-.5,1.1-.8,1.8-.9s1.4,.2,1.9,.6c1.1,.9,1.2,2.6,.3,3.6h0c-.5,.5-1.1,.8-1.8,.9Zm-.3-4.5c-.5,0-1,.3-1.3,.7-.3,.4-.5,.9-.5,1.4s.3,1,.7,1.3c.4,.3,.9,.5,1.4,.5s1-.3,1.3-.7h0c.7-.8,.6-2-.2-2.7-.4-.3-.9-.5-1.4-.5Z"/>
              </g>
            </g>
            <g id="uuid-3f50ee17-04f1-49a7-9f69-608969faf529" data-name="g3950" transform="translate(239.4288,239.5197)">
              <g id="uuid-0fb1e1a7-e049-4b65-8d16-258bb2bae177" data-name="path3952">
                <path class="uuid-3ca32d43-9be0-4112-977e-92b41e8f24af" d="M420.5,13.8c-.7,0-1.4-.2-1.9-.6-.5-.5-.8-1.1-.9-1.8,0-.7,.2-1.4,.6-1.9,.9-1.1,2.6-1.2,3.6-.3,.5,.5,.8,1.1,.9,1.8,0,.7-.2,1.4-.6,1.9h0c-.5,.5-1.1,.8-1.8,.9Zm-.3-4.5c-.5,0-1,.3-1.3,.7-.3,.4-.5,.9-.5,1.4s.3,1,.7,1.3,.9,.5,1.4,.5,1-.3,1.3-.7h0c.3-.4,.5-.9,.5-1.4s-.3-1-.7-1.3c-.4-.4-.9-.5-1.4-.5Z"/>
              </g>
            </g>
            <g id="uuid-9b1fa808-4a07-4ef4-bc49-16a5102e0567" data-name="g3954" transform="translate(171.4375,383.2657)">
              <g id="uuid-7b8d2166-b704-471e-8b1d-d3abc3bf105a" data-name="path3956">
                <path class="uuid-3ca32d43-9be0-4112-977e-92b41e8f24af" d="M421.9,9.7c0,0-.2,0-.2,0-.1-.1-.1-.3,0-.5,.3-.4,.5-.9,.5-1.4s-.3-1-.7-1.3c-.8-.7-2-.6-2.7,.2s-.3,.1-.5,0-.1-.3,0-.5c.9-1.1,2.6-1.2,3.6-.3s.8,1.1,.9,1.8-.2,1.4-.6,1.9c0,0-.1,.1-.2,.1Z"/>
              </g>
            </g>
            <g id="uuid-a2fbb4b5-819f-494a-8b82-619f5229fc9e" data-name="g3958" transform="translate(144.6096,214.0804)">
              <g id="uuid-79b7e846-34e8-4001-918c-dea55d395657" data-name="path3960">
                <path class="uuid-3ca32d43-9be0-4112-977e-92b41e8f24af" d="M416.2,15.3c-.7,0-1.4-.2-1.9-.6-.5-.5-.8-1.1-.9-1.8s.2-1.4,.6-1.9c.9-1.1,2.6-1.2,3.6-.3s.8,1.1,.9,1.8-.2,1.4-.6,1.9h0c-.5,.5-1.1,.8-1.8,.9Zm-.3-4.5c-.5,0-1,.3-1.3,.7-.3,.4-.5,.9-.5,1.4s.3,1,.7,1.3c.4,.3,.9,.5,1.4,.5s1-.3,1.3-.7h0c.3-.4,.5-.9,.5-1.4s-.3-1-.7-1.3c-.4-.4-.9-.5-1.4-.5Z"/>
              </g>
            </g>
            <g id="uuid-bc87cde9-ec65-49ea-ba7a-7360a449a1e1" data-name="g3962" transform="translate(213.9895,144.7005)">
              <g id="uuid-c616b9c7-7338-441f-9bc9-c5ff45248848" data-name="path3964">
                <path class="uuid-3ca32d43-9be0-4112-977e-92b41e8f24af" d="M419.6,18.3c-.7,0-1.3-.2-1.9-.6-.5-.5-.8-1.1-.9-1.8s.2-1.4,.6-1.9c.9-1.1,2.6-1.2,3.6-.3,1.1,.9,1.2,2.6,.3,3.6h0c-.5,.5-1.1,.8-1.8,.9Zm-.3-4.5c-.5,0-1,.3-1.3,.7-.3,.4-.5,.9-.5,1.4s.3,1,.7,1.3c.8,.7,2,.6,2.7-.2,.7-.8,.6-2-.2-2.7-.4-.4-.9-.5-1.4-.5Zm1.8,3.4h0Z"/>
              </g>
            </g>
            <g id="uuid-0b716a1e-63ab-47cd-bce7-22ea07a62b65" data-name="g3966" transform="translate(119.2515,119.1468)">
              <g id="uuid-a4994522-dc58-44c1-b72b-0cf6446b584c" data-name="path3968">
                <path class="uuid-3ca32d43-9be0-4112-977e-92b41e8f24af" d="M415.4,19.8c-.7,0-1.4-.2-1.9-.6-.5-.5-.8-1.1-.9-1.8s.2-1.4,.6-1.9c.5-.5,1.1-.8,1.8-.9s1.4,.2,1.9,.6c.5,.5,.8,1.1,.9,1.8s-.2,1.4-.6,1.9c-.5,.5-1.1,.8-1.8,.9Zm-.3-4.5c-.5,0-1,.3-1.3,.7-.3,.4-.5,.9-.5,1.4s.3,1,.7,1.3c.4,.3,.9,.5,1.4,.5s1-.3,1.3-.7h0c.3-.4,.5-.9,.5-1.4s-.3-1-.7-1.3c-.4-.3-.9-.5-1.4-.5Z"/>
              </g>
            </g>
            <g id="uuid-9fb94c17-bd96-4337-b161-a42f36ac8e47" data-name="g3970" transform="translate(93.8482,24.3634)">
              <g id="uuid-8a69cb18-fdbc-418e-a560-0e42a2b1c328" data-name="path3972">
                <path class="uuid-3ca32d43-9be0-4112-977e-92b41e8f24af" d="M414.5,24.2c-.7,0-1.4-.2-1.9-.6-1.1-.9-1.2-2.6-.3-3.6,.9-1.1,2.6-1.2,3.6-.3,.5,.5,.8,1.1,.9,1.8,0,.7-.2,1.4-.6,1.9h0c-.5,.5-1.1,.8-1.8,.9Zm-.3-4.5c-.5,0-1,.3-1.3,.7-.7,.8-.6,2,.2,2.7s.9,.5,1.4,.5,1-.3,1.3-.7h0c.3-.4,.5-.9,.5-1.4s-.3-1-.7-1.3c-.4-.4-.9-.5-1.4-.5Z"/>
              </g>
            </g>
            <g id="uuid-34e85058-ce77-45b4-8621-444ad1cdcafa" data-name="g3974" transform="translate(188.6315,49.7668)">
              <g id="uuid-25ba37c9-8b91-49b9-9c40-70b3b614128f" data-name="path3976">
                <path class="uuid-3ca32d43-9be0-4112-977e-92b41e8f24af" d="M418.8,22.7c-.7,0-1.4-.2-1.9-.6-.5-.5-.8-1.1-.9-1.8,0-.7,.2-1.4,.6-1.9,.9-1.1,2.6-1.2,3.6-.3s.8,1.1,.9,1.8-.2,1.4-.6,1.9c-.5,.5-1.1,.8-1.8,.9Zm-.3-4.5c-.5,0-1,.3-1.3,.7-.3,.4-.5,.9-.5,1.4s.3,1,.7,1.3c.4,.3,.9,.5,1.4,.5,.5,0,1-.3,1.3-.7h0c.3-.4,.5-.9,.5-1.4s-.3-1-.7-1.3c-.4-.4-.9-.5-1.4-.5Z"/>
              </g>
            </g>
            <g id="uuid-f01b8d16-5c5b-44fb-9b21-0877c4648613" data-name="g3978" transform="translate(283.3695,75.3206)">
              <g id="uuid-7c6d34a7-e5c3-48fd-9954-af7a8e638bfe" data-name="path3980">
                <path class="uuid-3ca32d43-9be0-4112-977e-92b41e8f24af" d="M423.1,21.2c-.7,0-1.3-.2-1.9-.6-.5-.5-.8-1.1-.9-1.8s.2-1.4,.6-1.9c.9-1.1,2.6-1.2,3.6-.3,.5,.5,.8,1.1,.9,1.8s-.2,1.4-.6,1.9h0c-.5,.5-1.1,.8-1.8,.9Zm-.3-4.5c-.5,0-1,.3-1.3,.7-.3,.4-.5,.9-.5,1.4s.3,1,.7,1.3c.8,.7,2,.6,2.7-.2,.3-.4,.5-.9,.5-1.4s-.3-1-.7-1.3c-.4-.4-.9-.5-1.4-.5Zm1.8,3.4h0Z"/>
              </g>
            </g>
            <g id="uuid-a4ab5f32-d85b-4d7b-956b-767463f5567b" data-name="g3982" transform="translate(455.443,276.7737)">
              <g id="uuid-0e65233e-b719-498d-ab8c-b86ee988896a" data-name="path3984">
                <path class="uuid-3ca32d43-9be0-4112-977e-92b41e8f24af" d="M426.9,17.1c0,0-.1,0-.2,0-2.1-1-2.4-2.5-2.4-3.4-.2,0-.5,.2-1,.3-.2,0-.3,0-.4-.2-.6-1.7-.6-3.1,0-4,.7-.9,1.8-1.2,2.4-1.2,0-.6,0-1.8,.9-2.6,.8-.8,2.2-1,4-.6,.2,0,.3,.2,.3,.3,0,.4,0,.8-.1,1,.9-.1,2.4,0,3.7,1.9,0,.1,0,.3,0,.4-.7,.7-1.4,1-2,1.1,.1,.1,.1,.3,0,.4-.1,.1-.3,.2-.5,0-.4-.3-.8-.4-.9-.4-.2,0-.3-.2-.2-.4,0-.2,.2-.3,.4-.2,.1,0,1.3,.2,2.5-.8-1.5-2.1-3.4-1.3-3.4-1.3-.1,0-.3,0-.4-.1,0-.1,0-.3,0-.4h0s.2-.2,.2-1c-1.4-.3-2.5,0-3.1,.5-.9,.9-.6,2.4-.6,2.4,0,0,0,.2,0,.3,0,0-.2,.1-.3,.1,0,0-1.5,0-2.3,1-.5,.7-.5,1.8,0,3.1,.7-.2,.9-.4,.9-.4,0-.1,.3-.2,.4,0,.1,0,.2,.2,.2,.4,0,0-.5,2,1.8,3.2,.8-1.4,.5-2.5,.5-2.6,0-.2,0-.3,.2-.4,.2,0,.3,0,.4,.2,0,.3,1.1,2.5,4.8,1.2,0-.2,0-.4,0-.6,0-.2,.2-.3,.4-.3,.2,0,.3,.2,.3,.4,0,.3,0,.6-.1,.9,0,.1-.1,.2-.2,.2-2.8,1-4.3,.3-5.1-.5,0,.6-.3,1.3-.8,2.1,0,0-.1,.1-.2,.1Z"/>
              </g>
            </g>
            <g id="uuid-2950518b-dd54-484b-b8a6-e24b74347c5e" data-name="g3986" transform="translate(320.7694,461.6592)">
              <g id="uuid-c09c743c-fbb3-487c-8423-356213ed06d0" data-name="path3988">
                <path class="uuid-3ca32d43-9be0-4112-977e-92b41e8f24af" d="M423.3,4.7c-1,0-1.9-.7-2-1.7s.6-1.6,1.4-1.7,.3,.1,.3,.3-.1,.3-.3,.3c-.5,0-.9,.5-.8,1s.6,1.2,1.3,1.1,1.5-.8,1.5-1.7,.1-.3,.3-.3,.3,.1,.3,.3c0,1.2-.8,2.3-2.1,2.4Z"/>
              </g>
            </g>
            <g id="uuid-7d8927d6-0c3c-4896-9f29-8d30f3413188" data-name="g3990" transform="translate(308.8088,170.1398)">
              <g id="uuid-9ef7641b-1545-428f-987a-26aa6439af66" data-name="path3992">
                <path class="uuid-3ca32d43-9be0-4112-977e-92b41e8f24af" d="M423.9,16.8c-.7,0-1.4-.2-1.9-.6-1.1-.9-1.2-2.6-.3-3.6,.3-.3,.6-.6,1-.7,.2,0,.4,0,.4,.2,0,.2,0,.4-.2,.4-.3,.1-.6,.3-.8,.5-.7,.8-.6,2,.2,2.7s.9,.5,1.4,.5,1-.3,1.3-.7,.3-.1,.5,0,.1,.3,0,.5c-.5,.5-1.1,.8-1.8,.9Z"/>
              </g>
            </g>
            <g id="uuid-d1a95e6d-8f58-43d8-bf50-5973c134c3ff" data-name="g3994" transform="translate(357.7908,182.3911)">
              <g id="uuid-65af0d8a-8572-4668-841c-40229472939d" data-name="path3996">
                <path class="uuid-3ca32d43-9be0-4112-977e-92b41e8f24af" d="M427.3,19.8c-.7,0-1.3-.2-1.9-.6-.5-.5-.8-1.1-.9-1.8s.2-1.4,.6-1.9,.3-.1,.5,0,.1,.3,0,.5c-.3,.4-.5,.9-.5,1.4s.3,1,.7,1.3c.8,.7,2,.6,2.7-.2,.3-.4,.5-.9,.5-1.4s-.3-1-.7-1.3c-.2-.2-.5-.4-.8-.4-.2,0-.3-.2-.2-.4,0-.2,.2-.3,.4-.2,.4,0,.8,.3,1.1,.6,.5,.5,.8,1.1,.9,1.8s-.2,1.4-.6,1.9c-.5,.5-1.1,.8-1.8,.9Z"/>
              </g>
            </g>
            <g id="uuid-62742de0-3f79-4e94-8ee8-ec2a2d8e8be0" data-name="g3998" transform="translate(350.1751,376.1566)">
              <g id="uuid-bd3855df-c29a-4227-a444-ef27a8c707e3" data-name="path4000">
                <path class="uuid-3ca32d43-9be0-4112-977e-92b41e8f24af" d="M422.6,10.2c0,0-.2,0-.2,0-.1-.1-.1-.3,0-.5,2.2-2.5,3-5.9,2.1-9.1,0,0,0-.2,0-.3s.1-.1,.2-.1h1.9c.2-.1,.3,0,.3,.1,.5,1.9,.5,4,0,6,0,.2-.2,.3-.4,.2-.2,0-.3-.2-.2-.4,.4-1.8,.4-3.6,0-5.4h-1.2c.7,3.4-.1,6.8-2.3,9.4,0,0-.1,.1-.2,.1Z"/>
              </g>
            </g>
            <g id="uuid-655794cc-c9ed-434a-bdef-d3e40da86765" data-name="g4002" transform="translate(477.3592,237.4648)">
              <g id="uuid-cc350017-4437-462d-bc63-2792e27b0deb" data-name="path4004">
                <path class="uuid-3ca32d43-9be0-4112-977e-92b41e8f24af" d="M433,12.4s0,0-.1,0c0,0,0,0-.1,0,0,0,0,0,0,0,0,0,0,0,0-.1s0,0,0-.1c0,0,0,0,0-.1,.1-.1,.3-.1,.5,0,0,0,0,0,0,0,0,0,0,0,0,.1,0,0,0,.2,0,.2,0,0,0,0,0,0,0,0,0,0-.1,0Z"/>
              </g>
            </g>
          </g>
        </g>
        <g>
          <path class="uuid-3ca32d43-9be0-4112-977e-92b41e8f24af" d="M293.4,392.3l.3-8.2c0-.1-.2-.3-.3-.6-.1-.3-.3-.5-.4-.6,0,0,0-.2,0-.2h2.5c.3,0,.3,0,.4,.3l4.2,9.1,3.7-8.5c.4-.8,.5-.9,.9-.9h2c0,0,.1,0,0,.2-.3,.4-.4,1.5-.3,2.8l.2,6.6c0,1.5,.2,2.2,.4,2.5,0,0,0,.2,0,.2h-2.9c-.2,0-.1,0-.1-.2,.2-.3,.4-1,.4-2.5l-.2-7.2-4.3,9.8c-.2,0-.9,0-1,0l-4.4-9.6-.2,7c0,1.4,.1,2.2,.3,2.5,0,0,0,.2,0,.2h-1.6c-.1,0,0,0,0-.2,.2-.3,.4-1.2,.4-2.5Z"/>
          <path class="uuid-3ca32d43-9be0-4112-977e-92b41e8f24af" d="M309.6,388.8c0-3.9,2.6-6.4,6.4-6.4s6.5,2.5,6.5,6.4-2.6,6.4-6.5,6.4-6.4-2.5-6.4-6.4Zm10.2,0c0-3.1-1.1-5.5-3.8-5.5s-3.7,2.4-3.7,5.5,1.1,5.5,3.7,5.5,3.8-2.4,3.8-5.5Z"/>
          <path class="uuid-3ca32d43-9be0-4112-977e-92b41e8f24af" d="M325.3,394.9c-.2,0-.2,0,0-.2,.2-.3,.4-1.2,.4-2.5v-6.9c0-1.2-.1-2.2-.4-2.5,0,0,0-.2,0-.2h2.9c.2,0,.2,0,.1,.2-.2,.3-.4,1.2-.4,2.5v8.1c0,.6,0,.6,.5,.6h1.5c1.4,0,2.6-.9,3.1-1.4,.1,0,.4,0,.3,0l-.4,1.9c0,.3-.3,.3-.4,.3h-7.4Z"/>
          <path class="uuid-3ca32d43-9be0-4112-977e-92b41e8f24af" d="M338.2,392.3c0,1.2,.1,2.2,.4,2.5,0,0,0,.2-.1,.2h-2.9c-.2,0-.2,0,0-.2,.2-.3,.4-1.2,.4-2.5v-6.9c0-1.2-.1-2.2-.4-2.5,0,0,0-.2,0-.2h2.9c.2,0,.2,0,.1,.2-.2,.3-.4,1.2-.4,2.5v6.9Z"/>
          <path class="uuid-3ca32d43-9be0-4112-977e-92b41e8f24af" d="M342.3,383.9c0,0-.2-.3-.5-.5s-.4-.4-.4-.5,0-.2,0-.2h2.6c.2,0,.3,0,.5,.2l6.8,8.4v-6c0-1.4-.3-2.2-.4-2.5,0,0,0-.2,0-.2h1.8c0,0,0,0,0,.2-.2,.3-.4,1.1-.4,2.5v9.5c-.2,0-.9,0-1,0l-7.9-9.8v7.1c0,1.4,.2,2.2,.4,2.5,0,0,0,.2,0,.2h-1.8c0,0,0,0,0-.2,.2-.3,.4-1.1,.4-2.5v-8.3Z"/>
          <path class="uuid-3ca32d43-9be0-4112-977e-92b41e8f24af" d="M355.1,388.8c0-3.9,2.6-6.4,6.4-6.4s6.5,2.5,6.5,6.4-2.6,6.4-6.5,6.4-6.4-2.5-6.4-6.4Zm10.2,0c0-3.1-1.1-5.5-3.8-5.5s-3.7,2.4-3.7,5.5,1.1,5.5,3.7,5.5,3.8-2.4,3.8-5.5Z"/>
          <path class="uuid-3ca32d43-9be0-4112-977e-92b41e8f24af" d="M376.7,392.1c0-.7-.3-1.3-.9-1.6-.6-.3-1.3-.6-2.1-.9-1-.4-1.9-.8-2.5-1.4-.6-.6-1-1.3-.9-2.3,0-2.2,1.7-3.4,4.5-3.4s2.7,.3,3.3,.5c.3,.1,.4,.2,.3,.7v1.1c-.2,0-.4,0-.5,0-.6-.9-1.8-1.4-3.2-1.4s-2.3,.7-2.3,2,1,1.9,2.5,2.4c1.2,.4,2.1,.8,2.8,1.4,.7,.5,1.1,1.3,1.1,2.4,0,2.6-2.1,3.8-5,3.8s-2.9-.2-3.5-.5c-.3-.2-.3-.2-.3-.7v-1.2c.1,0,.3,0,.4,0,.6,.9,1.9,1.6,3.4,1.6s2.8-.9,2.8-2.2Z"/>
        </g>
        <circle class="uuid-f0267163-0049-4027-b9a7-b5b3c7384226" cx="337.8" cy="340.5" r="36.2"/>
        <circle class="uuid-f0267163-0049-4027-b9a7-b5b3c7384226" cx="337.8" cy="340.5" r="29.2"/>
        <circle class="uuid-f0267163-0049-4027-b9a7-b5b3c7384226" cx="337.8" cy="340.5" r="20.6"/>
      </g>
      <g>
        <g>
          <path class="uuid-3ca32d43-9be0-4112-977e-92b41e8f24af" d="M87.4,229.7h7.9v-3.9c0-1.6-.1-2.9-.4-3.3,0,0,0-.2,.1-.2h3.8c.2,0,.2,.1,.2,.2-.3,.4-.5,1.6-.5,3.3v9.2c0,1.7,.2,2.9,.5,3.3,0,.1,0,.2-.2,.2h-3.8c-.2,0-.2-.1-.1-.2,.3-.4,.4-1.6,.4-3.3v-4.2h-7.9v4.2c0,1.6,.2,2.9,.5,3.3,0,.1,0,.2-.1,.2h-3.9c-.2,0-.2-.1-.1-.2,.3-.4,.5-1.6,.5-3.3v-9.2c0-1.7-.2-2.9-.5-3.3,0,0,0-.2,.1-.2h3.9c.2,0,.2,.1,.1,.2-.3,.4-.5,1.7-.5,3.3v3.9Z"/>
          <path class="uuid-3ca32d43-9be0-4112-977e-92b41e8f24af" d="M104.5,238.5h-2.6c-.1,0-.2-.1,0-.2,.5-.4,1.2-1.6,2.1-3.8l5.4-12.3h1.8l4.7,12.2c.6,1.7,1.4,3.2,1.9,3.9,0,.1,.1,.3-.1,.3h-3.8c-.2,0-.3,0-.3-.3,0-.6-.4-2.2-1.1-3.9l-.5-1.5h-5.7l-.7,1.6c-.8,1.9-1,3.4-.8,3.8,0,.1,0,.2-.2,.2Zm4.7-12.8l-2.6,6.2h4.9l-2.3-6.2Z"/>
          <path class="uuid-3ca32d43-9be0-4112-977e-92b41e8f24af" d="M133.2,237.2c-1,.9-2.7,1.7-5.6,1.7-4.6,0-8.2-2.8-8.2-8.4s3.7-8.6,8.5-8.6,4.2,.4,5,.8c.4,.2,.5,.3,.4,.9l-.3,1.5c-.1,.1-.4,.1-.5,0-.7-.9-2.1-2.1-4.5-2.1s-5.1,2.9-5.1,7.4,1.9,6.9,5.5,6.9,3.7-.7,4.7-1.4c.2,0,.2,1.2,0,1.3Z"/>
          <path class="uuid-3ca32d43-9be0-4112-977e-92b41e8f24af" d="M139.4,235c0,1.7,.2,2.9,.5,3.3,0,.1,0,.2-.2,.2h-3.9c-.2,0-.2-.1-.1-.2,.3-.4,.5-1.6,.5-3.3v-9.2c0-1.7-.2-2.9-.5-3.3,0,0,0-.2,.1-.2h3.9c.2,0,.2,.1,.2,.2-.3,.4-.5,1.6-.5,3.3v9.2Z"/>
          <path class="uuid-3ca32d43-9be0-4112-977e-92b41e8f24af" d="M154.3,222.3c.4,0,.5,0,.5,.4v1.9c0,0-.2,.1-.4,0-.6-.6-2-1.3-3.3-1.3h-3.2v6.4h3.1c1.1,0,2.1-.5,2.4-.5,0,0,.1,0,.1,0v2.1s0,0-.1,0c-.3,0-1.2-.6-2.4-.6h-3.1v5.8c0,.7,0,.8,.7,.8h2.4c1.9,0,3.5-1.3,4.1-1.8,.2-.1,.5,0,.5,0l-.6,2.5c-.1,.4-.4,.4-.5,.4h-10.1c-.2,0-.2-.1-.1-.2,.3-.4,.5-1.6,.5-3.3v-9.2c0-1.7-.2-2.9-.5-3.3,0,0,0-.2,.1-.2h9.9Z"/>
          <path class="uuid-3ca32d43-9be0-4112-977e-92b41e8f24af" d="M159.3,223.8c-.1-.1-.3-.4-.6-.7s-.5-.6-.6-.6,0-.2,0-.2h3.4c.3,0,.4,0,.6,.3l9.1,11.2v-7.9c0-1.8-.4-2.9-.6-3.3,0-.1,0-.2,0-.2h2.4c0,0,.1,.1,0,.2-.3,.4-.6,1.5-.6,3.3v12.7c-.2,0-1.2,0-1.4,0l-10.6-13v9.5c0,1.8,.3,3,.6,3.3,0,.1,0,.2,0,.2h-2.4c0,0-.1-.1,0-.2,.2-.4,.6-1.5,.6-3.3v-11.2Z"/>
          <path class="uuid-3ca32d43-9be0-4112-977e-92b41e8f24af" d="M177.6,238.5c-.2,0-.2-.1-.1-.2,.3-.4,.5-1.6,.5-3.3v-9.2c0-1.7-.2-2.9-.5-3.3,0,0,0-.2,.1-.2h7c5.7,0,8.4,3.5,8.4,7.7s-2.7,8.5-8.4,8.5h-7Zm3.5-1.8c0,.5,0,.7,.6,.7h2.4c3.8,0,5.2-3.2,5.2-7.4s-1.4-6.7-5.2-6.7h-3v13.5Z"/>
          <path class="uuid-3ca32d43-9be0-4112-977e-92b41e8f24af" d="M197,238.5h-2.6c-.1,0-.2-.1,0-.2,.5-.4,1.2-1.6,2.1-3.8l5.4-12.3h1.8l4.7,12.2c.6,1.7,1.4,3.2,1.9,3.9,0,.1,.1,.3-.1,.3h-3.8c-.2,0-.3,0-.3-.3,0-.6-.4-2.2-1.1-3.9l-.5-1.5h-5.7l-.7,1.6c-.8,1.9-1,3.4-.8,3.8,0,.1,0,.2-.2,.2Zm4.7-12.8l-2.6,6.2h4.9l-2.3-6.2Z"/>
          <path class="uuid-3ca32d43-9be0-4112-977e-92b41e8f24af" d="M69.7,264c-.2,0-.2-.1-.1-.2,.3-.4,.5-1.6,.5-3.3v-9.2c0-1.7-.2-2.9-.5-3.3,0,0,0-.2,.1-.2h7c5.7,0,8.4,3.5,8.4,7.7s-2.7,8.5-8.4,8.5h-7Zm3.5-1.8c0,.5,0,.7,.6,.7h2.4c3.8,0,5.2-3.2,5.2-7.4s-1.4-6.7-5.2-6.7h-3v13.5Z"/>
          <path class="uuid-3ca32d43-9be0-4112-977e-92b41e8f24af" d="M98.6,247.8c.4,0,.5,0,.5,.4v1.9c0,0-.2,.1-.4,0-.6-.6-2-1.3-3.3-1.3h-3.2v6.4h3.1c1.1,0,2.1-.5,2.4-.5,0,0,.1,0,.1,0v2.1s0,0-.1,0c-.3,0-1.2-.6-2.4-.6h-3.1v5.8c0,.7,0,.8,.7,.8h2.4c1.9,0,3.5-1.3,4.1-1.8,.2-.1,.5,0,.5,0l-.6,2.5c-.1,.4-.4,.4-.5,.4h-10.1c-.2,0-.2-.1-.1-.2,.3-.4,.5-1.6,.5-3.3v-9.2c0-1.7-.2-2.9-.5-3.3,0,0,0-.2,.1-.2h9.9Z"/>
          <path class="uuid-3ca32d43-9be0-4112-977e-92b41e8f24af" d="M109.5,260.5l.4-11c0-.2-.2-.4-.4-.8-.2-.4-.4-.6-.5-.7-.1-.1,0-.2,0-.2h3.4c.4,0,.4,0,.6,.4l5.6,12.2,4.9-11.4c.5-1.1,.6-1.2,1.2-1.2h2.7c.1,0,.2,.1,.1,.2-.4,.6-.5,2.1-.5,3.8l.3,8.8c0,2.1,.2,2.9,.6,3.3,0,.1,0,.2-.1,.2h-3.9c-.2,0-.2-.1-.2-.2,.3-.4,.5-1.3,.5-3.3l-.3-9.6-5.7,13c-.3,.1-1.2,.1-1.3,0l-5.8-12.8-.2,9.3c0,1.8,.2,2.9,.4,3.3,0,.1,0,.2-.1,.2h-2.1c-.2,0-.1-.1-.1-.2,.2-.4,.5-1.6,.5-3.3Z"/>
          <path class="uuid-3ca32d43-9be0-4112-977e-92b41e8f24af" d="M131.2,255.9c0-5.2,3.5-8.5,8.6-8.5s8.6,3.3,8.6,8.5-3.5,8.5-8.6,8.5-8.6-3.3-8.6-8.5Zm13.6,0c0-4.1-1.4-7.4-5-7.4s-5,3.3-5,7.4,1.5,7.4,5,7.4,5-3.3,5-7.4Z"/>
          <path class="uuid-3ca32d43-9be0-4112-977e-92b41e8f24af" d="M152,264c-.2,0-.2-.1-.1-.2,.3-.4,.5-1.6,.5-3.3v-9.2c0-1.7-.2-2.9-.5-3.3,0,0,0-.2,.1-.2h3.9c.2,0,.2,.1,.2,.2-.3,.4-.5,1.6-.5,3.3v10.8c0,.7,0,.8,.7,.8h2.1c1.9,0,3.5-1.3,4.2-1.9,.2-.1,.5,0,.5,0l-.6,2.5c-.1,.4-.4,.4-.5,.4h-9.8Z"/>
          <path class="uuid-3ca32d43-9be0-4112-977e-92b41e8f24af" d="M169.3,260.5c0,1.7,.2,2.9,.5,3.3,0,.1,0,.2-.2,.2h-3.9c-.2,0-.2-.1-.1-.2,.3-.4,.5-1.6,.5-3.3v-9.2c0-1.7-.2-2.9-.5-3.3,0,0,0-.2,.1-.2h3.9c.2,0,.2,.1,.2,.2-.3,.4-.5,1.6-.5,3.3v9.2Z"/>
          <path class="uuid-3ca32d43-9be0-4112-977e-92b41e8f24af" d="M174.8,249.3c-.1-.1-.3-.4-.6-.7s-.5-.6-.6-.6c0,0,0-.2,0-.2h3.4c.3,0,.4,0,.6,.3l9.1,11.2v-7.9c0-1.8-.4-2.9-.6-3.3,0-.1,0-.2,0-.2h2.4c0,0,.1,.1,0,.2-.3,.4-.6,1.5-.6,3.3v12.7c-.2,0-1.2,0-1.4,0l-10.6-13v9.5c0,1.8,.3,3,.6,3.3,0,.1,0,.2,0,.2h-2.4c0,0-.1-.1,0-.2,.2-.4,.6-1.5,.6-3.3v-11.2Z"/>
          <path class="uuid-3ca32d43-9be0-4112-977e-92b41e8f24af" d="M191.9,255.9c0-5.2,3.5-8.5,8.6-8.5s8.6,3.3,8.6,8.5-3.5,8.5-8.6,8.5-8.6-3.3-8.6-8.5Zm13.6,0c0-4.1-1.4-7.4-5-7.4s-5,3.3-5,7.4,1.5,7.4,5,7.4,5-3.3,5-7.4Z"/>
          <path class="uuid-3ca32d43-9be0-4112-977e-92b41e8f24af" d="M220.8,260.2c0-1-.4-1.7-1.2-2.1-.8-.4-1.7-.8-2.8-1.2-1.4-.5-2.5-1.1-3.4-1.8-.8-.7-1.3-1.8-1.3-3.1,0-2.9,2.3-4.6,6-4.6s3.6,.4,4.5,.7c.4,.2,.5,.3,.5,.9l-.2,1.4c-.1,.1-.4,.1-.4,0-.8-1.2-2.4-1.9-4.3-1.9s-3.1,1-3.1,2.6,1.4,2.5,3.4,3.2c1.6,.5,2.8,1.1,3.8,1.8,.9,.7,1.4,1.7,1.4,3.2,0,3.4-2.8,5.1-6.6,5.1s-3.8-.3-4.7-.7c-.4-.2-.5-.3-.4-.9v-1.6c.2-.1,.4,0,.5,0,.8,1.2,2.5,2.1,4.6,2.1s3.7-1.2,3.7-3Z"/>
        </g>
        <line class="uuid-4402e9d1-5900-4727-bca6-ac80e0beae28" x1="271" y1="282.5" x2="338.2" y2="343.3"/>
        <line class="uuid-4402e9d1-5900-4727-bca6-ac80e0beae28" x1="22.4" y1="282.5" x2="270.7" y2="282.5"/>
      </g>
      <circle class="uuid-217e666a-79b5-404c-83c9-a3095ca56656" cx="337.2" cy="340.5" r="9"/>
    </g>
  </g>
</svg>