<?xml version="1.0" encoding="UTF-8"?>
<svg id="uuid-86dccafc-c7c7-425c-ba37-49cbf2ba9e33" data-name="Layer 2" xmlns="http://www.w3.org/2000/svg" width="409.4" height="132.6" viewBox="0 0 409.4 132.6">
  <defs>
    <style>
      .uuid-f27db317-cfd2-431c-89ac-9ec18b44ad29 {
        fill: #fff;
      }
    </style>
  </defs>
  <g id="uuid-159f15ad-864c-48b7-9aee-948075bae7fa" data-name="Capa 1">
    <g>
      <g>
        <path class="uuid-f27db317-cfd2-431c-89ac-9ec18b44ad29" d="M50.8,45.3c3.9-6.6,7.4-9.9,10.4-9.9s2,.4,2.6,1.1c.6,.7,.9,1.6,.9,2.6,0,3-1.3,6-4,8.9,3.6-.6,6.1-1,7.6-1.3,10.7-1.9,19.3-5.1,25.8-9.6h.2c.2,0,.4,0,.5,.1,.1,.1,.2,.2,.2,.4s0,.2,0,.2-.1,.2-.2,.2c-6.8,4.8-15.6,8-26.2,9.8-1.6,.3-4.7,.9-9.3,1.6-1.3,1.3-2.9,2.3-4.6,2.6-.3,0-.5,0-.6-.2-.2-.1-.2-.3-.3-.4v-.3c-.1-.6,.2-1.1,.8-1.5,.5-.4,1.3-.6,2.2-.9,1.5-1.1,2.8-2.6,3.9-4.5,1.1-1.9,1.6-3.8,1.6-5.7s0-1.1-.2-1.5c-.2-.4-.5-.6-1-.6-1.7,0-3.7,1.5-6,4.4-2.3,3-4.7,6.8-7,11.5l-8,25.7c-.1,.4-.4,.6-.8,.6s-.8-.2-.8-.7,3.8-13.6,11.4-40.6c-1.6,1.7-3.9,3-7.1,4.1-3.2,1.1-6.4,1.6-9.7,1.6s-7.5-.4-10.5-1.3c-3-.9-6.2-1.3-9.9-1.3s-7.5,1.1-9.6,3.2c-.6,.7-1.1,1.2-1.3,1.5-.1,.2-.2,.3-.3,.4-.2,.2-.3,.2-.5,.2-.3,0-.5,0-.7-.2-.2-.1-.3-.3-.3-.6,0-.5,.6-1.3,1.8-2.3,2.6-2.2,6.2-3.3,10.9-3.3s7.2,.4,10.1,1.3c3,.9,6.4,1.3,10.2,1.3s6.9-.6,10.2-1.9c3.3-1.2,5.7-3.1,7.3-5.5,0-.2,.1-.4,.2-.5,.1-.6,.3-1.1,.5-1.5,.3-.4,.8-.6,1.5-.6,.8,.1,1.2,.5,1.2,1.2-.4,1.1-.7,2.2-1,3.2-2,6.4-3.2,10.1-3.6,11.1l1.3-2.3Z"/>
        <path class="uuid-f27db317-cfd2-431c-89ac-9ec18b44ad29" d="M133.3,37.1c.1,0,.2,.1,.2,.2,0,0,0,.2,0,.3l-.3,.3c-10,5.5-18.2,8.3-24.7,8.3s-4.1-.4-5.4-1.3c-1.3-.9-2-2.1-2.3-3.7-.2,.2-.8,.8-1.8,1.7-2.1,1.9-3.8,2.9-5.2,2.9-1.9,0-3-1.1-3.1-3.4,0-1.2,.4-2.5,1.3-3.9,.9-1.5,2-2.7,3.3-3.8,1.3-1.1,2.7-1.6,4.1-1.6s2,.3,2.5,1c.5,.7,.8,1.5,.8,2.4s0,.4-.2,.4c-.2,0-.3,0-.4,0s-.2,0-.2,0c-.1,0-.2,0-.3-.2,0,0-.1-.2-.1-.3,0-1-.6-1.5-1.8-1.5-.9,0-1.9,.5-3,1.5-1,1-1.9,2.1-2.6,3.3-.7,1.3-1.1,2.3-1.1,3.2s.3,1.7,1,1.8c.8,0,1.8-.5,3-1.5,1.2-1,2.5-2.2,4-3.8,.2-.3,.5-.5,.9-.5,.8,0,1.2,.3,1.2,1,0,3.4,1.8,5.1,5.5,5.1,6.1,0,14.2-2.7,24.1-8h.1c.2-.1,.4,0,.5,0Z"/>
        <path class="uuid-f27db317-cfd2-431c-89ac-9ec18b44ad29" d="M153.5,80.4c0-5.8,1.9-15.5,5.7-28.9,3.8-13.4,7.3-25.3,10.5-35.7-1.2,0-2.6,0-4,.2-5.3,6.2-10.9,12-16.8,17.4-7.9,7.3-13.1,13-15.5,17,0,1.9-.8,4.1-2.3,6.7-.1,.2-.3,.3-.5,.3s-.3,0-.4-.1c-.1,0-.2-.2-.2-.4,0-1.8,.5-3.6,1.5-5.4,0-.6,0-1.3-.2-1.9-.2-.6-.3-1.2-.5-1.8-.2-.7-.4-1.5-.6-2.3-.2-.8-.3-1.8-.3-3,0-1.7,.5-3.1,1.5-4.3,1.8-2.3,3-3.4,3.6-3.4h.3c0,0,.2,.1,.3,.2,.2,.1,.3,.3,.3,.6s0,.2,0,.2c0,.1-.1,.2-.2,.3-1,.8-1.8,1.7-2.4,2.6-.6,1-.9,2.1-.9,3.4s.2,3.5,.5,4.8c.2,.8,.2,1.3,.3,1.6,2.4-3.7,7.3-9,14.8-15.9l.2-.2c5.7-5.2,11-10.7,15.9-16.4-5.3,.4-10.5,1.9-15.5,4.6,0,0-.2,.1-.3,.1-.2,0-.3,0-.3,0-.6,0-1-.4-1-1.1,0-.4,.3-.8,.9-1.1,5.6-2.4,11.4-3.7,17.4-4,3.6-4.3,6.5-8.8,8.7-13.5,.2-.5,.4-.8,.7-1,.3-.2,.5-.2,.9-.2,.9,0,1.3,.6,1.3,1.5s0,.6-.2,1c-.9,2.4-2.3,6.5-4.3,12.2,6.1,.3,12.8,1.1,20.1,2.5l.4,.4c0,.2,0,.4-.2,.5-.2,.2-.3,.2-.4,.2-7.3-1.4-14.1-2.2-20.3-2.5-11.3,32.1-16.9,53.7-16.9,64.6s-.3,.8-.8,.9c-.5,0-.8-.3-.8-.9Zm14.4-65.8h2.2l2.4-8.1c-1.2,2.3-3.1,5-5.7,8.1,.4,0,.8,0,1.1,0Z"/>
      </g>
      <g>
        <path class="uuid-f27db317-cfd2-431c-89ac-9ec18b44ad29" d="M136.2,93.6c.1,0,.2,.1,.2,.2,0,0,0,.2,0,.3l-.3,.3c-9.4,5.2-17.2,7.8-23.2,7.8s-3.8-.4-5.1-1.3c-1.2-.8-1.9-2-2.1-3.5-.2,.2-.8,.7-1.7,1.6-2,1.8-3.6,2.7-4.9,2.7-1.8,0-2.8-1.1-2.9-3.2,0-1.1,.4-2.3,1.2-3.7s1.9-2.5,3.1-3.5c1.3-1,2.5-1.5,3.9-1.5s1.9,.3,2.3,1c.5,.7,.7,1.4,.7,2.2s0,.4-.2,.4c-.2,0-.3,0-.4,0s-.2,0-.2,0c-.1,0-.2,0-.3-.2s-.1-.2-.1-.3c0-.9-.6-1.4-1.7-1.4-.9,0-1.8,.5-2.8,1.4-1,.9-1.8,2-2.5,3.1-.7,1.2-1,2.2-1,3s.3,1.6,.9,1.7c.8,0,1.7-.5,2.8-1.4,1.1-.9,2.4-2.1,3.7-3.5,.2-.3,.5-.5,.9-.5,.8,0,1.1,.3,1.1,1,0,3.2,1.7,4.8,5.2,4.8,5.8,0,13.3-2.5,22.6-7.5h.1c.2-.1,.4,0,.5,0Z"/>
        <path class="uuid-f27db317-cfd2-431c-89ac-9ec18b44ad29" d="M132,102.4c0-.8,.4-2.2,1-4.2,.7-2,1.3-3.8,2.1-5.3,.4-.6,.9-.9,1.5-1,1,0,1.4,.4,1.4,1h0c0,.2,0,.5-.2,.7-1.5,2.7-2.6,5.1-3.3,7.1,1.5-1.5,3.2-3.1,5.3-4.7,2.1-1.6,3.7-2.4,5-2.4s2,.2,2.7,.6c.6,.4,1.1,.9,1.5,1.6,.4,.6,.7,1.2,1,1.9,.3,.8,.7,1.5,1.1,2.1,.5,.6,1.2,.9,2.1,.9,3.1,0,8.1-1.2,15.1-3.5l9.2-3.6h.2c.3,0,.4,.1,.5,.2,0,.1,.1,.2,.1,.4v.2s0,.2-.2,.3l-2.8,1.1c-10.2,4-17.5,6.1-22.1,6.1s-4.5-.6-5.4-1.7c-.8-1.2-1.4-2.4-1.6-3.5-.1-.5-.3-1-.5-1.4-.1-.4-.4-.5-.9-.5-1.2,0-2.8,.9-5,2.6-2.1,1.8-4.1,3.7-6.1,5.8h0c0,.1-.2,.2-.3,.3-.1,.1-.3,.2-.5,.2-.6,0-.9-.4-.9-1Z"/>
        <path class="uuid-f27db317-cfd2-431c-89ac-9ec18b44ad29" d="M184.5,96.3c-2.1,2.3-3.9,4.1-5.4,5.4-1.5,1.3-2.7,1.9-3.7,1.9-1.7,0-2.7-1.1-2.9-3.2,0-1.1,.4-2.3,1-3.5,.7-1.2,1.6-2.3,2.7-3.1,1.1-.9,2.3-1.3,3.6-1.3s1.4,.2,1.8,.7c.4,.5,.6,1,.6,1.6s-.2,.6-.5,.6-.4-.1-.5-.4c-.2-.5-.5-.7-1.1-.7-1.5,0-2.7,.8-3.9,2.3-1.2,1.6-1.7,3-1.7,4.4s.3,1.6,.8,1.6c1.3,0,3.5-1.8,6.9-5.3,.6-.6,1.3-1.3,2-2.2-.3-1.5-.4-3.1-.4-4.9,0-3,.5-6.3,1.6-9.7,1-3.4,2.3-6.8,4-10,1.6-3.2,3.3-6,5.2-8.5,2.8-3.8,5.5-5.8,7.9-6,1,0,1.8,.4,2.5,1,.6,.7,.9,1.7,.9,3.1,0,2.5-1.3,6.1-3.9,10.9-4.4,8.2-9.6,16-15.8,23.5,.5,5.9,3.3,9.1,8.6,9.3,3.5,0,7.2-1.3,11.1-4,4.2-2.7,7-4.7,8.2-6,.1,0,.2-.1,.3-.1,.5,0,.7,.2,.7,.5s0,.3-.2,.4c-1.8,1.6-4.6,3.6-8.3,6.1-4,2.7-7.9,4.1-11.7,4.1-5.9,0-9.3-2.8-10.2-8.4Zm14.6-22.2c3.8-6.5,5.7-11.2,5.7-14.1s-.8-3-2.3-3-3.1,1.2-5,3.5c-1.9,2.4-3.7,5.4-5.5,9-1.8,3.6-3.2,7.3-4.4,11.1-1.2,3.8-1.8,7.2-1.8,10.1v2.1c5-6,9.4-12.2,13.2-18.7Z"/>
        <path class="uuid-f27db317-cfd2-431c-89ac-9ec18b44ad29" d="M227.8,118.9c0-5,.7-9.8,2.2-14.5-.2-.1-.6-.2-1-.3-.4-.1-.8-.3-1.1-.4-.4-.2-.5-.5-.5-.9,0-.9,.9-1.3,2.7-1.3h.7c3-8.5,6.8-16,11.4-22.7,.1-.2,.3-.3,.5-.3,.5,0,.7,.2,.7,.6v.3c-5.1,8.3-8.7,15.9-10.8,22.8,.7,.3,1.4,.8,2.1,1.5,1.1,.4,2.5,.6,4.1,.6,4.7,0,9.1-1.6,13.4-4.8,2.9-2.2,4.9-4.1,6-5.7,.2-.2,.3-.2,.4-.2,.4,0,.5,.2,.5,.5s0,.4-.2,.5c-1.5,2-3.5,4-6.2,6.1-4.4,3.4-9.1,5.1-13.9,5.1s-2,0-2.6-.1c.9,1.2,1.4,3.1,1.4,5.8s-.3,3.7-.8,5.6c-.5,1.9-1.3,3.4-2.2,4.7-1,1.3-2.1,1.9-3.4,1.9s-2.9-1.5-3.3-4.5Zm6.1,1.7c.8-1.2,1.5-2.6,1.9-4.3,.5-1.8,.7-3.4,.7-5,0-2.6-.6-4.6-1.8-6h-.3c-1-.2-1.8-.3-2.7-.5-1.3,4.4-1.9,9.1-1.9,14.1s.5,3.4,1.4,3.4,1.9-.6,2.7-1.8Z"/>
        <path class="uuid-f27db317-cfd2-431c-89ac-9ec18b44ad29" d="M288.8,131.8c0-5.4,1.7-14.2,5.2-26.6,3.1-11.1,5.9-20.6,8.3-28.6,.6-1.8,1.1-3.6,1.6-5.3-2.5,5.3-5.4,10.2-8.7,14.9-3.3,4.6-6.8,8.4-10.5,11.4-3.7,3-7.2,4.5-10.5,4.5s-6.3-1.7-6.4-5v-1.7c-2.9,3-5.5,4.6-7.7,4.6s-3.5-.6-3.7-1.8v-.8c0-1.6,.9-3.6,2.7-6.1,.4-.4,.8-.6,1.2-.6,.8,0,1.2,.3,1.3,.8,0,.1,0,.2-.1,.3,0,.2-.1,.2-.2,.3-.6,1-1.2,2-1.7,3-.6,1.1-.9,2-.9,2.8s.5,.9,1.4,.9c1.3,0,2.7-.7,4.4-2s3.3-2.8,4.8-4.6c.5-1,1.1-1.5,1.9-1.5s1.2,.3,1.2,.7v.4c-1.2,1.7-1.8,3.5-1.8,5.5s.3,1.9,1,2.6c.7,.8,1.5,1.1,2.7,1.1,3,0,6.3-1.5,9.9-4.4,3.5-2.9,7-6.6,10.3-11.2,3.3-4.6,6.1-9.4,8.5-14.4-6.7,0-13,1.6-18.7,4.6-.2,.1-.4,.2-.6,.2-.7,0-1-.3-1-.9s.3-.9,.9-1.2c6-2.6,12.6-3.8,19.9-3.8,2.1-4.4,3.6-8.6,4.7-12.7,.3-.7,.8-1,1.4-1,.9,0,1.4,.6,1.4,1.4s-1.4,4.4-4.2,12.3c5.7,.3,11.9,1.1,18.8,2.4,.3,0,.4,.2,.4,.6s-.2,.5-.5,.5c-6.9-1.4-13.3-2.1-19.1-2.3-10.6,30.2-15.9,50.4-15.9,60.7s-.3,.8-.8,.8c-.5,0-.7-.3-.8-.9Z"/>
        <path class="uuid-f27db317-cfd2-431c-89ac-9ec18b44ad29" d="M319.6,97.1c0-1.1,0-1.7,0-1.8-1.2,1.2-2.4,2.2-3.7,3.1-1.3,1-2.6,1.5-4,1.5-2.3,0-3.5-.6-3.7-1.8v-.8c0-1.7,.9-3.7,2.7-6.1,.2-.4,.6-.6,1.1-.6,.9,0,1.3,.3,1.3,.9l-.2,.3c-1.8,2.8-2.7,4.8-2.7,6s.5,1,1.4,1,2-.4,3.1-1.2c2.1-1.4,4-3.1,5.8-5.3l.4-.5c.2-.4,.4-.6,.6-.9,.2-.2,.7-.3,1.5-.3,.6,.2,.9,.5,.9,.8l-.2,.3c-1.1,1.7-1.7,3.4-1.7,5.4s.4,1.8,1,2.6c.7,.8,1.5,1.2,2.7,1.2,3.1,0,7.8-1.3,14.3-3.7l9.1-3.8c.4,0,.6,.2,.6,.5s-.1,.5-.3,.5c0,0-1,.5-2.7,1.2-9.7,4.3-16.6,6.4-20.9,6.4s-6.3-1.7-6.5-5Z"/>
        <path class="uuid-f27db317-cfd2-431c-89ac-9ec18b44ad29" d="M348.6,103.2c0-1.1,.4-2.3,1.2-3.7,.6-1,.8-1.8,.8-2.4s-.3-.9-.7-1.5c-.8-1-1.2-2-1.2-2.9s.5-2,1.5-2.7c1-.7,1.9-1.1,2.8-1.2,.4,0,.6,.1,.9,.3,.2,.3,.3,.5,.3,.8s-.2,.7-.5,1.2c-.6,.8-1.6,1.7-3,2.8,.3,.5,.6,1,1,1.4,.7,.8,1.1,1.5,1.1,2.2s-.3,1.6-.8,2.5c-.7,1.4-1,2.6-1,3.4s.5,1.3,1.5,1.4c6.1,0,14.9-3.7,26.4-11.2h.2c.4,0,.6,.2,.6,.6l-.3,.3c-11.5,7.5-20.4,11.3-27,11.3s-3.8-.9-3.9-2.6Zm2.7-12.4c-.7,.7-1,1.3-1,1.9h0c.6-.3,1.2-.8,1.8-1.5,.6-.7,.9-1.1,.9-1.3-.6,0-1.1,.3-1.8,.9Z"/>
        <path class="uuid-f27db317-cfd2-431c-89ac-9ec18b44ad29" d="M377.1,97.9c0-1.7,.5-3.1,1.4-4.5,1-1.3,2.3-2,4.1-2.1,.5,0,1,.2,1.4,.4,.4,.3,.6,.7,.6,1.2,0,1.2-.6,2-1.7,2.4-1.2,.5-2.3,.7-3.4,.7-.1,.5-.2,1-.2,1.7,0,1.1,.3,2,1,2.7,.6,.7,1.5,1,2.5,1,2.6,0,5.3-.4,8.1-1.1,2.9-.7,5.8-1.7,8.8-2.9,3-1.2,5.9-2.5,8.9-3.9,.2,0,.3,0,.5,.1,.2,0,.3,.2,.3,.5s0,.2,0,.3c0,.1-.2,.2-.2,.2,0,0-1,.5-2.7,1.3-1.7,.8-3.9,1.7-6.6,2.8-2.7,1-5.5,2-8.6,2.7-3,.8-5.8,1.2-8.4,1.2s-5.5-1.5-5.7-4.6Zm5.2-3.4c.8-.4,1.2-.9,1.2-1.6s-.3-.5-.9-.5c-1.2,0-2.2,.9-2.8,2.6,.9,0,1.7-.2,2.5-.6Z"/>
      </g>
    </g>
  </g>
</svg>