<?xml version="1.0" encoding="UTF-8"?>
<svg id="uuid-f9603850-75b8-47d8-9341-d1f7bc8c3c5f" data-name="Layer 2" xmlns="http://www.w3.org/2000/svg" width="181.1" height="47.8" viewBox="0 0 181.1 47.8">
  <defs>
    <style>
      .uuid-9938327b-58ec-4389-b068-8801102b8cfd {
        fill: #94a480;
      }
    </style>
  </defs>
  <g id="uuid-e98bec23-8979-4244-9e71-dc8192a1fa37" data-name="Capa 1">
    <g>
      <path class="uuid-9938327b-58ec-4389-b068-8801102b8cfd" d="M.4,43c0-5.3,.8-10.4,2.3-15.5-.2-.1-.6-.2-1-.3s-.8-.3-1.2-.4-.5-.5-.5-.9c0-.9,1-1.4,2.9-1.4h.8C6.8,15.5,10.9,7.4,15.8,.3c.1-.2,.3-.3,.5-.3,.5,0,.7,.2,.7,.6v.3C11.6,9.8,7.8,17.9,5.5,25.1c.7,.3,1.5,.9,2.2,1.6,1.2,.4,2.7,.6,4.4,.6,5,0,9.7-1.7,14.2-5.1,3.1-2.3,5.2-4.4,6.4-6.1,.2-.2,.3-.2,.4-.2,.4,0,.5,.2,.5,.5s0,.4-.2,.5c-1.6,2.2-3.7,4.3-6.6,6.5-4.7,3.6-9.6,5.4-14.8,5.4s-2.2,0-2.8-.1c1,1.2,1.5,3.3,1.5,6.1s-.3,4-.8,5.9c-.5,2-1.3,3.7-2.4,5-1,1.3-2.3,2-3.7,2s-3.1-1.6-3.5-4.7Zm6.5,1.8c.9-1.2,1.6-2.7,2-4.6,.5-1.9,.7-3.6,.7-5.3,0-2.8-.6-4.9-1.9-6.4h-.3c-1-.2-1.9-.3-2.9-.5-1.3,4.6-2,9.6-2,15s.5,3.7,1.5,3.7,2-.6,2.9-1.9Z"/>
      <path class="uuid-9938327b-58ec-4389-b068-8801102b8cfd" d="M30.8,20.7c0-1.8,.5-3.3,1.5-4.7,1-1.3,2.5-2.1,4.4-2.2,.5,0,1,.2,1.5,.4,.4,.3,.6,.7,.6,1.2,0,1.2-.6,2.1-1.8,2.6-1.2,.5-2.4,.8-3.6,.8-.1,.5-.2,1.1-.2,1.8,0,1.2,.3,2.2,1,2.9,.6,.7,1.6,1.1,2.7,1.1,2.7,0,5.7-.4,8.7-1.2,3.1-.8,6.2-1.8,9.3-3.1,3.2-1.3,6.3-2.6,9.5-4.1,.2,0,.3,0,.5,.1,.2,0,.3,.2,.3,.5s0,.2,0,.3-.2,.2-.2,.2c0,0-1,.5-2.9,1.4s-4.1,1.8-7,3c-2.9,1.1-5.9,2.1-9.1,2.9-3.2,.9-6.2,1.3-9,1.3s-5.9-1.6-6.1-4.9Zm5.5-3.6c.9-.4,1.3-.9,1.3-1.7s-.3-.5-1-.5c-1.3,0-2.3,.9-3,2.8,.9,0,1.8-.2,2.7-.6Z"/>
      <path class="uuid-9938327b-58ec-4389-b068-8801102b8cfd" d="M63.7,26.3c0-1.2,.4-2.5,1.2-3.9,.6-1.1,.9-1.9,.9-2.6s-.3-1-.8-1.6c-.8-1-1.2-2.1-1.2-3.1s.5-2.1,1.6-2.9c1-.8,2-1.2,3-1.2,.4,0,.6,.1,.9,.3,.2,.3,.3,.5,.3,.8s-.2,.8-.5,1.2c-.6,.9-1.7,1.8-3.2,3,.3,.5,.6,1,1.1,1.5,.8,.9,1.1,1.6,1.1,2.3s-.3,1.7-.9,2.7c-.7,1.5-1,2.7-1,3.7s.5,1.4,1.6,1.5c6.5,0,15.9-4,28.1-11.9h.2c.4,0,.6,.2,.6,.6l-.3,.3c-12.2,8-21.7,12-28.7,12s-4.1-.9-4.1-2.7Zm2.9-13.2c-.7,.7-1,1.3-1,2h0c.6-.3,1.2-.9,1.9-1.6,.6-.7,1-1.1,1-1.4-.6,0-1.2,.3-1.9,1Z"/>
      <path class="uuid-9938327b-58ec-4389-b068-8801102b8cfd" d="M97.3,19.6c3.7-5.2,6.9-7.8,9.5-7.8,1.9,.1,2.8,1.2,2.8,3.2s-.4,3.4-1.2,5.3c2.7-3,5.1-4.5,7.2-4.5,1.7,.1,3,.6,3.8,1.6,.8,.9,1.5,2,2,3.1,.4,.9,.9,1.7,1.5,2.4,.6,.7,1.3,1.1,2.4,1.2,3.3,0,8.1-1.3,14.5-4.1,3.4-1.5,6.5-2.9,9.3-4.3,.3,0,.5,0,.6,.2,0,.2,.1,.3,.1,.6,0,.1-.1,.2-.2,.2,0,0-.1,.1-.2,.2-.1,.1-.4,.3-.8,.4-.5,.2-1,.4-1.7,.8-1.8,1-4,2-6.6,3.1-6.4,2.7-11.4,4.1-15,4.1s-4.7-.6-5.8-2c-1-1.3-1.6-2.6-2-3.9-.3-.8-.5-1.3-.8-1.8-.3-.4-.7-.6-1.2-.6-2.1,0-5,2.2-8.7,6.7-.3,.4-.6,.6-1,.6s-.6-.2-1-.4c-.3-.3-.5-.6-.5-.9s.2-.5,.4-1c2-4,3-6.7,3-8.1s-.3-1-1-1c-1.2,0-2.6,.7-4.1,2.2-1.5,1.5-3,3.1-4.3,5-1.3,1.9-2.5,3.7-3.4,5.1-.9,1.5-1.3,2.3-1.4,2.5-.3,.4-.6,.6-1,.6-.5,0-.8-.4-.9-1.2,.3-1.8,.9-4,1.8-6.6,.9-2.6,1.7-4.6,2.4-6.1,.5-.7,1.1-1,1.8-1,.9,0,1.4,.4,1.4,1.1s0,.4-.2,.6c-1.5,2.8-2.6,5-3.2,6.7,.2-.3,.8-1,1.6-2.2Z"/>
      <path class="uuid-9938327b-58ec-4389-b068-8801102b8cfd" d="M146.8,20.7c0-1.8,.5-3.3,1.5-4.7,1-1.3,2.5-2.1,4.4-2.2,.5,0,1,.2,1.5,.4,.4,.3,.6,.7,.6,1.2,0,1.2-.6,2.1-1.8,2.6-1.2,.5-2.4,.8-3.6,.8-.1,.5-.2,1.1-.2,1.8,0,1.2,.3,2.2,1,2.9,.6,.7,1.6,1.1,2.7,1.1,2.7,0,5.7-.4,8.7-1.2,3.1-.8,6.2-1.8,9.3-3.1,3.2-1.3,6.3-2.6,9.5-4.1,.2,0,.3,0,.5,.1s.3,.2,.3,.5,0,.2,0,.3c0,.1-.2,.2-.2,.2,0,0-1,.5-2.9,1.4-1.8,.9-4.1,1.8-7,3-2.9,1.1-5.9,2.1-9.1,2.9-3.2,.9-6.2,1.3-9,1.3s-5.9-1.6-6.1-4.9Zm5.5-3.6c.9-.4,1.3-.9,1.3-1.7s-.3-.5-1-.5c-1.3,0-2.3,.9-3,2.8,.9,0,1.8-.2,2.7-.6Z"/>
    </g>
  </g>
</svg>