<?xml version="1.0" encoding="UTF-8"?>
<svg id="uuid-5b776628-3ce6-4b01-b80c-9ab6fcec4299" data-name="Layer 2" xmlns="http://www.w3.org/2000/svg" width="452.9" height="137.3" viewBox="0 0 452.9 137.3">
  <defs>
    <style>
      .uuid-3fa59b97-d7ec-443f-b989-54035837f69f {
        fill: #fff;
      }
    </style>
  </defs>
  <g id="uuid-c57ebd16-5341-411e-b5ed-bc44b54a6cba" data-name="Capa 1">
    <g>
      <g>
        <path class="uuid-3fa59b97-d7ec-443f-b989-54035837f69f" d="M50.8,48c3.9-6.6,7.4-9.9,10.4-9.9s2,.4,2.6,1.1c.6,.7,.9,1.6,.9,2.6,0,3-1.3,6-4,8.9,3.6-.6,6.1-1,7.6-1.3,10.7-1.9,19.3-5.1,25.8-9.6h.2c.2,0,.4,0,.5,.1,.1,.1,.2,.2,.2,.4s0,.2,0,.2-.1,.2-.2,.2c-6.8,4.8-15.6,8-26.2,9.8-1.6,.3-4.7,.9-9.3,1.6-1.3,1.3-2.9,2.3-4.6,2.6-.3,0-.5,0-.6-.2-.2-.1-.2-.3-.3-.4v-.3c-.1-.6,.2-1.1,.8-1.5,.5-.4,1.3-.6,2.2-.9,1.5-1.1,2.8-2.6,3.9-4.5,1.1-1.9,1.6-3.8,1.6-5.7s0-1.1-.2-1.5c-.2-.4-.5-.6-1-.6-1.7,0-3.7,1.5-6,4.4-2.3,3-4.7,6.8-7,11.5l-8,25.7c-.1,.4-.4,.6-.8,.6s-.8-.2-.8-.7,3.8-13.6,11.4-40.6c-1.6,1.7-3.9,3-7.1,4.1-3.2,1.1-6.4,1.6-9.7,1.6s-7.5-.4-10.5-1.3c-3-.9-6.2-1.3-9.9-1.3s-7.5,1.1-9.6,3.2c-.6,.7-1.1,1.2-1.3,1.5-.1,.2-.2,.3-.3,.4-.2,.2-.3,.2-.5,.2-.3,0-.5,0-.7-.2-.2-.1-.3-.3-.3-.6,0-.5,.6-1.3,1.8-2.3,2.6-2.2,6.2-3.3,10.9-3.3s7.2,.4,10.1,1.3c3,.9,6.4,1.3,10.2,1.3s6.9-.6,10.2-1.9c3.3-1.2,5.7-3.1,7.3-5.5,0-.2,.1-.4,.2-.5,.1-.6,.3-1.1,.5-1.5,.3-.4,.8-.6,1.5-.6,.8,.1,1.2,.5,1.2,1.2-.4,1.1-.7,2.2-1,3.2-2,6.4-3.2,10.1-3.6,11.1l1.3-2.3Z"/>
        <path class="uuid-3fa59b97-d7ec-443f-b989-54035837f69f" d="M133.3,39.8c.1,0,.2,.1,.2,.2,0,0,0,.2,0,.3l-.3,.3c-10,5.5-18.2,8.3-24.7,8.3s-4.1-.4-5.4-1.3c-1.3-.9-2-2.1-2.3-3.7-.2,.2-.8,.8-1.8,1.7-2.1,1.9-3.8,2.9-5.2,2.9-1.9,0-3-1.1-3.1-3.4,0-1.2,.4-2.5,1.3-3.9,.9-1.5,2-2.7,3.3-3.8,1.3-1.1,2.7-1.6,4.1-1.6s2,.3,2.5,1c.5,.7,.8,1.5,.8,2.4s0,.4-.2,.4c-.2,0-.3,0-.4,0s-.2,0-.2,0c-.1,0-.2,0-.3-.2,0,0-.1-.2-.1-.3,0-1-.6-1.5-1.8-1.5-.9,0-1.9,.5-3,1.5-1,1-1.9,2.1-2.6,3.3-.7,1.3-1.1,2.3-1.1,3.2s.3,1.7,1,1.8c.8,0,1.8-.5,3-1.5,1.2-1,2.5-2.2,4-3.8,.2-.3,.5-.5,.9-.5,.8,0,1.2,.3,1.2,1,0,3.4,1.8,5.1,5.5,5.1,6.1,0,14.2-2.7,24.1-8h.1c.2-.1,.4,0,.5,0Z"/>
        <path class="uuid-3fa59b97-d7ec-443f-b989-54035837f69f" d="M130.2,59.7c0,0,0,0-.2-.1v-.2c.2-.8,.5-1.6,1.1-2.4,.3-.9,.4-1.8,.4-2.6s-.2-2.4-.6-3.9c-.5-1.5-.8-3.2-.8-5.2s1.5-5.1,4.4-7.5c.2-.2,.4-.3,.6-.3,.6,0,.9,.3,.9,.8s0,.3-.2,.5c-1,.8-1.8,1.7-2.4,2.6s-.9,2.1-.9,3.4,.2,3.1,.5,4.3c.3,1.1,.4,2.3,.4,3.4s0,1.8-.2,2.4c1.9-1.6,5.2-3.4,9.8-5.5l7.2-3.3c5.2-2.2,9.7-4.3,13.6-6.4h.2c.4-.1,.6,.1,.6,.6l-.3,.3c-4.4,2.4-9,4.6-14.1,6.7-2.3,1-4.6,2-6.9,3.1-5.3,2.4-8.9,4.5-10.8,6.4-.3,.9-.8,1.9-1.5,3-.1,.2-.3,.3-.5,.3-.3,0-.5-.2-.5-.4Z"/>
        <path class="uuid-3fa59b97-d7ec-443f-b989-54035837f69f" d="M210,63.4c-.6-4.6-1-9-1-13.3s.1-5.5,.4-7.6c-3.5,5.2-6.2,7.8-8.1,7.8s-3-1.1-3.2-3.4c0-1.8,.5-3.2,1.4-4.3-8.1,4.3-15.2,6.4-21.1,6.4s-7.4-1.7-7.8-5c-.6,.8-2,2-4.3,3.6-.9,.6-1.7,.9-2.6,.9-1.9,0-3-1.1-3.1-3.4,0-1.1,.4-2.4,1.2-3.9,.8-1.5,1.9-2.7,3.2-3.8,1.3-1.1,2.7-1.6,4.1-1.6s1.9,.3,2.5,1c.5,.7,.8,1.5,.8,2.4s-.2,.5-.6,.5-.2,0-.3-.2c-.2-.1-.2-.2-.2-.3,0-1-.6-1.5-1.8-1.5s-2,.5-3,1.5c-1,1-1.9,2-2.6,3.3-.7,1.2-1.1,2.3-1.1,3.1s.3,1.8,1,1.8c.9,0,2.4-.9,4.4-2.6,.8-.8,1.7-1.6,2.6-2.6,.2-.3,.5-.5,1-.5,.8,0,1.2,.4,1.2,1.1,0,3.3,1.8,5,5.5,5,6.1,0,13.9-2.6,23.7-7.9,1.2-.9,2.5-1.3,3.9-1.3s2.5,.8,2.5,2.3-.2,.6-.5,.6-.4-.1-.5-.4c-.2-.5-.5-.7-1.1-.7-1.6,0-2.9,.8-4.1,2.4-1.2,1.7-1.8,3.2-1.8,4.7s.3,1.7,1,1.7c1.6,0,4.4-3.1,8.3-9.2,2-14,6.5-27.1,13.4-39.2,.3-.5,.7-.8,1.3-.8,1.3,0,2,.9,2,2.6,0,3.3-1.5,8.6-4.4,15.8-3,7.3-6.3,13.9-10,20.1-.9,4.4-1.3,8.9-1.3,13.7s.3,7.3,.8,11c0,.4-.2,.6-.6,.7-.4,0-.6-.2-.7-.5Zm11.1-46c2.7-6.7,4.1-11.6,4.1-14.9v-.8c-5.8,11.3-10.1,22.3-12.6,33.3,3-5,5.8-10.9,8.5-17.6Z"/>
        <path class="uuid-3fa59b97-d7ec-443f-b989-54035837f69f" d="M222,46.1c-.7-.5-1.1-1.3-1.1-2.5s.4-2.4,1.2-3.6c.8-1.2,1.7-2,2.6-2.3,.8,0,1.2,.4,1.2,1.1s0,.4-.2,.6c-1.9,1.6-2.9,3.1-2.9,4.6s.1,.9,.4,1.2c.2,.4,.6,.5,1.2,.5,.9,0,1.6-.3,2.2-.8,.5-.5,1.1-1.1,1.6-1.9-1-.5-1.6-1.4-1.6-2.7s.6-1.8,1.8-1.9c1.1,0,1.7,.7,1.7,2s-.2,1.2-.4,1.9c1.1,.5,2.3,.8,3.7,.8,5.5-.2,10.7-.6,15.7-1.5,5-.8,8.3-1.5,10.1-2.1,.5,0,.7,.2,.7,.6h0c0,.4-1.5,.9-4.3,1.5-2.9,.6-6.2,1.2-10.3,1.7-4,.5-8,.9-11.9,.9-1.5,0-2.9-.2-4.1-.7-1.1,2.2-2.7,3.3-4.7,3.3s-1.7-.3-2.4-.8Zm6.9-5.5c0-.7-.2-1-.6-1s-.2,.3-.3,.9c0,.6,.2,1.1,.6,1.5,.2-.5,.2-.9,.2-1.3Z"/>
      </g>
      <g>
        <path class="uuid-3fa59b97-d7ec-443f-b989-54035837f69f" d="M90.3,135.6c-1.1-1.2-1.6-2.8-1.6-5,0-4.5,2.3-9.1,7-13.8,4.5-4.5,9.8-8.2,16-11.1l.5-.2c.7-2.7,1-5.1,1-7.1s-.1-1.3-.3-1.3c-.5,0-2.1,1.3-4.8,3.8l-.5,.4c-1.1,1-2.1,1.8-3.2,2.5-1.1,.7-2.1,1.1-3.2,1.1-2.4,0-3.6-1.1-3.7-3.2,0-2.3,.6-4.6,1.7-6.9,.2-.4,.5-.6,1-.6,.8,0,1.2,.3,1.2,.8s-.2,.7-.5,1.5c-.7,1.2-1,2.9-1,5.2s.5,1.9,1.4,2.1c.8,0,1.7-.4,2.7-1.1,1.1-.7,2.6-1.9,4.6-3.8,.5-.4,.8-.7,1.1-1,.3-.3,.5-.5,.8-.7,.3-.2,.6-.4,.9-.7,.5-.5,1-.7,1.6-.7,1.5,0,2.2,1.1,2.2,3.2s-.2,3.2-.7,5.3c4.2-1.5,8.4-2.5,12.4-2.9,4-.5,7.6-.7,10.9-.7,4.3,0,7.8-.4,10.6-1.3,1.9-.7,3.3-1.3,4.2-1.9,.9-.7,1.5-1.1,1.8-1.5,.4-.4,.6-.6,.9-.6s.5,0,.7,.2c.2,.2,.3,.4,.3,.6,0,.5-.7,1.2-2,2.1-3,2.1-7.3,3.1-12.9,3.1s-5.2,.1-8.1,.3-6.1,.6-9.4,1.1c-3.3,.6-6.5,1.5-9.7,2.6-1.5,6.4-4.1,13.1-7.8,20-3.7,7-7.9,10.8-12.4,11.4-1.5,0-2.7-.6-3.7-1.7Zm10.9-22.2c-3.4,2.6-6.2,5.5-8.2,8.5-2.1,3-3.1,5.9-3.1,8.8s.5,3.4,1.4,4.3c.9,.9,1.8,1.4,2.8,1.4,2.9,0,6.3-3.2,10-9.7,3.5-6.4,6.2-12.9,8.1-19.6-3.9,1.8-7.5,3.9-10.8,6.5Z"/>
        <path class="uuid-3fa59b97-d7ec-443f-b989-54035837f69f" d="M164.5,134.6l11.8-42.1c.2-.7,.7-1,1.5-1,.8,.2,1.2,.5,1.2,1s-1.3,4.4-3.8,12.8c3.8-7.1,7.3-10.6,10.6-10.6s1.9,.4,2.5,1.1c.6,.7,.9,1.5,.9,2.4,0,2.8-1.3,5.6-3.7,8.3l7.2-1.2c5.5-1,10.2-2.2,14-3.7,3.8-1.5,7.3-3.3,10.4-5.4,.5,0,.7,.2,.7,.6s-.1,.4-.3,.5c-6.1,4.3-14.3,7.3-24.5,9.2l-8.7,1.5c-1.3,1.3-2.8,2.1-4.4,2.5-.6,0-.9-.3-.9-.9,0-1,1-1.7,2.9-2.1,1.4-1.1,2.6-2.5,3.6-4.3,1-1.8,1.5-3.5,1.5-5.3s-.4-2-1.1-2c-1.6,.2-3.5,1.5-5.6,4.1-2,2.5-4.2,6.1-6.5,10.5l-.2,.4-7.5,24.2c-.1,.4-.4,.6-.8,.6s-.8-.3-.8-.8Z"/>
        <path class="uuid-3fa59b97-d7ec-443f-b989-54035837f69f" d="M216.2,105.9c0-1.1,.4-2.3,1.2-3.7,.6-1,.8-1.8,.8-2.4s-.3-.9-.7-1.5c-.8-1-1.2-2-1.2-2.9s.5-2,1.5-2.7c1-.7,1.9-1.1,2.8-1.2,.4,0,.6,.1,.9,.3,.2,.3,.3,.5,.3,.8s-.2,.7-.5,1.2c-.6,.8-1.6,1.7-3,2.8,.3,.5,.6,1,1,1.4,.7,.8,1.1,1.5,1.1,2.2s-.3,1.6-.8,2.5c-.7,1.4-1,2.6-1,3.4s.5,1.3,1.5,1.4c6.1,0,14.9-3.7,26.4-11.2h.2c.4,0,.6,.2,.6,.6l-.3,.3c-11.5,7.5-20.4,11.3-27,11.3s-3.8-.9-3.9-2.6Zm2.7-12.4c-.7,.7-1,1.3-1,1.9h0c.6-.3,1.2-.8,1.8-1.5,.6-.7,.9-1.1,.9-1.3-.6,0-1.1,.3-1.8,.9Z"/>
        <path class="uuid-3fa59b97-d7ec-443f-b989-54035837f69f" d="M244.7,100.6c0-1.7,.5-3.1,1.4-4.5,1-1.3,2.3-2,4.1-2.1,.5,0,1,.2,1.4,.4,.4,.3,.6,.7,.6,1.2,0,1.2-.6,2-1.7,2.4-1.2,.5-2.3,.7-3.4,.7-.1,.5-.2,1-.2,1.7,0,1.1,.3,2,1,2.7,.6,.7,1.5,1,2.5,1,2.6,0,5.3-.4,8.1-1.1,2.9-.7,5.8-1.7,8.8-2.9,3-1.2,5.9-2.5,8.9-3.9,.2,0,.3,0,.5,.1,.2,0,.3,.2,.3,.5s0,.2,0,.3c0,.1-.2,.2-.2,.2,0,0-1,.5-2.7,1.3-1.7,.8-3.9,1.7-6.6,2.8-2.7,1-5.5,2-8.6,2.7-3,.8-5.8,1.2-8.5,1.2s-5.5-1.5-5.7-4.6Zm5.2-3.4c.8-.4,1.2-.9,1.2-1.6s-.3-.5-.9-.5c-1.2,0-2.2,.9-2.8,2.6,.9,0,1.7-.2,2.5-.6Z"/>
        <path class="uuid-3fa59b97-d7ec-443f-b989-54035837f69f" d="M273.8,115c0,0,0,0-.2-.1v-.2c.2-.8,.5-1.5,1.1-2.3,.3-.9,.4-1.7,.4-2.5s-.2-2.3-.6-3.7c-.5-1.4-.8-3-.8-4.9s1.4-4.8,4.1-7c.2-.2,.4-.3,.6-.3,.6,0,.9,.3,.9,.8s0,.3-.2,.5c-1,.8-1.7,1.6-2.3,2.5s-.9,2-.9,3.2,.2,2.9,.5,4c.3,1.1,.4,2.1,.4,3.2s0,1.7-.2,2.3c1.8-1.5,4.9-3.2,9.2-5.2l6.8-3.1c4.9-2,9.1-4,12.8-6h.2c.4-.1,.6,.1,.6,.6l-.3,.3c-4.1,2.2-8.5,4.4-13.2,6.3-2.2,1-4.3,1.9-6.5,2.9-5,2.2-8.3,4.2-10.1,6-.3,.9-.8,1.8-1.4,2.8-.1,.2-.3,.3-.5,.3-.3,0-.5-.2-.5-.4Z"/>
        <path class="uuid-3fa59b97-d7ec-443f-b989-54035837f69f" d="M303.5,100.6c0-1.7,.5-3.1,1.4-4.5,1-1.3,2.3-2,4.1-2.1,.5,0,1,.2,1.4,.4,.4,.3,.6,.7,.6,1.2,0,1.2-.6,2-1.7,2.4-1.2,.5-2.3,.7-3.4,.7-.1,.5-.2,1-.2,1.7,0,1.1,.3,2,1,2.7,.6,.7,1.5,1,2.5,1,2.6,0,5.3-.4,8.1-1.1,2.9-.7,5.8-1.7,8.8-2.9,3-1.2,5.9-2.5,8.9-3.9,.2,0,.3,0,.5,.1,.2,0,.3,.2,.3,.5s0,.2,0,.3c0,.1-.2,.2-.2,.2,0,0-1,.5-2.7,1.3s-3.9,1.7-6.6,2.8c-2.7,1-5.5,2-8.6,2.7-3,.8-5.8,1.2-8.5,1.2s-5.5-1.5-5.7-4.6Zm5.2-3.4c.8-.4,1.2-.9,1.2-1.6s-.3-.5-.9-.5c-1.2,0-2.2,.9-2.8,2.6,.9,0,1.7-.2,2.5-.6Z"/>
        <path class="uuid-3fa59b97-d7ec-443f-b989-54035837f69f" d="M331.3,105.1c0-.8,.4-2.2,1-4.2,.7-2,1.3-3.8,2.1-5.3,.4-.6,.9-.9,1.5-1,1,0,1.4,.4,1.4,1h0c0,.2,0,.5-.2,.7-1.5,2.7-2.6,5.1-3.3,7.1,1.5-1.5,3.2-3.1,5.3-4.7,2.1-1.6,3.7-2.4,5-2.4s2,.2,2.7,.6c.6,.4,1.1,.9,1.5,1.6,.4,.6,.7,1.2,1,1.9,.3,.8,.7,1.5,1.1,2.1,.5,.6,1.2,.9,2.1,.9,3.1,0,8.1-1.2,15.1-3.5l9.2-3.6h.2c.3,0,.4,.1,.5,.2,0,.1,.1,.2,.1,.4v.2s0,.2-.2,.3l-2.8,1.1c-10.2,4-17.5,6.1-22.1,6.1s-4.5-.6-5.4-1.7c-.8-1.2-1.4-2.4-1.6-3.5-.1-.5-.3-1-.5-1.4-.1-.4-.4-.5-.9-.5-1.2,0-2.8,.9-5,2.6-2.1,1.8-4.1,3.7-6.1,5.8h0c0,.1-.2,.2-.3,.3-.1,.1-.3,.2-.5,.2-.6,0-.9-.4-.9-1Z"/>
        <path class="uuid-3fa59b97-d7ec-443f-b989-54035837f69f" d="M375.9,110.3c-.8-1.5-1.1-3.3-1.1-5.7s.2-2.9,.5-5.2c.3-2.3,.9-5.2,1.8-8.6,.9-3.3,1.7-6.1,2.4-8.6,.6-1.9,1-3.4,1.4-4.6-.5,0-1.1,0-1.9,0-4,0-8.4,.8-13.1,2.4-.3,0-.6,0-.8-.2-.2-.1-.3-.4-.3-.8s.2-.8,.7-1c3.7-1.1,7.6-1.6,11.6-1.6s2.7,0,4.1,.2c1.4-4.2,2.6-7.7,3.7-10.4,.3-.6,.8-.8,1.5-.8s1.2,.4,1.2,1.2c-1.3,3-2.5,6.4-3.9,10.2,1.8,.3,3.4,.6,5.1,.9,1.4,.3,2.7,.5,4,.7,1.3,.3,2.7,.4,4.2,.4s3.2-.1,4.8-.4c.4,0,.6,.2,.6,.6v.2c0,.1-.2,.2-.2,.2,0,0-.2,.1-.3,.1-1.7,.3-3.3,.4-5,.4s-2.9-.1-4.2-.4c-1.4-.2-2.8-.5-4.2-.7-1.7-.4-3.4-.6-5.2-.9-1.7,4.8-3.1,9.8-4.3,14.9-1.2,5.1-1.8,9.5-1.8,13.2s.9,5.6,2.7,5.6,4.5-.6,6.8-1.8c2.4-1.2,4.8-2.8,7.1-4.8s4.6-4,6.7-6.2c1.4-1.5,2.1-2.3,2.1-2.3l.3-.2c.5,0,.7,.2,.7,.5h0v.2c0,0,0,.2-.1,.3h-.1c-.4,.5-1.3,1.5-2.8,3s-3.4,3.3-5.7,5.2c-2.3,1.9-4.8,3.5-7.4,5-2.6,1.5-5.2,2.2-7.6,2.2s-3.3-.8-4-2.2Z"/>
        <path class="uuid-3fa59b97-d7ec-443f-b989-54035837f69f" d="M401.1,100.6c0-1.7,.5-3.1,1.4-4.5,.9-1.3,2.3-2,4.1-2.1,.5,0,1,.2,1.4,.4,.5,.3,.7,.7,.7,1.2,0,1.1-.6,1.9-1.7,2.4-1.1,.5-2.3,.7-3.4,.7-.2,.5-.2,1-.2,1.7,0,1,.3,1.9,.9,2.6,.6,.8,1.5,1.1,2.6,1.1,2.9,0,5.7-.7,8.2-2.1l.4-.2c3.6-1.7,7.4-2.5,11.2-2.5s2.3,0,3.3,.2c1,.2,2,.3,3,.5,1.1,.2,2.3,.4,3.6,.6,1.3,.2,2.7,.2,4.4,.2s4.2-.3,5.7-1c1.5-.6,2.5-1.3,3.3-2,.7-.7,1.2-1.2,1.3-1.6h0c.1-.2,.2-.3,.3-.4,.1,0,.3-.1,.5-.1,.6,.1,.8,.4,.8,.8s-.6,1.2-1.7,2.1c-2.4,2.1-5.9,3.1-10.3,3.1s-5.9-.3-8-.7c-1.8-.5-3.9-.7-6.4-.7-3.7,0-7.4,.9-11,2.5-.8,.4-1.9,.8-3.5,1.4s-3.3,.8-5.2,.8c-3.6,0-5.5-1.5-5.7-4.6Zm5.2-3.4c.8-.4,1.2-.9,1.2-1.5s-.3-.5-.9-.5c-1.2,0-2.2,.9-2.9,2.6,.9,0,1.8-.3,2.6-.6Z"/>
      </g>
    </g>
  </g>
</svg>