<?xml version="1.0" encoding="UTF-8"?>
<svg id="uuid-e73303ad-7078-4225-8e78-88c795b31aa5" data-name="Layer 2" xmlns="http://www.w3.org/2000/svg" width="247.9" height="69" viewBox="0 0 247.9 69">
  <defs>
    <style>
      .uuid-21105ddb-a5d8-4d28-849e-a4eaaa954e29 {
        fill: #94a480;
      }
    </style>
  </defs>
  <g id="uuid-0783b78a-a637-4456-a270-4aae39a41540" data-name="Capa 1">
    <g>
      <path class="uuid-21105ddb-a5d8-4d28-849e-a4eaaa954e29" d="M0,61.9c0-3,.6-6.6,2-10.9,1.2-4,3.2-8.2,5.9-12.5-.9,.6-1.7,.9-2.4,.9-2.2,0-3.4-1.1-3.4-3.4,0-1.1,.3-2.3,1-3.6,.6-1.2,1.6-2.3,2.7-3.2,1.1-.9,2.4-1.3,3.9-1.3s2.5,.6,3.2,1.9v.2c.1,.7-.1,1-.5,1s-.4-.1-.5-.3v-.3c-.4-.5-1.1-.7-2.1-.7s-1.7,.4-2.5,1.1c-.8,.8-1.5,1.7-2,2.7-.5,1.1-.8,2-.8,2.9s.5,1.7,1.4,1.8c.4,0,1-.3,1.8-.9,1.1-.8,2.3-2,3.6-3.5l.9-1.1c.4-.4,.8-.6,1.1-.6,.6,0,.9,.3,.9,.9v.3c-1.6,2-3,3.9-4.1,5.8,.3,.9,1,2,2.3,3.3,1.3,1.4,3.1,2.1,5.3,2.1,3.2,0,7.7-1.7,13.4-5.2,2.3-1.4,5.5-3.6,9.6-6.5,.2,0,.3,0,.4,0,0,0,.2,.1,.3,.2,0,0,.1,.2,.1,.3,0,.3,0,.4-.2,.4,0,0-.9,.7-2.5,1.8-1.6,1.2-3.7,2.5-6.1,4-6.4,3.9-11.4,5.9-14.9,5.9s-6.2-.9-7.9-2.8c.4,2.4,.6,5,.6,7.9,0,4.9-.6,9.2-2,12.9s-2.9,5.5-4.6,5.5c-2.3-.3-3.5-2.6-3.5-7.1Zm7.2,.8c1.2-3.5,1.9-7.4,1.9-11.9s-.3-6.1-.9-9c-2,3.7-3.4,7.3-4.5,10.9-1,3.6-1.5,6.7-1.5,9.3s.1,2.7,.4,4c.3,1.3,.6,2,1.1,2,1.1,0,2.3-1.7,3.6-5.2Z"/>
      <path class="uuid-21105ddb-a5d8-4d28-849e-a4eaaa954e29" d="M50.4,36.6c0-1.2,0-1.8,0-1.9-1.2,1.2-2.6,2.3-4,3.3-1.4,1-2.8,1.6-4.3,1.6-2.4,0-3.7-.6-4-1.9v-.9c0-1.8,.9-3.9,2.9-6.5,.2-.4,.6-.6,1.2-.6,.9,0,1.4,.3,1.4,.9l-.2,.3c-1.9,3-2.9,5.1-2.9,6.4s.5,1.1,1.5,1.1,2.1-.4,3.3-1.2c2.3-1.5,4.3-3.3,6.2-5.6l.4-.5c.2-.4,.4-.6,.6-.9,.2-.2,.8-.3,1.6-.3,.6,.2,1,.5,1,.9l-.2,.3c-1.2,1.8-1.8,3.7-1.8,5.7s.4,1.9,1.1,2.7,1.6,1.2,2.9,1.2c3.3,0,8.3-1.3,15.2-4l9.6-4.1c.4,0,.6,.2,.6,.5s-.1,.5-.3,.5c0,0-1,.5-2.9,1.3-10.3,4.6-17.7,6.8-22.3,6.8s-6.7-1.8-6.9-5.3Z"/>
      <path class="uuid-21105ddb-a5d8-4d28-849e-a4eaaa954e29" d="M121.1,32.9c.1,0,.2,.1,.2,.2,0,0,0,.2,0,.3l-.3,.3c-10,5.5-18.2,8.3-24.7,8.3s-4.1-.4-5.4-1.3c-1.3-.9-2-2.1-2.3-3.7-.2,.2-.8,.8-1.8,1.7-2.1,1.9-3.8,2.9-5.2,2.9-1.9,0-3-1.1-3.1-3.4,0-1.2,.4-2.5,1.3-3.9,.9-1.5,2-2.7,3.3-3.8,1.3-1.1,2.7-1.6,4.1-1.6s2,.3,2.5,1c.5,.7,.8,1.5,.8,2.4s0,.4-.2,.4c-.2,0-.3,0-.4,0s-.2,0-.2,0c-.1,0-.2,0-.3-.2,0,0-.1-.2-.1-.3,0-1-.6-1.5-1.8-1.5-.9,0-1.9,.5-3,1.5-1,1-1.9,2.1-2.6,3.3-.7,1.3-1.1,2.3-1.1,3.2s.3,1.7,1,1.8c.8,0,1.8-.5,3-1.5,1.2-1,2.5-2.2,4-3.8,.2-.3,.5-.5,.9-.5,.8,0,1.2,.3,1.2,1,0,3.4,1.8,5.1,5.5,5.1,6.1,0,14.2-2.7,24.1-8h.1c.2-.1,.4,0,.5,0Z"/>
      <path class="uuid-21105ddb-a5d8-4d28-849e-a4eaaa954e29" d="M119.9,43.1c0-1.2,.4-2.5,1.2-3.9,.6-1.1,.9-1.9,.9-2.6s-.3-1-.8-1.6c-.8-1-1.2-2.1-1.2-3.1s.5-2.1,1.6-2.9c1-.8,2-1.2,3-1.2,.4,0,.6,.1,.9,.3,.2,.3,.3,.5,.3,.8s-.2,.8-.5,1.2c-.6,.9-1.7,1.8-3.2,3,.3,.5,.6,1,1.1,1.5,.8,.9,1.1,1.6,1.1,2.3s-.3,1.7-.9,2.7c-.7,1.5-1,2.7-1,3.7s.5,1.4,1.6,1.5c6.5,0,15.9-4,28.1-11.9h.2c.4,0,.6,.2,.6,.6l-.3,.3c-12.2,8-21.7,12-28.7,12s-4.1-.9-4.1-2.7Zm2.9-13.2c-.7,.7-1,1.3-1,2h0c.6-.3,1.2-.9,1.9-1.6,.6-.7,1-1.1,1-1.4-.6,0-1.2,.3-1.9,1Z"/>
      <path class="uuid-21105ddb-a5d8-4d28-849e-a4eaaa954e29" d="M151.4,47.8c-.8-1.6-1.2-3.6-1.2-6s.2-3.1,.5-5.5c.3-2.4,1-5.5,1.9-9.2,.9-3.5,1.8-6.5,2.6-9.2,.6-2,1.1-3.6,1.5-4.9-.5,0-1.2,0-2,0-4.3,0-8.9,.9-13.9,2.6-.3,0-.6,0-.8-.2-.2-.1-.3-.4-.3-.9s.2-.9,.7-1c4-1.1,8.1-1.7,12.4-1.7s2.9,0,4.4,.2c1.5-4.5,2.8-8.2,3.9-11,.3-.6,.8-.9,1.6-.9s1.2,.4,1.2,1.2c-1.3,3.2-2.7,6.8-4.1,10.9,1.9,.3,3.7,.6,5.4,1,1.5,.3,2.9,.5,4.3,.8,1.4,.3,2.9,.4,4.5,.4s3.4-.1,5.1-.4c.4,0,.6,.2,.6,.6v.2c0,.1-.2,.2-.2,.2,0,0-.2,.1-.3,.1-1.8,.3-3.6,.4-5.3,.4s-3.1-.1-4.5-.4c-1.5-.2-3-.5-4.5-.8-1.8-.4-3.6-.6-5.5-.9-1.8,5.1-3.3,10.4-4.5,15.9-1.2,5.4-1.9,10.1-1.9,14s1,5.9,2.9,5.9,4.7-.6,7.3-1.9c2.5-1.3,5.1-3,7.6-5.1s4.9-4.3,7.1-6.6c1.5-1.6,2.3-2.4,2.3-2.5l.3-.2c.5,0,.8,.2,.8,.5h0v.2c0,0,0,.2-.1,.3h-.1c-.4,.5-1.3,1.6-3,3.2-1.7,1.7-3.7,3.6-6.1,5.5-2.4,2-5.1,3.8-7.9,5.3-2.8,1.6-5.5,2.3-8.1,2.3s-3.6-.8-4.3-2.4Z"/>
      <path class="uuid-21105ddb-a5d8-4d28-849e-a4eaaa954e29" d="M179.1,39.2c-.7-.5-1.1-1.3-1.1-2.5s.4-2.4,1.2-3.6c.8-1.2,1.7-2,2.6-2.3,.8,0,1.2,.4,1.2,1.1s0,.4-.2,.6c-1.9,1.6-2.9,3.1-2.9,4.6s.1,.9,.4,1.2c.2,.4,.6,.5,1.2,.5,.9,0,1.6-.3,2.2-.8,.5-.5,1.1-1.1,1.6-1.9-1-.5-1.6-1.4-1.6-2.7s.6-1.8,1.8-1.9c1.1,0,1.7,.7,1.7,2s-.2,1.2-.4,1.9c1.1,.5,2.3,.8,3.7,.8,5.5-.2,10.7-.6,15.7-1.5,5-.8,8.3-1.5,10.1-2.1,.5,0,.7,.2,.7,.6h0c0,.4-1.5,.9-4.3,1.5-2.9,.6-6.2,1.2-10.3,1.7-4,.5-8,.9-11.9,.9-1.5,0-2.9-.2-4.1-.7-1.1,2.2-2.7,3.3-4.7,3.3s-1.7-.3-2.4-.8Zm6.9-5.5c0-.7-.2-1-.6-1s-.2,.3-.3,.9c0,.6,.2,1.1,.6,1.5,.2-.5,.2-.9,.2-1.3Z"/>
      <path class="uuid-21105ddb-a5d8-4d28-849e-a4eaaa954e29" d="M213.5,52.8c0,0,0,0-.2-.1v-.2c.2-.8,.5-1.6,1.1-2.4,.3-.9,.4-1.8,.4-2.6s-.2-2.4-.6-3.9c-.5-1.5-.8-3.2-.8-5.2s1.5-5.1,4.4-7.5c.2-.2,.4-.3,.6-.3,.6,0,.9,.3,.9,.8s0,.3-.2,.5c-1,.8-1.8,1.7-2.4,2.6s-.9,2.1-.9,3.4,.2,3.1,.5,4.3c.3,1.1,.4,2.3,.4,3.4s0,1.8-.2,2.4c1.9-1.6,5.2-3.4,9.8-5.5l7.2-3.3c5.2-2.2,9.7-4.3,13.6-6.4h.2c.4-.1,.6,.1,.6,.6l-.3,.3c-4.4,2.4-9,4.6-14.1,6.7-2.3,1-4.6,2-6.9,3.1-5.3,2.4-8.9,4.5-10.8,6.4-.3,.9-.8,1.9-1.5,3-.1,.2-.3,.3-.5,.3-.3,0-.5-.2-.5-.4Z"/>
    </g>
  </g>
</svg>