<?xml version="1.0" encoding="UTF-8"?>
<svg id="uuid-b3f060e7-40e0-4973-8e58-f709b2c4a08d" data-name="Layer 2" xmlns="http://www.w3.org/2000/svg" width="330.9" height="81.3" viewBox="0 0 330.9 81.3">
  <defs>
    <style>
      .uuid-ed6747f4-b708-41bd-85d8-5538bb2f4d5a {
        fill: #94a480;
      }
    </style>
  </defs>
  <g id="uuid-03df5154-7b77-4cf3-a64a-2ecd60c7ad67" data-name="Capa 1">
    <g>
      <path class="uuid-ed6747f4-b708-41bd-85d8-5538bb2f4d5a" d="M0,47.3c0-1.2,.4-2.5,1.2-3.9,.6-1.1,.9-1.9,.9-2.6s-.3-1-.8-1.6c-.8-1-1.2-2.1-1.2-3.1s.5-2.1,1.6-2.9c1-.8,2-1.2,3-1.2,.4,0,.6,.1,.9,.3,.2,.3,.3,.5,.3,.8s-.2,.8-.5,1.2c-.6,.9-1.7,1.8-3.2,3,.3,.5,.6,1,1.1,1.5,.8,.9,1.1,1.6,1.1,2.3s-.3,1.7-.9,2.7c-.7,1.5-1,2.7-1,3.7s.5,1.4,1.6,1.5c6.5,0,15.9-4,28.1-11.9h.2c.4,0,.6,.2,.6,.6l-.3,.3c-12.2,8-21.7,12-28.7,12S0,49.1,0,47.3Zm2.9-13.2c-.7,.7-1,1.3-1,2h0c.6-.3,1.2-.9,1.9-1.6,.6-.7,1-1.1,1-1.4-.6,0-1.2,.3-1.9,1Z"/>
      <path class="uuid-ed6747f4-b708-41bd-85d8-5538bb2f4d5a" d="M30.3,41.7c0-1.8,.5-3.3,1.5-4.7,1-1.3,2.5-2.1,4.4-2.2,.5,0,1,.2,1.5,.4,.4,.3,.6,.7,.6,1.2,0,1.2-.6,2.1-1.8,2.6-1.2,.5-2.4,.8-3.6,.8-.1,.5-.2,1.1-.2,1.8,0,1.2,.3,2.2,1,2.9,.6,.7,1.6,1.1,2.7,1.1,2.7,0,5.7-.4,8.7-1.2,3.1-.8,6.2-1.8,9.3-3.1,3.2-1.3,6.3-2.6,9.5-4.1,.2,0,.3,0,.5,.1,.2,0,.3,.2,.3,.5s0,.2,0,.3-.2,.2-.2,.2c0,0-1,.5-2.9,1.4s-4.1,1.8-7,3c-2.9,1.1-5.9,2.1-9.1,2.9-3.2,.9-6.2,1.3-9,1.3s-5.9-1.6-6.1-4.9Zm5.5-3.6c.9-.4,1.3-.9,1.3-1.7s-.3-.5-1-.5c-1.3,0-2.3,.9-3,2.8,.9,0,1.8-.2,2.7-.6Z"/>
      <path class="uuid-ed6747f4-b708-41bd-85d8-5538bb2f4d5a" d="M84.5,80.4c0-5.8,1.9-15.5,5.7-28.9,3.8-13.4,7.3-25.3,10.5-35.7-1.2,0-2.6,0-4,.2-5.3,6.2-10.9,12-16.8,17.4-7.9,7.3-13.1,13-15.5,17,0,1.9-.8,4.1-2.3,6.7-.1,.2-.3,.3-.5,.3s-.3,0-.4-.1-.2-.2-.2-.4c0-1.8,.5-3.6,1.5-5.4,0-.6,0-1.3-.2-1.9-.2-.6-.3-1.2-.5-1.8-.2-.7-.4-1.5-.6-2.3-.2-.8-.3-1.8-.3-3,0-1.7,.5-3.1,1.5-4.3,1.8-2.3,3-3.4,3.6-3.4h.3c0,0,.2,.1,.3,.2,.2,.1,.3,.3,.3,.6s0,.2,0,.2c0,.1-.1,.2-.2,.3-1,.8-1.8,1.7-2.4,2.6-.6,1-.9,2.1-.9,3.4s.2,3.5,.5,4.8c.2,.8,.2,1.3,.3,1.6,2.4-3.7,7.3-9,14.8-15.9l.2-.2c5.7-5.2,11-10.7,15.9-16.4-5.3,.4-10.5,1.9-15.5,4.6,0,0-.2,.1-.3,.1-.2,0-.3,0-.3,0-.6,0-1-.4-1-1.1,0-.4,.3-.8,.9-1.1,5.6-2.4,11.4-3.7,17.4-4,3.6-4.3,6.5-8.8,8.7-13.5,.2-.5,.4-.8,.7-1,.3-.2,.5-.2,.9-.2,.9,0,1.3,.6,1.3,1.5s0,.6-.2,1c-.9,2.4-2.3,6.5-4.3,12.2,6.1,.3,12.8,1.1,20.1,2.5l.4,.4c0,.2,0,.4-.2,.5-.2,.2-.3,.2-.4,.2-7.3-1.4-14-2.2-20.3-2.5-11.3,32.1-16.9,53.7-16.9,64.6s-.3,.8-.8,.9c-.5,0-.8-.3-.8-.9ZM98.9,14.6h2.2l2.4-8.1c-1.2,2.3-3.1,5-5.7,8.1,.4,0,.8,0,1.1,0Z"/>
      <path class="uuid-ed6747f4-b708-41bd-85d8-5538bb2f4d5a" d="M146.4,37.1c.1,0,.2,.1,.2,.2,0,0,0,.2,0,.3l-.3,.3c-10,5.5-18.2,8.3-24.7,8.3s-4.1-.4-5.4-1.3c-1.3-.9-2-2.1-2.3-3.7-.2,.2-.8,.8-1.8,1.7-2.1,1.9-3.8,2.9-5.2,2.9-1.9,0-3-1.1-3.1-3.4,0-1.2,.4-2.5,1.3-3.9,.9-1.5,2-2.7,3.3-3.8,1.3-1.1,2.7-1.6,4.1-1.6s2,.3,2.5,1c.5,.7,.8,1.5,.8,2.4s0,.4-.2,.4c-.2,0-.3,0-.4,0s-.2,0-.2,0c-.1,0-.2,0-.3-.2,0,0-.1-.2-.1-.3,0-1-.6-1.5-1.8-1.5-.9,0-1.9,.5-3,1.5-1,1-1.9,2.1-2.6,3.3-.7,1.3-1.1,2.3-1.1,3.2s.3,1.7,1,1.8c.8,0,1.8-.5,3-1.5,1.2-1,2.5-2.2,4-3.8,.2-.3,.5-.5,.9-.5,.8,0,1.2,.3,1.2,1,0,3.4,1.8,5.1,5.5,5.1,6.1,0,14.2-2.7,24.1-8h.1c.2-.1,.4,0,.5,0Z"/>
      <path class="uuid-ed6747f4-b708-41bd-85d8-5538bb2f4d5a" d="M156,40.8c0-1.2,0-1.8,0-1.9-1.2,1.2-2.6,2.3-4,3.3-1.4,1-2.8,1.6-4.3,1.6-2.4,0-3.7-.6-4-1.9v-.9c0-1.8,.9-3.9,2.9-6.5,.2-.4,.6-.6,1.2-.6,.9,0,1.4,.3,1.4,.9l-.2,.3c-1.9,3-2.9,5.1-2.9,6.4s.5,1.1,1.5,1.1,2.1-.4,3.3-1.2c2.3-1.5,4.3-3.3,6.2-5.6l.4-.5c.2-.4,.4-.6,.6-.9,.2-.2,.8-.3,1.6-.3,.6,.2,1,.5,1,.9l-.2,.3c-1.2,1.8-1.8,3.7-1.8,5.7s.4,1.9,1.1,2.7,1.6,1.2,2.9,1.2c3.3,0,8.3-1.3,15.2-4l9.6-4.1c.4,0,.6,.2,.6,.5s-.1,.5-.3,.5c0,0-1,.5-2.9,1.3-10.3,4.6-17.7,6.8-22.3,6.8s-6.7-1.8-6.9-5.3Z"/>
      <path class="uuid-ed6747f4-b708-41bd-85d8-5538bb2f4d5a" d="M186.8,47.3c0-1.2,.4-2.5,1.2-3.9,.6-1.1,.9-1.9,.9-2.6s-.3-1-.8-1.6c-.8-1-1.2-2.1-1.2-3.1s.5-2.1,1.6-2.9c1-.8,2-1.2,3-1.2,.4,0,.6,.1,.9,.3,.2,.3,.3,.5,.3,.8s-.2,.8-.5,1.2c-.6,.9-1.7,1.8-3.2,3,.3,.5,.6,1,1.1,1.5,.8,.9,1.1,1.6,1.1,2.3s-.3,1.7-.9,2.7c-.7,1.5-1,2.7-1,3.7s.5,1.4,1.6,1.5c6.5,0,15.9-4,28.1-11.9h.2c.4,0,.6,.2,.6,.6l-.3,.3c-12.2,8-21.7,12-28.7,12s-4.1-.9-4.1-2.7Zm2.9-13.2c-.7,.7-1,1.3-1,2h0c.6-.3,1.2-.9,1.9-1.6,.6-.7,1-1.1,1-1.4-.6,0-1.2,.3-1.9,1Z"/>
      <path class="uuid-ed6747f4-b708-41bd-85d8-5538bb2f4d5a" d="M258.3,37.1c.1,0,.2,.1,.2,.2,0,0,0,.2,0,.3l-.3,.3c-10,5.5-18.2,8.3-24.7,8.3s-4.1-.4-5.4-1.3c-1.3-.9-2-2.1-2.3-3.7-.2,.2-.8,.8-1.8,1.7-2.1,1.9-3.8,2.9-5.2,2.9-1.9,0-3-1.1-3.1-3.4,0-1.2,.4-2.5,1.3-3.9,.9-1.5,2-2.7,3.3-3.8,1.3-1.1,2.7-1.6,4.1-1.6s2,.3,2.5,1c.5,.7,.8,1.5,.8,2.4s0,.4-.2,.4c-.2,0-.3,0-.4,0s-.2,0-.2,0c-.1,0-.2,0-.3-.2,0,0-.1-.2-.1-.3,0-1-.6-1.5-1.8-1.5-.9,0-1.9,.5-3,1.5-1,1-1.9,2.1-2.6,3.3-.7,1.3-1.1,2.3-1.1,3.2s.3,1.7,1,1.8c.8,0,1.8-.5,3-1.5,1.2-1,2.5-2.2,4-3.8,.2-.3,.5-.5,.9-.5,.8,0,1.2,.3,1.2,1,0,3.4,1.8,5.1,5.5,5.1,6.1,0,14.2-2.7,24.1-8h.1c.2-.1,.4,0,.5,0Z"/>
      <path class="uuid-ed6747f4-b708-41bd-85d8-5538bb2f4d5a" d="M253.8,46.5c0-.9,.4-2.4,1.1-4.5s1.4-4,2.2-5.7c.4-.6,.9-1,1.6-1.1,1,0,1.5,.4,1.5,1.1h0c0,.2,0,.5-.2,.7-1.6,2.9-2.8,5.4-3.6,7.5,1.6-1.6,3.4-3.3,5.7-5,2.2-1.7,4-2.5,5.3-2.5s2.2,.2,2.9,.6c.6,.4,1.2,1,1.6,1.7,.4,.6,.7,1.3,1,2,.3,.9,.7,1.6,1.2,2.3,.5,.6,1.2,1,2.3,1,3.3,0,8.7-1.2,16-3.7l9.8-3.8h.2c.3,0,.4,.1,.5,.2,0,.1,.1,.2,.1,.4v.2c0,0,0,.2-.2,.3l-3,1.2c-10.8,4.3-18.6,6.5-23.5,6.5s-4.8-.6-5.7-1.8c-.9-1.3-1.5-2.5-1.7-3.7-.1-.5-.3-1-.5-1.5-.1-.4-.4-.5-1-.5-1.2,0-3,.9-5.3,2.8-2.3,1.9-4.4,4-6.5,6.2h0c0,.1-.2,.2-.3,.3-.1,.1-.3,.2-.5,.2-.6,0-.9-.4-.9-1.1Z"/>
      <path class="uuid-ed6747f4-b708-41bd-85d8-5538bb2f4d5a" d="M301.3,51.9c-.8-1.6-1.2-3.6-1.2-6s.2-3.1,.5-5.5c.3-2.4,1-5.5,1.9-9.2,.9-3.5,1.8-6.5,2.6-9.2,.6-2,1.1-3.6,1.5-4.9-.5,0-1.2,0-2,0-4.3,0-8.9,.9-13.9,2.6-.3,0-.6,0-.8-.2-.2-.1-.3-.4-.3-.9s.2-.9,.7-1c4-1.1,8.1-1.7,12.4-1.7s2.9,0,4.4,.2c1.5-4.5,2.8-8.2,3.9-11,.3-.6,.8-.9,1.6-.9s1.2,.4,1.2,1.2c-1.3,3.2-2.7,6.8-4.1,10.9,1.9,.3,3.7,.6,5.4,1,1.5,.3,2.9,.5,4.3,.8,1.4,.3,2.9,.4,4.5,.4s3.4-.1,5.1-.4c.4,0,.6,.2,.6,.6v.2c0,.1-.2,.2-.2,.2,0,0-.2,.1-.3,.1-1.8,.3-3.6,.4-5.3,.4s-3.1-.1-4.5-.4c-1.5-.2-3-.5-4.5-.8-1.8-.4-3.6-.6-5.5-.9-1.8,5.1-3.3,10.4-4.5,15.9-1.2,5.4-1.9,10.1-1.9,14s1,5.9,2.9,5.9,4.7-.6,7.3-1.9c2.5-1.3,5.1-3,7.6-5.1s4.9-4.3,7.1-6.6c1.5-1.6,2.3-2.4,2.3-2.5l.3-.2c.5,0,.8,.2,.8,.5h0v.2c0,0,0,.2-.1,.3h-.1c-.4,.5-1.3,1.6-3,3.2-1.7,1.7-3.7,3.6-6.1,5.5-2.4,2-5.1,3.8-7.9,5.3-2.8,1.6-5.5,2.3-8.1,2.3s-3.6-.8-4.3-2.4Z"/>
    </g>
  </g>
</svg>