<?xml version="1.0" encoding="UTF-8"?>
<svg id="uuid-3fa3d62a-e9e2-4e71-aac9-5f8d31d7f84f" data-name="Layer 2" xmlns="http://www.w3.org/2000/svg" width="545" height="566.9" viewBox="0 0 545 566.9">
  <defs>
    <style>
      .uuid-28e15cba-fa8e-4f94-8ef6-ce09d129b7ed, .uuid-205df085-1802-4aee-bd11-7f7b581a9730 {
        fill: #fff;
      }

      .uuid-4a5e2f18-ed5c-4396-be7e-3753f85ce616 {
        stroke-linecap: round;
        stroke-linejoin: round;
      }

      .uuid-4a5e2f18-ed5c-4396-be7e-3753f85ce616, .uuid-61183da7-df50-4d89-80f9-a530c22f4784 {
        fill: none;
        stroke: #fff;
      }

      .uuid-205df085-1802-4aee-bd11-7f7b581a9730 {
        opacity: .1;
      }

      .uuid-61183da7-df50-4d89-80f9-a530c22f4784 {
        opacity: .7;
        stroke-miterlimit: 10;
      }

      .uuid-79502173-998c-478f-aba3-40ffe7209a4c {
        fill: #555d49;
      }
    </style>
  </defs>
  <g id="uuid-3cc2d286-07c2-4d22-889e-ed5aa8d97fe5" data-name="Capa 1">
    <g>
      <g>
        <path class="uuid-28e15cba-fa8e-4f94-8ef6-ce09d129b7ed" d="M184.5,516.2h9.4v-4.7c0-2-.2-3.5-.5-4,0,0,0-.2,.2-.2h4.6c.3,0,.3,.2,.2,.2-.4,.5-.6,2-.6,4v11c0,2,.2,3.5,.6,3.9,0,.1,0,.3-.2,.3h-4.6c-.2,0-.2-.2-.2-.3,.4-.5,.5-2,.5-3.9v-5h-9.4v5c0,2,.2,3.5,.6,3.9,0,.1,0,.3-.2,.3h-4.6c-.2,0-.2-.2-.2-.3,.4-.5,.6-1.9,.6-3.9v-11c0-2-.2-3.5-.6-4,0,0,0-.2,.2-.2h4.6c.2,0,.2,.2,.2,.2-.4,.5-.6,2-.6,4v4.7Z"/>
        <path class="uuid-28e15cba-fa8e-4f94-8ef6-ce09d129b7ed" d="M204.9,526.8h-3.2c-.2,0-.2-.2,0-.3,.6-.5,1.4-1.9,2.5-4.5l6.5-14.7h2.1l5.6,14.6c.8,2,1.7,3.8,2.3,4.6,0,.1,.1,.3-.1,.3h-4.6c-.3,0-.3,0-.3-.3,0-.8-.5-2.6-1.3-4.7l-.6-1.7h-6.8l-.8,1.9c-1,2.3-1.2,4.1-1,4.6,0,.1,0,.3-.3,.3Zm5.6-15.3l-3.1,7.4h5.8l-2.8-7.4Z"/>
        <path class="uuid-28e15cba-fa8e-4f94-8ef6-ce09d129b7ed" d="M239.3,525.3c-1.2,1.1-3.3,2-6.7,2-5.5,0-9.9-3.3-9.9-10.1s4.4-10.3,10.2-10.3,5,.5,6,1c.5,.3,.6,.4,.5,1l-.4,1.8c-.2,.2-.5,.1-.6,0-.8-1.1-2.5-2.5-5.4-2.5s-6.1,3.4-6.1,8.9,2.3,8.3,6.6,8.3,4.4-.8,5.6-1.7c.2,0,.2,1.4,0,1.6Z"/>
        <path class="uuid-28e15cba-fa8e-4f94-8ef6-ce09d129b7ed" d="M246.7,522.6c0,2,.2,3.5,.6,3.9,0,.1,0,.3-.2,.3h-4.7c-.2,0-.2-.2-.2-.3,.4-.5,.6-1.9,.6-3.9v-11c0-2-.2-3.5-.6-4,0,0,0-.2,.2-.2h4.7c.3,0,.3,.2,.2,.2-.4,.5-.6,2-.6,4v11Z"/>
        <path class="uuid-28e15cba-fa8e-4f94-8ef6-ce09d129b7ed" d="M264.5,507.4c.5,0,.6,0,.6,.5v2.3c0,0-.3,.1-.4,0-.7-.7-2.4-1.6-4-1.6h-3.8v7.7h3.7c1.3,0,2.5-.6,2.9-.6,0,0,.1,0,.2,0v2.5s0,0-.2,0c-.4,0-1.4-.7-2.9-.7h-3.7v6.9c0,.9,0,1,.9,1h2.8c2.3,0,4.2-1.5,4.9-2.2,.2-.2,.6,0,.6,0l-.7,2.9c-.1,.5-.5,.5-.6,.5h-12.1c-.2,0-.2-.2-.2-.3,.4-.5,.6-1.9,.6-3.9v-11c0-2-.2-3.5-.6-4,0,0,0-.2,.2-.2h11.8Z"/>
        <path class="uuid-28e15cba-fa8e-4f94-8ef6-ce09d129b7ed" d="M270.5,509.3c-.1-.2-.4-.4-.8-.8-.4-.4-.6-.7-.7-.8,0,0,0-.3,0-.3h4.1c.4,0,.5,0,.8,.3l10.9,13.4v-9.5c0-2.2-.4-3.5-.7-4,0-.1,0-.2,0-.2h2.9c0,0,.2,.1,0,.2-.3,.5-.7,1.8-.7,4v15.2c-.3,0-1.5,0-1.7,0l-12.7-15.6v11.4c0,2.2,.4,3.6,.7,4,0,.1,0,.3,0,.3h-2.8c0,0-.2-.1,0-.3,.3-.5,.7-1.8,.7-4v-13.3Z"/>
        <path class="uuid-28e15cba-fa8e-4f94-8ef6-ce09d129b7ed" d="M292.4,526.8c-.2,0-.2-.2-.2-.3,.4-.5,.6-1.9,.6-3.9v-11c0-2-.2-3.5-.6-4,0,0,0-.2,.2-.2h8.4c6.9,0,10,4.2,10,9.2s-3.3,10.2-10.1,10.2h-8.3Zm4.2-2.1c0,.6,0,.8,.7,.8h2.9c4.5,0,6.3-3.9,6.3-8.9s-1.7-8.1-6.3-8.1h-3.6v16.1Z"/>
        <path class="uuid-28e15cba-fa8e-4f94-8ef6-ce09d129b7ed" d="M315.7,526.8h-3.2c-.2,0-.2-.2,0-.3,.6-.5,1.4-1.9,2.5-4.5l6.5-14.7h2.1l5.6,14.6c.8,2,1.7,3.8,2.3,4.6,0,.1,.1,.3-.1,.3h-4.6c-.3,0-.3,0-.3-.3,0-.8-.5-2.6-1.3-4.7l-.6-1.7h-6.8l-.8,1.9c-1,2.3-1.2,4.1-1,4.6,0,.1,0,.3-.3,.3Zm5.6-15.3l-3.1,7.4h5.8l-2.8-7.4Z"/>
        <path class="uuid-28e15cba-fa8e-4f94-8ef6-ce09d129b7ed" d="M163.3,557.4c-.2,0-.2-.2-.2-.3,.4-.5,.6-1.9,.6-3.9v-11c0-2-.2-3.5-.6-4,0,0,0-.2,.2-.2h8.4c6.9,0,10,4.2,10,9.2s-3.3,10.2-10.1,10.2h-8.3Zm4.2-2.1c0,.6,0,.8,.7,.8h2.9c4.5,0,6.3-3.9,6.3-8.9s-1.7-8.1-6.3-8.1h-3.6v16.1Z"/>
        <path class="uuid-28e15cba-fa8e-4f94-8ef6-ce09d129b7ed" d="M197.8,537.9c.5,0,.6,0,.6,.5v2.3c0,0-.3,.1-.4,0-.7-.7-2.4-1.6-4-1.6h-3.8v7.7h3.7c1.3,0,2.5-.6,2.9-.6,0,0,.1,0,.2,0v2.5s0,0-.2,0c-.4,0-1.4-.7-2.9-.7h-3.7v6.9c0,.9,0,1,.9,1h2.8c2.3,0,4.2-1.5,4.9-2.2,.2-.2,.6,0,.6,0l-.7,2.9c-.1,.5-.5,.5-.6,.5h-12.1c-.2,0-.2-.2-.2-.3,.4-.5,.6-1.9,.6-3.9v-11c0-2-.2-3.5-.6-4,0,0,0-.2,.2-.2h11.8Z"/>
        <path class="uuid-28e15cba-fa8e-4f94-8ef6-ce09d129b7ed" d="M210.9,553.1l.5-13.1c0-.2-.3-.5-.5-1-.2-.4-.4-.7-.6-.9-.1-.1,0-.2,0-.2h4.1c.5,0,.5,0,.7,.5l6.7,14.6,5.9-13.6c.6-1.4,.7-1.4,1.4-1.4h3.2c.2,0,.2,.1,.1,.2-.5,.7-.6,2.5-.6,4.5l.3,10.5c0,2.5,.3,3.5,.7,3.9,0,.1,0,.3-.2,.3h-4.6c-.2,0-.2-.2-.2-.3,.4-.5,.6-1.6,.6-3.9l-.3-11.5-6.8,15.6c-.4,.1-1.4,.1-1.6,0l-7-15.3-.3,11.2c0,2.2,.2,3.5,.5,4,0,.2,0,.3-.1,.3h-2.5c-.2,0-.2-.1-.1-.3,.2-.5,.6-1.9,.6-4Z"/>
        <path class="uuid-28e15cba-fa8e-4f94-8ef6-ce09d129b7ed" d="M236.8,547.6c0-6.2,4.2-10.2,10.3-10.2s10.3,4,10.3,10.2-4.2,10.2-10.3,10.2-10.3-4-10.3-10.2Zm16.3,0c0-4.9-1.7-8.8-6-8.8s-6,3.9-6,8.8,1.7,8.8,6,8.8,6-3.9,6-8.8Z"/>
        <path class="uuid-28e15cba-fa8e-4f94-8ef6-ce09d129b7ed" d="M261.8,557.4c-.2,0-.2-.2-.2-.3,.4-.5,.6-1.9,.6-3.9v-11c0-2-.2-3.5-.6-4,0,0,0-.2,.2-.2h4.6c.3,0,.3,.2,.2,.2-.4,.5-.6,2-.6,4v12.9c0,.9,0,1,.9,1h2.5c2.3,0,4.2-1.5,5-2.3,.2-.2,.6,0,.6,0l-.7,3c-.1,.5-.5,.5-.6,.5h-11.8Z"/>
        <path class="uuid-28e15cba-fa8e-4f94-8ef6-ce09d129b7ed" d="M282.5,553.2c0,2,.2,3.5,.6,3.9,0,.1,0,.3-.2,.3h-4.7c-.2,0-.2-.2-.2-.3,.4-.5,.6-1.9,.6-3.9v-11c0-2-.2-3.5-.6-4,0,0,0-.2,.2-.2h4.7c.3,0,.3,.2,.2,.2-.4,.5-.6,2-.6,4v11Z"/>
        <path class="uuid-28e15cba-fa8e-4f94-8ef6-ce09d129b7ed" d="M289.1,539.8c-.1-.2-.4-.4-.8-.8-.4-.4-.6-.7-.7-.8,0,0,0-.3,0-.3h4.1c.4,0,.5,0,.8,.3l10.9,13.4v-9.5c0-2.2-.4-3.5-.7-4,0-.1,0-.2,0-.2h2.9c0,0,.2,.1,0,.2-.3,.5-.7,1.8-.7,4v15.2c-.3,0-1.5,0-1.7,0l-12.7-15.6v11.4c0,2.2,.4,3.6,.7,4,0,.1,0,.3,0,.3h-2.8c0,0-.2-.1,0-.3,.3-.5,.7-1.8,.7-4v-13.3Z"/>
        <path class="uuid-28e15cba-fa8e-4f94-8ef6-ce09d129b7ed" d="M309.6,547.6c0-6.2,4.2-10.2,10.3-10.2s10.3,4,10.3,10.2-4.2,10.2-10.3,10.2-10.3-4-10.3-10.2Zm16.3,0c0-4.9-1.7-8.8-6-8.8s-6,3.9-6,8.8,1.7,8.8,6,8.8,6-3.9,6-8.8Z"/>
        <path class="uuid-28e15cba-fa8e-4f94-8ef6-ce09d129b7ed" d="M344.1,552.8c0-1.2-.5-2.1-1.4-2.5-1-.5-2.1-1-3.3-1.4-1.7-.6-3-1.3-4-2.2-1-.9-1.5-2.1-1.5-3.7,0-3.4,2.8-5.5,7.2-5.5s4.4,.4,5.3,.8c.5,.2,.6,.4,.6,1l-.2,1.7c-.1,.2-.4,.1-.5,0-1-1.4-2.9-2.2-5.1-2.2s-3.7,1.2-3.7,3.1,1.6,3,4.1,3.8c1.9,.6,3.4,1.4,4.5,2.2,1.1,.8,1.7,2.1,1.7,3.8,0,4.1-3.4,6.1-7.9,6.1s-4.6-.4-5.6-.9c-.5-.3-.6-.4-.5-1.1v-2c.2-.2,.5,0,.6,0,1,1.4,3,2.5,5.5,2.5s4.5-1.5,4.5-3.6Z"/>
      </g>
      <g>
        <line class="uuid-4a5e2f18-ed5c-4396-be7e-3753f85ce616" x1="114.8" y1="472" x2="43.2" y2="399.2"/>
        <line class="uuid-4a5e2f18-ed5c-4396-be7e-3753f85ce616" x1="395.7" y1="472" x2="114.8" y2="472"/>
      </g>
      <g>
        <path class="uuid-61183da7-df50-4d89-80f9-a530c22f4784" d="M479.7,35.8c-8.1-.1-28.9,4-31.9,11-1.3,3.1-3.8,5.6-5.9,8.3-7.2,9.2-10,21.7-7.7,33.1,.5,2.4,2.1,4.5,4.4,5.3,2.6,.9,4.8,5.7,4.8,9.3,0,17.5,.1,35,.2,52.5,0,4.9,0,9.9-1.1,14.7-1.6,6.9-5.5,13.3-5.3,20.4,0,2.6,.6,5.2-.3,7.6-1.3,3.5-5.3,5.1-8.8,6-15.7,4.1-35.2,4.4-43.3,18.4-4.6,8-4.2,19-11.4,24.6-13.8,10.5-34.7-11.3-49.8-2.7-5.8,3.2-9.4,10.5-16,11.2-3.9,.4-7.7-1.8-11.6-1.2-6.1,.9-11.2,8.2-16.9,5.7-3.4-1.5-4.5-5.9-7.2-8.4-4.7-4.3-12.7-1.6-16.6,3.5-3.8,5.1-4.9,11.6-6.8,17.7-1.9,6.1-5.4,12.4-11.5,14.3-8.2,2.5-16.6-4.2-25.1-3.1-3.8,.5-7.7,2.5-10.9-2.4s-1.2-2.2-1.5-3.4c0,0-44.3-87.3-49.9-91.1-2-1.3-4.1-2.7-6.4-3.1-4.5-.8-8.8,2.2-12.3,5.2-19.5,16.8-38.3,23.2-61.5,43.4-4.6,4,6.4,37.5,4.2,43.2-7.8,20.2-7,34.9-14.8,55.1-1.7,4.3-3.4,8.9-3,13.5,.8,10,10.5,17,13.7,26.6,2.4,7.3,.4,15.9-4.9,21.5-5.4,5.5-13.9,7.7-21.3,5.5"/>
        <g>
          <path class="uuid-28e15cba-fa8e-4f94-8ef6-ce09d129b7ed" d="M493.5,41.5c0-.6-.2-1-.7-1.2-.5-.2-1-.5-1.6-.7-.8-.3-1.5-.6-1.9-1.1s-.7-1-.7-1.8c0-1.7,1.4-2.7,3.5-2.7s2.1,.2,2.6,.4c.3,.1,.3,.2,.3,.5v.8c-.2,0-.3,0-.4,0-.5-.7-1.4-1.1-2.5-1.1s-1.8,.6-1.8,1.5,.8,1.5,2,1.9c.9,.3,1.6,.7,2.2,1.1,.5,.4,.8,1,.8,1.8,0,2-1.6,2.9-3.8,2.9s-2.2-.2-2.7-.4c-.3-.1-.3-.2-.3-.5v-1c0,0,.3,0,.3,0,.5,.7,1.5,1.2,2.6,1.2s2.2-.7,2.2-1.7Z"/>
          <path class="uuid-28e15cba-fa8e-4f94-8ef6-ce09d129b7ed" d="M500.5,43.7h-1.5c0,0-.1,0,0-.1,.3-.3,.7-.9,1.2-2.2l3.1-7.1h1l2.7,7.1c.4,1,.8,1.8,1.1,2.2,0,0,0,.2,0,.2h-2.2c-.1,0-.2,0-.2-.2,0-.4-.2-1.2-.6-2.3l-.3-.8h-3.3l-.4,.9c-.5,1.1-.6,2-.5,2.2,0,0,0,.1-.1,.1Zm2.7-7.4l-1.5,3.6h2.8l-1.3-3.6Z"/>
          <path class="uuid-28e15cba-fa8e-4f94-8ef6-ce09d129b7ed" d="M512.4,43.7c-.1,0-.1,0,0-.1,.2-.2,.3-.9,.3-1.9v-5.3c0-1-.1-1.7-.3-1.9,0,0,0-.1,0-.1h2.2c.1,0,.1,0,0,.1-.2,.3-.3,1-.3,1.9v6.3c0,.4,0,.5,.4,.5h1.2c1.1,0,2-.7,2.4-1.1,.1,0,.3,0,.3,0l-.3,1.5c0,.2-.2,.3-.3,.3h-5.7Z"/>
          <path class="uuid-28e15cba-fa8e-4f94-8ef6-ce09d129b7ed" d="M529.8,34.2c.2,0,.3,0,.3,.3v1.2s0,0-.2,0c-.5-.4-1.2-.9-1.9-.9h-1.5v6.8c0,1.1,.1,1.7,.3,1.9,0,0,0,.1,0,.1h-2.4c-.1,0-.1,0,0-.1,.2-.2,.4-.8,.4-1.9v-6.8h-1.5c-.7,0-1.5,.5-1.9,.9,0,0-.1,0-.2,0v-1.2c0-.3,.2-.3,.3-.3h8.4Z"/>
          <path class="uuid-28e15cba-fa8e-4f94-8ef6-ce09d129b7ed" d="M534.2,43.7h-1.5c0,0-.1,0,0-.1,.3-.3,.7-.9,1.2-2.2l3.1-7.1h1l2.7,7.1c.4,1,.8,1.8,1.1,2.2,0,0,0,.2,0,.2h-2.2c-.1,0-.2,0-.2-.2,0-.4-.2-1.2-.6-2.3l-.3-.8h-3.3l-.4,.9c-.5,1.1-.6,2-.5,2.2,0,0,0,.1-.1,.1Zm2.7-7.4l-1.5,3.6h2.8l-1.3-3.6Z"/>
        </g>
        <g id="uuid-483815c1-ef12-4305-9410-45abab5bf808" data-name="Location">
          <g>
            <path class="uuid-28e15cba-fa8e-4f94-8ef6-ce09d129b7ed" d="M503,27c-.3,0-.6-.1-.8-.4l-7.5-10.2c-3-4.1-2.6-9.8,1-13.4,4-4,10.5-4,14.6,0,3.6,3.6,4.1,9.3,1,13.4l-2.8,3.8c-.3,.4-.9,.5-1.3,.2-.4-.3-.5-.9-.2-1.3l2.8-3.8c2.5-3.4,2.1-8-.8-10.9-3.3-3.3-8.6-3.3-11.9,0-3,3-3.3,7.6-.8,10.9l7.5,10.2c.3,.4,.2,1-.2,1.3-.2,.1-.4,.2-.6,.2Z"/>
            <path class="uuid-28e15cba-fa8e-4f94-8ef6-ce09d129b7ed" d="M505.6,23.5c-.2,0-.5-.1-.7-.3,0,0,0,0-.1-.1,0,0,0-.1,0-.2,0,0,0-.1,0-.2,0,0,0-.1,0-.2s0-.1,0-.2c0,0,0-.1,0-.2,0,0,0-.1,0-.2,0,0,0-.1,.1-.1,0,0,0,0,.1-.1,0,0,.1,0,.2,0,0,0,.1,0,.2,0,.1,0,.2,0,.4,0,0,0,.1,0,.2,0,0,0,.1,0,.2,0,0,0,.1,0,.1,.1,0,0,0,0,.1,.1,0,0,0,.1,0,.2,0,0,0,.1,0,.2,0,0,0,.1,0,.2s0,.1,0,.2c0,0,0,.1,0,.2,0,0,0,.1,0,.2,0,0,0,.1-.1,.1-.2,.2-.4,.3-.7,.3Z"/>
            <path class="uuid-28e15cba-fa8e-4f94-8ef6-ce09d129b7ed" d="M503,15.5c-1.4,0-2.7-.5-3.7-1.5-1-1-1.5-2.3-1.5-3.7s.6-2.7,1.5-3.7c1-1,2.3-1.5,3.7-1.5s2.7,.6,3.7,1.5c1,1,1.5,2.3,1.5,3.7s-.6,2.7-1.5,3.7c-1,1-2.4,1.5-3.7,1.5Zm0-8.7c-.9,0-1.8,.4-2.4,1-.6,.6-1,1.5-1,2.4s.4,1.8,1,2.4c1.3,1.3,3.5,1.3,4.8,0h0c.6-.6,1-1.5,1-2.4s-.4-1.8-1-2.4c-.6-.6-1.5-1-2.4-1Z"/>
          </g>
        </g>
        <g>
          <path class="uuid-28e15cba-fa8e-4f94-8ef6-ce09d129b7ed" d="M359.5,110.7c-.5,.4-1.3,.8-2.6,.8-2.1,0-3.8-1.3-3.8-3.9s1.7-4,3.9-4,1.9,.2,2.3,.4c.2,.1,.2,.2,.2,.4v.7c-.2,0-.3,0-.4,0-.3-.4-.9-1-2.1-1s-2.3,1.3-2.3,3.4,.9,3.2,2.5,3.2,1.7-.3,2.2-.7c0,0,0,.5,0,.6Z"/>
          <path class="uuid-28e15cba-fa8e-4f94-8ef6-ce09d129b7ed" d="M367.3,103.8c.2,0,.2,0,.2,.2v.9s-.1,0-.2,0c-.3-.3-.9-.6-1.5-.6h-1.5v2.9h1.4c.5,0,1-.2,1.1-.2,0,0,0,0,0,0v.9s0,0,0,0c-.1,0-.5-.3-1.1-.3h-1.4v2.7c0,.3,0,.4,.3,.4h1.1c.9,0,1.6-.6,1.9-.8,0,0,.2,0,.2,0l-.3,1.1c0,.2-.2,.2-.2,.2h-4.6c0,0,0,0,0-.1,.1-.2,.2-.7,.2-1.5v-4.2c0-.8,0-1.3-.2-1.5,0,0,0,0,0,0h4.5Z"/>
          <path class="uuid-28e15cba-fa8e-4f94-8ef6-ce09d129b7ed" d="M377.8,111.3c-.4,0-.8,0-1.3-.3-.6-.3-1.2-.9-1.5-1.5-.4-.5-.7-1-.9-1.5-.3,0-.8,0-1,0v1.6c0,.8,0,1.3,.2,1.5,0,0,0,.1,0,.1h-1.8c0,0,0,0,0-.1,.1-.2,.2-.7,.2-1.5v-4.2c0-.8,0-1.3-.2-1.5,0,0,0,0,0,0h2.9c1.2,0,2.7,.3,2.7,2s-1,1.8-1.5,2c.2,.4,.6,.9,1,1.6,.8,1.1,1.4,1.6,1.8,1.8,0,0,0,.1,0,.1-.1,0-.3,0-.5,0Zm-4.8-7.1v3.3c.2,0,.6,0,1,0,.4,0,.7-.1,1-.4,.3-.2,.4-.7,.4-1.4,0-1.3-.8-1.6-1.5-1.6h-1Z"/>
          <path class="uuid-28e15cba-fa8e-4f94-8ef6-ce09d129b7ed" d="M387.8,111.3c-.4,0-.8,0-1.3-.3-.6-.3-1.2-.9-1.5-1.5-.4-.5-.7-1-.9-1.5-.3,0-.8,0-1,0v1.6c0,.8,0,1.3,.2,1.5,0,0,0,.1,0,.1h-1.8c0,0,0,0,0-.1,.1-.2,.2-.7,.2-1.5v-4.2c0-.8,0-1.3-.2-1.5,0,0,0,0,0,0h2.9c1.2,0,2.7,.3,2.7,2s-1,1.8-1.5,2c.2,.4,.6,.9,1,1.6,.8,1.1,1.4,1.6,1.8,1.8,0,0,0,.1,0,.1-.1,0-.3,0-.5,0Zm-4.8-7.1v3.3c.2,0,.6,0,1,0,.4,0,.7-.1,1-.4,.3-.2,.4-.7,.4-1.4,0-1.3-.8-1.6-1.5-1.6h-1Z"/>
          <path class="uuid-28e15cba-fa8e-4f94-8ef6-ce09d129b7ed" d="M393,109.6c0,.8,0,1.3,.2,1.5,0,0,0,.1,0,.1h-1.8c0,0,0,0,0-.1,.1-.2,.2-.7,.2-1.5v-4.2c0-.8,0-1.3-.2-1.5,0,0,0,0,0,0h1.8c.1,0,.1,0,0,0-.2,.2-.2,.8-.2,1.5v4.2Z"/>
          <path class="uuid-28e15cba-fa8e-4f94-8ef6-ce09d129b7ed" d="M397.4,111.3c0,0,0,0,0-.1,.1-.2,.2-.7,.2-1.5v-4.2c0-.8,0-1.3-.2-1.5,0,0,0,0,0,0h1.8c.1,0,.1,0,0,0-.1,.2-.2,.8-.2,1.5v5c0,.3,0,.4,.3,.4h.9c.9,0,1.6-.6,1.9-.9,0,0,.2,0,.2,0l-.3,1.2c0,.2-.2,.2-.2,.2h-4.5Z"/>
          <path class="uuid-28e15cba-fa8e-4f94-8ef6-ce09d129b7ed" d="M405.8,111.3c0,0,0,0,0-.1,.1-.2,.2-.7,.2-1.5v-4.2c0-.8,0-1.3-.2-1.5,0,0,0,0,0,0h1.8c.1,0,.1,0,0,0-.1,.2-.2,.8-.2,1.5v5c0,.3,0,.4,.3,.4h.9c.9,0,1.6-.6,1.9-.9,0,0,.2,0,.2,0l-.3,1.2c0,.2-.2,.2-.2,.2h-4.5Z"/>
          <path class="uuid-28e15cba-fa8e-4f94-8ef6-ce09d129b7ed" d="M413.5,107.5c0-2.4,1.6-3.9,4-3.9s4,1.5,4,3.9-1.6,3.9-4,3.9-4-1.5-4-3.9Zm6.3,0c0-1.9-.7-3.4-2.3-3.4s-2.3,1.5-2.3,3.4,.7,3.4,2.3,3.4,2.3-1.5,2.3-3.4Z"/>
          <path class="uuid-28e15cba-fa8e-4f94-8ef6-ce09d129b7ed" d="M428.8,109.5c0-.5-.2-.8-.6-1-.4-.2-.8-.4-1.3-.5-.6-.2-1.2-.5-1.5-.8s-.6-.8-.6-1.4c0-1.3,1.1-2.1,2.8-2.1s1.7,.2,2.1,.3c.2,0,.2,.2,.2,.4v.7c-.1,0-.2,0-.3,0-.4-.5-1.1-.9-2-.9s-1.4,.5-1.4,1.2,.6,1.2,1.6,1.5c.7,.2,1.3,.5,1.7,.8s.7,.8,.7,1.5c0,1.6-1.3,2.3-3,2.3s-1.8-.1-2.1-.3c-.2-.1-.2-.2-.2-.4v-.8c0,0,.2,0,.2,0,.4,.5,1.2,1,2.1,1s1.7-.6,1.7-1.4Z"/>
        </g>
        <g>
          <path class="uuid-28e15cba-fa8e-4f94-8ef6-ce09d129b7ed" d="M424.2,222.3c-.5,.4-1.3,.8-2.6,.8-2.1,0-3.8-1.3-3.8-3.9s1.7-4,3.9-4,1.9,.2,2.3,.4c.2,.1,.2,.2,.2,.4v.7c-.2,0-.3,0-.4,0-.3-.4-.9-1-2.1-1s-2.3,1.3-2.3,3.4,.9,3.2,2.5,3.2,1.7-.3,2.2-.7c0,0,0,.5,0,.6Z"/>
          <path class="uuid-28e15cba-fa8e-4f94-8ef6-ce09d129b7ed" d="M429.1,218.8h3.6v-1.8c0-.8,0-1.3-.2-1.5,0,0,0,0,0,0h1.8c.1,0,.1,0,0,0-.2,.2-.2,.8-.2,1.5v4.2c0,.8,0,1.3,.2,1.5,0,0,0,.1,0,.1h-1.8c0,0,0,0,0-.1,.1-.2,.2-.8,.2-1.5v-1.9h-3.6v1.9c0,.8,0,1.3,.2,1.5,0,0,0,.1,0,.1h-1.8c0,0,0,0,0-.1,.1-.2,.2-.7,.2-1.5v-4.2c0-.8,0-1.3-.2-1.5,0,0,0,0,0,0h1.8c0,0,0,0,0,0-.1,.2-.2,.8-.2,1.5v1.8Z"/>
          <path class="uuid-28e15cba-fa8e-4f94-8ef6-ce09d129b7ed" d="M440.2,221.3c0,.8,0,1.3,.2,1.5,0,0,0,.1,0,.1h-1.8c0,0,0,0,0-.1,.1-.2,.2-.7,.2-1.5v-4.2c0-.8,0-1.3-.2-1.5,0,0,0,0,0,0h1.8c.1,0,.1,0,0,0-.2,.2-.2,.8-.2,1.5v4.2Z"/>
          <path class="uuid-28e15cba-fa8e-4f94-8ef6-ce09d129b7ed" d="M450.5,222.3c-.5,.4-1.3,.8-2.6,.8-2.1,0-3.8-1.3-3.8-3.9s1.7-4,3.9-4,1.9,.2,2.3,.4c.2,.1,.2,.2,.2,.4v.7c-.2,0-.3,0-.4,0-.3-.4-.9-1-2.1-1s-2.3,1.3-2.3,3.4,.9,3.2,2.5,3.2,1.7-.3,2.2-.7c0,0,0,.5,0,.6Z"/>
          <path class="uuid-28e15cba-fa8e-4f94-8ef6-ce09d129b7ed" d="M453.3,219.1c0-2.4,1.6-3.9,4-3.9s4,1.5,4,3.9-1.6,3.9-4,3.9-4-1.5-4-3.9Zm6.3,0c0-1.9-.7-3.4-2.3-3.4s-2.3,1.5-2.3,3.4,.7,3.4,2.3,3.4,2.3-1.5,2.3-3.4Z"/>
          <path class="uuid-28e15cba-fa8e-4f94-8ef6-ce09d129b7ed" d="M465.1,222.9h-1.2c0,0,0,0,0-.1,.2-.2,.5-.7,1-1.7l2.5-5.7h.8l2.2,5.6c.3,.8,.6,1.5,.9,1.8,0,0,0,.1,0,.1h-1.8c-.1,0-.1,0-.1-.1,0-.3-.2-1-.5-1.8l-.2-.7h-2.6l-.3,.7c-.4,.9-.5,1.6-.4,1.8,0,0,0,.1-.1,.1Zm2.2-5.9l-1.2,2.8h2.2l-1.1-2.8Z"/>
          <path class="uuid-28e15cba-fa8e-4f94-8ef6-ce09d129b7ed" d="M474.9,216.1c0,0-.1-.2-.3-.3s-.2-.3-.3-.3,0-.1,0-.1h1.6c.2,0,.2,0,.3,.1l4.2,5.2v-3.7c0-.8-.2-1.4-.3-1.5,0,0,0,0,0,0h1.1s0,0,0,0c-.1,.2-.3,.7-.3,1.5v5.9c-.1,0-.6,0-.6,0l-4.9-6v4.4c0,.8,.2,1.4,.3,1.5,0,0,0,.1,0,.1h-1.1s0,0,0-.1c.1-.2,.3-.7,.3-1.5v-5.1Z"/>
          <path class="uuid-28e15cba-fa8e-4f94-8ef6-ce09d129b7ed" d="M485.4,222.9h-1.2c0,0,0,0,0-.1,.2-.2,.5-.7,1-1.7l2.5-5.7h.8l2.2,5.6c.3,.8,.6,1.5,.9,1.8,0,0,0,.1,0,.1h-1.8c-.1,0-.1,0-.1-.1,0-.3-.2-1-.5-1.8l-.2-.7h-2.6l-.3,.7c-.4,.9-.5,1.6-.4,1.8,0,0,0,.1-.1,.1Zm2.2-5.9l-1.2,2.8h2.2l-1.1-2.8Z"/>
        </g>
        <g>
          <path class="uuid-28e15cba-fa8e-4f94-8ef6-ce09d129b7ed" d="M300.1,219.6c.2,0,.2,0,.2,.2v.9s-.1,0-.2,0c-.3-.3-.9-.6-1.5-.6h-1.5v2.9h1.4c.5,0,1-.2,1.1-.2,0,0,0,0,0,0v.9s0,0,0,0c-.1,0-.5-.3-1.1-.3h-1.4v2.7c0,.3,0,.4,.3,.4h1.1c.9,0,1.6-.6,1.9-.8,0,0,.2,0,.2,0l-.3,1.1c0,.2-.2,.2-.2,.2h-4.6c0,0,0,0,0-.1,.1-.2,.2-.7,.2-1.5v-4.2c0-.8,0-1.3-.2-1.5,0,0,0,0,0,0h4.5Z"/>
          <path class="uuid-28e15cba-fa8e-4f94-8ef6-ce09d129b7ed" d="M308,225.3c0-.5-.2-.8-.6-1-.4-.2-.8-.4-1.3-.5-.6-.2-1.2-.5-1.5-.8s-.6-.8-.6-1.4c0-1.3,1.1-2.1,2.8-2.1s1.7,.2,2.1,.3c.2,0,.2,.2,.2,.4v.7c-.1,0-.2,0-.3,0-.4-.5-1.1-.9-2-.9s-1.4,.5-1.4,1.2,.6,1.2,1.6,1.5c.7,.2,1.3,.5,1.7,.8s.7,.8,.7,1.5c0,1.6-1.3,2.3-3,2.3s-1.8-.1-2.1-.3c-.2-.1-.2-.2-.2-.4v-.8c0,0,.2,0,.2,0,.4,.5,1.2,1,2.1,1s1.7-.6,1.7-1.4Z"/>
          <path class="uuid-28e15cba-fa8e-4f94-8ef6-ce09d129b7ed" d="M319.1,226.4c-.5,.4-1.3,.8-2.6,.8-2.1,0-3.8-1.3-3.8-3.9s1.7-4,3.9-4,1.9,.2,2.3,.4c.2,.1,.2,.2,.2,.4v.7c-.2,0-.3,0-.4,0-.3-.4-.9-1-2.1-1s-2.3,1.3-2.3,3.4,.9,3.2,2.5,3.2,1.7-.3,2.2-.7c0,0,0,.5,0,.6Z"/>
          <path class="uuid-28e15cba-fa8e-4f94-8ef6-ce09d129b7ed" d="M321.9,223.3c0-2.4,1.6-3.9,4-3.9s4,1.5,4,3.9-1.6,3.9-4,3.9-4-1.5-4-3.9Zm6.3,0c0-1.9-.7-3.4-2.3-3.4s-2.3,1.5-2.3,3.4,.7,3.4,2.3,3.4,2.3-1.5,2.3-3.4Z"/>
          <path class="uuid-28e15cba-fa8e-4f94-8ef6-ce09d129b7ed" d="M335.2,225.4c0,.8,0,1.3,.2,1.5,0,0,0,.1,0,.1h-1.8c0,0,0,0,0-.1,.1-.2,.2-.7,.2-1.5v-4.2c0-.8,0-1.3-.2-1.5,0,0,0,0,0,0h1.8c.1,0,.1,0,0,0-.2,.2-.2,.8-.2,1.5v4.2Z"/>
          <path class="uuid-28e15cba-fa8e-4f94-8ef6-ce09d129b7ed" d="M341.3,227h-1.8c0,0,0,0,0-.1,.1-.2,.2-.7,.2-1.5v-4.2c0-.8,0-1.3-.2-1.5,0,0,0,0,0,0h2.9c1.3,0,2.8,.4,2.8,2.1s-1.4,2.4-3.1,2.4-.6,0-.9,0v1.5c0,.8,0,1.3,.2,1.5,0,0,0,.1,0,.1Zm-.2-7v3.5c.2,0,.4,0,.7,0,1.2,0,1.9-.5,1.9-1.9s-.8-1.6-1.5-1.6h-1Z"/>
          <path class="uuid-28e15cba-fa8e-4f94-8ef6-ce09d129b7ed" d="M353.5,219.6c.2,0,.2,0,.2,.2v.9s-.1,0-.2,0c-.3-.3-.9-.6-1.5-.6h-1.5v2.9h1.4c.5,0,1-.2,1.1-.2,0,0,0,0,0,0v.9s0,0,0,0c-.1,0-.5-.3-1.1-.3h-1.4v2.7c0,.3,0,.4,.3,.4h1.1c.9,0,1.6-.6,1.9-.8,0,0,.2,0,.2,0l-.3,1.1c0,.2-.2,.2-.2,.2h-4.6c0,0,0,0,0-.1,.1-.2,.2-.7,.2-1.5v-4.2c0-.8,0-1.3-.2-1.5,0,0,0,0,0,0h4.5Z"/>
        </g>
        <g>
          <path class="uuid-28e15cba-fa8e-4f94-8ef6-ce09d129b7ed" d="M135.9,171.6h-1.8c0,0,0,0,0-.1,.1-.2,.2-.7,.2-1.5v-4.2c0-.8,0-1.3-.2-1.5,0,0,0,0,0,0h2.9c1.3,0,2.8,.4,2.8,2.1s-1.4,2.4-3.1,2.4-.6,0-.9,0v1.5c0,.8,0,1.3,.2,1.5,0,0,0,.1,0,.1Zm-.2-7v3.5c.2,0,.4,0,.7,0,1.2,0,1.9-.5,1.9-1.9s-.8-1.6-1.5-1.6h-1Z"/>
          <path class="uuid-28e15cba-fa8e-4f94-8ef6-ce09d129b7ed" d="M142.9,171.6h-1.2c0,0,0,0,0-.1,.2-.2,.5-.7,1-1.7l2.5-5.7h.8l2.2,5.6c.3,.8,.6,1.5,.9,1.8,0,0,0,.1,0,.1h-1.8c-.1,0-.1,0-.1-.1,0-.3-.2-1-.5-1.8l-.2-.7h-2.6l-.3,.7c-.4,.9-.5,1.6-.4,1.8,0,0,0,.1-.1,.1Zm2.2-5.9l-1.2,2.8h2.2l-1.1-2.8Z"/>
          <path class="uuid-28e15cba-fa8e-4f94-8ef6-ce09d129b7ed" d="M155.4,171.6h-1.9c-.1,0-.1,0,0-.1,.2-.2,.3-.6,.3-1.5v-1.4l-1.7-2.9c-.5-.8-.8-1.2-1-1.5,0,0,0,0,0,0h2c0,0,0,0,0,0,0,.3,.2,.7,.6,1.4l1.3,2.3,1.2-2.2c.4-.8,.5-1.2,.4-1.4,0,0,0,0,0,0h1.3c0,0,0,0,0,0-.2,.2-.6,.6-1.1,1.4l-1.7,2.9v1.5c0,.9,.1,1.3,.3,1.5,0,0,0,.1,0,.1Z"/>
          <path class="uuid-28e15cba-fa8e-4f94-8ef6-ce09d129b7ed" d="M160.5,167.8c0-2.4,1.6-3.9,4-3.9s4,1.5,4,3.9-1.6,3.9-4,3.9-4-1.5-4-3.9Zm6.3,0c0-1.9-.7-3.4-2.3-3.4s-2.3,1.5-2.3,3.4,.7,3.4,2.3,3.4,2.3-1.5,2.3-3.4Z"/>
          <path class="uuid-28e15cba-fa8e-4f94-8ef6-ce09d129b7ed" d="M175.8,163.9c1.2,0,2,.2,2.4,.4,.2,.1,.3,.2,.2,.4l-.2,.7c0,0-.2,0-.2,0-.3-.4-1-1-2.2-1s-1.5,.3-1.9,.9c-.4,.6-.6,1.4-.6,2.5,0,2,.9,3.3,2.5,3.3s1,0,1.4-.2v-1.2c0-.9-.1-1.4-.3-1.5,0,0,0,0,0,0h1.6c0,0,0,0,0,0-.1,.2-.2,.7-.2,1.5v1.7c0,0,0,0-.1,0h-.8c-.4,0-1.2,.2-1.9,.2-2.3,0-4-1.2-4-3.9s1.8-3.9,4.1-3.9Z"/>
          <path class="uuid-28e15cba-fa8e-4f94-8ef6-ce09d129b7ed" d="M183,171.6h-1.2c0,0,0,0,0-.1,.2-.2,.5-.7,1-1.7l2.5-5.7h.8l2.2,5.6c.3,.8,.6,1.5,.9,1.8,0,0,0,.1,0,.1h-1.8c-.1,0-.1,0-.1-.1,0-.3-.2-1-.5-1.8l-.2-.7h-2.6l-.3,.7c-.4,.9-.5,1.6-.4,1.8,0,0,0,.1-.1,.1Zm2.2-5.9l-1.2,2.8h2.2l-1.1-2.8Z"/>
          <path class="uuid-28e15cba-fa8e-4f94-8ef6-ce09d129b7ed" d="M196.1,169.8c0-.5-.2-.8-.6-1-.4-.2-.8-.4-1.3-.5-.6-.2-1.2-.5-1.5-.8s-.6-.8-.6-1.4c0-1.3,1.1-2.1,2.8-2.1s1.7,.2,2.1,.3c.2,0,.2,.2,.2,.4v.7c-.1,0-.2,0-.3,0-.4-.5-1.1-.9-2-.9s-1.4,.5-1.4,1.2,.6,1.2,1.6,1.5c.7,.2,1.3,.5,1.7,.8s.7,.8,.7,1.5c0,1.6-1.3,2.3-3,2.3s-1.8-.1-2.1-.3c-.2-.1-.2-.2-.2-.4v-.8c0,0,.2,0,.2,0,.4,.5,1.2,1,2.1,1s1.7-.6,1.7-1.4Z"/>
          <path class="uuid-28e15cba-fa8e-4f94-8ef6-ce09d129b7ed" d="M207.2,164.1c.1,0,.2,0,.2,.2v1s0,0-.1,0c-.4-.3-1-.7-1.5-.7h-1.2v5.4c0,.9,.1,1.3,.3,1.5,0,0,0,.1,0,.1h-1.9c-.1,0-.1,0,0-.1,.2-.2,.3-.6,.3-1.5v-5.4h-1.2c-.6,0-1.2,.4-1.5,.7,0,0-.1,0-.2,0v-1c0-.2,.1-.2,.3-.2h6.6Z"/>
          <path class="uuid-28e15cba-fa8e-4f94-8ef6-ce09d129b7ed" d="M210.7,171.6h-1.2c0,0,0,0,0-.1,.2-.2,.5-.7,1-1.7l2.5-5.7h.8l2.2,5.6c.3,.8,.6,1.5,.9,1.8,0,0,0,.1,0,.1h-1.8c-.1,0-.1,0-.1-.1,0-.3-.2-1-.5-1.8l-.2-.7h-2.6l-.3,.7c-.4,.9-.5,1.6-.4,1.8,0,0,0,.1-.1,.1Zm2.2-5.9l-1.2,2.8h2.2l-1.1-2.8Z"/>
        </g>
        <g>
          <path class="uuid-28e15cba-fa8e-4f94-8ef6-ce09d129b7ed" d="M37.2,186.7c-.6,.5-1.6,1-3.3,1-2.7,0-4.8-1.6-4.8-4.9s2.1-5,4.9-5,2.4,.3,2.9,.5c.3,.1,.3,.2,.2,.5l-.2,.9c0,0-.2,0-.3,0-.4-.5-1.2-1.2-2.6-1.2s-2.9,1.7-2.9,4.3,1.1,4,3.2,4,2.1-.4,2.7-.8c.1,0,.1,.7,0,.8Z"/>
          <path class="uuid-28e15cba-fa8e-4f94-8ef6-ce09d129b7ed" d="M42,187.5h-1.5c0,0-.1,0,0-.1,.3-.3,.7-.9,1.2-2.2l3.1-7.1h1l2.7,7.1c.4,1,.8,1.8,1.1,2.2,0,0,0,.2,0,.2h-2.2c-.1,0-.2,0-.2-.2,0-.4-.2-1.2-.6-2.3l-.3-.8h-3.3l-.4,.9c-.5,1.1-.6,2-.5,2.2,0,0,0,.1-.1,.1Zm2.7-7.4l-1.5,3.6h2.8l-1.3-3.6Z"/>
          <path class="uuid-28e15cba-fa8e-4f94-8ef6-ce09d129b7ed" d="M61.2,186.7c-.6,.5-1.6,1-3.3,1-2.7,0-4.8-1.6-4.8-4.9s2.1-5,4.9-5,2.4,.3,2.9,.5c.3,.1,.3,.2,.2,.5l-.2,.9c0,0-.2,0-.3,0-.4-.5-1.2-1.2-2.6-1.2s-2.9,1.7-2.9,4.3,1.1,4,3.2,4,2.1-.4,2.7-.8c.1,0,.1,.7,0,.8Z"/>
          <path class="uuid-28e15cba-fa8e-4f94-8ef6-ce09d129b7ed" d="M67.4,182.3h4.6v-2.3c0-1,0-1.7-.3-1.9,0,0,0-.1,0-.1h2.2c.1,0,.1,0,0,.1-.2,.3-.3,1-.3,1.9v5.3c0,1,.1,1.7,.3,1.9,0,0,0,.1,0,.1h-2.2c-.1,0-.1,0,0-.1,.2-.2,.3-1,.3-1.9v-2.4h-4.6v2.4c0,1,0,1.7,.3,1.9,0,0,0,.1,0,.1h-2.2c-.1,0-.1,0,0-.1,.2-.2,.3-.9,.3-1.9v-5.3c0-1-.1-1.7-.3-1.9,0,0,0-.1,0-.1h2.2c.1,0,.1,0,0,.1-.2,.3-.3,1-.3,1.9v2.3Z"/>
          <path class="uuid-28e15cba-fa8e-4f94-8ef6-ce09d129b7ed" d="M81.4,185.4c0,1,.1,1.7,.3,1.9,0,0,0,.1,0,.1h-2.3c-.1,0-.1,0,0-.1,.2-.2,.3-.9,.3-1.9v-5.3c0-1-.1-1.7-.3-1.9,0,0,0-.1,0-.1h2.3c.1,0,.1,0,0,.1-.2,.3-.3,1-.3,1.9v5.3Z"/>
        </g>
        <g>
          <path class="uuid-28e15cba-fa8e-4f94-8ef6-ce09d129b7ed" d="M73.8,330.9c0-.5-.2-.8-.6-1-.4-.2-.8-.4-1.3-.5-.6-.2-1.2-.5-1.5-.8s-.6-.8-.6-1.4c0-1.3,1.1-2.1,2.8-2.1s1.7,.2,2.1,.3c.2,0,.2,.2,.2,.4v.7c-.1,0-.2,0-.3,0-.4-.5-1.1-.9-2-.9s-1.4,.5-1.4,1.2,.6,1.2,1.6,1.5c.7,.2,1.3,.5,1.7,.8s.7,.8,.7,1.5c0,1.6-1.3,2.3-3,2.3s-1.8-.1-2.1-.3c-.2-.1-.2-.2-.2-.4v-.8c0,0,.2,0,.2,0,.4,.5,1.2,1,2.1,1s1.7-.6,1.7-1.4Z"/>
          <path class="uuid-28e15cba-fa8e-4f94-8ef6-ce09d129b7ed" d="M83.4,325.2c.2,0,.2,0,.2,.2v.9s-.1,0-.2,0c-.3-.3-.9-.6-1.5-.6h-1.5v2.9h1.4c.5,0,1-.2,1.1-.2,0,0,0,0,0,0v.9s0,0,0,0c-.1,0-.5-.3-1.1-.3h-1.4v2.7c0,.3,0,.4,.3,.4h1.1c.9,0,1.6-.6,1.9-.8,0,0,.2,0,.2,0l-.3,1.1c0,.2-.2,.2-.2,.2h-4.6c0,0,0,0,0-.1,.1-.2,.2-.7,.2-1.5v-4.2c0-.8,0-1.3-.2-1.5,0,0,0,0,0,0h4.5Z"/>
          <path class="uuid-28e15cba-fa8e-4f94-8ef6-ce09d129b7ed" d="M93.5,332.1c-.5,.4-1.3,.8-2.6,.8-2.1,0-3.8-1.3-3.8-3.9s1.7-4,3.9-4,1.9,.2,2.3,.4c.2,.1,.2,.2,.2,.4v.7c-.2,0-.3,0-.4,0-.3-.4-.9-1-2.1-1s-2.3,1.3-2.3,3.4,.9,3.2,2.5,3.2,1.7-.3,2.2-.7c0,0,0,.5,0,.6Z"/>
          <path class="uuid-28e15cba-fa8e-4f94-8ef6-ce09d129b7ed" d="M96.8,332.6c0,0,0,0,0-.1,.1-.2,.2-.7,.2-1.5v-4.2c0-.8,0-1.3-.2-1.5,0,0,0,0,0,0h1.8c.1,0,.1,0,0,0-.1,.2-.2,.8-.2,1.5v5c0,.3,0,.4,.3,.4h.9c.9,0,1.6-.6,1.9-.9,0,0,.2,0,.2,0l-.3,1.2c0,.2-.2,.2-.2,.2h-4.5Z"/>
          <path class="uuid-28e15cba-fa8e-4f94-8ef6-ce09d129b7ed" d="M105.7,332.6h-1.2c0,0,0,0,0-.1,.2-.2,.5-.7,1-1.7l2.5-5.7h.8l2.2,5.6c.3,.8,.6,1.5,.9,1.8,0,0,0,.1,0,.1h-1.8c-.1,0-.1,0-.1-.1,0-.3-.2-1-.5-1.8l-.2-.7h-2.6l-.3,.7c-.4,.9-.5,1.6-.4,1.8,0,0,0,.1-.1,.1Zm2.2-5.9l-1.2,2.8h2.2l-1.1-2.8Z"/>
          <path class="uuid-28e15cba-fa8e-4f94-8ef6-ce09d129b7ed" d="M115.4,325.9c0,0-.1-.2-.3-.3s-.2-.3-.3-.3,0-.1,0-.1h1.6c.2,0,.2,0,.3,.1l4.2,5.2v-3.7c0-.8-.2-1.4-.3-1.5,0,0,0,0,0,0h1.1s0,0,0,0c-.1,.2-.3,.7-.3,1.5v5.9c-.1,0-.6,0-.6,0l-4.9-6v4.4c0,.8,.2,1.4,.3,1.5,0,0,0,.1,0,.1h-1.1s0,0,0-.1c.1-.2,.3-.7,.3-1.5v-5.1Z"/>
          <path class="uuid-28e15cba-fa8e-4f94-8ef6-ce09d129b7ed" d="M132.1,325.2c.1,0,.2,0,.2,.2v1s0,0-.1,0c-.4-.3-1-.7-1.5-.7h-1.2v5.4c0,.9,.1,1.3,.3,1.5,0,0,0,.1,0,.1h-1.9c-.1,0-.1,0,0-.1,.2-.2,.3-.6,.3-1.5v-5.4h-1.2c-.6,0-1.2,.4-1.5,.7,0,0-.1,0-.2,0v-1c0-.2,.1-.2,.3-.2h6.6Z"/>
          <path class="uuid-28e15cba-fa8e-4f94-8ef6-ce09d129b7ed" d="M135.6,332.6h-1.2c0,0,0,0,0-.1,.2-.2,.5-.7,1-1.7l2.5-5.7h.8l2.2,5.6c.3,.8,.6,1.5,.9,1.8,0,0,0,.1,0,.1h-1.8c-.1,0-.1,0-.1-.1,0-.3-.2-1-.5-1.8l-.2-.7h-2.6l-.3,.7c-.4,.9-.5,1.6-.4,1.8,0,0,0,.1-.1,.1Zm2.2-5.9l-1.2,2.8h2.2l-1.1-2.8Z"/>
          <path class="uuid-28e15cba-fa8e-4f94-8ef6-ce09d129b7ed" d="M148.8,330.9c0-.5-.2-.8-.6-1-.4-.2-.8-.4-1.3-.5-.6-.2-1.2-.5-1.5-.8s-.6-.8-.6-1.4c0-1.3,1.1-2.1,2.8-2.1s1.7,.2,2.1,.3c.2,0,.2,.2,.2,.4v.7c-.1,0-.2,0-.3,0-.4-.5-1.1-.9-2-.9s-1.4,.5-1.4,1.2,.6,1.2,1.6,1.5c.7,.2,1.3,.5,1.7,.8s.7,.8,.7,1.5c0,1.6-1.3,2.3-3,2.3s-1.8-.1-2.1-.3c-.2-.1-.2-.2-.2-.4v-.8c0,0,.2,0,.2,0,.4,.5,1.2,1,2.1,1s1.7-.6,1.7-1.4Z"/>
        </g>
        <g>
          <path class="uuid-28e15cba-fa8e-4f94-8ef6-ce09d129b7ed" d="M189.5,448.9l.3-9.8c0-.2-.2-.4-.4-.7-.2-.3-.3-.5-.5-.7,0,0,0-.2,0-.2h3c.3,0,.4,0,.5,.3l4.9,10.8,4.4-10.1c.5-1,.5-1,1.1-1h2.4c.1,0,.2,0,0,.2-.4,.5-.4,1.8-.4,3.3l.3,7.8c0,1.8,.2,2.6,.5,2.9,0,0,0,.2-.1,.2h-3.4c-.2,0-.2-.1-.1-.2,.3-.4,.5-1.2,.4-2.9l-.2-8.5-5.1,11.6c-.3,0-1,0-1.2,0l-5.2-11.4-.2,8.3c0,1.6,.2,2.6,.3,2.9,0,.1,0,.2,0,.2h-1.8c-.2,0-.1,0,0-.2,.2-.4,.5-1.4,.5-2.9Z"/>
          <path class="uuid-28e15cba-fa8e-4f94-8ef6-ce09d129b7ed" d="M212.8,444.8c0-4.6,3.1-7.5,7.7-7.5s7.7,3,7.7,7.5-3.1,7.6-7.7,7.6-7.7-2.9-7.7-7.6Zm12.1,0c0-3.6-1.3-6.5-4.5-6.5s-4.4,2.9-4.4,6.5,1.3,6.6,4.4,6.6,4.5-2.9,4.5-6.6Z"/>
          <path class="uuid-28e15cba-fa8e-4f94-8ef6-ce09d129b7ed" d="M235.3,452c-.2,0-.2-.1-.1-.2,.3-.4,.4-1.4,.4-2.9v-8.2c0-1.5-.2-2.6-.4-2.9,0,0,0-.2,.1-.2h3.4c.2,0,.2,.1,.1,.2-.3,.4-.4,1.5-.4,2.9v9.6c0,.7,0,.7,.6,.7h1.8c1.7,0,3.1-1.1,3.7-1.7,.2-.1,.4,0,.4,0l-.5,2.2c0,.4-.4,.4-.5,.4h-8.7Z"/>
          <path class="uuid-28e15cba-fa8e-4f94-8ef6-ce09d129b7ed" d="M254.7,448.9c0,1.5,.2,2.6,.5,2.9,0,0,0,.2-.1,.2h-3.5c-.2,0-.2-.1-.1-.2,.3-.4,.4-1.4,.4-2.9v-8.2c0-1.5-.2-2.6-.4-2.9,0,0,0-.2,.1-.2h3.5c.2,0,.2,.1,.1,.2-.3,.4-.5,1.5-.5,2.9v8.2Z"/>
          <path class="uuid-28e15cba-fa8e-4f94-8ef6-ce09d129b7ed" d="M263.6,439c0-.1-.3-.3-.6-.6-.3-.3-.5-.5-.5-.6s0-.2,0-.2h3.1c.3,0,.4,0,.6,.3l8.1,10v-7.1c0-1.6-.3-2.6-.5-3,0,0,0-.2,0-.2h2.1c0,0,.1,0,0,.2-.2,.4-.5,1.3-.5,3v11.3c-.2,0-1.1,0-1.2,0l-9.4-11.6v8.5c0,1.6,.3,2.6,.5,2.9,0,0,0,.2,0,.2h-2.1c0,0-.1,0,0-.2,.2-.4,.5-1.3,.5-2.9v-9.9Z"/>
          <path class="uuid-28e15cba-fa8e-4f94-8ef6-ce09d129b7ed" d="M282.7,444.8c0-4.6,3.1-7.5,7.7-7.5s7.7,3,7.7,7.5-3.1,7.6-7.7,7.6-7.7-2.9-7.7-7.6Zm12.1,0c0-3.6-1.3-6.5-4.5-6.5s-4.4,2.9-4.4,6.5,1.3,6.6,4.4,6.6,4.5-2.9,4.5-6.6Z"/>
          <path class="uuid-28e15cba-fa8e-4f94-8ef6-ce09d129b7ed" d="M312.4,448.6c0-.9-.4-1.5-1.1-1.9-.7-.4-1.5-.7-2.5-1-1.2-.4-2.2-1-3-1.6-.8-.7-1.1-1.6-1.1-2.8,0-2.6,2.1-4.1,5.3-4.1s3.2,.3,4,.6c.4,.2,.4,.3,.4,.8l-.2,1.3c0,.1-.3,0-.4,0-.8-1-2.2-1.7-3.8-1.7s-2.8,.9-2.8,2.3,1.2,2.2,3,2.8c1.4,.5,2.5,1,3.4,1.6,.8,.6,1.3,1.5,1.3,2.8,0,3.1-2.5,4.5-5.9,4.5s-3.4-.3-4.1-.6c-.4-.2-.4-.3-.4-.8v-1.5c.1-.1,.4,0,.5,0,.7,1,2.2,1.9,4.1,1.9s3.3-1.1,3.3-2.7Z"/>
        </g>
        <g>
          <g>
            <path class="uuid-28e15cba-fa8e-4f94-8ef6-ce09d129b7ed" d="M219.6,334.4h-1.2c0,0,0,0,0,0,0-.1,.1-.5,.1-1v-2.7c0-.5,0-.9-.1-1,0,0,0,0,0,0h1.9c.8,0,1.8,.2,1.8,1.4s-.9,1.5-2,1.5-.4,0-.6,0v.9c0,.5,0,.9,.1,1,0,0,0,0,0,0Zm0-4.5v2.2c.1,0,.3,0,.4,0,.8,0,1.2-.3,1.2-1.2s-.5-1.1-1-1.1h-.7Z"/>
            <path class="uuid-28e15cba-fa8e-4f94-8ef6-ce09d129b7ed" d="M224.2,334.4h-.8s0,0,0,0c.1-.1,.4-.5,.6-1.1l1.6-3.7h.5l1.4,3.6c.2,.5,.4,.9,.6,1.2,0,0,0,0,0,0h-1.1c0,0,0,0,0,0,0-.2-.1-.6-.3-1.2l-.2-.4h-1.7l-.2,.5c-.2,.6-.3,1-.2,1.1,0,0,0,0,0,0Zm1.4-3.8l-.8,1.8h1.4l-.7-1.8Z"/>
            <path class="uuid-28e15cba-fa8e-4f94-8ef6-ce09d129b7ed" d="M234.5,334.5c-.3,0-.5,0-.8-.2-.4-.2-.7-.6-1-.9-.2-.3-.4-.6-.6-.9-.2,0-.5,0-.7,0v1c0,.5,0,.9,.1,1,0,0,0,0,0,0h-1.1c0,0,0,0,0,0,0-.1,.1-.5,.1-1v-2.7c0-.5,0-.9-.1-1,0,0,0,0,0,0h1.9c.8,0,1.8,.2,1.8,1.3s-.7,1.1-1,1.3c.2,.3,.4,.6,.7,1,.5,.7,.9,1,1.2,1.2,0,0,0,0,0,0,0,0-.2,0-.3,0Zm-3.1-4.6v2.2c.1,0,.4,0,.6,0,.3,0,.5,0,.7-.2,.2-.2,.3-.5,.3-.9,0-.9-.5-1-.9-1h-.6Z"/>
            <path class="uuid-28e15cba-fa8e-4f94-8ef6-ce09d129b7ed" d="M240.7,335.6c-.6,0-1.1-.1-1.7-.5-.3-.2-.5-.4-.8-.6-.6-.1-1.1-.4-1.4-.8-.4-.4-.5-1-.5-1.7,0-1.5,1.1-2.5,2.6-2.5s2.6,1,2.6,2.5-.2,1.2-.5,1.6c-.4,.4-.8,.7-1.4,.8,.5,.3,1.1,.8,1.8,1,0,0,0,0,0,0,0,0-.4,.1-.7,.1Zm-.4-3.6c0-1.2-.4-2.2-1.5-2.2s-1.5,1-1.5,2.2,.4,2.2,1.5,2.2,1.5-1,1.5-2.2Z"/>
            <path class="uuid-28e15cba-fa8e-4f94-8ef6-ce09d129b7ed" d="M247.4,330.6c0-.5-.1-.9-.2-1,0,0,0,0,0,0h.7s0,0,0,0c0,.1-.2,.5-.2,1v2.2c0,1-.5,1.7-1.9,1.7s-2-.9-2-1.7v-2.2c0-.5,0-.9-.2-1,0,0,0,0,0,0h1.1c0,0,0,0,0,0,0,.1-.1,.5-.1,1v2.2c0,.7,.3,1.2,1.2,1.2s1.3-.4,1.3-1.3v-2.1Z"/>
            <path class="uuid-28e15cba-fa8e-4f94-8ef6-ce09d129b7ed" d="M253.5,329.6c.1,0,.2,0,.2,.1v.6s0,0-.1,0c-.2-.2-.6-.4-1-.4h-.9v1.9h.9c.3,0,.6-.2,.7-.2,0,0,0,0,0,0v.6s0,0,0,0c0,0-.4-.2-.7-.2h-.9v1.7c0,.2,0,.2,.2,.2h.7c.6,0,1-.4,1.2-.5,0,0,.1,0,.1,0l-.2,.7c0,.1-.1,.1-.2,.1h-3c0,0,0,0,0,0,0-.1,.1-.5,.1-1v-2.7c0-.5,0-.9-.1-1,0,0,0,0,0,0h2.9Z"/>
            <path class="uuid-28e15cba-fa8e-4f94-8ef6-ce09d129b7ed" d="M259.5,330s0-.1-.2-.2-.2-.2-.2-.2c0,0,0,0,0,0h1c0,0,.1,0,.2,0l2.7,3.3v-2.4c0-.5-.1-.9-.2-1,0,0,0,0,0,0h.7s0,0,0,0c0,.1-.2,.5-.2,1v3.8c0,0-.4,0-.4,0l-3.2-3.9v2.8c0,.5,0,.9,.2,1,0,0,0,0,0,0h-.7s0,0,0,0c0-.1,.2-.4,.2-1v-3.3Z"/>
            <path class="uuid-28e15cba-fa8e-4f94-8ef6-ce09d129b7ed" d="M266.3,334.4h-.8s0,0,0,0c.1-.1,.4-.5,.6-1.1l1.6-3.7h.5l1.4,3.6c.2,.5,.4,.9,.6,1.2,0,0,0,0,0,0h-1.1c0,0,0,0,0,0,0-.2-.1-.6-.3-1.2l-.2-.4h-1.7l-.2,.5c-.2,.6-.3,1-.2,1.1,0,0,0,0,0,0Zm1.4-3.8l-.8,1.8h1.4l-.7-1.8Z"/>
            <path class="uuid-28e15cba-fa8e-4f94-8ef6-ce09d129b7ed" d="M276.2,334c-.3,.3-.8,.5-1.7,.5-1.4,0-2.4-.8-2.4-2.5s1.1-2.6,2.5-2.6,1.3,.1,1.5,.3c.1,0,.2,0,.1,.3v.5c-.1,0-.2,0-.2,0-.2-.3-.6-.6-1.3-.6s-1.5,.9-1.5,2.2,.6,2.1,1.6,2.1,1.1-.2,1.4-.4c0,0,0,.3,0,.4Z"/>
            <path class="uuid-28e15cba-fa8e-4f94-8ef6-ce09d129b7ed" d="M279.4,333.4c0,.5,0,.9,.2,1,0,0,0,0,0,0h-1.2c0,0,0,0,0,0,0-.1,.1-.5,.1-1v-2.7c0-.5,0-.9-.1-1,0,0,0,0,0,0h1.2c0,0,0,0,0,0,0,.1-.2,.5-.2,1v2.7Z"/>
            <path class="uuid-28e15cba-fa8e-4f94-8ef6-ce09d129b7ed" d="M281.9,332c0-1.5,1.1-2.5,2.6-2.5s2.6,1,2.6,2.5-1.1,2.5-2.6,2.5-2.6-1-2.6-2.5Zm4.1,0c0-1.2-.4-2.2-1.5-2.2s-1.5,1-1.5,2.2,.4,2.2,1.5,2.2,1.5-1,1.5-2.2Z"/>
            <path class="uuid-28e15cba-fa8e-4f94-8ef6-ce09d129b7ed" d="M289.6,330s0-.1-.2-.2-.2-.2-.2-.2c0,0,0,0,0,0h1c0,0,.1,0,.2,0l2.7,3.3v-2.4c0-.5-.1-.9-.2-1,0,0,0,0,0,0h.7s0,0,0,0c0,.1-.2,.5-.2,1v3.8c0,0-.4,0-.4,0l-3.2-3.9v2.8c0,.5,0,.9,.2,1,0,0,0,0,0,0h-.7s0,0,0,0c0-.1,.2-.4,.2-1v-3.3Z"/>
            <path class="uuid-28e15cba-fa8e-4f94-8ef6-ce09d129b7ed" d="M296.5,334.4h-.8s0,0,0,0c.1-.1,.4-.5,.6-1.1l1.6-3.7h.5l1.4,3.6c.2,.5,.4,.9,.6,1.2,0,0,0,0,0,0h-1.1c0,0,0,0,0,0,0-.2-.1-.6-.3-1.2l-.2-.4h-1.7l-.2,.5c-.2,.6-.3,1-.2,1.1,0,0,0,0,0,0Zm1.4-3.8l-.8,1.8h1.4l-.7-1.8Z"/>
            <path class="uuid-28e15cba-fa8e-4f94-8ef6-ce09d129b7ed" d="M302.6,334.4c0,0,0,0,0,0,0-.1,.1-.5,.1-1v-2.7c0-.5,0-.9-.1-1,0,0,0,0,0,0h1.2c0,0,0,0,0,0,0,.1-.1,.5-.1,1v3.2c0,.2,0,.2,.2,.2h.6c.6,0,1.1-.4,1.2-.6,0,0,.1,0,.1,0l-.2,.7c0,.1-.1,.1-.2,.1h-2.9Z"/>
            <path class="uuid-28e15cba-fa8e-4f94-8ef6-ce09d129b7ed" d="M226.9,343.6c0,0,0,0,0,0,0-.1,.1-.5,.1-1v-2.7c0-.5,0-.9-.1-1,0,0,0,0,0,0h1.2c0,0,0,0,0,0,0,.1-.1,.5-.1,1v3.2c0,.2,0,.2,.2,.2h.6c.6,0,1.1-.4,1.2-.6,0,0,.1,0,.1,0l-.2,.7c0,.1-.1,.1-.2,.1h-2.9Z"/>
            <path class="uuid-28e15cba-fa8e-4f94-8ef6-ce09d129b7ed" d="M231.9,341.1c0-1.5,1.1-2.5,2.6-2.5s2.6,1,2.6,2.5-1.1,2.5-2.6,2.5-2.6-1-2.6-2.5Zm4.1,0c0-1.2-.4-2.2-1.5-2.2s-1.5,1-1.5,2.2,.4,2.2,1.5,2.2,1.5-1,1.5-2.2Z"/>
            <path class="uuid-28e15cba-fa8e-4f94-8ef6-ce09d129b7ed" d="M241.8,342.4c0-.3-.1-.5-.4-.6-.2-.1-.5-.2-.8-.4-.4-.1-.7-.3-1-.5-.3-.2-.4-.5-.4-.9,0-.9,.7-1.4,1.8-1.4s1.1,.1,1.3,.2c.1,0,.1,0,.1,.3v.4c0,0-.2,0-.2,0-.3-.3-.7-.6-1.3-.6s-.9,.3-.9,.8,.4,.7,1,1c.5,.2,.8,.3,1.1,.5s.4,.5,.4,.9c0,1-.8,1.5-2,1.5s-1.1,0-1.4-.2c-.1,0-.1,0-.1-.3v-.5s.1,0,.2,0c.2,.3,.7,.6,1.4,.6s1.1-.4,1.1-.9Z"/>
            <path class="uuid-28e15cba-fa8e-4f94-8ef6-ce09d129b7ed" d="M252,343.2c-.3,.3-.8,.5-1.7,.5-1.4,0-2.4-.8-2.4-2.5s1.1-2.6,2.5-2.6,1.3,.1,1.5,.3c.1,0,.2,0,.1,.3v.5c-.1,0-.2,0-.2,0-.2-.3-.6-.6-1.3-.6s-1.5,.9-1.5,2.2,.6,2.1,1.6,2.1,1.1-.2,1.4-.4c0,0,0,.3,0,.4Z"/>
            <path class="uuid-28e15cba-fa8e-4f94-8ef6-ce09d129b7ed" d="M254.5,343.6h-.8s0,0,0,0c.1-.1,.4-.5,.6-1.1l1.6-3.7h.5l1.4,3.6c.2,.5,.4,.9,.6,1.2,0,0,0,0,0,0h-1.1c0,0,0,0,0,0,0-.2-.1-.6-.3-1.2l-.2-.4h-1.7l-.2,.5c-.2,.6-.3,1-.2,1.1,0,0,0,0,0,0Zm1.4-3.8l-.8,1.8h1.4l-.7-1.8Z"/>
            <path class="uuid-28e15cba-fa8e-4f94-8ef6-ce09d129b7ed" d="M264.8,343.6c-.3,0-.5,0-.8-.2-.4-.2-.7-.6-1-.9-.2-.3-.4-.6-.6-.9-.2,0-.5,0-.7,0v1c0,.5,0,.9,.1,1,0,0,0,0,0,0h-1.1c0,0,0,0,0,0,0-.1,.1-.5,.1-1v-2.7c0-.5,0-.9-.1-1,0,0,0,0,0,0h1.9c.8,0,1.8,.2,1.8,1.3s-.7,1.1-1,1.3c.2,.3,.4,.6,.7,1,.5,.7,.9,1,1.2,1.2,0,0,0,0,0,0,0,0-.2,0-.3,0Zm-3.1-4.6v2.2c.1,0,.4,0,.6,0,.3,0,.5,0,.7-.2,.2-.2,.3-.5,.3-.9,0-.9-.5-1-.9-1h-.6Z"/>
            <path class="uuid-28e15cba-fa8e-4f94-8ef6-ce09d129b7ed" d="M267.1,343.6c0,0,0,0,0,0,0-.1,.1-.5,.1-1v-2.7c0-.5,0-.9-.1-1,0,0,0,0,0,0h2.1c1.7,0,2.5,1,2.5,2.3s-.8,2.5-2.5,2.5h-2.1Zm1.1-.5c0,.1,0,.2,.2,.2h.7c1.1,0,1.6-1,1.6-2.2s-.4-2-1.6-2h-.9v4Z"/>
            <path class="uuid-28e15cba-fa8e-4f94-8ef6-ce09d129b7ed" d="M273.8,341.1c0-1.5,1.1-2.5,2.6-2.5s2.6,1,2.6,2.5-1.1,2.5-2.6,2.5-2.6-1-2.6-2.5Zm4.1,0c0-1.2-.4-2.2-1.5-2.2s-1.5,1-1.5,2.2,.4,2.2,1.5,2.2,1.5-1,1.5-2.2Z"/>
            <path class="uuid-28e15cba-fa8e-4f94-8ef6-ce09d129b7ed" d="M281.5,339.2s0-.1-.2-.2c0,0-.2-.2-.2-.2,0,0,0,0,0,0h1c0,0,.1,0,.2,0l2.7,3.3v-2.4c0-.5-.1-.9-.2-1,0,0,0,0,0,0h.7s0,0,0,0c0,.1-.2,.5-.2,1v3.8c0,0-.4,0-.4,0l-3.2-3.9v2.8c0,.5,0,.9,.2,1,0,0,0,0,0,0h-.7s0,0,0,0c0-.1,.2-.4,.2-1v-3.3Z"/>
            <path class="uuid-28e15cba-fa8e-4f94-8ef6-ce09d129b7ed" d="M291.2,338.7c.1,0,.2,0,.2,.1v.6s0,0-.1,0c-.2-.2-.6-.4-1-.4h-.9v1.9h.9c.3,0,.6-.2,.7-.2,0,0,0,0,0,0v.6s0,0,0,0c0,0-.4-.2-.7-.2h-.9v1.7c0,.2,0,.2,.2,.2h.7c.6,0,1-.4,1.2-.5,0,0,.1,0,.1,0l-.2,.7c0,.1-.1,.1-.2,.1h-3c0,0,0,0,0,0,0-.1,.1-.5,.1-1v-2.7c0-.5,0-.9-.1-1,0,0,0,0,0,0h2.9Z"/>
            <path class="uuid-28e15cba-fa8e-4f94-8ef6-ce09d129b7ed" d="M296.3,342.4c0-.3-.1-.5-.4-.6-.2-.1-.5-.2-.8-.4-.4-.1-.7-.3-1-.5-.3-.2-.4-.5-.4-.9,0-.9,.7-1.4,1.8-1.4s1.1,.1,1.3,.2c.1,0,.1,0,.1,.3v.4c0,0-.2,0-.2,0-.3-.3-.7-.6-1.3-.6s-.9,.3-.9,.8,.4,.7,1,1c.5,.2,.8,.3,1.1,.5s.4,.5,.4,.9c0,1-.8,1.5-2,1.5s-1.1,0-1.4-.2c-.1,0-.1,0-.1-.3v-.5s.1,0,.2,0c.2,.3,.7,.6,1.4,.6s1.1-.4,1.1-.9Z"/>
          </g>
          <g>
            <path class="uuid-28e15cba-fa8e-4f94-8ef6-ce09d129b7ed" d="M269.4,319v-3.1c0,0,.1,0,.2,0,.8-.1,1.5-.9,1.6-1.8s0-1.5,0-2.3c0-.3-.3-.5-.6-.4-.2,0-.3,.2-.3,.5,0,.7,0,1.4,0,2.1,0,.5-.4,.9-.9,.9v-.3c0-.8,0-1.6,0-2.4,0-1.2-1.2-2.1-2.3-1.7-.8,.2-1.3,.9-1.3,1.8,0,1.4,0,2.7,0,4.1,0,.1,0,.2,0,.3-.5,0-.9-.4-.9-.9,0-.7,0-1.4,0-2.1,0-.4-.2-.6-.5-.5-.3,0-.4,.2-.4,.5,0,.7,0,1.4,0,2.1,0,.8,.5,1.5,1.2,1.7,.2,0,.3,0,.5,.1v1.1c-1-.5-2-.9-2.9-1.3-.3-.1-.5-.4-.7-.6-.4-.3-.7-.7-1.1-1s-.2-.2-.1-.3c0-.8,0-1.7,0-2.5,0,0,0-.2,0-.3,.6,0,1.2,0,1.7,0,1.2,0,2.2-1,2.3-2.3,0-2.1,0-4.3,0-6.4,0,0,0-.1,0-.2,0-.8-.8-1.4-1.5-1.4-.9,0-1.6,.7-1.6,1.6,0,1.7,0,3.5,0,5.2v.3h-.9v-.3c0-2.9,0-5.8,0-8.7,0-1-.4-1.8-1.1-2.4-.1-.1-.3-.2-.5-.3,.2-.3,.4-.6,.6-.9,.2-.3,.1-.5,0-.7-.2-.1-.5,0-.6,.2-.2,.3-.4,.6-.6,.9,0,0-.1,.1-.2,.2,0,0,0-.2,0-.2,0-.3,0-.6,0-.9,0-.3,0-.5-.3-.6h-.3c-.2,.1-.3,.4-.3,.6,0,.2,0,.5,0,.7-.2-.2-.3-.4-.5-.6,0,0-.2-.2-.3-.2-.2,0-.3,0-.5,.1-.2,.1-.1,.3,0,.5,.2,.3,.4,.6,.6,.9,0,0,0,0,0,0-1,.6-1.5,1.8-1.5,3s0,2.9,0,4.4v.3h-.9v-.3c0-1.7,0-3.5,0-5.2,0-.9-.7-1.6-1.6-1.6-1.2,0-1.5,.9-1.4,2.5,0,1.2,0,3.1,0,4.6s.3,3.1,1.9,3.2c.5,0,.9,0,1.4,0,.2,0,.4,0,.6,0v6.4c-.7,.2-1.3,.3-2,.5-.7,.2-1.3,.4-2,.6v-1.2c.1,0,.2,0,.3,0,.8-.1,1.4-.9,1.4-1.7s0-1.5,0-2.3c0-.3-.2-.4-.4-.4-.3,0-.4,.2-.5,.4,0,0,0,.1,0,.2,0,.7,0,1.3,0,2,0,.5-.4,.9-.9,.9v-.3c0-1.4,0-2.7,0-4.1,0-.2,0-.4,0-.6-.3-.8-1.1-1.3-1.9-1.2-.9,.1-1.5,.8-1.5,1.7,0,.9,0,1.7,0,2.6h-.2c-.5,0-.7-.3-.7-.7,0-.7,0-1.4,0-2.2,0-.3-.2-.5-.4-.5-.3,0-.4,.2-.4,.5,0,.8,0,1.5,0,2.3s.7,1.5,1.4,1.6,.2,0,.3,0c0,.1,0,.2,0,.3,0,1.6,0,1.1,0,3.3s0,1.1-.2,1.3c-.8,.5-1.4,1.2-1.7,2.1,0,0,.2,.4,.3,.4,.3,0,.6-.1,.7-.4,.3-.6,.7-1.1,1.4-1.5,1.4-.7,2.7-1.4,4.1-1.9,1.2-.4,2.4-.7,3.6-.9,1.1-.1,2.2,0,3.4,0,.9,0,1.7,.6,2.3,1.3,.4,.5,.9,.9,1.4,1.1,.9,.4,1.8,.8,2.8,1.2,.2,0,.2,.1,.3,.3,0,.5,.4,.8,.9,.8s1.2,0,1.8,0c.5,0,.8-.3,.9-.8m-19.4-3.2c-.5,.2-1,.5-1.6,.7v-.2c0-2.5,0-5,0-7.5,0-.7,.5-1.1,1.1-.9,.4,0,.7,.4,.7,.9,0,.8,0,1.5,0,2.3,0,1.5,0,3,0,4.5,0,.2,0,.3-.2,.3Zm10-4.3c0,.9,0,1.7,0,2.6v.3c-1.3-.5-2.7-.2-4-.3v-.3c0-2,0-4.1,0-6.1,0-.6-.1-.7-.7-.7-.6,0-1.3,0-1.9,0-.9,0-1.4-.6-1.4-1.4,0-2.1,0-4.1,0-6.2,0-.2,0-.4,.2-.6,.1-.2,.4-.3,.6-.2,.2,0,.4,.2,.5,.5,0,.1,0,.3,0,.4,0,1.9,0,3.7,0,5.6,0,.5,.1,.6,.6,.6,.5,0,1,0,1.5,0,.4,0,.6-.2,.6-.6,0-1.8,0-3.6,0-5.4,0-1.1,.7-1.9,1.7-2,1.1-.2,2.1,.6,2.2,1.7,0,.2,0,.4,0,.5,0,.3,0,.5,0,.8,0,.1,0,.2,0,.3,0,2.7,0,5.4,0,8,0,.6,.1,.7,.7,.7,.5,0,.9,0,1.4,0,.5,0,.6-.1,.6-.6,0-1.9,0-3.8,0-5.7,0-.5,.2-.9,.7-.9,.4,0,.7,.3,.7,.9,0,2.1,0,4.1,0,6.2,0,.9-.5,1.4-1.5,1.4-.7,0-1.3,0-2,0-.4,0-.6,.2-.6,.6Zm8.5,7.5h-1.8c0,0,0-.2,0-.2,0-2.4,0-4.8,0-7.3,0-.4,.2-.7,.6-.9,.5-.2,1.1,0,1.2,.6,0,.1,0,.3,0,.4,0,2.4,0,4.7,0,7.1v.3Z"/>
            <path class="uuid-28e15cba-fa8e-4f94-8ef6-ce09d129b7ed" d="M259.1,306c0,.2,0,.3,0,.5,0,.2-.2,.4-.4,.4-.2,0-.4-.1-.4-.4,0-.3,0-.7,0-1,0-.2,.2-.4,.4-.4,.2,0,.4,.2,.4,.4,0,.2,0,.3,0,.5h0Z"/>
            <path class="uuid-28e15cba-fa8e-4f94-8ef6-ce09d129b7ed" d="M259.1,309.6c0,.2,0,.3,0,.5,0,.2-.2,.4-.4,.4-.2,0-.4-.1-.4-.4,0-.3,0-.7,0-1,0-.2,.2-.4,.4-.4,.2,0,.4,.1,.4,.4,0,.2,0,.3,0,.5Z"/>
            <path class="uuid-28e15cba-fa8e-4f94-8ef6-ce09d129b7ed" d="M257.7,304.2c0,.2,0,.3,0,.5,0,.3-.2,.4-.5,.4-.2,0-.4-.2-.4-.4,0-.3,0-.6,0-.9,0-.3,.2-.5,.4-.5,.2,0,.4,.2,.4,.4,0,.1,0,.3,0,.4Z"/>
            <path class="uuid-28e15cba-fa8e-4f94-8ef6-ce09d129b7ed" d="M256.8,307.8c0-.2,0-.3,0-.5,0-.2,.2-.4,.4-.4,.2,0,.4,.2,.4,.4,0,.3,0,.6,0,1,0,.3-.2,.4-.5,.4-.2,0-.4-.2-.4-.4,0-.1,0-.3,0-.4Z"/>
            <path class="uuid-28e15cba-fa8e-4f94-8ef6-ce09d129b7ed" d="M256.8,311.4c0-.1,0-.3,0-.4,0-.2,.2-.4,.4-.4,.2,0,.5,.1,.5,.4,0,.3,0,.7,0,1,0,.2-.2,.4-.4,.4-.2,0-.4-.2-.4-.4,0-.2,0-.3,0-.5Z"/>
          </g>
        </g>
        <g>
          <path class="uuid-28e15cba-fa8e-4f94-8ef6-ce09d129b7ed" d="M140.7,232.5c-.3,0-.5,0-.8-.2-.4-.2-.7-.6-1-.9-.2-.3-.4-.6-.6-.9-.2,0-.5,0-.7,0v1c0,.5,0,.9,.1,1,0,0,0,0,0,0h-1.1c0,0,0,0,0,0,0-.1,.1-.5,.1-1v-2.7c0-.5,0-.9-.1-1,0,0,0,0,0,0h1.9c.8,0,1.8,.2,1.8,1.3s-.7,1.1-1,1.3c.2,.3,.4,.6,.7,1,.5,.7,.9,1,1.2,1.2,0,0,0,0,0,0,0,0-.2,0-.3,0Zm-3.1-4.6v2.2c.1,0,.4,0,.6,0,.3,0,.5,0,.7-.2,.2-.2,.3-.5,.3-.9,0-.9-.5-1-.9-1h-.6Z"/>
          <path class="uuid-28e15cba-fa8e-4f94-8ef6-ce09d129b7ed" d="M146,227.6c.1,0,.2,0,.2,.1v.6s0,0-.1,0c-.2-.2-.6-.4-1-.4h-.9v1.9h.9c.3,0,.6-.2,.7-.2,0,0,0,0,0,0v.6s0,0,0,0c0,0-.4-.2-.7-.2h-.9v1.7c0,.2,0,.2,.2,.2h.7c.6,0,1-.4,1.2-.5,0,0,.1,0,.1,0l-.2,.7c0,.1-.1,.1-.2,.1h-3c0,0,0,0,0,0,0-.1,.1-.5,.1-1v-2.7c0-.5,0-.9-.1-1,0,0,0,0,0,0h2.9Z"/>
          <path class="uuid-28e15cba-fa8e-4f94-8ef6-ce09d129b7ed" d="M152.5,232.1c-.3,.3-.8,.5-1.7,.5-1.4,0-2.4-.8-2.4-2.5s1.1-2.6,2.5-2.6,1.3,.1,1.5,.3c.1,0,.2,0,.1,.3v.5c-.1,0-.2,0-.2,0-.2-.3-.6-.6-1.3-.6s-1.5,.9-1.5,2.2,.6,2.1,1.6,2.1,1.1-.2,1.4-.4c0,0,0,.3,0,.4Z"/>
          <path class="uuid-28e15cba-fa8e-4f94-8ef6-ce09d129b7ed" d="M158.8,227.6c0,0,.2,0,.2,.1v.6s0,0,0,0c-.2-.2-.6-.5-1-.5h-.7v3.5c0,.6,0,.9,.2,1,0,0,0,0,0,0h-1.2c0,0,0,0,0,0,0-.1,.2-.4,.2-1v-3.5h-.8c-.4,0-.8,.3-1,.5,0,0,0,0,0,0v-.6c0-.1,0-.1,.2-.1h4.3Z"/>
          <path class="uuid-28e15cba-fa8e-4f94-8ef6-ce09d129b7ed" d="M161.1,232.5h-.8s0,0,0,0c.1-.1,.4-.5,.6-1.1l1.6-3.7h.5l1.4,3.6c.2,.5,.4,.9,.6,1.2,0,0,0,0,0,0h-1.1c0,0,0,0,0,0,0-.2-.1-.6-.3-1.2l-.2-.4h-1.7l-.2,.5c-.2,.6-.3,1-.2,1.1,0,0,0,0,0,0Zm1.4-3.8l-.8,1.8h1.4l-.7-1.8Z"/>
          <path class="uuid-28e15cba-fa8e-4f94-8ef6-ce09d129b7ed" d="M137.2,236.8c0,0,.2,0,.2,.1v.6s0,0,0,0c-.2-.2-.6-.5-1-.5h-.7v3.5c0,.6,0,.9,.2,1,0,0,0,0,0,0h-1.2c0,0,0,0,0,0,0-.1,.2-.4,.2-1v-3.5h-.8c-.4,0-.8,.3-1,.5,0,0,0,0,0,0v-.6c0-.1,0-.1,.2-.1h4.3Z"/>
          <path class="uuid-28e15cba-fa8e-4f94-8ef6-ce09d129b7ed" d="M140.6,240.6c0,.5,0,.9,.2,1,0,0,0,0,0,0h-1.2c0,0,0,0,0,0,0-.1,.1-.5,.1-1v-2.7c0-.5,0-.9-.1-1,0,0,0,0,0,0h1.2c0,0,0,0,0,0,0,.1-.2,.5-.2,1v2.7Z"/>
          <path class="uuid-28e15cba-fa8e-4f94-8ef6-ce09d129b7ed" d="M143.6,237.2s0-.1-.2-.2-.2-.2-.2-.2c0,0,0,0,0,0h1c0,0,.1,0,.2,0l2.7,3.3v-2.4c0-.5-.1-.9-.2-1,0,0,0,0,0,0h.7s0,0,0,0c0,.1-.2,.5-.2,1v3.8c0,0-.4,0-.4,0l-3.2-3.9v2.8c0,.5,0,.9,.2,1,0,0,0,0,0,0h-.7s0,0,0,0c0-.1,.2-.4,.2-1v-3.3Z"/>
          <path class="uuid-28e15cba-fa8e-4f94-8ef6-ce09d129b7ed" d="M157.5,236.8c0,0,.2,0,.2,.1v.6s0,0,0,0c-.2-.2-.6-.5-1-.5h-.7v3.5c0,.6,0,.9,.2,1,0,0,0,0,0,0h-1.2c0,0,0,0,0,0,0-.1,.2-.4,.2-1v-3.5h-.8c-.4,0-.8,.3-1,.5,0,0,0,0,0,0v-.6c0-.1,0-.1,.2-.1h4.3Z"/>
          <path class="uuid-28e15cba-fa8e-4f94-8ef6-ce09d129b7ed" d="M160.9,240.6c0,.5,0,.9,.2,1,0,0,0,0,0,0h-1.2c0,0,0,0,0,0,0-.1,.1-.5,.1-1v-2.7c0-.5,0-.9-.1-1,0,0,0,0,0,0h1.2c0,0,0,0,0,0,0,.1-.2,.5-.2,1v2.7Z"/>
          <path class="uuid-28e15cba-fa8e-4f94-8ef6-ce09d129b7ed" d="M163.9,237.2s0-.1-.2-.2c0,0-.2-.2-.2-.2,0,0,0,0,0,0h1c0,0,.1,0,.2,0l2.7,3.3v-2.4c0-.5-.1-.9-.2-1,0,0,0,0,0,0h.7s0,0,0,0c0,.1-.2,.5-.2,1v3.8c0,0-.4,0-.4,0l-3.2-3.9v2.8c0,.5,0,.9,.2,1,0,0,0,0,0,0h-.7s0,0,0,0c0-.1,.2-.4,.2-1v-3.3Z"/>
        </g>
        <path class="uuid-28e15cba-fa8e-4f94-8ef6-ce09d129b7ed" d="M230,225.7c0-.2,0-.4,0-.6,0-3.4,0-6.9,0-10.3,0-.8,.2-1,1-1,.8,0,1.5,0,2.3,0,0-.7,0-1.4,0-2.1,0-.3,0-.6,0-.9,0-.5,.2-.8,.8-.8,.7,0,1.3,0,2,0v-1.9c-.3,0-.5,0-.8,0-.4,0-.7-.3-.7-.7,0-.4,.3-.6,.7-.7,.2,0,.5,0,.8,0,0-.3,0-.5,0-.8,0-.4,.3-.7,.7-.7,.4,0,.7,.3,.7,.7,0,.2,0,.5,0,.8,.3,0,.5,0,.8,0,.4,0,.7,.3,.7,.7,0,.4-.3,.7-.7,.7-.2,0-.5,0-.8,0v1.8c.6,0,1.2,0,1.8,0,.8,0,1,.2,1,1,0,.9,0,1.8,0,2.8,.6,0,1.2,0,1.8,0,.3,0,.5,0,.8,0,.4,0,.7,.3,.7,.7,0,.1,0,.3,0,.4,0,3.4,0,6.8,0,10.2v.6c.6,0,1.1,0,1.6,0,.5,0,.8,.2,.8,.7,0,.4-.3,.7-.8,.7-5.6,0-11.3,0-16.9,0-.5,0-.8-.3-.8-.7,0-.4,.3-.7,.8-.7,.5,0,1,0,1.6,0Zm1.4-10.5v10.5h1.9c0-1.4,0-2.8,0-4.1,0-1.9,1.5-3.3,3.3-3.4,1.8,0,3.3,1.5,3.3,3.4,0,1.2,0,2.5,0,3.7,0,.2,0,.3,0,.5h2.4v-10.5h-10.9Zm7.1,10.5c0-1.4,0-2.8,0-4.1,0-1.2-.9-2-2-2-1.1,0-1.9,.9-1.9,2,0,1.3,0,2.5,0,3.8,0,.1,0,.2,0,.3h3.9Zm.4-14.3h-4.2v2.4h4.2v-2.4Z"/>
        <g>
          <path class="uuid-28e15cba-fa8e-4f94-8ef6-ce09d129b7ed" d="M210.4,236.2h-1.2c0,0,0,0,0,0,0-.1,.1-.5,.1-1v-2.7c0-.5,0-.9-.1-1,0,0,0,0,0,0h1.9c.8,0,1.8,.2,1.8,1.4s-.9,1.5-2,1.5-.4,0-.6,0v.9c0,.5,0,.9,.1,1,0,0,0,0,0,0Zm0-4.5v2.2c.1,0,.3,0,.4,0,.8,0,1.2-.3,1.2-1.2s-.5-1.1-1-1.1h-.7Z"/>
          <path class="uuid-28e15cba-fa8e-4f94-8ef6-ce09d129b7ed" d="M216.4,235.2c0,.5,0,.9,.2,1,0,0,0,0,0,0h-1.2c0,0,0,0,0,0,0-.1,.1-.5,.1-1v-2.7c0-.5,0-.9-.1-1,0,0,0,0,0,0h1.2c0,0,0,0,0,0,0,.1-.2,.5-.2,1v2.7Z"/>
          <path class="uuid-28e15cba-fa8e-4f94-8ef6-ce09d129b7ed" d="M222.2,231.4c.1,0,.2,0,.2,.1v.6s0,0-.1,0c-.2-.2-.6-.4-1-.4h-.9v1.9h.9c.3,0,.6-.2,.7-.2,0,0,0,0,0,0v.6s0,0,0,0c0,0-.4-.2-.7-.2h-.9v1.7c0,.2,0,.2,.2,.2h.7c.6,0,1-.4,1.2-.5,0,0,.1,0,.1,0l-.2,.7c0,.1-.1,.1-.2,.1h-3c0,0,0,0,0,0,0-.1,.1-.5,.1-1v-2.7c0-.5,0-.9-.1-1,0,0,0,0,0,0h2.9Z"/>
          <path class="uuid-28e15cba-fa8e-4f94-8ef6-ce09d129b7ed" d="M224.9,236.2c0,0,0,0,0,0,0-.1,.1-.5,.1-1v-2.7c0-.5,0-.9-.1-1,0,0,0,0,0,0h2.1c1.7,0,2.5,1,2.5,2.3s-.8,2.5-2.5,2.5h-2.1Zm1.1-.5c0,.1,0,.2,.2,.2h.7c1.1,0,1.6-1,1.6-2.2s-.4-2-1.6-2h-.9v4Z"/>
          <path class="uuid-28e15cba-fa8e-4f94-8ef6-ce09d129b7ed" d="M236,236.3c-.3,0-.5,0-.8-.2-.4-.2-.7-.6-1-.9-.2-.3-.4-.6-.6-.9-.2,0-.5,0-.7,0v1c0,.5,0,.9,.1,1,0,0,0,0,0,0h-1.1c0,0,0,0,0,0,0-.1,.1-.5,.1-1v-2.7c0-.5,0-.9-.1-1,0,0,0,0,0,0h1.9c.8,0,1.8,.2,1.8,1.3s-.7,1.1-1,1.3c.2,.3,.4,.6,.7,1,.5,.7,.9,1,1.2,1.2,0,0,0,0,0,0,0,0-.2,0-.3,0Zm-3.1-4.6v2.2c.1,0,.4,0,.6,0,.3,0,.5,0,.7-.2,.2-.2,.3-.5,.3-.9,0-.9-.5-1-.9-1h-.6Z"/>
          <path class="uuid-28e15cba-fa8e-4f94-8ef6-ce09d129b7ed" d="M238.8,236.2h-.8s0,0,0,0c.1-.1,.4-.5,.6-1.1l1.6-3.7h.5l1.4,3.6c.2,.5,.4,.9,.6,1.2,0,0,0,0,0,0h-1.1c0,0,0,0,0,0,0-.2-.1-.6-.3-1.2l-.2-.4h-1.7l-.2,.5c-.2,.6-.3,1-.2,1.1,0,0,0,0,0,0Zm1.4-3.8l-.8,1.8h1.4l-.7-1.8Z"/>
          <path class="uuid-28e15cba-fa8e-4f94-8ef6-ce09d129b7ed" d="M248,236.2c0,0,0,0,0,0,0-.1,.1-.5,.1-1v-2.7c0-.5,0-.9-.1-1,0,0,0,0,0,0h2.1c1.7,0,2.5,1,2.5,2.3s-.8,2.5-2.5,2.5h-2.1Zm1.1-.5c0,.1,0,.2,.2,.2h.7c1.1,0,1.6-1,1.6-2.2s-.4-2-1.6-2h-.9v4Z"/>
          <path class="uuid-28e15cba-fa8e-4f94-8ef6-ce09d129b7ed" d="M257.9,231.4c.1,0,.2,0,.2,.1v.6s0,0-.1,0c-.2-.2-.6-.4-1-.4h-.9v1.9h.9c.3,0,.6-.2,.7-.2,0,0,0,0,0,0v.6s0,0,0,0c0,0-.4-.2-.7-.2h-.9v1.7c0,.2,0,.2,.2,.2h.7c.6,0,1-.4,1.2-.5,0,0,.1,0,.1,0l-.2,.7c0,.1-.1,.1-.2,.1h-3c0,0,0,0,0,0,0-.1,.1-.5,.1-1v-2.7c0-.5,0-.9-.1-1,0,0,0,0,0,0h2.9Z"/>
          <path class="uuid-28e15cba-fa8e-4f94-8ef6-ce09d129b7ed" d="M260.6,236.2c0,0,0,0,0,0,0-.1,.1-.5,.1-1v-2.7c0-.5,0-.9-.1-1,0,0,0,0,0,0h1.2c0,0,0,0,0,0,0,.1-.1,.5-.1,1v3.2c0,.2,0,.2,.2,.2h.6c.6,0,1.1-.4,1.2-.6,0,0,.1,0,.1,0l-.2,.7c0,.1-.1,.1-.2,.1h-2.9Z"/>
          <path class="uuid-28e15cba-fa8e-4f94-8ef6-ce09d129b7ed" d="M219.9,244.3v-3.3c0,0,0-.1,0-.2,0-.1-.1-.2-.2-.2,0,0,0,0,0,0h1c.1,0,.1,0,.2,.1l1.7,3.6,1.5-3.4c.2-.3,.2-.4,.4-.4h.8s0,0,0,0c-.1,.2-.1,.6-.1,1.1v2.6c.1,.6,.2,.9,.3,1,0,0,0,0,0,0h-1.2c0,0,0,0,0,0,0-.1,.2-.4,.1-1v-2.9l-1.8,3.9c0,0-.4,0-.4,0l-1.7-3.8v2.8c0,.5,0,.9,0,1,0,0,0,0,0,0h-.6c0,0,0,0,0,0,0-.1,.2-.5,.2-1Z"/>
          <path class="uuid-28e15cba-fa8e-4f94-8ef6-ce09d129b7ed" d="M227.7,243c0-1.5,1.1-2.5,2.6-2.5s2.6,1,2.6,2.5-1.1,2.5-2.6,2.5-2.6-1-2.6-2.5Zm4.1,0c0-1.2-.4-2.2-1.5-2.2s-1.5,1-1.5,2.2,.4,2.2,1.5,2.2,1.5-1,1.5-2.2Z"/>
          <path class="uuid-28e15cba-fa8e-4f94-8ef6-ce09d129b7ed" d="M235.2,245.4c0,0,0,0,0,0,0-.1,.1-.5,.1-1v-2.7c0-.5,0-.9-.1-1,0,0,0,0,0,0h1.2c0,0,0,0,0,0,0,.1-.1,.5-.1,1v3.2c0,.2,0,.2,.2,.2h.6c.6,0,1.1-.4,1.2-.6,0,0,.1,0,.1,0l-.2,.7c0,.1-.1,.1-.2,.1h-2.9Z"/>
          <path class="uuid-28e15cba-fa8e-4f94-8ef6-ce09d129b7ed" d="M241.7,244.4c0,.5,0,.9,.2,1,0,0,0,0,0,0h-1.2c0,0,0,0,0,0,0-.1,.1-.5,.1-1v-2.7c0-.5,0-.9-.1-1,0,0,0,0,0,0h1.2c0,0,0,0,0,0,0,.1-.2,.5-.2,1v2.7Z"/>
          <path class="uuid-28e15cba-fa8e-4f94-8ef6-ce09d129b7ed" d="M244.7,241s0-.1-.2-.2c0,0-.2-.2-.2-.2,0,0,0,0,0,0h1c0,0,.1,0,.2,0l2.7,3.3v-2.4c0-.5-.1-.9-.2-1,0,0,0,0,0,0h.7s0,0,0,0c0,.1-.2,.5-.2,1v3.8c0,0-.4,0-.4,0l-3.2-3.9v2.8c0,.5,0,.9,.2,1,0,0,0,0,0,0h-.7s0,0,0,0c0-.1,.2-.4,.2-1v-3.3Z"/>
          <path class="uuid-28e15cba-fa8e-4f94-8ef6-ce09d129b7ed" d="M251.1,243c0-1.5,1.1-2.5,2.6-2.5s2.6,1,2.6,2.5-1.1,2.5-2.6,2.5-2.6-1-2.6-2.5Zm4.1,0c0-1.2-.4-2.2-1.5-2.2s-1.5,1-1.5,2.2,.4,2.2,1.5,2.2,1.5-1,1.5-2.2Z"/>
        </g>
        <g id="uuid-f2786600-aea7-44ef-999b-ba9530a1ac1c" data-name="Location">
          <g>
            <path class="uuid-28e15cba-fa8e-4f94-8ef6-ce09d129b7ed" d="M59.5,222.6c-.3,0-.6-.1-.8-.4l-7.5-10.2c-3-4.1-2.6-9.8,1-13.4,4-4,10.5-4,14.6,0,3.6,3.6,4.1,9.3,1,13.4l-2.8,3.8c-.3,.4-.9,.5-1.3,.2-.4-.3-.5-.9-.2-1.3l2.8-3.8c2.5-3.4,2.1-8-.8-10.9-3.3-3.3-8.6-3.3-11.9,0-3,3-3.3,7.6-.8,10.9l7.5,10.2c.3,.4,.2,1-.2,1.3-.2,.1-.4,.2-.6,.2Z"/>
            <path class="uuid-28e15cba-fa8e-4f94-8ef6-ce09d129b7ed" d="M62.1,219c-.2,0-.5-.1-.7-.3,0,0,0,0-.1-.1,0,0,0-.1,0-.2,0,0,0-.1,0-.2,0,0,0-.1,0-.2s0-.1,0-.2c0,0,0-.1,0-.2,0,0,0-.1,0-.2,0,0,0-.1,.1-.1,0,0,0,0,.1-.1,0,0,.1,0,.2,0,0,0,.1,0,.2,0,.1,0,.2,0,.4,0,0,0,.1,0,.2,0,0,0,.1,0,.2,0,0,0,.1,0,.1,.1,0,0,0,0,.1,.1,0,0,0,.1,0,.2,0,0,0,.1,0,.2,0,0,0,.1,0,.2s0,.1,0,.2c0,0,0,.1,0,.2,0,0,0,.1,0,.2,0,0,0,.1-.1,.1-.2,.2-.4,.3-.7,.3Z"/>
            <path class="uuid-28e15cba-fa8e-4f94-8ef6-ce09d129b7ed" d="M59.5,211.1c-1.4,0-2.7-.5-3.7-1.5-1-1-1.5-2.3-1.5-3.7s.6-2.7,1.5-3.7c1-1,2.3-1.5,3.7-1.5s2.7,.6,3.7,1.5c1,1,1.5,2.3,1.5,3.7s-.6,2.7-1.5,3.7c-1,1-2.4,1.5-3.7,1.5Zm0-8.7c-.9,0-1.8,.4-2.4,1-.6,.6-1,1.5-1,2.4s.4,1.8,1,2.4c1.3,1.3,3.5,1.3,4.8,0h0c.6-.6,1-1.5,1-2.4s-.4-1.8-1-2.4c-.6-.6-1.5-1-2.4-1Z"/>
          </g>
        </g>
        <circle class="uuid-205df085-1802-4aee-bd11-7f7b581a9730" cx="43.3" cy="398.8" r="43.3"/>
        <circle class="uuid-205df085-1802-4aee-bd11-7f7b581a9730" cx="43.3" cy="398.8" r="35"/>
        <circle class="uuid-205df085-1802-4aee-bd11-7f7b581a9730" cx="43.3" cy="398.8" r="24.6"/>
        <circle class="uuid-79502173-998c-478f-aba3-40ffe7209a4c" cx="43.3" cy="398.8" r="10.8"/>
      </g>
    </g>
  </g>
</svg>